<svg width="47" height="49" viewBox="0 0 47 49" fill="none" xmlns="http://www.w3.org/2000/svg">
<path d="M27.5316 28.1094L43.9485 23.151L27.246 22.891L31.861 11.3009L21.8102 20.7161L12.6202 12.0309L16.9955 24.1628C16.9955 24.1628 2.38113 29.3686 2.45722 29.0505C2.5333 28.7325 17.0953 27.896 17.241 28.5047C17.3834 29.1218 14.2139 40.886 14.2139 40.886L22.4202 31.8063L36.0233 40.0677L27.5316 28.1094Z" fill="#FFD100"/>
<path d="M40.4161 34.6857L43.8459 33.4657L40.3019 33.5823L41.1613 31.0775L39.1271 33.177L37.0894 31.43L38.1417 33.9572C38.1417 33.9572 35.0966 35.2112 35.1095 35.143C35.1224 35.0747 38.2012 34.7477 38.2384 34.8753C38.2749 35.0047 37.7238 37.5315 37.7238 37.5315L39.3704 35.5221L42.3394 37.1339L40.4161 34.6857Z" fill="#FFD100"/>
<path d="M24.9455 8.10431L30.3853 6.46133L24.8509 6.3752L26.3801 2.53479L23.0497 5.65453L20.0046 2.77666L21.4544 6.79659C21.4544 6.79659 16.6119 8.52157 16.6371 8.41617C16.6623 8.31078 21.4875 8.03362 21.5357 8.23531C21.5829 8.43977 20.5327 12.3379 20.5327 12.3379L23.2519 9.32931L27.7593 12.0667L24.9455 8.10431Z" fill="#10CFC9"/>
<g clip-path="url(#clip0_2001_2195)">
<path d="M40.8687 7.79669C40.6982 7.79669 40.5586 7.65713 40.5586 7.48656V5.42731C40.5586 5.25674 40.6982 5.11719 40.8687 5.11719C41.0393 5.11719 41.1788 5.25674 41.1788 5.42731V7.48656C41.1788 7.65713 41.0393 7.79669 40.8687 7.79669Z" fill="white"/>
<path d="M38.9461 8.6495C38.8685 8.6495 38.7879 8.61849 38.729 8.55956L37.2714 7.10197C37.1504 6.98102 37.1504 6.78564 37.2714 6.66469C37.3923 6.54374 37.5877 6.54374 37.7087 6.66469L39.1663 8.12228C39.2872 8.24323 39.2872 8.43861 39.1663 8.55956C39.1073 8.61849 39.0267 8.6495 38.9492 8.6495H38.9461Z" fill="white"/>
<path d="M38.1892 10.6124H36.13C35.9594 10.6124 35.8198 10.4729 35.8198 10.3023C35.8198 10.1317 35.9594 9.99219 36.13 9.99219H38.1892C38.3598 9.99219 38.4993 10.1317 38.4993 10.3023C38.4993 10.4729 38.3598 10.6124 38.1892 10.6124Z" fill="white"/>
<path d="M37.5844 13.9901C37.5069 13.9901 37.4262 13.9591 37.3673 13.9001C37.2464 13.7792 37.2464 13.5838 37.3673 13.4629L38.8249 12.0053C38.9459 11.8843 39.1413 11.8843 39.2622 12.0053C39.3831 12.1262 39.3831 12.3216 39.2622 12.4425L37.8046 13.9001C37.7457 13.9591 37.665 13.9901 37.5875 13.9901H37.5844Z" fill="white"/>
<path d="M41.0054 15.3514C40.8349 15.3514 40.6953 15.2118 40.6953 15.0412V12.982C40.6953 12.8114 40.8349 12.6719 41.0054 12.6719C41.176 12.6719 41.3156 12.8114 41.3156 12.982V15.0412C41.3156 15.2118 41.176 15.3514 41.0054 15.3514Z" fill="white"/>
<path d="M44.3855 13.8939C44.308 13.8939 44.2274 13.8629 44.1684 13.8039L42.7108 12.3464C42.5899 12.2254 42.5899 12.03 42.7108 11.9091C42.8318 11.7881 43.0272 11.7881 43.1481 11.9091L44.6057 13.3667C44.7267 13.4876 44.7267 13.683 44.6057 13.8039C44.5468 13.8629 44.4661 13.8939 44.3886 13.8939H44.3855Z" fill="white"/>
<path d="M45.7439 10.473H43.6846C43.5141 10.473 43.3745 10.3335 43.3745 10.1629C43.3745 9.99234 43.5141 9.85278 43.6846 9.85278H45.7439C45.9145 9.85278 46.054 9.99234 46.054 10.1629C46.054 10.3335 45.9145 10.473 45.7439 10.473Z" fill="white"/>
<path d="M42.832 8.55013C42.7544 8.55013 42.6738 8.51912 42.6149 8.4602C42.4939 8.33925 42.4939 8.14387 42.6149 8.02292L44.0725 6.56532C44.1934 6.44437 44.3888 6.44437 44.5098 6.56532C44.6307 6.68627 44.6307 6.88165 44.5098 7.0026L43.0522 8.4602C42.9932 8.51912 42.9126 8.55013 42.8351 8.55013H42.832Z" fill="white"/>
</g>
<path d="M5.9256 18.7914L3.81027 18.3397L5.63946 19.3852L4.42409 20.3845L6.10752 19.9564L6.59394 21.4753L6.8492 19.8688C6.8492 19.8688 8.78047 20.1834 8.75271 20.2139C8.72494 20.2444 7.06544 19.4503 7.0864 19.3742C7.10824 19.2974 8.17454 18.1908 8.17454 18.1908L6.7153 18.6942L5.71558 16.9535L5.9256 18.7914Z" fill="white"/>
<defs>
<clipPath id="clip0_2001_2195">
<rect width="10.2342" height="10.2342" fill="white" transform="translate(35.8198 5.11719)"/>
</clipPath>
</defs>
</svg>
