<svg width="33" height="24" viewBox="0 0 33 24" fill="none" xmlns="http://www.w3.org/2000/svg">
<path d="M20.6246 23.4188L23.441 9.92959L25.611 3.18496L25.2109 3.12251C24.585 4.99602 24.0002 6.43238 23.4564 7.43158C22.9126 8.42037 22.2867 9.13855 21.5788 9.58611C20.8811 10.0233 19.9936 10.2575 18.9163 10.2887L20.5168 2.6073C21.707 2.6073 22.7279 2.41474 23.5795 2.02963C24.4311 1.64452 25.057 0.967979 25.4571 0H32.9676L28.0735 23.4188H20.6246Z" fill="white"/>
<path d="M5.74387 16.7479H-0.00012207L0.671782 13.1564H6.41577L7.75958 7.10486H11.1966L9.85275 13.1564H15.6124L14.9405 16.7479H9.18085L7.83704 22.7174H4.40006L5.74387 16.7479Z" fill="white"/>
</svg>
