<svg width="125" height="61" viewBox="0 0 125 61" fill="none" xmlns="http://www.w3.org/2000/svg">
<path d="M68.0573 48.981C68.263 49.0134 68.4673 48.9149 68.57 48.7337C68.8686 48.2072 68.9016 47.7056 68.7587 47.2181C68.6273 46.7698 68.3486 46.3456 68.0805 45.9493C68.0522 45.9073 68.0235 45.8651 67.9947 45.8227C67.4596 45.0344 66.8648 44.1583 66.6748 42.8436C66.6718 42.8234 66.6677 42.8034 66.6623 42.7836C66.0475 40.5289 65.4309 38.275 64.8126 36.0221C64.6945 35.415 64.51 34.8202 64.325 34.2522C64.2927 34.1529 64.2604 34.0546 64.2284 33.9572C64.0724 33.4824 63.9231 33.028 63.806 32.5738C63.5263 31.4887 63.4587 30.5043 63.941 29.5326C64.0052 29.4033 64.0104 29.2526 63.9552 29.1192L63.4603 27.9227C63.4099 27.801 63.3136 27.704 63.1922 27.6529C62.8874 27.5247 62.4174 27.4129 61.9055 27.3301C61.3836 27.2456 60.7813 27.1853 60.1949 27.173C59.6137 27.1609 59.0221 27.1952 58.5332 27.313C58.0848 27.421 57.5396 27.6428 57.3348 28.1534C57.284 28.2802 57.2872 28.4223 57.3438 28.5466C57.3911 28.6506 57.4382 28.7541 57.4851 28.857C57.6682 29.2592 57.8477 29.6536 58.022 30.0398C57.354 31.9346 56.7547 33.8072 56.1608 35.6629C54.9256 39.5223 53.7139 43.3084 51.9562 47.068C51.8616 47.2704 51.9127 47.511 52.0815 47.6574L53.1692 48.601C53.2602 48.6799 53.3765 48.7233 53.4969 48.7233H57.4155C57.6724 48.7233 57.8875 48.5286 57.913 48.2729C57.969 47.7109 57.984 47.1153 57.9988 46.5319C57.9998 46.4901 58.0009 46.4483 58.002 46.4066C58.0182 45.7752 58.0374 45.1565 58.1059 44.5619C58.2355 43.4373 58.5337 42.4736 59.2473 41.7648C59.4732 41.7613 59.6957 41.7555 59.9159 41.7498C60.7289 41.7287 61.5119 41.7083 62.3259 41.8041C62.6869 43.2121 62.9837 44.4812 62.9219 45.7347L61.8433 46.8085C61.656 46.995 61.6462 47.295 61.8209 47.4934C62.7488 48.5464 63.8463 48.8188 64.9322 48.8829C65.3417 48.9071 65.7662 48.9022 66.1756 48.8975C66.2942 48.8961 66.4115 48.8948 66.5269 48.8941C67.053 48.8913 67.5598 48.9026 68.0573 48.981ZM55.7312 46.4338L55.8271 46.5758H53.8808C55.0894 44.2696 55.9161 41.7934 56.6764 39.3243C56.8154 38.8729 56.9521 38.422 57.0885 37.9724C57.7342 35.8429 58.3717 33.7407 59.2063 31.733L59.3765 31.8074C59.2616 31.8988 59.1497 32.0166 59.0641 32.172C58.9776 32.3288 58.93 32.502 58.9175 32.6891C58.9141 32.6995 58.911 32.7101 58.9082 32.7209C58.8641 32.892 58.9138 33.0738 59.0387 33.1988L59.0632 33.2233C59.1021 33.2623 59.1463 33.2938 59.1938 33.3174C58.9797 33.9894 58.7694 34.6484 58.56 35.3042C58.2829 36.1724 58.0075 37.0351 57.7276 37.915C57.6583 38.133 57.7457 38.3702 57.9398 38.4911C58.5812 38.8903 59.2766 39.0262 59.9577 39.0749C60.2977 39.0992 60.6435 39.1022 60.9817 39.1024C61.0439 39.1024 61.1057 39.1023 61.1673 39.1023C61.3059 39.1021 61.4433 39.1019 61.5805 39.1029L61.6099 39.2958C61.6044 39.3413 61.6052 39.3874 61.6123 39.4326C60.9971 39.5809 60.5112 39.5649 60.1089 39.5098C59.909 39.4824 59.742 39.4481 59.5717 39.413C59.4845 39.3951 59.3964 39.377 59.3025 39.3595C59.053 39.3131 58.7586 39.2711 58.4615 39.3317C57.7943 39.4677 57.3848 40.0424 57.0129 40.9956C56.6305 41.9757 56.215 43.5545 55.6576 46.0447C55.6275 46.179 55.6542 46.3198 55.7312 46.4338ZM64.8974 43.2729C65.2194 44.4755 65.6528 45.6435 66.3986 46.7171C66.0671 46.6791 65.7341 46.6546 65.4003 46.6438L65.198 46.3894C65.0882 46.2512 64.9136 46.1812 64.7388 46.2052C64.5639 46.2291 64.4147 46.3435 64.346 46.506L64.2683 46.69H64.1248L64.6393 46.1107C64.7355 46.0024 64.78 45.8578 64.7613 45.7142C64.7313 45.4833 64.7032 45.2667 64.6765 45.0603C64.6169 44.6005 64.5639 44.1916 64.5108 43.7899C64.5261 43.6767 64.5024 43.5602 64.4412 43.4608C64.1905 42.8124 64.0738 42.1118 63.9646 41.3577C63.9541 41.2856 63.9437 41.2129 63.9333 41.1396C63.8329 40.437 63.7258 39.6872 63.4958 38.976C63.4831 38.937 63.4658 38.8996 63.444 38.8649C63.0738 38.2725 63.0115 37.6379 63.0115 36.8565C63.0115 36.836 63.0103 36.8156 63.0078 36.7953C62.9205 36.0866 62.7061 35.4176 62.4785 34.7897C62.4095 34.5993 62.3402 34.415 62.2723 34.2342C62.1688 33.9587 62.0684 33.6915 61.9767 33.4236L62.1165 33.3767C62.1479 33.3743 62.1789 33.369 62.2092 33.3609C63.1334 36.6573 64.0158 39.964 64.8973 43.2723L64.8974 43.2729ZM60.2447 37.417C60.3245 36.7602 60.5083 36.1097 60.7617 35.3892C60.8298 35.5954 60.8837 35.8019 60.93 36.0097C60.9817 36.2418 61.0228 36.4695 61.0653 36.7045C61.074 36.753 61.0829 36.8019 61.0919 36.8511C61.1225 37.0189 61.1548 37.1903 61.1925 37.3627C60.9794 37.4994 60.9115 37.5251 60.8371 37.5322C60.7866 37.537 60.7063 37.5332 60.5429 37.4957C60.458 37.4762 60.361 37.4502 60.2447 37.417Z" fill="#F5DEA6" stroke="#F5DEA6" stroke-linejoin="round"/>
<path d="M27.1364 30.4244C26.8778 30.4954 26.7213 30.7578 26.7816 31.019C27.4983 34.1219 28.1043 36.9825 28.5802 40.092L28.5801 40.092L28.5818 40.1016C28.6846 40.6957 28.7892 41.2874 28.8936 41.8778C29.1415 43.2792 29.3881 44.6732 29.6055 46.0755L29.6056 46.0756C29.7241 46.8392 29.649 47.228 29.4847 47.4668C29.3175 47.71 28.972 47.9238 28.2174 48.1105C28.1968 48.1156 28.1765 48.122 28.1566 48.1297C27.2637 48.4762 26.7174 48.4281 26.3668 48.2528C26.0063 48.0726 25.725 47.6955 25.503 47.1072C25.282 46.5217 25.1486 45.8052 25.0316 45.0487C25.0074 44.8922 24.9838 44.7331 24.9602 44.5735C24.8737 43.9908 24.7862 43.4005 24.6633 42.8974C24.5262 42.1502 24.3907 41.4006 24.255 40.6502C23.8951 38.6589 23.534 36.6615 23.1389 34.6863L23.1389 34.6862L23.1385 34.6842C23.0995 34.4934 23.0798 34.2879 23.0594 34.0514C23.058 34.0351 23.0566 34.0187 23.0552 34.0022C23.0368 33.787 23.0161 33.5458 22.9746 33.3086C22.8825 32.7818 22.6784 32.2153 22.1168 31.7688C22.0466 31.713 21.9627 31.6771 21.8739 31.6649C21.3199 31.5885 20.568 31.6784 19.868 31.8479C19.1645 32.0183 18.4323 32.2888 17.9246 32.6283C17.8136 32.7026 17.7369 32.8181 17.7116 32.9493C17.6863 33.0804 17.7145 33.2162 17.7899 33.3264C18.0909 33.7661 18.3587 34.4019 18.6014 35.2091C18.8425 36.0107 19.05 36.9506 19.2439 37.9793C19.4263 38.9466 19.5946 39.9815 19.7674 41.0437C19.7783 41.1107 19.7892 41.1778 19.8001 41.2449C19.984 42.3748 20.1739 43.5308 20.3902 44.6495C20.82 46.873 21.3639 49.0083 22.2094 50.5361C22.6344 51.3041 23.1536 51.9523 23.805 52.3746C24.4689 52.8049 25.2406 52.9806 26.116 52.8454C26.1316 52.843 26.1471 52.8399 26.1625 52.836C26.7123 52.6966 27.367 52.5957 28.0876 52.4845C28.2465 52.46 28.4087 52.435 28.5737 52.4089C29.4683 52.2678 30.4286 52.0986 31.2963 51.8145C32.1612 51.5315 32.985 51.1187 33.5672 50.4571C34.1653 49.7774 34.4665 48.8828 34.3639 47.7355L34.3641 47.7355L34.3628 47.7244C33.8661 43.2921 33.1309 38.8898 32.1603 34.5367C32.0707 33.9539 32.0151 33.4654 31.9645 33.0209C31.9311 32.7281 31.9 32.4544 31.8627 32.1855C31.7773 31.5694 31.6606 30.9811 31.3416 30.5607C30.98 30.0843 30.4423 29.914 29.7741 29.9244C29.1267 29.9345 28.2693 30.1132 27.1364 30.4244ZM23.7709 47.9329C23.8039 48.013 23.8391 48.092 23.8766 48.1696L23.2801 48.087C23.1715 48.0719 23.0627 48.0931 22.9694 48.1448C22.7997 47.7396 22.6633 47.3075 22.5486 46.8558C22.3581 46.106 22.236 45.3472 22.1135 44.5858C22.0525 44.2065 21.9913 43.8266 21.9216 43.4467C21.8158 42.0407 21.5108 40.6815 21.2155 39.3655C21.1998 39.2954 21.1841 39.2254 21.1684 39.1555C20.8674 37.8114 20.5872 36.5086 20.5135 35.1753C20.5502 35.0353 20.526 34.8808 20.435 34.755L19.4824 33.4382L21.0667 33.0459C21.3019 35.2952 21.7599 37.5117 22.2116 39.6972C22.4564 40.8819 22.6994 42.0576 22.904 43.2245C22.905 43.2304 22.9062 43.2364 22.9074 43.2424C23.027 43.8034 23.0982 44.3961 23.1719 45.01C23.1952 45.2044 23.2188 45.4009 23.2443 45.5992C23.3471 46.4 23.4806 47.2272 23.7709 47.9329ZM26.6173 50.7045C26.1942 50.7773 25.7937 50.8107 25.4143 50.7807C25.4206 50.7148 25.4139 50.6472 25.3931 50.5819C25.3928 50.5808 25.3924 50.5798 25.3921 50.5787V49.9147C25.3921 49.8012 25.3537 49.6935 25.2864 49.6072C25.303 49.6149 25.3198 49.6224 25.3368 49.6298C26.1105 49.9683 27.1114 50.0064 28.3974 49.7282C29.3096 49.6114 30.0933 49.2033 30.6226 48.5687C31.1592 47.9256 31.4089 47.0794 31.2919 46.1512C31.2907 46.1423 31.2894 46.1334 31.2878 46.1246C31.0151 44.6195 30.772 43.1049 30.5283 41.5866C30.3435 40.4351 30.1583 39.2816 29.9597 38.1285C30.1135 38.1331 30.2632 38.0663 30.3625 37.9441L30.8054 37.3994C31.4551 40.239 31.9687 42.7633 32.3757 45.6074L32.3784 45.6243C32.5965 46.8483 32.5615 47.8215 32.2207 48.5236C31.8989 49.1863 31.2572 49.7004 30.0182 49.9154C29.4416 49.9935 28.8515 50.1493 28.2879 50.3018C28.25 50.312 28.2123 50.3223 28.1746 50.3325C27.6377 50.478 27.1232 50.6174 26.6173 50.7045ZM29.5043 35.6378C29.2503 34.3376 28.9669 33.0405 28.6353 31.7503L29.7692 31.48C29.9834 32.832 30.1952 34.1789 30.4048 35.5206L29.5409 35.6317C29.5286 35.6333 29.5164 35.6354 29.5043 35.6378Z" fill="#F5DEA6" stroke="#F5DEA6" stroke-linejoin="round"/>
<path d="M74.2699 40.0544L73.4541 39.3583C73.5847 37.1203 73.7125 35.2031 73.8675 33.0141L74.2699 40.0544ZM74.2699 40.0544C74.7935 39.9685 75.3627 39.97 75.9346 39.9715C76.9317 39.974 77.9369 39.9766 78.7224 39.5162M74.2699 40.0544L78.7224 39.5162M78.7224 39.5162C78.7569 39.4978 78.791 39.4784 78.8248 39.4582C79.1737 39.2497 79.4696 38.9575 79.6925 38.565C79.6925 38.5649 79.6926 38.5648 79.6927 38.5646C79.75 38.4637 79.8024 38.3561 79.8497 38.2415C79.9224 38.0661 79.9921 37.8905 80.0586 37.7151C81.1428 35.3897 81.9499 32.1977 79.5319 30.3817L78.7224 39.5162ZM75.1937 38.8783C75.2014 39.0612 75.2138 39.2052 75.2306 39.3046L74.7598 39.3844C75.1027 39.3692 75.4726 39.3829 75.85 39.3969C76.7752 39.4312 77.7455 39.4672 78.4744 39.0819C78.7669 38.9087 79.0117 38.6598 79.2058 38.3027C79.2528 38.2147 79.2998 38.1249 79.3466 38.0333C79.3466 38.0333 79.3466 38.0333 79.3466 38.0333C79.4313 37.8675 79.5155 37.6962 79.5977 37.5203C81.0938 33.5624 80.8077 29.9545 75.3794 30.8631M75.1937 38.8783C75.4198 38.8805 75.6491 38.889 75.8722 38.8973C75.9363 38.8997 75.9998 38.9021 76.0626 38.9043C76.5152 38.9201 76.9421 38.9277 77.3347 38.8856C77.7264 38.8436 78.0521 38.7551 78.3117 38.5999C78.5614 38.4506 78.7746 38.2253 78.9255 37.8596L78.9258 37.859C79.3461 36.8438 79.651 35.8547 79.791 34.9623C79.9318 34.0646 79.8999 33.3012 79.6855 32.7127C79.4786 32.1449 79.095 31.7167 78.4571 31.4665C77.8502 31.2283 76.9841 31.1409 75.782 31.3072M75.1937 38.8783C75.0308 38.8767 74.8695 38.8785 74.7135 38.886C74.7069 38.8864 74.7003 38.8868 74.6937 38.8874C74.615 36.9782 75.0359 31.923 75.3794 30.8631M75.1937 38.8783C75.1811 38.5804 75.1809 38.1794 75.1936 37.7C75.2137 36.9435 75.2644 36.0362 75.3338 35.1291C75.4032 34.222 75.4909 33.3202 75.5844 32.5748C75.6521 32.0356 75.7203 31.6009 75.782 31.3072M75.782 31.3072C75.8076 31.1855 75.8321 31.088 75.8551 31.0172L75.3794 30.8631M75.782 31.3072C75.6779 31.3216 75.5712 31.3379 75.462 31.3562L75.3794 30.8631M72.0169 46.6786C72.0176 46.7075 72.0189 46.7364 72.0208 46.7652C71.8947 46.7864 71.7754 46.8112 71.6672 46.8337C71.6068 46.8463 71.5498 46.8581 71.4971 46.8681C71.3215 46.9017 71.1728 46.9222 71.0402 46.9237C71.7932 45.4556 72.0348 43.8687 72.1372 42.3054C72.1783 41.6777 72.1974 41.0414 72.2162 40.4164C72.2226 40.2042 72.2289 39.9933 72.2361 39.7845C72.2645 38.9531 72.3059 38.144 72.4106 37.3605C72.4129 37.3429 72.4143 37.3251 72.4148 37.3074C72.4403 36.3307 72.5937 35.3781 72.7527 34.3906C72.8346 33.8822 72.9179 33.3644 72.9861 32.8294C73.1526 31.5226 73.2145 30.1696 72.8474 28.8136C73.2566 28.8187 73.6629 28.8138 74.0593 28.809C74.3584 28.8054 74.6519 28.8019 74.9367 28.8028C75.1325 28.8033 75.3263 28.8059 75.5184 28.8116C75.4968 28.829 75.4754 28.847 75.4542 28.8658C74.9648 28.9816 74.5735 29.1938 74.2712 29.4925C73.947 29.813 73.7551 30.2035 73.6367 30.6019C73.5193 30.9967 73.4686 31.4178 73.4384 31.8167C73.4235 32.0137 73.4133 32.2119 73.4034 32.4019L73.4029 32.4124C73.3928 32.6078 73.383 32.7945 73.369 32.9754L73.3689 32.9754L73.3687 32.9787C73.2136 35.1692 73.0857 37.0885 72.955 39.3292C72.9459 39.4855 73.0105 39.637 73.1296 39.7387L73.9454 40.4348C74.0573 40.5303 74.2056 40.5716 74.3508 40.5478C74.7702 40.479 75.233 40.4708 75.7402 40.4711C75.8032 40.4711 75.8669 40.4713 75.9313 40.4715C76.3714 40.4727 76.8414 40.474 77.2925 40.4323C78.3479 40.3349 79.4279 39.99 80.0855 38.7783L80.0872 38.7752C80.7215 37.5869 81.4075 35.9908 81.5731 34.4035C81.7271 32.9266 81.4308 31.4049 80.1785 30.2678L80.3573 29.9632C80.4055 29.8812 80.4277 29.7907 80.4261 29.7017C80.7369 29.8374 80.9973 29.9946 81.2157 30.1679C81.7762 30.6128 82.1039 31.1987 82.2799 31.9171C82.4586 32.6469 82.4776 33.5014 82.4189 34.4558C82.3784 35.1139 82.3034 35.792 82.2259 36.4939C82.1913 36.8071 82.1562 37.1249 82.1233 37.4479C81.9215 38.4369 81.5033 39.1405 80.954 39.6544C80.3945 40.1777 79.6724 40.5289 78.8358 40.7626C77.3709 41.1718 75.6595 41.1976 74.0406 41.2221C73.7844 41.226 73.5305 41.2298 73.2803 41.2351C73.0347 41.2403 72.8292 41.4233 72.7957 41.6667C72.7372 42.0899 72.6974 42.558 72.6581 43.0207C72.6338 43.306 72.6097 43.5891 72.5816 43.8585C72.5053 44.5878 72.3954 45.2807 72.1747 45.8978C72.0652 46.1431 72.0113 46.4098 72.0169 46.6786ZM74.8519 48.7808C75.0453 48.6518 75.1243 48.4066 75.0426 48.1889L74.3743 46.4095C74.3922 45.3161 74.4447 44.6124 74.5553 44.1489C74.6636 43.6948 74.8053 43.5597 74.9503 43.4856C75.158 43.3796 75.4815 43.34 76.1038 43.3119C76.1858 43.3082 76.2716 43.3047 76.3611 43.301C76.9125 43.2783 77.6072 43.2497 78.4494 43.1397C81.1159 42.8462 83.7872 40.8321 84.0546 37.7702C84.0552 37.7634 84.0556 37.7566 84.0559 37.7498C84.0779 37.2754 84.1219 36.7859 84.1679 36.2743C84.1891 36.0385 84.2107 35.798 84.2308 35.5522C84.2933 34.7863 84.3387 33.9878 84.2925 33.2082C84.1999 31.6439 83.7332 30.0965 82.2499 28.9936C81.6656 28.5242 80.8453 28.1564 79.9415 27.8773C79.0257 27.5944 77.9884 27.3916 76.9485 27.2721C74.8938 27.0359 72.725 27.1133 71.429 27.618C71.1904 27.7109 71.0606 27.969 71.1281 28.2159C71.6818 30.2388 71.4232 32.3181 71.1528 34.4927C71.128 34.6923 71.1031 34.8927 71.0787 35.094L71.0785 35.094L71.0774 35.1059C70.9836 36.0722 70.9106 37.039 70.8379 38.0022C70.6043 41.0961 70.3734 44.1543 69.4663 47.0486C69.4257 47.1782 69.4396 47.3187 69.5047 47.4378C69.7863 47.9534 70.1312 48.3155 70.5252 48.5642C70.9151 48.8104 71.3271 48.9291 71.7187 48.9962C72.0101 49.0462 72.315 49.0706 72.5911 49.0926C72.6746 49.0993 72.7554 49.1057 72.8324 49.1126C73.1827 49.1439 73.4827 49.1853 73.7503 49.2779C73.898 49.3289 74.061 49.308 74.1911 49.2213L74.8519 48.7808Z" fill="#F5DEA6" stroke="#F5DEA6" stroke-linejoin="round"/>
<path d="M88.2571 33.5018C88.1031 33.4906 87.9616 33.4084 87.8757 33.2776C87.8275 33.2042 87.7892 33.1288 87.7583 33.0585C87.4233 34.673 87.2183 36.3174 87.0103 37.9852C86.9468 38.495 86.8829 39.007 86.815 39.5209C86.4997 41.9083 86.0979 44.3189 85.2137 46.6316C85.2274 46.6729 85.2412 46.7142 85.255 46.7556C85.3263 46.9692 85.3988 47.1862 85.4795 47.4297C85.7533 47.4644 86.027 47.4992 86.3007 47.5339C88.3393 47.7929 90.3751 48.0514 92.4109 48.2896C92.4328 48.2739 92.4548 48.2567 92.485 48.2332C92.4925 48.2274 92.5005 48.2211 92.5091 48.2144C92.5488 48.1837 92.6071 48.1386 92.6699 48.0999C92.7865 48.0278 92.9276 48.0067 93.0602 48.0417C93.122 48.058 93.1795 48.0858 93.2299 48.123C93.2789 48.039 93.3235 47.9614 93.3675 47.8771C93.4369 47.7441 93.4895 47.6215 93.5202 47.4964L88.2571 33.5018ZM88.2571 33.5018C88.194 33.7871 88.1444 34.0807 88.105 34.3732C87.9581 35.4645 87.9456 36.6078 87.9374 37.3588C87.9366 37.4304 87.9359 37.4984 87.935 37.5625C87.9327 37.7471 88.0323 37.918 88.194 38.007C88.9483 38.4219 89.8652 38.8328 90.8117 38.9541C91.7611 39.0757 92.7564 38.9059 93.6217 38.1574L88.2571 33.5018ZM91.5333 31.5728L95.7243 32.4496C95.641 32.3266 95.5613 32.2152 95.4778 32.1123C95.2098 31.7822 94.9236 31.5657 94.4233 31.4971L91.5333 31.5728ZM91.5333 31.5728C91.7882 31.5174 92.0448 31.4367 92.2964 31.3181C92.5219 31.243 92.8144 31.2407 93.1925 31.2904C93.3831 31.3155 93.5795 31.3513 93.7883 31.3898L93.8123 31.3942C94.0094 31.4306 94.2185 31.4692 94.4231 31.4971L91.5333 31.5728ZM96.8011 34.7027C96.9289 34.7293 97.062 34.7049 97.172 34.6347C97.4428 34.4619 97.6361 34.228 97.743 33.9487C97.8476 33.6755 97.8583 33.3888 97.8173 33.1183C97.737 32.588 97.4478 32.0467 97.0989 31.5831C96.7448 31.1126 96.2953 30.6773 95.8368 30.3632C95.417 30.0758 94.9066 29.833 94.4199 29.8579C93.3022 29.7302 92.2098 29.5244 91.0968 29.3148C90.5154 29.2053 89.9285 29.0948 89.3294 28.9937C88.4304 28.7271 87.6673 28.831 87.121 29.3304C86.6071 29.8002 86.3971 30.5241 86.3443 31.2478C86.0849 32.8199 85.8916 34.4145 85.6999 35.9962C85.5969 36.8459 85.4943 37.6919 85.3822 38.5287C85.0589 40.942 84.6525 43.3145 83.9223 45.6177C83.5545 46.5687 83.5164 47.4912 83.8893 48.2352C84.272 48.9988 85.0301 49.4611 86.0067 49.5842L86.0097 49.5845C86.7974 49.6789 87.5755 49.7991 88.3654 49.9211C88.8953 50.0029 89.4306 50.0856 89.9775 50.1618C91.3185 50.3487 92.6844 50.4892 94.0495 50.4471C94.2015 50.4424 94.3431 50.3689 94.4342 50.2472C94.8722 49.6629 95.2586 49.0371 95.3895 48.3462C95.5259 47.6259 95.3745 46.8946 94.8589 46.1321C94.7768 46.0106 94.6454 45.9313 94.4996 45.9152C94.1766 45.8796 93.6086 45.8779 92.9795 45.876L92.9402 45.8759C92.2772 45.8739 91.5145 45.8715 90.7827 45.8383C90.0454 45.8048 89.3687 45.7408 88.8714 45.6238C88.6209 45.5648 88.4464 45.4992 88.3391 45.4362C88.3348 45.4336 88.3307 45.4312 88.3268 45.4288C88.4177 45.0943 88.4678 44.7048 88.5094 44.3346C88.5219 44.2236 88.5337 44.1128 88.5455 44.0025C88.5865 43.6181 88.6268 43.24 88.6915 42.882C88.7756 42.4163 88.8894 42.0618 89.0462 41.8347C89.1749 41.6481 89.3254 41.5514 89.5718 41.5517C89.8549 41.596 90.1262 41.6326 90.3906 41.6684C90.8873 41.7355 91.3593 41.7992 91.8373 41.9036C92.5553 42.0603 93.2111 42.2968 93.8027 42.7329C93.9153 42.816 94.0575 42.848 94.1949 42.8213C94.3322 42.7946 94.4521 42.7115 94.5253 42.5923C94.9546 41.894 95.1737 41.1545 95.3208 40.4318C95.3943 40.0713 95.451 39.7082 95.5052 39.3561L95.5137 39.3013C95.5654 38.965 95.6156 38.6391 95.678 38.3165L95.6787 38.313C95.7685 37.8304 95.6995 37.3316 95.482 36.8915C95.2645 36.4514 94.9101 36.0936 94.4721 35.8719C94.3007 35.7851 94.0948 35.8042 93.9423 35.9209C93.8716 35.9751 93.8014 36.0291 93.7317 36.0827C93.006 36.641 92.3342 37.1578 91.6612 37.3676C91.3134 37.476 90.9925 37.4912 90.6807 37.393C90.4146 37.3091 90.119 37.131 89.8003 36.7925C89.8773 36.5171 89.9217 36.2396 89.9547 35.9746C89.9763 35.801 89.9917 35.6484 90.0066 35.5011C90.0256 35.3127 90.0437 35.1331 90.0728 34.9294C90.155 34.3531 90.2973 33.8537 90.6683 33.4261L96.8011 34.7027ZM88.94 31.7879L88.9332 31.7758C88.939 31.7748 88.9449 31.7737 88.9508 31.7728C88.9472 31.7778 88.9436 31.7828 88.94 31.7879ZM88.2547 45.3721C88.2547 45.372 88.2552 45.3727 88.256 45.3739C88.255 45.3727 88.2546 45.3721 88.2547 45.3721Z" fill="#F5DEA6" stroke="#F5DEA6" stroke-linejoin="round"/>
<path d="M85.2938 23.3499C85.2751 23.4414 85.2823 23.5363 85.3148 23.6238C85.9114 25.2342 87.582 25.5564 89.0753 25.5911C89.7749 25.6073 90.5051 25.5618 91.1758 25.5199C91.2452 25.5156 91.3141 25.5113 91.3822 25.5071C92.1255 25.4614 92.7665 25.4305 93.263 25.4837C93.2873 25.4863 93.3117 25.4871 93.3362 25.4861C94.0671 25.4569 94.6763 25.3023 95.1313 24.8928C95.5833 24.4862 95.7985 23.9034 95.9213 23.2203C95.9227 23.2123 95.9239 23.2043 95.925 23.1962C95.9333 23.1318 95.942 23.0651 95.951 22.9962C96.1596 21.3969 96.523 18.6107 96.3014 16.1473C96.186 14.8646 95.9081 13.6136 95.3257 12.6519C94.7278 11.6649 93.8082 10.9876 92.4858 10.9073C91.091 10.7995 89.9695 10.7163 89.0765 10.6777C88.1883 10.6394 87.4945 10.6434 86.9671 10.7206C86.4453 10.797 85.9935 10.9574 85.6962 11.3152C85.3986 11.6734 85.343 12.1252 85.3545 12.5628C85.3656 12.9839 85.4391 13.4796 85.5271 14.0734C85.8046 15.9452 86.2267 18.7916 85.2938 23.3499ZM87.1828 12.3602H87.9985C87.9624 12.3677 87.9262 12.3755 87.8897 12.3835C87.6905 12.4273 87.5379 12.5878 87.5041 12.789C87.5021 12.8007 87.5002 12.8124 87.4983 12.8241C87.4114 12.6967 87.3239 12.5679 87.2337 12.4351C87.2168 12.4103 87.1999 12.3854 87.1828 12.3602ZM87.3182 15.9498C87.351 15.5413 87.3841 15.1331 87.4174 14.7251C87.4185 14.7823 87.4197 14.8391 87.4208 14.8955C87.4256 15.1246 87.4302 15.3472 87.4299 15.5585C87.4297 15.6944 87.4276 15.8268 87.4229 15.9556L87.3182 15.9498ZM86.935 23.2225C87.0774 22.8199 87.2325 22.422 87.4001 22.0295C87.4349 22.3063 87.5054 22.5647 87.6488 22.7951C87.8122 23.0577 88.0423 23.2409 88.3156 23.3866C88.1704 23.3775 88.0295 23.3668 87.894 23.3546C87.5078 23.3199 87.1848 23.2743 86.935 23.2225ZM92.1663 21.6942C91.4258 21.8821 90.6892 21.9129 89.5076 21.7647C89.4158 20.0937 89.4311 18.4188 89.4469 16.6893C89.4536 15.9586 89.4603 15.2182 89.4591 14.4642L92.0733 14.4601C92.2296 14.8132 92.3634 15.2804 92.4647 15.8304C92.591 16.5154 92.6611 17.2957 92.6725 18.0785C92.6839 18.8613 92.6364 19.636 92.5318 20.3096C92.4428 20.8826 92.3166 21.3555 92.1663 21.6942Z" fill="#F5DEA6" stroke="#F5DEA6" stroke-linejoin="round"/>
<mask id="path-6-outside-1_12_237176" maskUnits="userSpaceOnUse" x="0.348022" y="33.8361" width="19" height="24" fill="black">
<rect fill="white" x="0.348022" y="33.8361" width="19" height="24"/>
<path d="M15.3798 43.2388C17.1964 45.3572 17.365 48.9168 18.2623 51.5681C19.2576 54.9075 10.4116 56.191 8.07568 56.7349L6.84382 55.9191C6.84382 51.2228 4.88045 46.8718 3.87429 42.3224C3.49903 40.4732 2.53366 38.9531 1.34802 37.539C2.20462 35.9074 8.45095 35.4724 10.4198 34.8741C14.836 34.3139 14.3247 40.0817 15.3798 43.2388ZM12.685 36.4133C12.4351 36.1797 12.2288 35.9034 12.0758 35.5974C11.8039 36.0054 11.6081 36.3181 11.4042 36.6335L11.2546 36.5819L11.4966 35.3744C8.18989 35.5838 5.17414 36.4241 2.10944 37.5037C2.7077 38.1808 3.19718 39.0755 3.95588 39.4507C4.88589 39.826 4.67922 40.8594 5.37809 41.2591L5.07624 42.4747C5.65275 42.9832 6.01986 43.2443 6.46039 43.7065L6.07696 44.1715C5.69625 43.9322 5.50046 43.7201 5.08168 43.7283L5.02186 43.6304C5.76424 44.5278 6.40329 45.591 6.3353 46.7957C6.06337 49.3845 7.29523 51.7938 8.10559 54.1379L9.28579 54.6818L9.22596 55.1604C10.9201 54.4561 15.4016 54.2004 16.2092 52.906C16.5816 52.7729 16.91 52.5395 17.1583 52.2317L16.9516 52.1311L16.7885 52.6749L16.2283 52.9469L15.5212 52.025L15.9346 50.9835C15.6436 50.4396 15.4669 49.9121 15.9591 49.4008L16.027 49.4933L15.9373 49.4253L15.8204 48.9086H15.1487V47.4946L15.1215 47.5191L15.4152 47.4919C15.5457 47.7937 15.6871 48.0982 15.9346 48.6938V47.4946L16.5084 48.3104C16.4649 48.7781 16.3887 49.2594 16.9489 49.6021C16.9989 49.3681 16.9818 49.1247 16.8995 48.9001C16.8172 48.6754 16.6732 48.4785 16.4839 48.3322C16.0515 46.3144 15.8503 44.1688 13.9794 42.9233C13.9032 42.1075 14.5396 41.3163 13.8624 40.5929L13.2859 40.737C12.016 39.2305 11.9943 39.1571 12.7013 38.3495C12.859 38.9069 12.995 39.3882 13.1418 39.9157L13.6857 39.8152C13.3458 38.6404 13.4899 37.3134 12.6822 36.4133H12.685ZM17.1257 51.4403L17.4574 51.3262L17.0332 49.9365L16.1358 50.5566L16.9217 50.6L17.1257 51.4403ZM7.49374 54.0944L7.30067 54.1651L7.4883 54.7579L7.72489 54.6791L7.49374 54.0944ZM4.4236 41.0851C4.38009 40.9627 4.40185 41.0225 4.4236 41.0851C4.4236 41.0198 4.41544 40.9681 4.42904 41.0851H4.4236ZM5.45152 44.9629C5.48415 45.0254 5.51406 45.0879 5.45152 44.9629V44.9629Z"/>
</mask>
<path d="M15.3798 43.2388C17.1964 45.3572 17.365 48.9168 18.2623 51.5681C19.2576 54.9075 10.4116 56.191 8.07568 56.7349L6.84382 55.9191C6.84382 51.2228 4.88045 46.8718 3.87429 42.3224C3.49903 40.4732 2.53366 38.9531 1.34802 37.539C2.20462 35.9074 8.45095 35.4724 10.4198 34.8741C14.836 34.3139 14.3247 40.0817 15.3798 43.2388ZM12.685 36.4133C12.4351 36.1797 12.2288 35.9034 12.0758 35.5974C11.8039 36.0054 11.6081 36.3181 11.4042 36.6335L11.2546 36.5819L11.4966 35.3744C8.18989 35.5838 5.17414 36.4241 2.10944 37.5037C2.7077 38.1808 3.19718 39.0755 3.95588 39.4507C4.88589 39.826 4.67922 40.8594 5.37809 41.2591L5.07624 42.4747C5.65275 42.9832 6.01986 43.2443 6.46039 43.7065L6.07696 44.1715C5.69625 43.9322 5.50046 43.7201 5.08168 43.7283L5.02186 43.6304C5.76424 44.5278 6.40329 45.591 6.3353 46.7957C6.06337 49.3845 7.29523 51.7938 8.10559 54.1379L9.28579 54.6818L9.22596 55.1604C10.9201 54.4561 15.4016 54.2004 16.2092 52.906C16.5816 52.7729 16.91 52.5395 17.1583 52.2317L16.9516 52.1311L16.7885 52.6749L16.2283 52.9469L15.5212 52.025L15.9346 50.9835C15.6436 50.4396 15.4669 49.9121 15.9591 49.4008L16.027 49.4933L15.9373 49.4253L15.8204 48.9086H15.1487V47.4946L15.1215 47.5191L15.4152 47.4919C15.5457 47.7937 15.6871 48.0982 15.9346 48.6938V47.4946L16.5084 48.3104C16.4649 48.7781 16.3887 49.2594 16.9489 49.6021C16.9989 49.3681 16.9818 49.1247 16.8995 48.9001C16.8172 48.6754 16.6732 48.4785 16.4839 48.3322C16.0515 46.3144 15.8503 44.1688 13.9794 42.9233C13.9032 42.1075 14.5396 41.3163 13.8624 40.5929L13.2859 40.737C12.016 39.2305 11.9943 39.1571 12.7013 38.3495C12.859 38.9069 12.995 39.3882 13.1418 39.9157L13.6857 39.8152C13.3458 38.6404 13.4899 37.3134 12.6822 36.4133H12.685ZM17.1257 51.4403L17.4574 51.3262L17.0332 49.9365L16.1358 50.5566L16.9217 50.6L17.1257 51.4403ZM7.49374 54.0944L7.30067 54.1651L7.4883 54.7579L7.72489 54.6791L7.49374 54.0944ZM4.4236 41.0851C4.38009 40.9627 4.40185 41.0225 4.4236 41.0851C4.4236 41.0198 4.41544 40.9681 4.42904 41.0851H4.4236ZM5.45152 44.9629C5.48415 45.0254 5.51406 45.0879 5.45152 44.9629V44.9629Z" fill="#F5DEA6"/>
<path d="M15.3798 43.2388L14.4314 43.5558C14.4723 43.6783 14.5366 43.7917 14.6207 43.8898L15.3798 43.2388ZM18.2623 51.5681L19.2207 51.2825C19.2172 51.2708 19.2135 51.2591 19.2096 51.2476L18.2623 51.5681ZM8.07568 56.7349L7.52353 57.5686C7.75284 57.7205 8.03457 57.7712 8.30244 57.7088L8.07568 56.7349ZM6.84382 55.9191H5.84382C5.84382 56.2545 6.012 56.5676 6.29167 56.7528L6.84382 55.9191ZM3.87429 42.3224L2.89427 42.5213C2.89543 42.527 2.89663 42.5326 2.89789 42.5383L3.87429 42.3224ZM1.34802 37.539L0.462625 37.0742C0.274091 37.4333 0.321143 37.8707 0.581737 38.1815L1.34802 37.539ZM10.4198 34.8741L10.2939 33.8821C10.2381 33.8892 10.1829 33.901 10.129 33.9173L10.4198 34.8741ZM12.685 36.4133V37.4133C13.0956 37.4133 13.4644 37.1623 13.6152 36.7803C13.7659 36.3984 13.6678 35.9631 13.3679 35.6827L12.685 36.4133ZM12.0758 35.5974L12.9703 35.1502C12.8108 34.8314 12.4937 34.6215 12.138 34.5994C11.7822 34.5772 11.4415 34.7461 11.2438 35.0427L12.0758 35.5974ZM11.4042 36.6335L11.0777 37.5788C11.5127 37.729 11.9941 37.5629 12.2439 37.1765L11.4042 36.6335ZM11.2546 36.5819L10.2741 36.3854C10.1758 36.876 10.4552 37.3638 10.9282 37.5271L11.2546 36.5819ZM11.4966 35.3744L12.4771 35.571C12.5382 35.2663 12.4541 34.9505 12.2497 34.7165C12.0452 34.4825 11.7436 34.3568 11.4334 34.3764L11.4966 35.3744ZM2.10944 37.5037L1.77719 36.5605C1.46347 36.671 1.22524 36.9303 1.14158 37.2522C1.05793 37.5741 1.13981 37.9166 1.36004 38.1658L2.10944 37.5037ZM3.95588 39.4507L3.51252 40.3471C3.53518 40.3583 3.55825 40.3686 3.58168 40.3781L3.95588 39.4507ZM5.37809 41.2591L6.34862 41.5001C6.45641 41.0661 6.26284 40.6132 5.87459 40.3911L5.37809 41.2591ZM5.07624 42.4747L4.10572 42.2337C4.0158 42.5958 4.13494 42.9778 4.41474 43.2246L5.07624 42.4747ZM6.46039 43.7065L7.23192 44.3427C7.55384 43.9523 7.5334 43.383 7.18432 43.0167L6.46039 43.7065ZM6.07696 44.1715L5.54479 45.0182C5.97047 45.2858 6.52862 45.1957 6.84849 44.8077L6.07696 44.1715ZM5.08168 43.7283L4.22849 44.2499C4.41379 44.553 4.74598 44.735 5.10116 44.7281L5.08168 43.7283ZM5.02186 43.6304L5.79237 42.993C5.45793 42.5887 4.86792 42.5117 4.44088 42.8165C4.01383 43.1213 3.895 43.7043 4.16867 44.152L5.02186 43.6304ZM6.3353 46.7957L7.32983 46.9002C7.33151 46.8841 7.33281 46.8681 7.33371 46.852L6.3353 46.7957ZM8.10559 54.1379L7.16048 54.4646C7.24948 54.7221 7.43966 54.9321 7.68707 55.0461L8.10559 54.1379ZM9.28579 54.6818L10.2781 54.8058C10.3321 54.3735 10.1 53.9559 9.70431 53.7736L9.28579 54.6818ZM9.22596 55.1604L8.23368 55.0364C8.18949 55.3899 8.33677 55.7403 8.62031 55.9561C8.90386 56.1719 9.28081 56.2206 9.60984 56.0838L9.22596 55.1604ZM16.2092 52.906L15.8725 51.9644C15.6604 52.0403 15.4801 52.1855 15.3608 52.3767L16.2092 52.906ZM17.1583 52.2317L17.9367 52.8593C18.1279 52.6223 18.2006 52.311 18.1343 52.0138C18.0679 51.7165 17.8697 51.4658 17.5959 51.3325L17.1583 52.2317ZM16.9516 52.1311L17.3892 51.2319C17.1255 51.1035 16.8187 51.0975 16.5501 51.2152C16.2814 51.333 16.0781 51.5628 15.9938 51.8437L16.9516 52.1311ZM16.7885 52.6749L17.2252 53.5745C17.4769 53.4524 17.6659 53.2303 17.7463 52.9623L16.7885 52.6749ZM16.2283 52.9469L15.4348 53.5554C15.7237 53.9322 16.2378 54.0538 16.665 53.8465L16.2283 52.9469ZM15.5212 52.025L14.5918 51.6561C14.462 51.9831 14.5136 52.3543 14.7277 52.6335L15.5212 52.025ZM15.9346 50.9835L16.8641 51.3524C16.9726 51.0788 16.9552 50.7713 16.8163 50.5118L15.9346 50.9835ZM15.9591 49.4008L16.7648 48.8085C16.5901 48.571 16.3195 48.4226 16.0253 48.403C15.731 48.3835 15.4432 48.4948 15.2387 48.7073L15.9591 49.4008ZM16.027 49.4933L15.4232 50.2904C15.8191 50.5904 16.3753 50.5542 16.729 50.2055C17.0828 49.8568 17.127 49.3013 16.8328 48.901L16.027 49.4933ZM15.9373 49.4253L14.962 49.6461C15.014 49.876 15.1456 50.0801 15.3334 50.2224L15.9373 49.4253ZM15.8204 48.9086L16.7957 48.6879C16.6926 48.2322 16.2876 47.9086 15.8204 47.9086V48.9086ZM15.1487 48.9086H14.1487C14.1487 49.4609 14.5964 49.9086 15.1487 49.9086V48.9086ZM15.1487 47.4946H16.1487C16.1487 47.0996 15.9162 46.7416 15.5553 46.581C15.1944 46.4204 14.7728 46.4872 14.4793 46.7516L15.1487 47.4946ZM15.1215 47.5191L14.4521 46.7761C14.132 47.0646 14.0326 47.5256 14.2055 47.9203C14.3784 48.315 14.7847 48.5546 15.2138 48.5148L15.1215 47.5191ZM15.4152 47.4919L16.333 47.0949C16.1613 46.6978 15.7537 46.4562 15.3229 46.4961L15.4152 47.4919ZM15.9346 48.6938L15.0111 49.0775C15.1941 49.5179 15.6626 49.7678 16.1302 49.6745C16.5979 49.5812 16.9346 49.1706 16.9346 48.6938H15.9346ZM15.9346 47.4946L16.7525 46.9193C16.5017 46.5626 16.0486 46.4096 15.6329 46.5412C15.2171 46.6727 14.9346 47.0585 14.9346 47.4946H15.9346ZM16.5084 48.3104L17.5041 48.403C17.5261 48.1663 17.4631 47.9295 17.3263 47.7351L16.5084 48.3104ZM16.9489 49.6021L16.4271 50.4551C16.7038 50.6244 17.0455 50.6489 17.3435 50.5209C17.6416 50.3929 17.859 50.1282 17.9268 49.811L16.9489 49.6021ZM16.4839 48.3322L15.5061 48.5417C15.5556 48.7727 15.6853 48.9787 15.8721 49.1232L16.4839 48.3322ZM13.9794 42.9233L12.9837 43.0163C13.0118 43.3168 13.174 43.5885 13.4252 43.7558L13.9794 42.9233ZM13.8624 40.5929L14.5925 39.9095C14.3444 39.6445 13.9722 39.5347 13.62 39.6227L13.8624 40.5929ZM13.2859 40.737L12.5214 41.3815C12.7674 41.6733 13.1581 41.7997 13.5284 41.7071L13.2859 40.737ZM12.7013 38.3495L13.6635 38.0772C13.5637 37.7244 13.2788 37.4545 12.9211 37.3739C12.5635 37.2933 12.1904 37.4149 11.9489 37.6908L12.7013 38.3495ZM13.1418 39.9157L12.1784 40.1839C12.3173 40.6829 12.8143 40.9933 13.3237 40.8991L13.1418 39.9157ZM13.6857 39.8152L13.8675 40.7985C14.1452 40.7471 14.3882 40.5808 14.5366 40.3405C14.6849 40.1002 14.7248 39.8085 14.6463 39.5372L13.6857 39.8152ZM12.6822 36.4133V35.4133C12.2876 35.4133 11.9299 35.6453 11.7691 36.0057C11.6082 36.3661 11.6744 36.7874 11.9379 37.0811L12.6822 36.4133ZM17.1257 51.4403L16.1539 51.6762C16.2202 51.9497 16.3988 52.1826 16.6457 52.3176C16.8926 52.4527 17.185 52.4775 17.4511 52.3859L17.1257 51.4403ZM17.4574 51.3262L17.7829 52.2717C18.2921 52.0964 18.5711 51.5493 18.4138 51.0342L17.4574 51.3262ZM17.0332 49.9365L17.9896 49.6446C17.8965 49.3394 17.6633 49.097 17.3619 48.9921C17.0606 48.8872 16.7273 48.9324 16.4648 49.1138L17.0332 49.9365ZM16.1358 50.5566L15.5674 49.7338C15.2157 49.9768 15.0574 50.4164 15.1733 50.8278C15.2892 51.2392 15.6538 51.5314 16.0806 51.555L16.1358 50.5566ZM16.9217 50.6L17.8935 50.3642C17.7895 49.9357 17.4172 49.6259 16.977 49.6016L16.9217 50.6ZM7.49374 54.0944L8.42369 53.7268C8.22428 53.2224 7.65915 52.9689 7.14987 53.1554L7.49374 54.0944ZM7.30067 54.1651L6.95679 53.2261C6.45443 53.4101 6.18584 53.9569 6.34728 54.4669L7.30067 54.1651ZM7.4883 54.7579L6.53492 55.0597C6.61575 55.3151 6.79565 55.5273 7.03432 55.6489C7.27298 55.7705 7.55045 55.7913 7.80456 55.7066L7.4883 54.7579ZM7.72489 54.6791L8.04115 55.6277C8.30176 55.5408 8.51515 55.3506 8.63123 55.1016C8.74731 54.8526 8.75585 54.5669 8.65484 54.3114L7.72489 54.6791ZM4.4236 41.0851L3.48139 41.4201C3.62314 41.8188 4.00047 42.0851 4.4236 42.0851V41.0851ZM4.42904 41.0851V42.0851C4.71437 42.0851 4.98611 41.9632 5.17587 41.7501C5.36562 41.537 5.4553 41.253 5.42235 40.9696L4.42904 41.0851ZM5.45152 44.9629L6.3381 44.5003C6.08419 44.0136 5.48544 43.8226 4.99661 44.0723C4.50777 44.322 4.3116 44.9191 4.55709 45.4101L5.45152 44.9629ZM14.6207 43.8898C15.3708 44.7645 15.8224 45.9919 16.1972 47.4522C16.5469 48.8151 16.8539 50.5259 17.3151 51.8887L19.2096 51.2476C18.7734 49.959 18.5474 48.5643 18.1344 46.955C17.7464 45.4431 17.2054 43.8315 16.139 42.5879L14.6207 43.8898ZM17.304 51.8538C17.3935 52.1542 17.3398 52.4771 16.7829 52.9362C16.2005 53.4164 15.2555 53.8602 14.0972 54.2527C11.7775 55.0389 9.11989 55.465 7.84892 55.7609L8.30244 57.7088C9.36738 57.4609 12.3007 56.9733 14.7392 56.1469C15.9601 55.7332 17.1859 55.196 18.0552 54.4793C18.95 53.7416 19.6288 52.6518 19.2207 51.2825L17.304 51.8538ZM8.62783 55.9012L7.39597 55.0854L6.29167 56.7528L7.52353 57.5686L8.62783 55.9012ZM7.84382 55.9191C7.84382 53.4361 7.32482 51.0718 6.70061 48.8007C6.06343 46.4824 5.34768 44.3536 4.8507 42.1064L2.89789 42.5383C3.40707 44.8406 4.17608 47.1621 4.77212 49.3307C5.38113 51.5465 5.84382 53.7058 5.84382 55.9191H7.84382ZM4.85432 42.1235C4.43208 40.0429 3.3512 38.3717 2.11431 36.8965L0.581737 38.1815C1.71612 39.5345 2.56597 40.9035 2.89427 42.5213L4.85432 42.1235ZM2.23342 38.0039C2.23227 38.0061 2.27291 37.9345 2.45349 37.8155C2.62721 37.7009 2.87581 37.5782 3.20475 37.4534C3.86389 37.2033 4.72252 36.99 5.66516 36.7992C6.60357 36.6093 7.57342 36.4515 8.46142 36.299C9.31993 36.1516 10.1464 36.0023 10.7105 35.8309L10.129 33.9173C9.70872 34.045 9.01608 34.1745 8.12291 34.3279C7.25922 34.4762 6.2448 34.6414 5.26846 34.8389C4.29634 35.0357 3.30973 35.2744 2.49523 35.5835C2.08736 35.7382 1.69205 35.9219 1.35252 36.1458C1.01986 36.3651 0.677921 36.6641 0.462625 37.0742L2.23342 38.0039ZM10.5456 35.8662C11.4153 35.7559 11.9135 35.9607 12.2543 36.2563C12.6386 36.5895 12.9502 37.149 13.2064 37.9627C13.4606 38.7705 13.6233 39.7006 13.7955 40.6922C13.9613 41.6475 14.1389 42.6806 14.4314 43.5558L16.3283 42.9219C16.0932 42.2185 15.939 41.3467 15.766 40.3501C15.5993 39.3898 15.4159 38.321 15.1141 37.3622C14.8141 36.4094 14.3596 35.4347 13.5646 34.7453C12.7263 34.0184 11.6323 33.7123 10.2939 33.8821L10.5456 35.8662ZM13.3679 35.6827C13.2048 35.5303 13.0701 35.3499 12.9703 35.1502L11.1814 36.0447C11.3875 36.4569 11.6654 36.829 12.0021 37.1438L13.3679 35.6827ZM11.2438 35.0427C10.967 35.458 10.7595 35.7889 10.5644 36.0906L12.2439 37.1765C12.4568 36.8473 12.6408 36.5527 12.9079 36.1521L11.2438 35.0427ZM11.7306 35.6883L11.581 35.6367L10.9282 37.5271L11.0777 37.5788L11.7306 35.6883ZM12.2351 36.7784L12.4771 35.571L10.5161 35.1779L10.2741 36.3854L12.2351 36.7784ZM11.4334 34.3764C7.99482 34.5942 4.88012 35.4675 1.77719 36.5605L2.44169 38.4469C5.46816 37.3808 8.38497 36.5735 11.5598 36.3724L11.4334 34.3764ZM1.36004 38.1658C1.48475 38.307 1.60938 38.4659 1.75019 38.6495C1.88461 38.8247 2.04015 39.031 2.19999 39.2254C2.51513 39.6088 2.93726 40.0625 3.51252 40.3471L4.39923 38.5544C4.2158 38.4637 4.01383 38.2824 3.74499 37.9554C3.61284 37.7946 3.48643 37.6269 3.3371 37.4322C3.19416 37.2459 3.03326 37.039 2.85884 36.8416L1.36004 38.1658ZM3.58168 40.3781C3.65504 40.4077 3.70085 40.4272 3.83424 40.739C3.9322 40.968 4.17511 41.7231 4.88159 42.1272L5.87459 40.3911C5.8822 40.3955 5.87901 40.4339 5.67309 39.9525C5.50259 39.5539 5.18672 38.8691 4.33007 38.5234L3.58168 40.3781ZM4.40757 41.0181L4.10572 42.2337L6.04677 42.7157L6.34862 41.5001L4.40757 41.0181ZM4.41474 43.2246C5.07164 43.8041 5.33278 43.9728 5.73645 44.3964L7.18432 43.0167C6.70694 42.5157 6.23385 42.1623 5.73775 41.7247L4.41474 43.2246ZM5.68886 43.0704L5.30543 43.5354L6.84849 44.8077L7.23192 44.3427L5.68886 43.0704ZM6.60913 43.3249C6.44039 43.2188 5.87106 42.7127 5.06221 42.7284L5.10116 44.7281C5.11662 44.7278 5.11267 44.7294 5.09947 44.7258C5.08783 44.7227 5.08874 44.7207 5.11149 44.7332C5.1403 44.7491 5.17899 44.7737 5.25687 44.8267C5.32586 44.8737 5.42976 44.9459 5.54479 45.0182L6.60913 43.3249ZM5.93488 43.2067L5.87505 43.1088L4.16867 44.152L4.22849 44.2499L5.93488 43.2067ZM4.25135 44.2678C4.95337 45.1164 5.38276 45.9266 5.33689 46.7393L7.33371 46.852C7.42381 45.2555 6.57511 43.9391 5.79237 42.993L4.25135 44.2678ZM5.34077 46.6912C5.18496 48.1745 5.46414 49.5707 5.85885 50.8528C6.05628 51.4941 6.28717 52.1205 6.51343 52.7193C6.74301 53.3269 6.96398 53.8963 7.16048 54.4646L9.05071 53.8112C8.84202 53.2075 8.60512 52.5967 8.38432 52.0124C8.16018 51.4192 7.94816 50.842 7.77032 50.2643C7.41449 49.1085 7.2137 48.0057 7.32983 46.9002L5.34077 46.6912ZM7.68707 55.0461L8.86726 55.59L9.70431 53.7736L8.52412 53.2297L7.68707 55.0461ZM8.29351 54.5577L8.23368 55.0364L10.2182 55.2844L10.2781 54.8058L8.29351 54.5577ZM9.60984 56.0838C9.93836 55.9472 10.4529 55.8149 11.127 55.671C11.7245 55.5435 12.5818 55.3807 13.2639 55.2314C13.9908 55.0722 14.7417 54.8838 15.3768 54.6378C15.9638 54.4104 16.671 54.0551 17.0576 53.4354L15.3608 52.3767C15.3629 52.3734 15.3309 52.4232 15.2012 52.5076C15.0752 52.5896 14.8954 52.6795 14.6544 52.7728C14.1692 52.9608 13.5424 53.123 12.8362 53.2776C12.0852 53.4421 11.4539 53.5562 10.7095 53.7151C10.0416 53.8576 9.36064 54.0214 8.84208 54.237L9.60984 56.0838ZM16.5459 53.8477C17.0917 53.6525 17.5729 53.3105 17.9367 52.8593L16.3798 51.604C16.2471 51.7685 16.0716 51.8933 15.8725 51.9644L16.5459 53.8477ZM17.5959 51.3325L17.3892 51.2319L16.514 53.0302L16.7207 53.1308L17.5959 51.3325ZM15.9938 51.8437L15.8306 52.3876L17.7463 52.9623L17.9094 52.4184L15.9938 51.8437ZM16.3518 51.7753L15.7916 52.0473L16.665 53.8465L17.2252 53.5745L16.3518 51.7753ZM17.0218 52.3383L16.3147 51.4164L14.7277 52.6335L15.4348 53.5554L17.0218 52.3383ZM16.4507 52.3939L16.8641 51.3524L15.0051 50.6146L14.5918 51.6561L16.4507 52.3939ZM16.8163 50.5118C16.7537 50.3948 16.7113 50.3043 16.6837 50.2302C16.6564 50.1566 16.6513 50.1191 16.6505 50.108C16.6502 50.1028 16.6511 50.1166 16.6444 50.1347C16.6383 50.1512 16.6383 50.1372 16.6795 50.0944L15.2387 48.7073C14.8035 49.1592 14.6155 49.6943 14.6557 50.2519C14.6909 50.7389 14.8973 51.1645 15.0528 51.4552L16.8163 50.5118ZM15.1533 49.9931L15.2213 50.0856L16.8328 48.901L16.7648 48.8085L15.1533 49.9931ZM16.6309 48.6962L16.5412 48.6282L15.3334 50.2224L15.4232 50.2904L16.6309 48.6962ZM16.9126 49.2046L16.7957 48.6879L14.845 49.1293L14.962 49.6461L16.9126 49.2046ZM15.8204 47.9086H15.1487V49.9086H15.8204V47.9086ZM16.1487 48.9086V47.4946H14.1487V48.9086H16.1487ZM14.4793 46.7516L14.4521 46.7761L15.7909 48.262L15.8181 48.2375L14.4793 46.7516ZM15.2138 48.5148L15.5075 48.4876L15.3229 46.4961L15.0292 46.5233L15.2138 48.5148ZM14.4973 47.8888C14.6382 48.2145 14.7664 48.4885 15.0111 49.0775L16.858 48.3101C16.6079 47.708 16.4533 47.3729 16.333 47.0949L14.4973 47.8888ZM16.9346 48.6938V47.4946H14.9346V48.6938H16.9346ZM15.1166 48.0699L15.6904 48.8857L17.3263 47.7351L16.7525 46.9193L15.1166 48.0699ZM15.5127 48.2178C15.4971 48.3847 15.4399 48.8016 15.5227 49.2044C15.6246 49.7001 15.9132 50.1408 16.4271 50.4551L17.4707 48.749C17.4303 48.7243 17.4367 48.7194 17.4548 48.7451C17.4738 48.7721 17.4808 48.7971 17.4818 48.8018C17.4818 48.8018 17.4803 48.7945 17.4793 48.7772C17.4783 48.7597 17.478 48.7349 17.4793 48.7001C17.4824 48.6192 17.491 48.543 17.5041 48.403L15.5127 48.2178ZM17.9268 49.811C18.0162 49.3928 17.9856 48.9578 17.8385 48.5562L15.9605 49.2439C15.978 49.2917 15.9816 49.3434 15.971 49.3931L17.9268 49.811ZM17.8385 48.5562C17.6915 48.1546 17.4339 47.8027 17.0956 47.5411L15.8721 49.1232C15.9124 49.1543 15.943 49.1962 15.9605 49.2439L17.8385 48.5562ZM17.4617 48.1226C17.2632 47.1964 17.0806 46.0287 16.7125 45.0009C16.326 43.9217 15.6996 42.8672 14.5335 42.0909L13.4252 43.7558C14.13 44.2249 14.5397 44.8659 14.8296 45.6753C15.138 46.5362 15.2722 47.4501 15.5061 48.5417L17.4617 48.1226ZM14.975 42.8304C14.9689 42.765 14.9746 42.6705 15.0063 42.505C15.0223 42.4214 15.0409 42.3392 15.0643 42.2322C15.0862 42.1322 15.112 42.0123 15.1327 41.8876C15.2215 41.354 15.236 40.597 14.5925 39.9095L13.1324 41.2763C13.1758 41.3226 13.174 41.338 13.1741 41.3387C13.1781 41.359 13.1836 41.4164 13.1598 41.5593C13.1481 41.6297 13.132 41.7064 13.1106 41.8042C13.0907 41.895 13.0644 42.0119 13.0421 42.1286C12.9971 42.3635 12.9517 42.6738 12.9837 43.0163L14.975 42.8304ZM13.62 39.6227L13.0435 39.7668L13.5284 41.7071L14.1049 41.5631L13.62 39.6227ZM14.0505 40.0925C13.7271 39.7088 13.5115 39.4493 13.3659 39.2508C13.2101 39.0381 13.2116 38.9948 13.2232 39.0419C13.2332 39.0825 13.2399 39.1449 13.2288 39.2163C13.2184 39.2833 13.1977 39.3227 13.1962 39.3255C13.1958 39.3263 13.1993 39.3198 13.2097 39.3045C13.2202 39.2892 13.2355 39.2682 13.2578 39.2398C13.3044 39.1805 13.3658 39.1086 13.4537 39.0081L11.9489 37.6908C11.7887 37.8738 11.5763 38.1155 11.4353 38.3772C11.26 38.7029 11.1748 39.0882 11.2813 39.5204C11.3687 39.8751 11.5696 40.1831 11.7529 40.4331C11.9465 40.6973 12.2098 41.0119 12.5214 41.3815L14.0505 40.0925ZM11.7391 38.6217C11.8968 39.1791 12.0322 39.6586 12.1784 40.1839L14.1052 39.6476C13.9577 39.1178 13.8212 38.6347 13.6635 38.0772L11.7391 38.6217ZM13.3237 40.8991L13.8675 40.7985L13.5038 38.8318L12.96 38.9324L13.3237 40.8991ZM14.6463 39.5372C14.5794 39.306 14.5323 39.0531 14.4874 38.7619C14.446 38.4941 14.3998 38.1434 14.3433 37.8324C14.2262 37.1882 14.0192 36.4058 13.4265 35.7454L11.9379 37.0811C12.153 37.3208 12.2777 37.652 12.3755 38.19C12.4264 38.4701 12.4583 38.7277 12.5108 39.0672C12.5596 39.3834 12.622 39.737 12.7251 40.0931L14.6463 39.5372ZM12.6822 37.4133H12.685V35.4133H12.6822V37.4133ZM17.4511 52.3859L17.7829 52.2717L17.132 50.3806L16.8002 50.4948L17.4511 52.3859ZM18.4138 51.0342L17.9896 49.6446L16.0768 50.2285L16.501 51.6181L18.4138 51.0342ZM16.4648 49.1138L15.5674 49.7338L16.7043 51.3793L17.6016 50.7593L16.4648 49.1138ZM16.0806 51.555L16.8665 51.5985L16.977 49.6016L16.1911 49.5581L16.0806 51.555ZM15.9499 50.8359L16.1539 51.6762L18.0974 51.2045L17.8935 50.3642L15.9499 50.8359ZM7.14987 53.1554L6.95679 53.2261L7.64454 55.1041L7.83762 55.0334L7.14987 53.1554ZM6.34728 54.4669L6.53492 55.0597L8.44168 54.4562L8.25405 53.8634L6.34728 54.4669ZM7.80456 55.7066L8.04115 55.6277L7.40862 53.7304L7.17204 53.8093L7.80456 55.7066ZM8.65484 54.3114L8.42369 53.7268L6.56379 54.4621L6.79493 55.0467L8.65484 54.3114ZM5.36582 40.7501C5.35504 40.7198 5.34867 40.7017 5.34546 40.6926C5.34324 40.6863 5.34382 40.6879 5.34521 40.692C5.34553 40.6929 5.34616 40.6948 5.34696 40.6972C5.34745 40.6986 5.34942 40.7045 5.35183 40.7121C5.35281 40.7152 5.3558 40.7247 5.35932 40.7369C5.36095 40.7425 5.36463 40.7554 5.36876 40.772C5.37081 40.7804 5.37546 40.8006 5.37799 40.8126C5.38163 40.8312 5.38976 40.8822 5.39354 40.9147C5.39805 40.9845 5.36479 41.2714 5.28538 41.476C4.81827 41.9216 3.90738 41.8851 3.67935 41.7089C3.62379 41.6463 3.55324 41.5484 3.53401 41.5167C3.52376 41.4986 3.50782 41.4686 3.5019 41.4569C3.49111 41.435 3.48352 41.4176 3.48093 41.4116C3.47739 41.4034 3.47466 41.3968 3.47308 41.393C3.46782 41.3801 3.46393 41.3698 3.46361 41.3689C3.46238 41.3657 3.46144 41.3632 3.46101 41.362C3.46011 41.3596 3.45947 41.3578 3.45934 41.3575C3.45904 41.3566 3.46113 41.3625 3.46555 41.375C3.46951 41.3861 3.47436 41.3999 3.47911 41.4136L5.3681 40.7565C5.35655 40.7233 5.34394 40.6878 5.33892 40.674C5.33845 40.6727 5.33754 40.6702 5.33643 40.6672C5.33589 40.6657 5.33487 40.663 5.33357 40.6595C5.33317 40.6585 5.32924 40.6481 5.32394 40.6351C5.32235 40.6312 5.31961 40.6246 5.31607 40.6164C5.31347 40.6104 5.30587 40.593 5.29508 40.5711C5.28916 40.5594 5.27321 40.5294 5.26296 40.5113C5.24373 40.4796 5.17318 40.3817 5.11761 40.3191C4.88959 40.1429 3.9787 40.1064 3.51159 40.552C3.43218 40.7566 3.39892 41.0435 3.40342 41.1133C3.40721 41.1458 3.41534 41.1968 3.41897 41.2154C3.42151 41.2274 3.42617 41.2477 3.42821 41.256C3.43235 41.2726 3.43603 41.2855 3.43766 41.2912C3.4412 41.3034 3.4442 41.3129 3.4452 41.3161C3.44765 41.3238 3.44967 41.3299 3.45024 41.3316C3.45112 41.3342 3.45185 41.3363 3.45229 41.3376C3.45461 41.3444 3.45739 41.3523 3.45892 41.3567C3.46319 41.3688 3.47041 41.3892 3.48139 41.4201L5.36582 40.7501ZM5.4236 41.0851C5.4236 41.0187 5.41929 40.9538 5.41983 40.9641C5.41988 40.9649 5.42032 40.9731 5.42066 40.9837C5.4208 40.9878 5.42126 41.0023 5.42116 41.0209C5.42111 41.0294 5.42093 41.05 5.41932 41.0763C5.41853 41.0894 5.41686 41.1128 5.41314 41.142C5.41058 41.162 5.40195 41.2286 5.37668 41.3104C5.36169 41.3552 5.3136 41.4666 5.27768 41.5316C5.20698 41.6339 4.96201 41.8566 4.77655 41.9501C4.51769 42.0108 4.0482 41.9433 3.86114 41.8439C3.7603 41.7659 3.6223 41.6169 3.57901 41.5546C3.51099 41.4484 3.47991 41.3536 3.47372 41.3353C3.46184 41.3001 3.45444 41.2716 3.45083 41.2571C3.4388 41.2088 3.43304 41.1688 3.43303 41.1688C3.43028 41.151 3.42862 41.1369 3.42858 41.1366C3.42779 41.13 3.42708 41.1233 3.42828 41.1343C3.42961 41.1466 3.43195 41.168 3.43573 41.2006L5.42235 40.9696C5.41933 40.9437 5.41759 40.9277 5.41663 40.9188C5.41641 40.9168 5.41608 40.9137 5.41582 40.9114C5.41572 40.9104 5.41499 40.9037 5.4141 40.8964C5.41398 40.8953 5.41224 40.8806 5.40944 40.8625C5.4094 40.8623 5.40362 40.8222 5.39157 40.7738C5.38796 40.7593 5.38055 40.7308 5.36867 40.6956C5.36248 40.6773 5.33139 40.5825 5.26337 40.4762C5.22008 40.4139 5.08208 40.2649 4.98123 40.187C4.79417 40.0876 4.32469 40.0201 4.06582 40.0807C3.88036 40.1743 3.63538 40.3969 3.56468 40.4993C3.52876 40.5642 3.48067 40.6757 3.46569 40.7204C3.44042 40.8023 3.43178 40.8688 3.42922 40.8889C3.4255 40.9181 3.42383 40.9416 3.42303 40.9546C3.42142 40.981 3.42124 41.0017 3.42119 41.0102C3.42109 41.0289 3.42156 41.0436 3.4217 41.0479C3.42205 41.0589 3.42252 41.0677 3.42261 41.0694C3.42383 41.0926 3.4236 41.0862 3.4236 41.0851H5.4236ZM4.42904 40.0851H4.4236V42.0851H4.42904V40.0851ZM4.56493 45.4254C4.57875 45.4519 4.58844 45.4717 4.58507 45.4647C4.58437 45.4632 4.58222 45.4587 4.57946 45.4527C4.57813 45.4498 4.57545 45.444 4.57215 45.4364C4.57089 45.4336 4.56115 45.4116 4.55055 45.383C4.54885 45.3785 4.52839 45.3252 4.51263 45.2554C4.51151 45.2505 4.47306 45.1029 4.49497 44.9176C4.51881 44.7889 4.67212 44.4569 4.83057 44.2816C5.08616 44.1194 5.59348 44.0406 5.80352 44.0861C5.91241 44.1296 6.07104 44.2226 6.12402 44.2634C6.15562 44.2905 6.20596 44.3389 6.22529 44.3595C6.26189 44.3994 6.28707 44.4336 6.29663 44.4467C6.31839 44.4766 6.33361 44.5012 6.33798 44.5082C6.34946 44.5267 6.35778 44.5416 6.35972 44.545C6.36304 44.5509 6.36561 44.5557 6.36696 44.5581C6.37322 44.5697 6.37737 44.578 6.37337 44.5702C6.3697 44.563 6.36124 44.5462 6.34594 44.5156L4.55709 45.4101C4.57306 45.442 4.58432 45.4644 4.59161 45.4787C4.5931 45.4816 4.60054 45.4962 4.60825 45.5105C4.60978 45.5133 4.6125 45.5183 4.61595 45.5245C4.61802 45.5281 4.62643 45.5431 4.63798 45.5618C4.64239 45.5689 4.65764 45.5935 4.67942 45.6234C4.68899 45.6366 4.71417 45.6707 4.75078 45.7107C4.77012 45.7312 4.82046 45.7796 4.85206 45.8068C4.90504 45.8475 5.06368 45.9406 5.17257 45.984C5.38261 46.0295 5.88994 45.9508 6.14552 45.7885C6.30397 45.6132 6.45729 45.2812 6.48112 45.1525C6.50304 44.9673 6.46459 44.8197 6.46346 44.8147C6.4477 44.7449 6.42723 44.6916 6.42551 44.687C6.41487 44.6583 6.40507 44.6362 6.40372 44.6331C6.40034 44.6254 6.39754 44.6193 6.39607 44.6161C6.39303 44.6095 6.39051 44.6042 6.38934 44.6018C6.37849 44.5791 6.35691 44.5363 6.3381 44.5003L4.56493 45.4254Z" fill="#F5DEA6" mask="url(#path-6-outside-1_12_237176)"/>
<path d="M109.161 37.9953C109.259 38.0931 109.392 38.1462 109.53 38.1421C109.668 38.138 109.798 38.077 109.89 37.9736C110.57 37.2046 111.005 36.4992 111.137 35.7535C111.271 34.9925 111.074 34.2745 110.676 33.5158C110.61 33.3896 110.493 33.2977 110.354 33.2631C109.804 33.1257 109.248 32.9548 108.673 32.778C108.599 32.7553 108.525 32.7326 108.451 32.7098C107.802 32.511 107.131 32.3106 106.453 32.1622C105.094 31.8648 103.66 31.7651 102.21 32.3154L102.21 32.3154L102.207 32.3169C100.21 33.094 99.2327 34.575 99.1962 36.238C99.1608 37.8537 100.014 39.5471 101.46 40.8404C101.861 41.2778 102.3 41.6735 102.718 42.0501L102.75 42.0791C103.19 42.4759 103.607 42.8531 103.976 43.2653L103.976 43.2654L103.985 43.2747C104.986 44.3344 104.951 45.6363 104.337 46.6161C103.715 47.6083 102.524 48.2313 101.222 47.9093C101.194 47.9025 101.166 47.898 101.138 47.896C100.858 47.8755 100.56 47.7879 100.229 47.6564C100.023 47.5743 99.8333 47.4886 99.6334 47.3982C99.495 47.3355 99.3514 47.2706 99.1935 47.2029C98.4914 46.902 97.6245 46.6022 96.7251 46.969C96.5802 47.0281 96.4714 47.1515 96.4309 47.3026L95.8272 49.557C95.7919 49.6887 95.812 49.8291 95.8827 49.9457C96.5731 51.0836 97.623 51.5411 98.6681 51.7974C99.0975 51.9027 99.5442 51.9781 99.9689 52.0498C100.054 52.0642 100.138 52.0784 100.221 52.0927C100.73 52.1801 101.203 52.2712 101.637 52.4132C101.648 52.4169 101.66 52.4202 101.671 52.4231C104.546 53.1399 106.908 51.6209 108.14 49.4405C109.357 47.2882 109.536 44.3944 108.018 42.1667C107.757 41.5521 107.27 41.0155 106.756 40.542C106.412 40.2247 106.02 39.9049 105.644 39.5987C105.449 39.4395 105.258 39.2839 105.081 39.1343C104.537 38.6753 104.097 38.2534 103.835 37.8357C103.604 37.4658 103.532 37.1346 103.635 36.7862C104.07 36.2769 104.507 36.0151 104.924 35.9041C105.362 35.7874 105.826 35.8246 106.313 35.9871C107.308 36.319 108.312 37.1435 109.161 37.9953ZM108.64 34.7236C108.562 34.8762 108.569 35.0565 108.654 35.2023C108.461 35.0328 108.261 34.8689 108.051 34.7159H108.088C108.282 34.7795 108.505 34.7183 108.637 34.5472L108.638 34.5461C108.64 34.5445 108.641 34.543 108.642 34.5414C108.665 34.5124 108.683 34.4929 108.696 34.48C108.728 34.4954 108.758 34.5142 108.799 34.5409C108.733 34.587 108.678 34.6492 108.64 34.7236ZM97.5313 49.4528C97.6214 49.0969 97.7083 48.7527 97.7913 48.4239C97.977 48.4874 98.1634 48.5519 98.3505 48.6167C99.1714 48.9008 100.005 49.1893 100.844 49.4158C100.85 49.4174 100.856 49.419 100.862 49.4204C105.218 50.4206 108.126 45.1498 105.191 42.0364L105.191 42.0364L105.188 42.0332C104.527 41.3445 103.799 40.679 103.082 40.0308C103.008 39.9638 102.934 39.8969 102.86 39.8302C102.283 39.3096 101.718 38.7998 101.192 38.2873C101.234 38.0406 101.272 37.8158 101.308 37.599C101.346 37.3743 101.383 37.158 101.421 36.9345C101.445 36.7894 101.405 36.6408 101.31 36.5283C101.215 36.4159 101.075 36.351 100.928 36.351H100.737C100.778 35.2457 101.383 34.4166 102.266 33.9282C103.226 33.3969 104.522 33.2721 105.757 33.6983C105.762 33.7127 105.766 33.7273 105.771 33.7422C104.658 33.4823 103.377 33.9342 102.536 34.6614C102.069 35.0647 101.692 35.59 101.555 36.1956C101.414 36.8191 101.54 37.4784 101.999 38.0894L101.999 38.0894L102.002 38.0931C102.579 38.8475 103.274 39.4863 103.952 40.0842C104.062 40.1809 104.171 40.2764 104.28 40.371C104.851 40.8713 105.399 41.3502 105.888 41.8787C105.894 41.8859 105.901 41.8929 105.908 41.8996C107.38 43.3142 107.189 45.1962 106.838 47.3696C106.526 48.4137 105.992 49.1181 105.333 49.5856C104.661 50.0624 103.827 50.3161 102.895 50.3948C101.162 50.5411 99.1779 50.0757 97.5313 49.4528ZM107.071 34.1396C107.05 34.1297 107.027 34.12 107.005 34.1105C107.035 34.094 107.062 34.0808 107.087 34.0706C107.08 34.0932 107.075 34.1163 107.071 34.1396ZM108.725 34.4573C108.725 34.4573 108.724 34.4576 108.723 34.4581L108.725 34.4573Z" fill="#F5DEA6" stroke="#F5DEA6" stroke-linejoin="round"/>
<path d="M42.7673 14.302C42.9611 14.2561 43.1092 14.0995 43.1443 13.9035C43.3426 12.795 43.1827 11.9454 42.6253 11.3782C42.0911 10.8347 41.3054 10.674 40.5552 10.6434C39.7919 10.6122 38.9401 10.713 38.1743 10.8042C37.381 10.8987 36.6962 10.9802 36.1812 10.9453C36.1593 10.9438 36.1373 10.9438 36.1154 10.9452C35.1708 11.0059 34.5118 11.4449 34.0918 12.1109C33.6922 12.7446 33.5267 13.5539 33.4582 14.3555C33.389 15.1645 33.4144 16.0301 33.4397 16.805C33.4404 16.8267 33.4411 16.8483 33.4418 16.8699C33.4669 17.6373 33.4883 18.2916 33.4343 18.7774C33.4305 18.811 33.4302 18.8449 33.4333 18.8786C33.5496 20.1403 33.7362 21.7875 34.3405 23.1156C34.6459 23.7869 35.0698 24.4047 35.6705 24.85C36.2786 25.3007 37.0363 25.551 37.9603 25.5326C37.9863 25.5321 38.0121 25.5296 38.0377 25.525C38.3146 25.4759 38.7735 25.4936 39.3816 25.5326C39.4566 25.5374 39.5333 25.5425 39.6114 25.5477C40.1342 25.5823 40.7188 25.6211 41.2645 25.6115C41.8781 25.6008 42.5321 25.53 43.0301 25.2632C43.2903 25.1238 43.5236 24.9226 43.6764 24.6376C43.8291 24.353 43.8789 24.0262 43.8432 23.6734C43.7936 23.1414 43.7769 22.5613 43.7593 21.9479C43.7505 21.6401 43.7414 21.324 43.7278 21.0013C43.6883 20.062 43.61 19.0846 43.364 18.2556C43.1173 17.4245 42.6768 16.6606 41.8552 16.2723C41.0435 15.8886 39.9892 15.9339 38.6587 16.4062C38.4894 16.4663 38.3654 16.6126 38.3338 16.7895C38.2621 17.1907 38.3139 17.5346 38.4567 17.8344C38.5925 18.1195 38.797 18.3338 38.9692 18.4992C39.0246 18.5524 39.0764 18.6012 39.1246 18.6466C39.3937 18.9004 39.5508 19.0484 39.6123 19.2768C39.576 20.0917 39.6364 20.9076 39.7919 21.7074C39.389 21.7884 39.11 21.8095 38.8462 21.7804C38.5298 21.7454 38.1997 21.6342 37.6775 21.3929C37.2224 19.2169 37.0715 16.7764 37.6136 14.6743C38.3691 14.4295 39.1385 14.4141 39.9602 14.4349C40.0741 14.4378 40.1897 14.4415 40.3068 14.4452C41.0923 14.4701 41.9429 14.4971 42.7673 14.302ZM36.3372 23.2483C36.2001 23.1766 36.0786 23.0644 36.0029 22.8395C36.0027 22.8316 36.0023 22.8238 36.0017 22.816C36.1238 22.8291 36.2475 22.7967 36.3481 22.7239C36.3706 22.7645 36.3936 22.8051 36.4172 22.8455C36.5034 22.9932 36.659 23.0865 36.8299 23.0931C37.2583 23.1095 37.6603 23.1619 38.0856 23.2173C38.3526 23.2521 38.6289 23.2881 38.9267 23.3172C39.6577 23.3885 40.4405 23.4036 41.2313 23.158C41.4351 23.0947 41.5762 22.9092 41.5828 22.696C41.5844 22.6438 41.5862 22.5901 41.5879 22.535C41.6155 21.6794 41.654 20.4814 41.4393 19.412C41.3215 18.8251 41.1166 18.2291 40.762 17.7418H41.4826C41.5239 18.2709 41.5649 18.7974 41.6058 19.3231C41.7098 20.6579 41.8133 21.9871 41.9196 23.3394C40.8471 23.432 39.7623 23.4194 38.6554 23.4066C38.1537 23.4007 37.6474 23.3949 37.1357 23.3987C36.7907 23.3906 36.5261 23.347 36.3372 23.2483ZM35.2833 17.0818C35.2912 17.1376 35.2986 17.1917 35.3055 17.2442C35.275 17.2495 35.2447 17.2577 35.2152 17.2688L34.9021 17.3868C34.9167 17.2376 34.9806 17.0667 35.0843 16.8384C35.1006 16.8025 35.1188 16.764 35.138 16.7231C35.16 16.6765 35.1834 16.6267 35.2073 16.5743C35.2073 16.5743 35.2073 16.5744 35.2073 16.5744C35.2348 16.7537 35.2613 16.9263 35.2833 17.0818ZM35.4134 13.2852C35.3149 13.39 35.2398 13.5095 35.1826 13.6367L35.2638 12.9661C35.5452 12.7593 35.6619 12.6853 35.8054 12.6342C35.8487 12.6188 35.8949 12.6054 35.9485 12.5929C35.958 12.6979 36.0006 12.7988 36.0719 12.8794L35.8215 13.1297C35.671 13.1164 35.5199 13.1721 35.4134 13.2852Z" fill="#F5DEA6" stroke="#F5DEA6" stroke-linejoin="round"/>
<path d="M47.4456 11.5717C47.286 11.6755 47.1992 11.861 47.2218 12.0502C47.6956 16.0107 47.9474 19.9943 47.5684 24.1717C47.5523 24.3489 47.6316 24.5213 47.7766 24.6244L49.3674 25.7557C49.4836 25.8384 49.6297 25.8674 49.7687 25.8356C50.4703 25.675 50.964 25.3831 51.2318 24.9172C51.4885 24.4706 51.4709 23.9713 51.4225 23.5674C51.4034 23.4076 51.376 23.2409 51.3505 23.0851C51.3432 23.0407 51.3361 22.9972 51.3293 22.955C51.2976 22.7565 51.2718 22.5737 51.2619 22.3985C51.2513 22.2103 51.2601 22.0444 51.295 21.8955C51.5513 22.0323 51.7869 22.249 52.0228 22.5369C52.2612 22.8278 52.4646 23.1427 52.6823 23.4799C52.7933 23.6519 52.9081 23.8297 53.0332 24.013C53.3763 24.5158 53.7943 25.0517 54.3686 25.3494C54.9843 25.6686 55.6978 25.6765 56.5306 25.3009C56.6859 25.2308 56.7948 25.0865 56.8197 24.9179C56.9922 23.7452 56.4362 22.9351 55.9012 22.28C55.811 22.1695 55.7227 22.0642 55.6375 21.9625C55.2742 21.5291 54.9653 21.1606 54.7892 20.7292C55.6639 20.0581 55.9849 19.1643 56.0895 18.2556C56.1466 17.7601 56.1411 17.2505 56.1289 16.7696C56.1269 16.6886 56.1246 16.6086 56.1224 16.5295C56.1112 16.1279 56.1007 15.7494 56.1174 15.3829C56.1179 15.3733 56.118 15.3638 56.1179 15.3542C56.0932 13.2287 54.669 11.7593 52.9276 11.0934C51.197 10.4317 49.0617 10.5203 47.4456 11.5717ZM49.3332 23.0913C49.3657 23.2392 49.4065 23.3878 49.4572 23.537L49.2383 23.5533C49.275 23.3994 49.3064 23.2454 49.3332 23.0913ZM51.3785 19.6488H50.3851C50.3683 19.5419 50.3445 19.444 50.3165 19.3538C50.9018 19.572 51.436 19.6641 51.9647 19.561C51.9733 19.5594 51.9819 19.5576 51.9905 19.5558C51.8827 19.6136 51.802 19.7079 51.7598 19.8181L51.7078 19.7726C51.6167 19.6928 51.4996 19.6488 51.3785 19.6488ZM52.4637 19.4032C52.8078 19.2514 53.1308 19.0183 53.4558 18.7212C53.4961 18.7417 53.5388 18.7564 53.5826 18.7653C53.3648 19.013 53.0801 19.2229 52.7081 19.3882C52.6312 19.3737 52.5503 19.3772 52.4718 19.4008L52.4637 19.4032ZM48.3768 12.7579C48.3768 12.7579 48.3771 12.7577 48.3777 12.7573L48.3768 12.7579ZM53.3577 21.7046L54.8754 23.6017C54.8633 23.5987 54.8515 23.5954 54.8399 23.592C54.6484 23.5354 54.4839 23.417 54.3426 23.1538C54.1736 22.839 53.936 22.5424 53.7362 22.2929C53.6719 22.2127 53.6115 22.1373 53.5585 22.0677C53.4667 21.9471 53.387 21.833 53.321 21.7203C53.3334 21.7155 53.3456 21.7103 53.3577 21.7046ZM52.03 17.8208C51.8728 17.9168 51.6338 17.9776 51.2639 17.8868C51.2447 17.5415 51.2096 17.188 51.1756 16.8465C51.1504 16.5929 51.1258 16.3459 51.109 16.1137C51.0683 15.5551 51.0631 15.0167 51.1556 14.4813H52.3269C52.6355 15.1894 52.745 16.2141 52.5439 16.9867C52.4324 17.4153 52.246 17.6889 52.03 17.8208Z" fill="#F5DEA6" stroke="#F5DEA6" stroke-linejoin="round"/>
<path d="M82.3083 25.3042C82.2136 25.4066 82.0806 25.4647 81.9412 25.4647C81.7295 25.4647 81.542 25.4696 81.3544 25.4745C81.2225 25.478 81.0906 25.4814 80.9502 25.4832C80.631 25.4872 80.3065 25.4808 79.9855 25.4314C79.3147 25.3283 78.698 25.0431 78.0994 24.3772C77.9653 24.2279 77.9334 24.0129 78.0184 23.8312C78.446 22.9165 78.3202 22.1846 77.9312 21.4082C77.729 21.0049 77.4591 20.5982 77.1511 20.149C77.1123 20.0925 77.073 20.0353 77.0332 19.9775C76.991 19.9161 76.9483 19.854 76.9052 19.7912C76.7473 20.9953 76.7418 22.2162 76.8901 23.4249C76.9737 23.8281 76.9718 24.1993 76.8557 24.524C76.7332 24.8666 76.5004 25.1097 76.2155 25.2655C75.6873 25.5542 74.9854 25.5412 74.3924 25.4632C74.2907 25.4498 74.1956 25.4055 74.12 25.3363L72.9316 24.2485C72.7993 24.1275 72.742 23.9448 72.7814 23.7699C73.3121 21.4128 73.2956 19.0056 73.2784 16.5078L82.3083 25.3042ZM82.3083 25.3042C82.4029 25.2019 82.4505 25.0647 82.4397 24.9257C82.1256 20.914 81.9474 17.2085 82.4463 13.2775C82.5533 12.8766 82.5473 12.4992 82.4208 12.1608C82.2908 11.813 82.0508 11.5529 81.7738 11.3674C81.2435 11.0121 80.5335 10.8965 79.9269 10.9139C79.9028 10.9124 79.8766 10.9107 79.8486 10.9088C79.632 10.8941 79.3078 10.8721 79.0064 10.9466C78.5966 11.0478 78.2392 11.3116 78.0005 11.8145C77.9304 11.9624 77.937 12.1353 78.0184 12.2773C78.5671 13.2359 78.7227 14.2948 78.681 15.5601M82.3083 25.3042L78.681 15.5601M73.7723 15.0745L73.2723 15.0741C73.2723 15.0741 73.2723 15.0742 73.2723 15.0743V15.0745H73.7723ZM73.7723 15.0745C73.7719 15.5472 73.7752 16.0193 73.7785 16.4906C73.7962 18.9878 73.8137 21.4617 73.2692 23.8797L73.7755 14.6863C73.7739 14.8158 73.7723 14.9453 73.7723 15.0745ZM78.681 15.5601C77.7778 14.2106 77.1889 12.8726 76.9034 11.4185C76.8711 11.2538 76.7582 11.1163 76.603 11.0525C75.4958 10.597 74.2665 10.5324 73.1177 10.8692C72.9047 10.9317 72.7583 11.1271 72.7583 11.349C72.7583 11.4183 72.7516 11.4719 72.7422 11.5461C72.7368 11.5892 72.7304 11.6393 72.7241 11.7034C72.7239 11.7046 72.7238 11.7058 72.7237 11.7071C72.7125 11.8198 72.6853 12.0921 72.8377 12.3291L72.8377 12.3291L72.8406 12.3336C73.2907 13.0176 73.2836 13.7562 73.2748 14.6715L78.681 15.5601ZM75.0328 23.3254H74.5806C74.7329 22.2922 74.8269 21.2576 74.8876 20.2245C74.8856 20.2785 74.8836 20.3327 74.8817 20.3871C74.8489 21.3517 74.8557 22.3426 75.0328 23.3254ZM75.0122 16.1464C75.029 15.1189 75.0457 14.0964 75.0877 13.0818L75.3614 12.8556C75.4007 13.0492 75.459 13.2304 75.5251 13.4008C75.5961 13.5839 75.6807 13.7651 75.7562 13.9269C75.7766 13.9706 75.7964 14.0129 75.815 14.0535C75.8838 14.2031 75.9421 14.338 75.9869 14.4683C75.9916 14.5549 76.0188 14.6413 76.0702 14.7183L78.2718 18.0195L78.0858 18.3639C78.0635 18.405 78.0475 18.4484 78.0377 18.4927C78.0041 18.4369 77.9707 18.3812 77.9372 18.3256C77.4539 17.5215 76.9763 16.7211 76.5109 15.8751C76.4297 15.7273 76.2794 15.6305 76.1112 15.6175C75.9431 15.6046 75.7798 15.6773 75.6768 15.8108C75.571 15.9481 75.481 16.0478 75.3922 16.1462C75.3521 16.1906 75.3122 16.2347 75.2713 16.282C75.2129 16.3493 75.143 16.4339 75.0878 16.5284C75.0566 16.5819 75.0249 16.6469 75.0026 16.7223C75.0059 16.5302 75.0091 16.3382 75.0122 16.1464ZM79.3742 20.7596C79.2031 20.4574 79.031 20.1605 78.8584 19.8671L79.1199 20.2118C79.2109 20.3316 79.351 20.4042 79.5014 20.4092C79.6518 20.4143 79.7965 20.3514 79.8953 20.2379L80.1904 19.8991C80.1703 21.0433 80.1927 22.2014 80.339 23.3662H79.8518C80.0616 22.4935 79.9852 21.6132 79.3742 20.7596ZM80.3064 14.9058C80.3148 15.3184 80.3137 15.7296 80.3068 16.1408C80.3002 16.1325 80.2935 16.1243 80.2868 16.1161C80.2971 15.9809 80.2959 15.8521 80.292 15.7357C80.2891 15.6482 80.2852 15.5747 80.2816 15.5071C80.2763 15.4074 80.2716 15.3206 80.2718 15.221C80.2721 15.0927 80.2818 14.9911 80.3064 14.9058ZM74.9503 18.87C74.965 18.4552 74.9761 18.0409 74.9852 17.6272C74.9843 18.0386 74.9694 18.4515 74.9503 18.87Z" fill="#F5DEA6" stroke="#F5DEA6" stroke-linejoin="round"/>
<path d="M38.2719 49.6208C38.3619 49.6719 38.4655 49.6938 38.5685 49.6835C39.5129 49.5891 40.4865 49.5214 41.4745 49.4528C43.8823 49.2855 46.3751 49.1123 48.7367 48.531C49.7327 48.3141 50.481 47.9463 50.9781 47.319C51.4718 46.6958 51.6545 45.8947 51.6958 44.9549L51.6958 44.9548C51.8242 42.0131 51.7964 39.0316 51.1809 36.087C51.1649 36.0025 51.1486 35.9163 51.1321 35.8287C50.841 34.2843 50.4654 32.2915 49.6587 30.6904C49.2283 29.836 48.6601 29.0601 47.8865 28.518C47.1036 27.9694 46.1415 27.6824 44.9732 27.7618C44.9645 27.7624 44.9559 27.7632 44.9473 27.7642C43.9171 27.8882 42.8921 27.9495 41.8501 28.0119C41.2319 28.0489 40.6078 28.0862 39.973 28.1372C38.2955 28.2719 36.6001 28.5005 34.9651 29.0842C34.8327 29.1314 34.7263 29.2322 34.672 29.3618C34.6177 29.4915 34.6204 29.638 34.6796 29.7655C35.653 31.8637 36.0891 34.1068 36.363 36.4297C36.4793 37.4158 36.5657 38.4087 36.6528 39.4102C36.6683 39.589 36.6839 39.7682 36.6997 39.9476C36.8035 41.1277 36.9156 42.317 37.0857 43.4951C37.0869 43.5037 37.0884 43.5122 37.09 43.5207C37.1771 43.9609 37.1452 44.4287 37.0646 44.9386C37.031 45.1517 36.9905 45.3632 36.9486 45.5817C36.9404 45.6249 36.9321 45.6683 36.9237 45.712C36.8741 45.9727 36.8246 46.2434 36.7916 46.512C36.726 47.0462 36.7181 47.622 36.9317 48.1754C37.1508 48.7432 37.579 49.2274 38.2719 49.6208ZM48.6279 46.2427C45.3915 47.1274 42.068 47.3123 38.664 47.4844C38.7512 47.32 38.7423 47.1138 38.6258 46.9545L38.2757 46.4762C38.8235 45.5002 38.8785 44.4384 38.8011 43.4359C38.7637 42.9518 38.6935 42.4635 38.6267 41.9984C38.6173 41.9325 38.6079 41.867 38.5986 41.8021C38.523 41.2705 38.4581 40.7717 38.4447 40.2987C38.4443 40.284 38.4433 40.2693 38.4416 40.2547C38.3315 39.3136 38.2182 38.3815 38.1052 37.4506C37.9771 36.3965 37.8493 35.3441 37.7264 34.2821C37.6916 32.7999 37.4721 31.4429 36.6093 30.1581C37.7757 30.0359 38.831 29.9047 39.7857 29.7823C39.9906 29.756 40.1907 29.7302 40.386 29.705C41.3332 29.5828 42.1693 29.4749 42.9169 29.3996C44.7458 29.2155 45.9118 29.2463 46.7374 29.6525C47.5195 30.0374 48.098 30.8176 48.5727 32.4549C49.0462 34.088 49.3856 36.4632 49.7684 39.8947C49.7122 40.3997 49.7401 41.0493 49.7716 41.6995C49.7742 41.7518 49.7767 41.8043 49.7793 41.8569C49.8112 42.5066 49.8441 43.1775 49.8217 43.8101C49.7972 44.5002 49.7076 45.0877 49.5135 45.5153C49.3309 45.9178 49.0702 46.1555 48.6646 46.2341C48.6523 46.2365 48.64 46.2393 48.6279 46.2427Z" fill="#F5DEA6" stroke="#F5DEA6" stroke-linejoin="round"/>
<path d="M116.405 55.0973C116.56 55.1138 116.714 55.0568 116.821 54.9433C116.928 54.8299 116.976 54.6729 116.951 54.5189C116.914 54.2923 116.878 54.0859 116.844 53.8944C116.681 52.9677 116.579 52.3871 116.718 51.5292C117.141 50.0701 117.5 48.5797 117.857 47.1017C117.989 46.5513 118.122 46.0027 118.257 45.458C118.73 43.5484 119.24 41.6732 119.926 39.8764C120.455 39.9274 120.96 40.0988 121.507 40.3005C121.559 40.3197 121.611 40.3392 121.664 40.3589C122.26 40.5804 122.925 40.8277 123.637 40.8742C123.785 40.8839 123.93 40.8273 124.032 40.7198C124.346 40.3891 124.492 40.0256 124.483 39.6424C124.475 39.2962 124.341 38.9879 124.213 38.7455C123.309 36.6537 121.506 35.7289 119.43 35.3581C118.936 35.2367 118.441 35.0759 117.93 34.9099C117.798 34.867 117.665 34.8237 117.53 34.7807C116.885 34.5742 116.213 34.375 115.556 34.2898C114.895 34.204 114.219 34.2291 113.573 34.497C112.922 34.7673 112.35 35.2643 111.868 36.0368C111.772 36.1893 111.766 36.3812 111.852 36.5393C112.397 37.5478 113.268 37.9163 114.073 38.162C114.255 38.2175 114.429 38.2666 114.598 38.3139C115.085 38.4509 115.516 38.5723 115.905 38.7882L112.238 50.9033L111.048 52.2862C110.895 52.4639 110.886 52.7241 111.027 52.9118C112.358 54.6921 114.17 54.8732 115.972 55.0532C116.116 55.0676 116.261 55.0821 116.405 55.0973ZM116.629 44.0614C116.452 44.7797 116.252 45.3935 115.991 45.8557C115.986 45.864 115.981 45.8726 115.976 45.8814L115.951 45.9249C115.892 46.0304 115.875 46.1483 115.895 46.2588C115.841 46.6984 115.724 47.1738 115.577 47.6825C115.494 47.9696 115.402 48.2613 115.309 48.56L115.304 48.5742C115.213 48.8666 115.119 49.1656 115.032 49.4641C114.833 50.1468 114.653 50.8731 114.617 51.587C114.61 51.5008 114.58 51.416 114.527 51.3418L114.402 51.165C114.287 51.0025 114.091 50.9278 113.904 50.962C114.321 49.4433 114.807 47.9307 115.296 46.4065C115.463 45.884 115.632 45.3601 115.798 44.8342C116.551 42.4466 117.256 40.0281 117.637 37.5722C117.675 37.3267 117.527 37.0904 117.29 37.0175L114.104 36.0399L114.766 35.6095L121.381 37.5765L122.083 38.4551C121.224 38.1682 120.381 37.8837 119.471 37.5742C119.322 37.5233 119.157 37.546 119.027 37.6354C118.442 38.0376 118.057 38.6786 117.779 39.3717C117.499 40.0697 117.303 40.8811 117.133 41.6862C117.076 41.9578 117.021 42.2273 116.968 42.4934C116.859 43.0326 116.753 43.5582 116.629 44.0614ZM114.506 51.9471C114.563 51.8775 114.599 51.7962 114.612 51.712C114.604 52.0538 114.63 52.392 114.704 52.7204C114.674 52.712 114.645 52.7039 114.614 52.696L114.114 52.4315C114.245 52.2678 114.375 52.1071 114.506 51.9471Z" fill="#F5DEA6" stroke="#F5DEA6" stroke-linejoin="round"/>
<path d="M67.8603 23.426H67.4176C67.4576 23.2121 67.4678 22.9979 67.4574 22.7867C67.5814 23.0286 67.7153 23.2308 67.8603 23.426ZM66.4833 19.3265C66.4472 19.2911 66.4055 19.261 66.3593 19.2376C65.1432 18.6227 63.9507 18.8081 62.8552 19.0219C63.0742 18.8856 63.3283 18.8243 63.6325 18.7958C63.8625 18.7743 64.103 18.7734 64.3766 18.7723C64.414 18.7721 64.4521 18.772 64.4909 18.7718C64.802 18.7701 65.1478 18.7646 65.5001 18.7162C65.7697 18.6792 65.9602 18.4333 65.9287 18.163C65.9005 17.9208 65.8622 17.6803 65.8142 17.4422C65.848 17.5335 65.8818 17.6247 65.9153 17.7157C66.1136 18.2545 66.3055 18.7908 66.4833 19.3265ZM63.7209 14.3247C63.7167 14.3286 63.7124 14.3325 63.7081 14.3364L64.3636 13.3652C64.5222 13.8803 64.6958 14.3939 64.8771 14.9051C64.7732 14.7186 64.6623 14.5356 64.5446 14.3566C64.4641 14.2343 64.3341 14.1533 64.1888 14.1351C64.0436 14.117 63.8976 14.1634 63.7895 14.2621C63.7664 14.2832 63.7435 14.3041 63.7209 14.3247ZM64.3986 12.3469L64.3022 12.5418C64.2694 12.4953 64.2357 12.4494 64.2012 12.4042L64.3986 12.3469ZM61.3249 23.4398L60.7277 23.4824C60.733 23.4783 60.7384 23.4743 60.7437 23.4702C60.8823 23.3639 61.0219 23.2503 61.1543 23.1229C61.1714 23.1635 61.1901 23.2039 61.2106 23.2441C61.2447 23.3113 61.2829 23.3765 61.3249 23.4398ZM63.4315 24.9643C63.6115 24.8311 63.6811 24.5946 63.6018 24.3852C63.356 23.7365 63.2709 23.1706 63.31 22.6161C63.3442 22.132 63.4745 21.636 63.7015 21.08L65.0293 20.9388C65.4747 21.3732 65.6236 21.834 65.6723 22.3368C65.7007 22.6297 65.6943 22.9327 65.6853 23.2686C65.685 23.2817 65.6846 23.2949 65.6843 23.3081C65.6758 23.6232 65.6665 23.9691 65.6952 24.313C65.7074 24.4593 65.7833 24.5928 65.9027 24.6781L66.9904 25.4558C67.1044 25.5374 67.2475 25.5673 67.3846 25.5383C67.5216 25.5093 67.6783 25.5068 67.8782 25.5173C67.9289 25.52 67.9862 25.5239 68.0474 25.528C68.2003 25.5383 68.3779 25.5503 68.54 25.5494C68.783 25.548 69.0583 25.5205 69.3354 25.4078C69.6188 25.2925 69.8757 25.0997 70.0982 24.8094C70.1958 24.6821 70.2264 24.5157 70.1805 24.362C69.7438 22.901 69.174 21.4669 68.6137 20.0565C68.4178 19.5636 68.2232 19.0737 68.0358 18.5865C67.3053 16.6878 66.6724 14.8037 66.4286 12.827C66.4205 12.7606 66.4143 12.6863 66.4076 12.6058C66.3671 12.1198 66.3078 11.408 65.6904 10.8523C65.5982 10.7694 65.4785 10.7236 65.3545 10.724C65.1421 10.7246 64.9186 10.7028 64.6635 10.6767C64.6541 10.6758 64.6446 10.6748 64.6351 10.6738C64.3962 10.6493 64.1297 10.622 63.8619 10.619C63.291 10.6124 62.6611 10.7146 62.0836 11.2002C61.9467 11.3153 61.8817 11.4948 61.9132 11.6708C62.0422 12.393 62.0903 12.6786 62.077 12.9563C62.0637 13.2336 61.9886 13.5142 61.792 14.2198C61.5403 15.0521 61.3156 15.8933 61.0949 16.7268C61.0784 16.7893 61.0619 16.8517 61.0454 16.9141C60.8405 17.6883 60.6377 18.4548 60.416 19.2127C59.9368 20.8502 59.3762 22.4215 58.5455 23.8673C58.4304 24.0677 58.4676 24.3209 58.6355 24.4797C59.9771 25.7481 62.0133 26.0134 63.4315 24.9643Z" fill="#F5DEA6" stroke="#F5DEA6" stroke-linejoin="round"/>
<path d="M48.1063 58.2363C48.0802 58.4356 48.176 58.631 48.3493 58.7326C48.483 58.8109 48.6099 58.9038 48.7604 59.014C48.7841 59.0314 48.8084 59.0492 48.8334 59.0674C49.0057 59.193 49.2106 59.3386 49.4396 59.4488C49.6753 59.5624 49.9484 59.6448 50.2626 59.639C50.5766 59.6331 50.8963 59.5398 51.2276 59.3552C51.4035 59.2572 51.5034 59.0633 51.4811 58.8631C51.2389 56.6881 51.0472 54.5642 51.4169 52.4482C51.4305 52.3704 51.4255 52.2905 51.4023 52.2151L51.0324 51.0131C50.9933 50.886 50.9051 50.7796 50.7874 50.7177C50.3783 50.5025 49.9519 50.3643 49.5153 50.3787C49.0659 50.3935 48.6573 50.5682 48.2922 50.8869C48.1708 50.993 48.1079 51.1511 48.1234 51.3115C48.1622 51.7134 48.2011 52.1129 48.2407 52.5203C48.264 52.7594 48.2875 53.0012 48.3115 53.2479L48.0278 53.3486C47.9879 53.1647 48.0066 52.936 48.034 52.601C48.0358 52.5788 48.0377 52.5562 48.0396 52.5331C48.0603 52.2773 48.0792 51.9517 47.9938 51.6265C47.9024 51.2785 47.7008 50.9601 47.3403 50.6985C47.2926 50.6638 47.239 50.6378 47.1822 50.6218C46.5665 50.4483 45.6602 50.2707 44.8587 50.9002C44.6996 51.0252 44.6314 51.2338 44.6862 51.4286C45.2058 53.2787 45.0945 55.0763 44.9755 56.9958C44.9453 57.4832 44.9146 57.9785 44.8937 58.4844C44.8848 58.6978 45.0124 58.8932 45.2113 58.9709C45.3353 59.0193 45.4666 59.098 45.6424 59.2075C45.6519 59.2134 45.6615 59.2194 45.6713 59.2256C45.8269 59.3227 46.0208 59.4437 46.2258 59.5311C46.4516 59.6273 46.7255 59.699 47.0336 59.6572C47.3453 59.6149 47.635 59.4646 47.906 59.2168C47.9942 59.1362 48.0506 59.0268 48.0651 58.9082C48.1081 58.5548 48.0702 58.2076 48.0291 57.9101C48.0187 57.8354 48.0083 57.7645 47.9984 57.6967C47.966 57.476 47.9384 57.2874 47.9318 57.099C47.9236 56.8657 47.9521 56.6885 48.0269 56.5396C48.0667 56.4605 48.1267 56.3751 48.2222 56.2868C48.251 56.3328 48.2729 56.377 48.2896 56.4195C48.3388 56.544 48.357 56.6842 48.3478 56.8578C48.3384 57.0371 48.3015 57.232 48.2512 57.4687C48.2448 57.499 48.2381 57.53 48.2313 57.5617C48.1874 57.7662 48.1374 57.9988 48.1063 58.2363Z" fill="#F5DEA6" stroke="#F5DEA6" stroke-linejoin="round"/>
<path d="M73.3426 53.1395C73.5892 53.1395 73.799 52.9597 73.8367 52.716C73.9509 51.9787 73.8138 51.362 73.4438 50.8933C73.0834 50.4368 72.5557 50.1893 72.019 50.0672C70.9581 49.826 69.6651 50.0276 68.795 50.3583C68.6699 50.4059 68.5691 50.5016 68.5151 50.624C68.4847 50.6929 68.4602 50.7386 68.4301 50.7946C68.4072 50.8371 68.3811 50.8857 68.3468 50.9549C68.2882 51.0732 68.2007 51.265 68.2007 51.4892L68.2009 51.5038C68.2477 53.1137 68.31 54.7248 68.3735 56.3682C68.3986 57.0176 68.4239 57.672 68.4485 58.3334C68.4536 58.47 68.5143 58.5985 68.6166 58.6891L68.6489 58.7177C68.9271 58.9641 69.2458 59.2463 69.5794 59.546C69.6746 59.6316 69.7989 59.6773 69.9268 59.6739C70.3093 59.6637 70.6762 59.6727 71.0539 59.6819C71.2725 59.6872 71.4948 59.6926 71.7257 59.6945C72.3336 59.6993 72.9637 59.6773 73.5863 59.54C73.7148 59.5116 73.827 59.4338 73.8984 59.3232C74.2426 58.791 74.272 58.3042 74.1684 57.872C74.1205 57.672 74.0463 57.4919 73.9829 57.3456C73.9684 57.312 73.9546 57.2807 73.9417 57.2512C73.8935 57.1412 73.8565 57.0566 73.8276 56.9703C73.7876 56.8509 73.7039 56.7509 73.5934 56.6905C73.4387 56.6059 73.2812 56.5512 73.1264 56.5168C73.2297 56.4657 73.3148 56.3793 73.3631 56.2685C73.6485 55.6139 73.8041 55.0302 73.6726 54.439C73.5679 53.9679 73.2947 53.5571 72.9103 53.1395H73.3426ZM71.56 56.4345L72.1197 56.4914C72.101 56.4928 72.0828 56.4942 72.0651 56.4954C71.8491 56.5101 71.6808 56.5119 71.536 56.4806L71.56 56.4345Z" fill="#F5DEA6" stroke="#F5DEA6" stroke-linejoin="round"/>
<path d="M62.0427 9.52206C62.2159 9.62221 62.4321 9.60952 62.5923 9.48981C62.9468 9.22502 63.159 8.91578 63.2777 8.58498C63.2819 8.57317 63.286 8.56138 63.29 8.54958C63.2908 8.55035 63.2917 8.55112 63.2926 8.55189L63.3056 8.56327C63.5985 8.81945 63.836 9.02714 64.0308 9.17739C64.2212 9.3243 64.4261 9.46161 64.6527 9.52026C64.919 9.58915 65.1513 9.53607 65.3549 9.43377C65.5192 9.35118 65.6901 9.22221 65.8525 9.09958C65.8609 9.09321 65.8694 9.08685 65.8777 9.08052C66.0112 8.97985 66.0855 8.81913 66.0758 8.65224C66.0603 8.38604 66.1059 7.88791 66.1666 7.22555C66.1748 7.136 66.1833 7.04344 66.192 6.94804C66.2616 6.17909 66.3356 5.27315 66.3213 4.44517C66.3075 3.6455 66.2126 2.80487 65.8624 2.24178C65.6742 1.93925 65.3952 1.68969 65.0047 1.59902C64.6277 1.51148 64.2248 1.59064 63.8162 1.77552C63.7272 1.81581 63.6519 1.8813 63.5997 1.96392C63.4228 2.24369 63.3621 2.53105 63.3387 2.77949C63.3293 2.87956 63.3257 2.97709 63.3238 3.06591C63.2648 2.84826 63.2077 2.63747 63.1521 2.4322C63.1202 2.31439 63.0888 2.19839 63.0578 2.08396C63.0173 1.9348 62.9102 1.81272 62.7676 1.75324C62.3928 1.59697 61.9966 1.47356 61.6083 1.4834C61.1891 1.49403 60.8111 1.65921 60.5062 2.00801C60.4265 2.09913 60.3826 2.21606 60.3826 2.33709V8.27344C60.3826 8.45193 60.4778 8.61689 60.6323 8.70626L62.0427 9.52206Z" fill="#F5DEA6" stroke="#F5DEA6" stroke-linejoin="round"/>
<path d="M71.1526 9.19886C71.3577 9.08064 71.4518 8.83476 71.378 8.60981L70.882 7.09783C70.824 6.92103 70.6727 6.79133 70.4897 6.76061C70.6586 6.63253 70.7949 6.47311 70.8854 6.2743C71.0317 5.95326 71.0211 5.60944 70.9652 5.29617C70.9222 5.05484 70.8447 4.79341 70.7535 4.52127C70.8519 4.38406 70.9504 4.24598 71.0534 4.1015C71.1001 4.03591 71.1478 3.969 71.1969 3.90026C71.2994 3.75654 71.3186 3.56938 71.2473 3.40786L70.701 2.17054C70.6445 2.04245 70.5368 1.94394 70.4042 1.89897C69.0086 1.42571 67.6377 1.27577 66.2519 1.97189C66.0829 2.05675 65.9763 2.22964 65.9763 2.41869V8.43391C65.9763 8.59757 66.0564 8.75088 66.1907 8.84435C66.9101 9.34483 67.6819 9.71078 68.5219 9.80729C69.371 9.90486 70.2452 9.72184 71.1526 9.19886Z" fill="#F5DEA6" stroke="#F5DEA6" stroke-linejoin="round"/>
<path d="M80.4291 56.7459C80.3333 56.5726 80.1442 56.4721 79.947 56.4897L78.1324 56.6517C78.0772 56.2963 78.0707 55.9277 78.0898 55.542C78.1061 55.2106 78.1378 54.9021 78.1708 54.5817C78.1937 54.3592 78.2172 54.1309 78.2366 53.8851C78.3259 52.7508 78.2928 51.5099 77.3108 50.4086C77.2101 50.2957 77.0637 50.2345 76.9126 50.2421L75.61 50.3073C75.3724 50.3192 75.176 50.497 75.1406 50.7323C74.9402 52.0634 74.912 53.3891 74.9226 54.6899C74.9259 55.0993 74.933 55.5039 74.94 55.9054C74.9556 56.7925 74.9709 57.6648 74.9449 58.542C74.9406 58.686 74.9986 58.8248 75.1041 58.9228C76.2621 60.0005 77.521 59.9638 78.6728 59.9303C78.8659 59.9246 79.056 59.9191 79.2421 59.9189C79.6914 59.9356 80.0896 59.8485 80.3973 59.6195C80.7158 59.3826 80.8687 59.0452 80.9171 58.7052C81.0084 58.0645 80.748 57.3232 80.4291 56.7459Z" fill="#F5DEA6" stroke="#F5DEA6" stroke-linejoin="round"/>
<path d="M60.5947 52.044C60.5947 52.2173 60.6845 52.3783 60.8319 52.4694L62.1676 53.2944C62.1692 53.5309 62.1719 53.7662 62.1747 54.0004C62.1921 55.4796 62.209 56.9179 61.9101 58.3776C61.8679 58.5839 61.9594 58.7945 62.139 58.9044L63.6945 59.8562C63.8487 59.9506 64.0419 59.9543 64.1997 59.866L65.04 59.3955C65.1916 59.3106 65.2883 59.1531 65.2953 58.9795C65.329 58.1474 65.3099 57.3184 65.2915 56.5163C65.2872 56.3284 65.2829 56.142 65.2793 55.9573C65.2626 55.0942 65.2613 54.263 65.3374 53.4541C65.6056 53.3817 65.8074 53.3197 65.9844 53.2352C66.2304 53.1177 66.421 52.9607 66.6811 52.7463C66.6924 52.7371 66.7037 52.7277 66.7152 52.7183C66.8501 52.6072 66.9172 52.4338 66.8923 52.2609C66.7932 51.5733 66.5347 51.0586 66.1198 50.7093C65.7138 50.3675 65.2187 50.2361 64.7473 50.1879C64.2874 50.1409 63.7953 50.1689 63.3567 50.1939L63.3342 50.1952C62.8699 50.2216 62.4677 50.243 62.1217 50.2038C61.9839 50.1882 61.8457 50.2306 61.7403 50.3209C61.6622 50.3877 61.5918 50.4446 61.5182 50.504C61.4741 50.5397 61.4288 50.5764 61.38 50.6166C61.2605 50.7152 61.1318 50.8264 61.0169 50.9541C60.7691 51.2291 60.5947 51.5709 60.5947 52.044Z" fill="#F5DEA6" stroke="#F5DEA6" stroke-linejoin="round"/>
<path d="M59.1584 55.6632C59.1808 55.5838 59.1832 55.5 59.1654 55.4194C59.0856 55.0591 59.0482 54.6385 59.0083 54.1641C59.0072 54.1505 59.006 54.1368 59.0049 54.1231C58.9671 53.6738 58.9258 53.1816 58.8343 52.7173C58.6448 51.7552 58.2054 50.7572 56.9797 50.405C56.9479 50.3959 56.9152 50.3899 56.8822 50.3872C56.7608 50.3773 56.6225 50.3632 56.4722 50.3479C55.8664 50.286 55.0634 50.204 54.369 50.2983C53.9238 50.3588 53.4598 50.497 53.0873 50.8027C52.7033 51.1179 52.4654 51.5711 52.4079 52.1589C52.1255 53.8608 51.9306 55.951 52.483 57.5221C52.7671 58.3302 53.2605 59.034 54.0644 59.4568C54.861 59.8757 55.8911 59.981 57.1777 59.7419L57.1777 59.7419L57.1831 59.7408C57.723 59.6344 58.1222 59.3738 58.4004 59.0047C58.6672 58.6507 58.7993 58.2279 58.8765 57.8284C58.9447 57.4749 58.9767 57.0987 59.0054 56.7607C59.009 56.7179 59.0126 56.6757 59.0162 56.6343C59.0498 56.2475 59.0847 55.9246 59.1584 55.6632ZM56.5409 57.5892C55.6408 57.9565 55.0583 57.9231 54.6848 57.7487C54.2889 57.5639 53.9902 57.1564 53.8052 56.5219C53.4459 55.2892 53.612 53.5061 53.9813 52.1965C54.9054 51.5737 55.5417 51.5026 55.9523 51.629C56.3823 51.7615 56.7443 52.1665 56.9789 52.8546C57.2109 53.5352 57.2852 54.411 57.1938 55.303C57.1086 56.1348 56.8829 56.9449 56.5409 57.5892Z" fill="#F5DEA6" stroke="#F5DEA6" stroke-linejoin="round"/>
<path d="M60.3714 4.10822C60.5043 4.00518 60.5764 3.84229 60.5635 3.67466C60.5165 3.06561 60.3738 2.53128 60.0171 2.13677C59.6529 1.7339 59.144 1.56177 58.5604 1.50248C58.5452 1.50094 58.5299 1.50009 58.5146 1.49994C58.3473 1.49833 58.1796 1.48954 57.9963 1.47993C57.8759 1.47362 57.7488 1.46696 57.6107 1.46174C57.2852 1.44946 56.9261 1.44742 56.5876 1.49924C56.2503 1.55086 55.8891 1.6622 55.5943 1.91138C55.2861 2.17183 55.1009 2.53985 55.0491 3.00204C55.0239 3.2262 55.152 3.43944 55.3617 3.52258C55.8711 3.72458 56.1361 3.98394 56.2846 4.25481C56.4395 4.53761 56.4985 4.88937 56.4921 5.32621C56.4867 5.69855 56.4359 6.08907 56.3806 6.51466C56.3701 6.59536 56.3595 6.67731 56.3489 6.76064C56.2853 7.26391 56.2268 7.81357 56.2761 8.33923C56.2927 8.51592 56.4017 8.67058 56.5625 8.74562L58.3109 9.56143C58.4768 9.63885 58.6718 9.61938 58.8191 9.51067C59.2315 9.20645 59.4466 8.76678 59.5579 8.32016C59.6683 7.87723 59.6871 7.38687 59.6766 6.92125C59.6692 6.59066 59.6458 6.24699 59.624 5.928C59.6153 5.80054 59.6069 5.67702 59.5999 5.55984C59.58 5.22751 59.5712 4.94582 59.586 4.71741L60.3714 4.10822Z" fill="#F5DEA6" stroke="#F5DEA6" stroke-linejoin="round"/>
<path d="M7.87689 52.3084C7.9259 52.4231 8.01677 52.5168 8.13328 52.5687C8.24147 52.6169 8.36168 52.6246 8.47285 52.5931L8.65008 53.1951C8.65405 53.3103 8.69779 53.4231 8.77797 53.5122L8.80244 53.5395C8.9416 53.6942 9.15973 53.7448 9.34987 53.6734C10.0827 53.64 10.7561 53.4309 11.3584 53.2438C11.4017 53.2304 11.4446 53.2171 11.4871 53.2039C12.138 53.0029 12.7144 52.8406 13.3163 52.8526C13.4878 52.9194 13.6885 52.888 13.8327 52.7581L13.8599 52.7336C13.8786 52.7168 13.8958 52.6987 13.9115 52.6797C13.9013 52.7144 13.8902 52.7546 13.8809 52.7956C13.8515 52.9253 13.8141 53.167 13.9461 53.4109C14.0804 53.659 14.3216 53.7868 14.5597 53.8564C14.7955 53.9253 15.0464 53.8127 15.1517 53.5908C15.3389 53.1962 15.4101 52.7968 15.3485 52.3969C15.3088 52.1396 15.217 51.8997 15.0876 51.6753C15.4025 51.2348 15.5338 50.7089 15.5553 50.1738C15.5823 49.5037 15.4403 48.7773 15.235 48.0803C14.9292 47.0424 14.45 45.974 14.0865 45.1634C13.9663 44.8952 13.8586 44.6552 13.7741 44.4539C13.7156 44.3144 13.597 44.2089 13.4517 44.167L12.0567 43.7645C11.9398 43.7308 11.8146 43.7409 11.7046 43.7928C11.1458 44.0567 10.549 44.2007 9.89858 44.3576C9.73425 44.3973 9.5665 44.4378 9.39508 44.4812C8.57547 44.689 7.69816 44.9618 6.95142 45.5815C6.81722 45.6928 6.75074 45.8661 6.77599 46.0386C6.85217 46.5593 6.85851 47.0778 6.84673 47.6077C6.84333 47.7607 6.83826 47.9174 6.83313 48.076C6.82097 48.4519 6.80848 48.8381 6.81708 49.2091C6.84129 50.2529 7.03109 51.316 7.87689 52.3084ZM14.8521 53.0398C14.852 53.0399 14.8521 53.0388 14.8524 53.0365L14.8521 53.0398ZM13.4899 48.3716C13.6327 48.9682 13.8024 49.6776 14.0294 50.4774C13.6122 50.9614 13.0338 51.247 12.3325 51.4457C11.9395 51.557 11.5206 51.6375 11.0829 51.7127C10.9659 51.7329 10.8466 51.7528 10.726 51.7729C10.546 51.8029 10.3633 51.8334 10.1819 51.8657C9.67687 50.4529 9.35477 49.0477 9.02248 47.5981C8.98434 47.4317 8.94606 47.2647 8.90736 47.0971C10.155 46.5614 11.0221 46.2309 11.6474 46.088C12.333 45.9313 12.576 46.0345 12.7163 46.1667C12.8073 46.2524 12.9027 46.3944 13.0026 46.6352C13.1024 46.8755 13.1942 47.1828 13.2951 47.5751C13.3559 47.8114 13.4196 48.0778 13.4899 48.3716Z" fill="#F5DEA6" stroke="#F5DEA6" stroke-linejoin="round"/>
<path d="M6.0405 44.028C6.11178 44.1218 6.21391 44.1874 6.32886 44.2133C6.7461 44.3072 7.37813 44.2733 8.03141 44.1745C8.70524 44.0726 9.47206 43.8902 10.1906 43.6412C10.9027 43.3943 11.6005 43.0706 12.1127 42.6713C12.6099 42.2838 13.0543 41.7223 12.9423 41.0125C12.9384 40.9878 12.9326 40.9633 12.925 40.9394C12.8265 40.6286 12.7518 40.2698 12.6681 39.8677C12.6554 39.8071 12.6426 39.7454 12.6294 39.6828C12.5324 39.221 12.4195 38.7154 12.2447 38.2531C12.0698 37.7906 11.8187 37.3315 11.42 36.9892C11.0094 36.6365 10.4813 36.4413 9.82323 36.4462C9.80765 36.4463 9.79208 36.4472 9.77658 36.4488C8.06281 36.6223 5.98552 36.8575 4.61054 38.4002C4.51178 38.511 4.46735 38.6599 4.48928 38.8067C4.52049 39.0157 4.55031 39.2309 4.58066 39.4499C4.67195 40.1087 4.76803 40.8021 4.92122 41.4642C5.12793 42.3577 5.44861 43.2489 6.0405 44.028ZM8.32633 42.4469C8.04444 42.5076 7.75256 42.5756 7.45878 42.6627C7.42409 42.5793 7.38972 42.4974 7.35585 42.4166C6.91479 41.3643 6.55876 40.5149 6.68632 39.4911C7.66788 38.999 8.74668 38.7766 9.87871 38.5713C10.196 38.5283 10.3691 38.6028 10.4871 38.7017C10.6281 38.8199 10.7532 39.0267 10.8633 39.345C10.9714 39.6573 11.0457 40.0159 11.1259 40.4029L11.1285 40.4153L11.1288 40.4166C11.1846 40.6861 11.2449 40.9768 11.3247 41.2468C10.8353 41.7485 10.2451 41.9955 9.56044 42.1745C9.27846 42.2482 8.99564 42.3069 8.69678 42.369C8.57624 42.394 8.45309 42.4196 8.32633 42.4469Z" fill="#F5DEA6" stroke="#F5DEA6" stroke-linejoin="round"/>
<path d="M45.0849 46.4579C46.2586 46.2976 47.4445 45.9603 48.3773 45.0308L49.171 45.8337C49.3136 45.9779 49.5291 46.0218 49.7166 45.9447C49.9042 45.8677 50.0266 45.685 50.0266 45.4822V44.4162C50.0266 44.2314 49.9246 44.0616 49.7614 43.9748L49.5154 43.8439V42.7302C49.5154 42.509 49.3701 42.3141 49.1581 42.251C49.1113 42.2371 49.0637 42.2303 49.0167 42.2302C48.9108 38.6642 48.2089 35.1937 47.3887 31.7691C47.3862 31.7587 47.3834 31.7484 47.3803 31.7382C47.1701 31.0564 46.7735 30.5292 46.2285 30.1949C45.6882 29.8633 45.0402 29.7443 44.3591 29.8048C44.3526 29.8054 44.346 29.8061 44.3395 29.807C43.7406 29.8841 43.1636 29.9207 42.5716 29.9583C42.2113 29.9811 41.8455 30.0043 41.4658 30.0372C40.4909 30.1217 39.4897 30.2683 38.4939 30.6521C38.2953 30.7286 38.167 30.9225 38.174 31.1352C38.2286 32.7811 38.4247 34.2539 38.6253 35.7612C38.6882 36.2335 38.7515 36.7092 38.8111 37.1947C38.8137 37.2164 38.8178 37.2378 38.8233 37.259C38.9324 37.6811 39.0011 38.4153 39.0645 39.3441C39.0822 39.6036 39.0994 39.8763 39.1171 40.157C39.1612 40.8551 39.2085 41.6033 39.2744 42.3253C39.3667 43.3357 39.4986 44.3357 39.7227 45.1247C39.8347 45.5187 39.9766 45.8861 40.1648 46.1824C40.3523 46.4776 40.6148 46.7469 40.9816 46.8581C41.064 46.8831 41.1514 46.8863 41.2354 46.8676C41.8093 46.7396 42.4286 46.6811 43.0852 46.6331C43.2075 46.6242 43.3315 46.6156 43.4566 46.6069C43.9913 46.5699 44.547 46.5314 45.0849 46.4579ZM46.0925 32.9982L46.0923 32.9983L46.0952 33.0117C46.854 36.59 47.4995 40.2724 47.2323 43.8568C47.0444 43.9948 46.7717 44.1415 46.4179 44.2847C45.9813 44.4614 45.4539 44.62 44.8806 44.7486C43.8511 44.9796 42.708 45.1062 41.7261 45.0803C41.2974 43.6603 41.121 42.1409 40.9913 40.5661C40.9625 40.2159 40.9359 39.8621 40.9092 39.5062C40.8094 38.1751 40.7073 36.8147 40.4748 35.5031C40.4804 35.1498 40.4021 34.7486 40.328 34.3926C40.3157 34.3334 40.3033 34.275 40.2911 34.2171C40.2202 33.881 40.154 33.5668 40.1244 33.2726C40.089 32.9209 40.1183 32.6922 40.1899 32.5538C40.2377 32.4613 40.3326 32.3509 40.6241 32.3009C41.1275 32.3289 41.7282 32.2495 42.3042 32.1666C42.3807 32.1555 42.4572 32.1444 42.5335 32.1333C43.0776 32.0539 43.6143 31.9756 44.1189 31.9523C44.7001 31.9254 45.1626 31.977 45.4905 32.1348C45.7812 32.2745 46.0037 32.514 46.0925 32.9982Z" fill="#F5DEA6" stroke="#F5DEA6" stroke-linejoin="round"/>
<path d="M68.2145 22.003C68.1797 21.9565 68.1371 21.9164 68.0886 21.8846L67.4713 21.4794C67.3006 21.3674 67.0789 21.3703 66.9113 21.487C66.7437 21.6036 66.6639 21.8103 66.7096 22.0093C66.7642 22.2472 66.8135 22.4629 66.8598 22.6651C66.9168 22.9147 66.9691 23.1436 67.021 23.3682C67.0149 23.5058 67.0659 23.643 67.1672 23.7442L67.1917 23.7686C67.3349 23.9115 67.5483 23.9528 67.7323 23.8783C67.9108 23.8536 68.0821 23.7897 68.2272 23.6694C68.4363 23.4958 68.5227 23.2615 68.5433 23.0525C68.5814 22.6654 68.412 22.2669 68.2145 22.003Z" fill="#F5DEA6" stroke="#F5DEA6" stroke-linejoin="round"/>
<path d="M56.5257 58.1085C56.6357 58.0755 56.7311 58.0056 56.7956 57.9106C57.4414 56.9603 57.729 55.7031 57.6974 54.5071C57.6658 53.3146 57.314 52.1018 56.5852 51.2644C56.4902 51.1553 56.3527 51.0926 56.208 51.0926H54.5166C54.3405 51.0926 54.1774 51.1852 54.0872 51.3365C53.771 51.8665 53.5003 52.6024 53.3263 53.3783C53.1519 54.156 53.0661 55.0115 53.146 55.7852C53.2246 56.546 53.4734 57.3131 54.0536 57.8012C54.6612 58.3123 55.5037 58.415 56.5257 58.1085ZM55.9576 55.3709C55.9483 55.8503 55.8868 56.2905 55.6946 56.7092L55.3447 56.6794C55.2607 56.5101 55.1898 56.2829 55.1438 56.0046C55.0808 55.6236 55.0716 55.1878 55.1168 54.7618C55.1622 54.3342 55.2603 53.9376 55.3977 53.6291C55.4907 53.4205 55.5897 53.2781 55.6816 53.1872C55.8125 53.2395 55.8681 53.2892 55.8906 53.3159C55.9128 53.3423 55.9352 53.3829 55.934 53.4914C55.9156 53.8215 55.9255 54.1501 55.9373 54.4597C55.9388 54.4976 55.9402 54.5352 55.9417 54.5725C55.9525 54.8497 55.9627 55.1106 55.9576 55.3709Z" fill="#F5DEA6" stroke="#F5DEA6" stroke-linejoin="round"/>
<path d="M1.34808 37.4043C5.32949 36.6325 8.28521 35.1578 12.2832 35.5108L13.273 36.812L13.4247 36.7163C13.6287 38.7174 14.886 40.7335 14.2132 42.7616C16.725 44.4726 16.6754 48.4031 17.9134 51.4363C17.0063 54.6699 10.0223 55.0079 7.25126 55.8844C7.10237 51.9 5.51698 48.3104 4.63191 44.4636C3.90677 41.7446 3.55661 39.3127 1.34808 37.4043ZM7.65106 45.9204C7.77513 48.4391 8.94143 50.53 9.44324 52.8871C11.5112 52.1423 13.5791 52.3307 14.8667 50.6496C14.2353 48.7023 14.2243 46.1627 12.796 44.7239C11.0121 44.8615 9.38259 45.3521 7.65106 45.9204ZM11.1775 42.63L12.0984 41.5621C11.6297 37.5418 10.9184 36.7761 7.39188 37.9068C4.11356 38.1401 6.01328 41.4604 6.66949 43.5692C8.26867 43.6171 9.65004 42.7377 11.1693 42.624L11.1775 42.63Z" fill="#3290FF"/>
<path d="M35.5375 29.5551C39.2239 29.4684 43.0647 28.8432 46.6546 28.8851C49.4118 29.9978 49.591 33.5485 50.1755 36.2077C50.3878 39.3964 52.2572 46.6263 48.1573 47.2425C44.7748 47.9006 41.3499 48.2687 37.9142 48.3433C37.1725 47.3561 37.3848 46.4139 37.9887 45.4567C38.0253 43.6464 37.8567 41.8381 37.4869 40.0724C37.2525 37.7332 36.9354 35.5227 36.8554 33.0878C36.6679 31.9242 35.3914 31.1435 35.5375 29.5551ZM39.075 31.5772C39.3866 36.124 40.1338 40.1681 40.4702 44.6371C40.5253 45.4059 40.7624 45.9532 41.2366 46.0938C43.6106 45.8695 45.7502 45.6242 47.7492 44.8764C48.91 42.1364 47.6361 33.2942 45.866 31.0418C43.5904 30.878 41.3049 31.0582 39.075 31.5772Z" fill="#3290FF"/>
<path d="M33.2738 48.442C31.6195 51.2837 27.9965 51.197 24.175 51.3346C20.2681 50.1949 21.6936 37.141 18.3408 33.3002L21.9252 32.3311C22.3332 37.7602 23.7642 42.6838 24.63 48.0801C25.4378 48.9954 26.7227 49.0582 27.7539 48.9595C29.4827 48.9595 29.9597 48.6604 30.8282 46.9404C30.2547 43.5932 29.4496 40.2519 28.9202 36.8598C28.4846 35.1548 28.5645 32.8934 27.2659 31.6879C28.2612 31.0358 29.4275 31.2931 30.3843 30.6499C30.5525 30.8892 30.8144 31.0897 30.7979 31.2482C30.944 37.0932 33.442 42.5403 33.2738 48.442Z" fill="#3290FF"/>
<path d="M58.869 30.4136C58.8359 29.6179 57.9536 29.3218 58.1934 28.3407C59.6134 28.4962 61.9791 27.8112 63.1068 28.7774C62.4313 29.8812 62.3927 31.1704 62.8449 32.5703C63.8981 36.2436 65.0975 39.866 65.8778 43.638C66.184 44.9956 66.9359 46.1857 67.9926 46.9853V47.739L62.8531 47.3771C62.7704 46.5455 63.581 46.6771 63.9009 45.9622C63.9312 44.2781 63.3026 42.5133 62.9993 40.7544C61.0968 40.5241 59.8037 40.0246 58.0363 40.6857C57.529 42.8154 55.7561 45.3999 57.2643 47.4579C55.7506 47.7121 54.179 47.431 52.6597 47.4011C52.5219 46.5695 53.3159 46.6502 53.4869 46.052C55.3508 40.8801 57.4904 35.756 58.869 30.4136ZM60.6225 33.0041C59.6162 34.0241 59.5197 35.6513 58.9848 36.9854C58.3616 38.8221 60.4626 38.4542 61.6096 38.4572L62.2686 37.6166C61.4387 36.1778 61.7585 34.3561 60.6336 33.0041H60.6225Z" fill="#3290FF"/>
<path d="M72.349 30.3389L71.7975 28.4335C75.5914 28.3826 81.7703 27.195 83.2648 32.1994C83.3585 32.7109 83.0194 33.6951 83.3888 34.422C83.1627 36.2527 83.3282 37.9247 82.2501 39.4443C79.457 43.9551 73.496 40.6079 73.5676 43.0907C73.529 43.9671 73.7193 44.8645 73.3305 45.723C73.1679 46.3781 73.7579 47.108 74.0446 47.6494C73.959 47.8382 73.8084 47.9829 73.6253 48.0523C73.4421 48.1217 73.2412 48.1102 73.0658 48.0203C72.156 47.3772 70.838 48.3463 70.2673 47.1768C71.4253 45.2623 71.0779 42.8573 71.3702 40.6588C71.8527 37.2786 72.2221 33.8596 72.4482 30.4556L72.349 30.3389ZM80.8163 33.1208C79.7466 29.953 77.1272 30.5333 74.6181 30.3329C74.29 33.2464 74.3011 36.0911 73.9261 38.9717L74.2707 39.6507C79.3716 41.0447 80.604 38.0534 80.8163 33.1208Z" fill="#3290FF"/>
<path d="M87.1662 46.1448C89.9069 46.8208 92.0437 46.9763 94.7954 46.5425C94.6438 47.6254 94.1585 48.3642 93.6788 49.1779C92.3967 49.3873 91.1146 48.816 89.8352 48.6933C88.0871 48.6066 86.306 48.5736 84.6131 47.9216C84.6572 47.069 84.3815 46.1806 85.079 45.5285C85.2665 44.2752 85.3272 42.9889 85.749 42.2082C86.5955 37.7033 86.8354 34.1318 87.7177 29.7825L95.5785 31.1076C96.1906 31.7627 96.8799 32.4507 97.0177 33.728C94.5114 33.3989 92.1954 32.4686 89.7304 32.5015C89.179 32.9652 88.6083 36.6893 88.8013 37.5867C89.8325 38.1849 90.9602 38.2687 92.0217 38.514L94.5804 36.6564C94.7242 36.8507 94.8132 37.0858 94.8367 37.3336C94.8602 37.5815 94.8171 37.8314 94.7127 38.0533C94.1034 39.3007 94.437 40.7455 93.9214 41.9958C93.0942 42.1274 93.279 41.1673 92.8185 40.919L88.7682 40.2788C87.7563 40.6856 87.8473 41.6967 87.7094 42.4415C87.5605 43.7696 87.0229 44.7448 87.1662 46.1448Z" fill="#3290FF"/>
<path d="M97.4919 47.3263C99.3558 48.11 101.063 48.9894 103.379 48.4929C107.142 47.1109 105.551 42.4925 102.637 40.8562C99.7142 39.2679 98.8898 34.7899 102.392 33.3122C105.016 32.3251 107.845 33.752 110.476 34.0511C110.636 35.3553 109.505 36.0911 109.635 37.497C108.642 36.6953 108.532 35.7231 107.316 35.4779C103.073 33.4767 100.423 37.0842 104.901 39.9169C108.504 42.1424 109.588 48.0412 105.452 50.3864C104.255 51.0654 103.02 51.6457 101.592 51.1552C99.9872 50.7035 98.2833 50.6975 96.7613 50.0364C96.662 49.0164 97.0701 48.2536 97.4919 47.3263Z" fill="#3290FF"/>
<path d="M117.22 38.1221C115.742 37.1709 114.308 37.2487 112.75 36.7312C113.169 35.5347 114.278 35.5915 114.802 34.9364C116.98 35.5347 119.056 36.1329 121.143 36.6773C122.555 37.0781 123.098 38.4721 123.983 39.6208L123.592 40.0694C121.904 39.7284 118.733 36.9556 118.574 40.246C118.279 42.1364 117.633 43.9042 117.14 45.7229C116.721 48.4151 114.628 51.191 116.266 53.6827C115.163 54.3767 113.233 53.0486 111.926 52.8811C112.218 51.9837 113.271 51.4183 113.511 50.4342C114.636 46.2404 115.841 42.268 117.22 38.1221Z" fill="#3290FF"/>
<path d="M74.3343 22.494C73.9859 19.2474 75.1927 14.534 73.54 11.9612L73.8187 11.6184L76.4859 11.8867C76.4859 14.3701 78.3059 15.968 79.4765 18.0578C80.1677 17.1843 79.9698 15.6908 79.7022 14.6176C79.535 13.8454 79.7524 13.0732 79.0361 12.4025C79.6855 11.4008 81.2853 11.836 82.2607 12.2623C80.8365 14.1644 81.8901 16.9429 81.5668 19.3011C81.7619 21.4297 80.8728 21.6503 81.8594 23.8594C81.1487 24.709 80.2791 24.1575 79.4124 24.3393C79.2256 23.1647 80.0367 22.485 79.2786 21.4892C78.1442 19.8764 77.5757 17.9118 76.0177 16.6955C76.4302 19.3458 75.3572 21.7933 76.5751 24.1664C75.5718 24.6195 74.7357 24.0114 73.7379 23.9488C73.9553 23.427 74.1281 23.0037 74.3343 22.494Z" fill="#3290FF"/>
<path d="M86.8103 13.9428C86.5065 13.275 86.2529 12.7057 85.9268 11.9902C87.2256 11.692 88.4547 11.9007 89.6671 11.8649C92.9837 11.5668 95.4474 11.8649 95.4502 16.0864C96.0076 25.4176 94.0929 24.7856 86.3755 24.1565C86.1303 23.1697 86.3505 22.5586 86.8103 22.0995V13.9428ZM88.5355 22.8865C95.0461 23.4291 93.3265 21.3959 93.4909 15.8866C93.6581 12.4552 90.7039 13.4718 88.5355 13.3764V22.8865Z" fill="#3290FF"/>
<path d="M34.2953 12.7423C36.4302 11.0907 39.3539 12.0358 41.8009 11.8062L42.5646 12.9779C41.7089 14.0124 40.3489 13.2342 39.1421 13.3326C38.2455 13.3933 37.3531 13.5098 36.4692 13.6814C36.3828 13.8811 36.1766 14.1316 36.1738 14.388C36.2268 16.9131 35.87 19.456 36.5361 21.9245C37.7429 22.8189 39.1002 22.4969 40.4687 22.5207C40.9899 21.1345 40.1649 19.8376 40.307 18.6451C39.9837 17.712 38.9135 18.4275 38.6961 17.4765C39.0501 16.1767 41.2435 17.3006 42.1967 17.2023C42.375 19.474 42.5478 21.6592 42.729 23.925C41.7201 24.6852 40.4798 24.2618 39.3121 24.2946C38.1443 24.3274 36.904 24.5748 35.6889 24.0442C33.3394 21.1077 33.7742 16.776 34.2953 12.7423Z" fill="#3290FF"/>
<path d="M47.7959 12.5008L48.2251 11.8062C50.5607 11.9016 53.6989 11.1176 55.0924 14.1375C54.9893 16.2661 55.753 18.9612 53.37 20.1C53.9274 21.6353 55.1342 22.6549 56.1571 23.8086C54.3344 25.7315 52.5813 21.5638 51.3829 20.4131L50.268 20.5919C49.8611 21.8351 50.7836 22.9769 50.1956 24.2528C49.6632 24.4228 48.9553 24.3274 48.1861 24.2708C48.5651 22.7473 48.6877 21.531 48.4453 20.097C48.2 17.5302 48.9888 14.7636 47.7959 12.5008ZM52.8795 18.6303C53.7714 16.9161 53.5205 15.2823 53.0551 13.6784C52.2023 13.3803 50.5217 12.8794 49.9392 13.6784C50.1538 15.4672 50.0367 16.9042 50.1315 18.6422L52.8795 18.6303Z" fill="#3290FF"/>
<path d="M62.9575 13.914C62.8906 13.2909 62.8237 12.6708 62.7457 11.9732C63.2892 11.4157 63.7268 11.3561 65.9731 11.6393C65.8038 12.1605 65.597 12.6668 65.3544 13.1538C66.3076 15.6968 67.2385 18.3172 68.161 20.8871C68.6181 21.9782 68.6599 23.2721 69.6883 24.1337C68.6069 24.3871 67.6482 24.3155 66.6392 24.3095C66.3605 23.5523 67.1186 22.8428 66.6169 22.0468C66.2602 21.4804 66.2323 20.6784 66.0428 19.9331H62.9965C62.7011 20.8275 62.389 21.7904 62.0406 22.8637L62.8934 23.6984V24.1963C61.7619 24.4944 60.608 24.1963 59.443 24.3632L59.2424 23.767C61.4219 22.0379 61.6588 16.7193 62.8098 13.8961L62.9575 13.914ZM65.3934 18.0371C65.0311 17.0682 64.7217 16.2304 64.3901 15.339C63.6404 16.3944 63.4787 16.9847 63.6236 18.0371H65.3934Z" fill="#3290FF"/>
<path d="M57.1425 58.1205C52.2258 59.5872 52.4224 55.1312 53.4303 51.4995C58.1886 48.7978 58.978 54.9963 57.1425 58.1205ZM54.1679 52.5145C54.2607 54.0839 53.3484 56.0876 54.8917 57.3783L56.4022 57.305C56.7518 55.5449 57.0168 53.8786 56.4869 52.1919L54.9163 51.7695L54.1679 52.5145Z" fill="#3290FF"/>
<path d="M70.0105 52.2095V53.6762L70.7944 54.1544L72.2831 53.2449C72.5808 53.8962 72.4033 54.5474 72.4361 55.2515C70.7972 55.228 69.7592 54.2307 70.0023 56.9823C70.9201 57.7362 71.9772 56.9559 73.0588 56.8649C73.3566 59.1648 70.3492 57.8975 68.9616 58.2026V51.344C69.5516 50.8893 69.5516 50.8894 72.294 50.9363L73.0152 51.7577C72.447 52.4735 70.8928 51.8222 70.0105 52.2095Z" fill="#3290FF"/>
<path d="M49.1938 53.6908C49.2539 52.7228 49.2129 52.142 48.5819 51.2912H50.6797C50.4339 51.7254 50.2563 52.0393 50.0678 52.3678C50.2891 54.1279 49.5215 56.4043 50.6141 57.9415C50.4038 58.3053 50.3956 58.3082 49.0244 58.1263C49.2429 57.0204 49.4314 55.9116 48.9971 54.7734C45.1867 55.2251 47.675 55.8646 46.872 57.1994L47.4183 58.1762H45.5336C46.252 56.2753 45.8504 54.3069 45.987 52.3473L45.1675 51.6344C45.8422 50.9099 46.5661 51.2736 47.38 51.2179C47.3055 51.5867 47.1294 51.923 46.8747 52.183V53.8669C47.2375 54.0749 47.6476 54.1687 48.0578 54.1376C48.4681 54.1065 48.8618 53.9516 49.1938 53.6908Z" fill="#3290FF"/>
<path d="M64.1979 58.4139C63.1845 58.6075 63.1845 58.6016 62.3841 58.2203C63.3866 56.4602 62.6054 54.1749 62.8403 52.1039H61.0785L61.002 51.8721C62.1848 50.5462 63.6652 50.9921 65.2304 50.9363L66.0744 52.01L64.0749 52.1449C63.8769 54.2321 63.9182 56.3375 64.1979 58.4139Z" fill="#3290FF"/>
<path d="M75.7521 58.4696L75.4407 58.1968C76.2383 55.8734 75.0037 52.6231 76.1864 50.863L76.8174 51.2766V57.2052C77.7516 57.5983 78.5656 57.2053 79.4779 57.0439C79.5025 57.4282 79.5243 57.745 79.5462 58.0295C78.2706 58.5048 77.279 58.1703 75.7521 58.4696Z" fill="#3290FF"/>
<path d="M65.2495 3.22419V8.09085H63.8092C63.8708 7.21079 63.9324 6.33074 63.9998 5.30695L62.3101 5.22773C62.048 6.13126 62.148 7.10132 62.5888 7.93243C61.92 8.29618 61.3685 8.13782 60.8287 8.12608C60.7847 6.13423 62.0373 3.89298 60.7524 2.36169C61.433 1.87179 62.0344 1.87766 62.7472 2.36169C62.1811 2.90145 62.1605 3.4559 62.2221 4.20688L63.0025 4.60587L64.2199 4.20688C64.1935 3.63484 64.1612 3.03345 64.126 2.35581H65.6338C65.4695 2.73717 65.3229 3.07165 65.2495 3.22419Z" fill="#3290FF"/>
<path d="M70.0722 3.98395C70.0722 4.6968 70.2717 5.22482 69.8375 5.65898H68.1449L68.0364 7.20201C68.9164 7.33695 69.7231 7.38975 70.6208 6.90866C70.4888 7.39269 70.3949 7.73301 70.2922 8.1173H66.9422V2.36171H69.9842L70.5005 3.01008C69.685 3.3533 68.9458 3.08043 68.1537 3.25351C68.1185 3.62607 68.0774 4.03967 68.0422 4.40636C68.8431 5.1016 69.2948 4.22157 70.0722 3.98395Z" fill="#3290FF"/>
<path d="M56.8509 8.08206C57.3936 6.47743 57.1149 4.92566 57.2146 3.30049L55.654 3.06873C55.9033 2.68444 56.094 2.39402 56.2231 2.18867C57.7104 2.41162 58.9425 1.78969 60.0572 3.11858L58.0976 3.20953C58.1445 4.84643 57.8952 6.43642 58.4291 8.07039L56.8509 8.08206Z" fill="#3290FF"/>
</svg>
