<svg width="91" height="61" viewBox="0 0 91 61" fill="none" xmlns="http://www.w3.org/2000/svg">
<path d="M0.793427 20.235H90.5376" stroke="#F5DEA6"/>
<path d="M0.793427 44.3485H90.5376" stroke="#F5DEA6"/>
<path d="M74.973 30.6471C74.973 22.8742 71.8853 15.4198 66.3891 9.92356C60.8928 4.42734 53.4384 1.3396 45.6656 1.3396C37.8927 1.3396 30.4383 4.42734 24.9421 9.92355C19.4458 15.4198 16.3581 22.8742 16.3581 30.6471L45.6656 30.6471H74.973Z" fill="#3290FF" stroke="#F5DEA6"/>
<path d="M74.973 30.6471C74.973 38.4199 71.8853 45.8743 66.3891 51.3706C60.8928 56.8668 53.4384 59.9545 45.6656 59.9545C37.8927 59.9545 30.4383 56.8668 24.9421 51.3706C19.4458 45.8743 16.3581 38.4199 16.3581 30.6471L45.6656 30.6471H74.973Z" fill="#3290FF" stroke="#F5DEA6"/>
<path d="M85.5156 39.8137V40.3137H86.0156H89.1482H89.6482V39.8137V23.6966V23.1966H89.1482H85.8113H85.509L85.3686 23.4643L81.001 31.7874L76.6755 23.466L76.5355 23.1966H76.2319H72.8723H72.3723V23.6966V39.8137V40.3137H72.8723H76.0049H76.5049V39.8137V31.2652L79.6935 37.3446L79.8339 37.6124H80.1363H81.8842H82.1865L82.327 37.3446L85.5156 31.2652V39.8137Z" fill="#03001B" stroke="#F5DEA6"/>
<path d="M60.6397 23.1966H60.2913L60.1706 23.5235L54.2232 39.6406L53.9748 40.3137H54.6923H57.9157H58.2647L58.3851 39.9861L59.7402 36.2958H64.6736L66.0506 39.9884L66.1719 40.3137H66.519H69.7425H70.459L70.2118 39.6412L64.287 23.5241L64.1666 23.1966H63.8177H60.6397ZM60.6168 33.0939L62.2193 28.4907L63.7589 33.0939H60.6168Z" fill="#03001B" stroke="#F5DEA6"/>
<path d="M41.799 39.6976L41.8017 39.6989C42.8433 40.1871 43.9913 40.4272 45.2373 40.4272C46.438 40.4272 47.5538 40.1947 48.5776 39.7237C49.6046 39.2582 50.492 38.6216 51.2348 37.8143C51.9865 36.9986 52.5712 36.0775 52.9873 35.0533L52.9883 35.0508C53.4054 34.008 53.6143 32.9235 53.6143 31.8005C53.6143 30.7086 53.4132 29.6481 53.0125 28.6222C52.6134 27.6006 52.0541 26.6737 51.3359 25.8437C50.6092 25.004 49.7298 24.3351 48.7028 23.8375C47.6746 23.3319 46.5392 23.0831 45.3054 23.0831C44.0882 23.0831 42.9562 23.3237 41.9168 23.8106C40.9041 24.2771 40.0184 24.9214 39.2627 25.7413L39.2625 25.7416C38.5253 26.5429 37.9418 27.4631 37.5116 28.4988L37.5116 28.4988L37.5101 28.5024C37.0917 29.5324 36.8831 30.618 36.8831 31.7551C36.8831 32.8471 37.0841 33.9142 37.4839 34.9538L37.4839 34.9538L37.4849 34.9562C37.884 35.9778 38.4433 36.9047 39.1615 37.7347L39.1615 37.7347L39.1683 37.7424C39.9091 38.5637 40.7873 39.2159 41.799 39.6976ZM49.1657 33.5526L49.1657 33.5525L49.1635 33.5595C48.9837 34.1404 48.715 34.6712 48.3566 35.1543C48.0091 35.6079 47.5747 35.9766 47.0478 36.2611C46.5386 36.5213 45.9466 36.6578 45.26 36.6578C44.5875 36.6578 44.0004 36.5284 43.4884 36.2803C42.9776 36.0104 42.5423 35.6553 42.1791 35.2131C41.8243 34.7475 41.5488 34.2179 41.3544 33.6207C41.1591 33.0208 41.0611 32.3996 41.0611 31.7551C41.0611 31.1412 41.1514 30.542 41.3323 29.9559C41.5272 29.373 41.8037 28.8492 42.1614 28.3815C42.5107 27.9247 42.9388 27.5634 43.4499 27.2944L43.4499 27.2944L43.4541 27.2922C43.9611 27.0192 44.5584 26.8752 45.26 26.8752C45.915 26.8752 46.4842 27.0111 46.9794 27.2717L46.9863 27.2753L46.9933 27.2787C47.5145 27.5327 47.945 27.8842 48.2906 28.3361L48.2956 28.3426L48.3008 28.349C48.6678 28.7975 48.9492 29.3169 49.143 29.9123L49.1428 29.9124L49.1476 29.9257C49.3547 30.5056 49.459 31.1145 49.459 31.7551C49.459 32.3507 49.3622 32.9492 49.1657 33.5526Z" fill="#03001B" stroke="#F5DEA6"/>
<path d="M34.135 23.6966V23.1966H33.635H30.5251H30.0251V23.6966V29.7116H23.7157V23.6966V23.1966H23.2157H20.083H19.583V23.6966V39.8137V40.3137H20.083H23.2157H23.7157V39.8137V33.4356H30.0251V39.8137V40.3137H30.5251H33.635H34.135V39.8137V23.6966Z" fill="#03001B" stroke="#F5DEA6"/>
<path d="M2.23775 28.5807L2.23773 28.5807L2.23621 28.5848C1.86786 29.5778 1.68289 30.5976 1.68289 31.6417C1.68289 32.7193 1.8842 33.7855 2.28281 34.8379L2.28274 34.8379L2.28616 34.8465C2.69955 35.8799 3.26474 36.8195 3.98095 37.663L3.98088 37.6631L3.9876 37.6707C4.7262 38.5056 5.60147 39.1797 6.60998 39.692L6.60996 39.692L6.61566 39.6948C7.64329 40.2005 8.77147 40.4499 9.99172 40.4499C10.925 40.4499 11.8619 40.2969 12.8009 39.9945C13.7474 39.6897 14.602 39.2391 15.3611 38.6419C16.1531 38.0308 16.7322 37.2789 17.085 36.3886L17.2443 35.9866L16.8695 35.771L14.3043 34.2955L13.8138 34.0133L13.5942 34.5348C13.3803 35.0429 13.0858 35.444 12.7148 35.7511C12.322 36.0761 11.9007 36.3091 11.4495 36.4551C10.9806 36.6068 10.5255 36.6805 10.0825 36.6805C9.46037 36.6805 8.89497 36.5531 8.37895 36.3031C7.86624 36.0321 7.42113 35.6749 7.04131 35.2288C6.672 34.7622 6.38254 34.2322 6.17408 33.6351C5.96537 33.0223 5.86091 32.3889 5.86091 31.7325C5.86091 31.1469 5.94422 30.5592 6.11256 29.9683C6.29234 29.3895 6.56016 28.8692 6.91579 28.4042C7.26612 27.946 7.69643 27.5756 8.21085 27.2909C8.71599 27.0195 9.31964 26.8752 10.0371 26.8752C10.4686 26.8752 10.9116 26.9426 11.3676 27.0807L11.3676 27.0809L11.3811 27.0846C11.8052 27.2003 12.2116 27.4141 12.6013 27.7365L12.6012 27.7366L12.6093 27.7431C12.975 28.0331 13.2853 28.4408 13.531 28.9866L13.7769 29.5332L14.2705 29.1932L16.6767 27.5361L17.0369 27.2881L16.8391 26.8981C16.2633 25.7631 15.3849 24.8483 14.2219 24.1534C13.0565 23.448 11.6851 23.1058 10.1279 23.1058C8.80991 23.1058 7.61566 23.352 6.55593 23.8569C5.5124 24.3389 4.62329 25.0006 3.8948 25.8419C3.17523 26.6578 2.62222 27.5715 2.23775 28.5807Z" fill="#03001B" stroke="#F5DEA6"/>
</svg>
