<svg width="83" height="72" viewBox="0 0 83 72" fill="none" xmlns="http://www.w3.org/2000/svg">
<path d="M65.3028 40.4846C65.3028 51.4051 56.45 60.2579 45.5296 60.2579C40.212 60.2579 35.3853 58.1594 31.8312 54.7442L64.7322 35.7489C65.105 37.2657 65.3028 38.8517 65.3028 40.4846ZM59.2279 26.225L26.327 45.2204C25.9542 43.7036 25.7563 42.1175 25.7563 40.4846C25.7563 29.5642 34.6091 20.7114 45.5296 20.7114C50.8472 20.7114 55.6738 22.8099 59.2279 26.225ZM45.5296 71.2579C62.5252 71.2579 76.3028 57.4802 76.3028 40.4846C76.3028 23.4891 62.5252 9.71143 45.5296 9.71143C28.534 9.71143 14.7563 23.4891 14.7563 40.4846C14.7563 57.4802 28.534 71.2579 45.5296 71.2579Z" fill="#3290FF" stroke="#F5DEA6"/>
<path d="M49.1995 21.3904C51.6192 22.1428 56.8125 24.1233 58.2278 26.0266L26.3356 45.0104L25.8554 41.0409C25.0871 41.4464 23.3585 42.396 22.5902 42.9506C21.8219 43.5052 19.6821 44.3539 18.7082 44.7089C18.6997 45.7274 18.5798 47.7696 18.169 47.7901C17.6555 47.8158 15.9352 46.5577 15.0878 45.5819C14.2405 44.6062 12.3148 44.7089 11.8269 44.5292C11.4366 44.3854 9.37878 43.4169 8.39863 42.9506C7.20077 43.1397 4.77753 43.4045 4.66749 42.9506C4.55744 42.4967 6.13603 40.4582 6.93908 39.4957C6.74657 39.477 6.1119 39.4212 5.11331 39.3466C3.86507 39.2535 2.50511 39.2907 2.3747 38.5455C2.27037 37.9494 4.86491 36.3472 6.17522 35.6206C5.9765 35.4033 5.48591 34.8869 5.11331 34.5602C4.64756 34.1518 3.11818 33.3325 2.80338 32.5455C2.48859 31.7585 3.59037 31.5066 5.00696 31.8214C6.42356 32.1362 9.50858 33.2695 11.4918 34.5602C13.0784 35.5927 15.528 36.5988 16.5545 36.9728L26.9718 26.7816C26.5095 25.7475 25.5569 23.4207 25.4441 22.3866C25.303 21.0939 26.0786 19.7307 26.7132 18.5556C27.3478 17.3804 29.7686 15.1006 30.7087 13.5024C31.6489 11.9042 32.6125 9.27189 32.918 8.84883C33.2236 8.42578 35.5504 5.37038 37.0311 5.39388C38.5118 5.41739 39.6634 5.04134 41.0971 3.9602C42.5308 2.87906 45.3747 2.03295 46.2442 2.66753C47.1138 3.30211 48.5006 6.05197 48.9471 6.16948C49.3044 6.2635 50.8039 5.9893 51.509 5.84044C51.6343 6.09114 51.7252 6.74766 51.0859 7.36814C50.4466 7.98862 47.9759 8.6138 46.8204 8.84883L47.0904 9.95347L46.2442 10.2355C46.416 11.8391 46.7716 15.3634 46.8204 16.6322C46.8692 17.9011 48.4268 20.333 49.1995 21.3904Z" fill="#3290FF"/>
<path d="M42.7775 60.0764C40.3281 59.7703 35.6759 57.61 33.6559 56.5681L35.7659 54.2838L34.6994 53.0943L56.5251 40.9161L64.4715 36.3365L66.2008 36.7153C68.0716 35.7167 72.1026 33.6094 73.2595 33.1687C74.7057 32.6177 76.1863 32.5489 77.1849 32.7899C78.1834 33.0309 78.149 33.3753 77.5636 34.3049C76.9783 35.2346 76.1519 35.4412 74.6024 36.7153C73.3628 37.7345 72.5938 39.1829 72.3643 39.7798C73.03 39.8142 74.5955 39.9382 75.5321 40.1585C76.7028 40.434 79.3197 41.2948 80.0084 41.9146C80.697 42.5344 80.456 43.533 80.0084 43.8429C79.5608 44.1528 76.8751 43.7396 75.5322 43.533L75.5321 43.533C74.4578 43.3677 72.9726 43.8084 72.3643 44.0495C72.7889 44.2561 73.7829 44.7863 74.3614 45.2546C75.0845 45.84 76.6339 47.8371 76.4618 48.147C76.2896 48.4569 75.0845 48.6979 73.2595 48.147C71.4346 47.5961 69.9195 45.4612 69.1276 45.2546C68.494 45.0893 65.7595 45.7574 64.4715 46.1121C64.3133 46.5867 63.7122 48.0768 62.5732 50.2408C61.1495 52.9458 58.2278 56.1854 53.5576 58.2904C48.8874 60.3954 45.8393 60.4592 42.7775 60.0764Z" fill="#3290FF"/>
<path d="M36.373 23.3179L35.865 22.9987C35.7136 23.2396 35.6135 23.4937 35.5338 23.7204C35.4982 23.8216 35.4689 23.91 35.4412 23.9937C35.3995 24.1193 35.3614 24.2343 35.3111 24.3654L35.3141 24.8026C35.3674 24.9362 35.4089 25.0567 35.4544 25.1883C35.4817 25.2675 35.5103 25.3506 35.5438 25.443C35.6249 25.6671 35.7255 25.918 35.8742 26.1556L35.8742 26.1556L35.8777 26.1611C36.1628 26.6057 36.6092 26.8693 37.1074 26.8703C37.5931 26.8713 38.0364 26.6233 38.3469 26.2357C38.7214 25.771 38.8775 25.1407 38.88 24.5668C38.8824 23.9936 38.7319 23.3623 38.358 22.898C38.0446 22.5057 37.6015 22.2339 37.0959 22.2427C36.5774 22.2517 36.1443 22.5529 35.8646 22.9993L36.373 23.3179ZM36.373 23.3179C36.7674 22.6883 37.4284 22.6948 37.89 23.2735C38.4145 23.9236 38.409 25.2033 37.8792 25.8599C37.4457 26.4017 36.7566 26.4201 36.3828 25.8372C36.2284 25.5906 36.1304 25.3071 36.0283 25.0118C35.9791 24.8697 35.9291 24.7249 35.8713 24.5802C35.925 24.4403 35.9717 24.3001 36.0175 24.1622C36.1179 23.8605 36.2146 23.57 36.373 23.3179Z" fill="#03001B" stroke="#F5DEA6" stroke-width="1.2" stroke-linejoin="bevel"/>
<path d="M37.2286 13.5667L37.2719 13.581L37.4008 13.5517L37.8414 12.7898C37.8315 12.7577 37.8218 12.7175 37.8089 12.658C37.8065 12.6473 37.804 12.6354 37.8013 12.6227C37.7909 12.574 37.7777 12.5125 37.7634 12.4551C37.7289 12.3168 37.6624 12.0848 37.4908 11.8877L37.4908 11.8877L37.4886 11.8852C37.3782 11.7599 37.2205 11.5901 37.0391 11.4498C36.8762 11.3239 36.5918 11.1398 36.241 11.1512C35.9189 11.1615 35.6411 11.329 35.4629 11.4689C35.2715 11.6192 35.0906 11.8201 34.9743 12.035L37.2286 13.5667ZM37.2286 13.5667C37.1738 13.8136 37.1111 14.0659 37.0333 14.3089C36.9605 14.537 36.7999 14.7194 36.6701 14.8321C36.5975 14.8951 36.5107 14.9574 36.4132 15.0066C36.3229 15.0522 36.1818 15.1075 36.0123 15.1063C35.7087 15.1042 35.4757 14.9244 35.3706 14.833C35.2384 14.718 35.1157 14.5705 35.032 14.4204L35.0317 14.42C34.6229 13.6855 34.5454 12.8268 34.9742 12.0352L37.2286 13.5667Z" fill="#03001B" stroke="#F5DEA6" stroke-width="1.2" stroke-linejoin="bevel"/>
<path d="M41.2981 11.8053C41.503 11.8059 41.6719 11.8806 41.7872 11.9492C41.9062 12.0199 42.0081 12.108 42.09 12.189C42.2534 12.3508 42.3934 12.5417 42.4899 12.6859L42.491 12.6875L42.491 12.6875C42.6404 12.9123 42.6815 13.1591 42.6852 13.359C42.6889 13.5611 42.6554 13.7587 42.6143 13.927L42.137 13.9957C42.071 14.2828 41.9941 14.5815 41.888 14.8527L41.8717 14.8906C41.7819 15.0805 41.6497 15.2472 41.4853 15.3779C41.3209 15.5085 41.1287 15.5997 40.9234 15.6442L40.8496 15.6555C40.6038 15.6775 40.419 15.5638 40.3408 15.5094C40.2449 15.4426 40.1658 15.3622 40.1062 15.2932C39.9881 15.1564 39.8787 14.9845 39.811 14.8256C39.505 14.1134 39.5045 13.298 39.9735 12.602L39.9754 12.5993L39.9754 12.5993C40.1103 12.4014 40.3018 12.2159 40.5067 12.0769C40.699 11.9464 40.9819 11.8035 41.2981 11.8053ZM41.2981 11.8053C41.2988 11.8053 41.2995 11.8053 41.3002 11.8053L41.2956 12.4053V11.8053C41.2965 11.8053 41.2973 11.8053 41.2981 11.8053Z" fill="#03001B" stroke="#F5DEA6" stroke-width="1.2" stroke-linejoin="bevel"/>
<path d="M36.9345 18.3516L36.1497 18.968C36.1865 19.4458 36.3609 19.8355 36.6418 20.1297C36.9139 20.4147 37.2508 20.5735 37.5602 20.6637C37.8459 20.7473 38.143 20.7114 38.3704 20.6521C38.6069 20.5904 38.8451 20.4835 39.0381 20.3462C39.3606 20.1176 39.5853 19.8076 39.6898 19.4402C39.7923 19.0799 39.7688 18.7027 39.6649 18.3427L38.683 18.0667C38.5764 18.1644 38.4798 18.2693 38.3987 18.3594C38.375 18.3856 38.3531 18.4102 38.3323 18.4334C38.2762 18.4963 38.2286 18.5495 38.179 18.6011C38.1127 18.67 38.0671 18.7097 38.0354 18.7317C38.0325 18.7337 38.0299 18.7354 38.0277 18.7369C37.9777 18.738 37.8832 18.7224 37.696 18.6509C37.6455 18.6316 37.5762 18.6027 37.4965 18.5695C37.3286 18.4996 37.1148 18.4106 36.9345 18.3516Z" fill="#03001B" stroke="#F5DEA6" stroke-width="1.2" stroke-linejoin="bevel"/>
<path d="M40.7528 8.77416L40.4696 9.75937C40.5485 9.84495 40.628 9.93343 40.709 10.0236C41.2303 10.6037 41.8137 11.2529 42.671 11.6417L43.518 11.0629C43.4795 10.3522 43.1195 9.7089 42.6328 9.28128C42.1496 8.85676 41.4602 8.58077 40.7528 8.77416Z" fill="#03001B" stroke="#F5DEA6" stroke-width="1.2" stroke-linejoin="bevel"/>
<path d="M34.9294 11.7008L35.906 11.5784C35.958 11.4795 36.0017 11.3945 36.0405 11.319C36.1274 11.1498 36.19 11.0281 36.2676 10.9038L36.2677 10.9038L36.2731 10.8947C36.2925 10.8624 36.3117 10.8304 36.3307 10.7986C36.5281 10.4691 36.7081 10.1685 36.9143 9.88904L36.9143 9.88905L36.9162 9.88648C36.9212 9.87962 36.9413 9.85636 37.0109 9.80413C37.0215 9.79615 37.0401 9.78277 37.0633 9.7661C37.1248 9.72186 37.2184 9.65444 37.2812 9.60318L37.3718 8.76539L37.2634 8.62886L36.6876 8.41126C35.7875 8.57252 35.2114 9.17757 34.8079 9.78999L34.8079 9.78999L34.8073 9.79089L34.8049 9.7946C34.706 9.94525 34.5226 10.2247 34.4922 10.5815C34.458 10.983 34.6192 11.3567 34.9294 11.7008Z" fill="#03001B" stroke="#F5DEA6" stroke-width="1.2" stroke-linejoin="bevel"/>
<mask id="path-9-outside-1_2080_2" maskUnits="userSpaceOnUse" x="0" y="0.0292969" width="83" height="60" fill="black">
<rect fill="white" y="0.0292969" width="83" height="60"/>
<path d="M80.0656 41.5954C79.2963 41.1688 78.4932 40.8064 77.6644 40.5119C76.9601 40.2529 76.2113 40.1153 75.4972 39.9278L72.7417 39.5237C72.9985 39.0608 73.2851 38.6153 73.5999 38.1898C74.1417 37.4508 75.2003 36.5406 75.2003 36.5406C75.5005 36.3391 75.8169 36.1624 76.0921 35.9349C76.7531 35.3866 77.5008 34.8936 78.0176 34.2305C78.6829 33.3874 78.2462 32.4968 77.1833 32.4415C76.2601 32.3927 75.3293 32.4968 74.3292 32.5368C73.7646 32.565 66.0941 36.3131 66.0941 36.3131C66.0204 36.6002 65.9641 36.8158 65.8644 37.2048C66.6575 36.9123 67.3564 36.7097 68.0077 36.4052C69.9191 35.5145 71.812 34.5859 73.7115 33.6692C74.4852 33.2953 75.2859 33.019 76.1582 33.1036C76.622 33.148 77.1898 33.1946 77.336 33.706C77.4823 34.2175 76.9525 34.4645 76.6003 34.7191C74.9273 35.9512 73.2694 37.1951 72.2314 39.0653C71.85 39.7534 71.9464 40.6603 72.5218 41.1241C72.5846 40.9434 72.6381 40.7597 72.6822 40.5736C72.7147 40.4024 72.7157 40.2237 72.7374 39.9668C73.6357 40.163 74.4949 40.3363 75.3466 40.5433C76.1983 40.7503 77.0164 40.9897 77.8518 41.2119C78.595 41.402 79.2346 41.8748 79.6343 42.5295C79.9713 43.0626 79.8087 43.4982 79.2009 43.6239C78.7611 43.7138 78.3103 43.7365 77.8637 43.6911C77.1839 43.6051 76.5091 43.4839 75.8418 43.3281C74.5838 43.0583 73.4255 43.3649 72.1198 43.9002L73.0235 44.702C73.6563 45.2633 74.3086 45.8051 74.9132 46.3956C75.1613 46.6569 75.3582 46.9623 75.494 47.2961C75.7638 47.9115 75.5102 48.2908 74.8438 48.1629C74.2108 48.0462 73.6019 47.8234 73.043 47.5041C72.4113 47.1357 71.8695 46.6113 71.2876 46.1562C70.9896 45.9232 70.6906 45.6902 70.3872 45.4648C69.5777 44.8624 68.6805 44.7215 67.7216 44.9946C66.9252 45.221 66.1418 45.4963 65.3378 45.7141C64.6671 45.895 63.9573 45.8689 63.3017 45.6393C63.9725 45.233 64.7223 45.0975 65.1102 44.4658C65.0885 44.4181 65.0669 44.3704 65.0441 44.3228C64.8471 44.358 64.6532 44.4091 64.4644 44.4756C62.812 45.2135 61.1119 45.8224 59.311 46.037C58.5362 46.1291 57.729 46.0673 56.951 45.9655C56.199 45.8668 55.9151 45.2384 56.2423 44.5568C56.6649 43.6672 57.224 42.8838 58.0519 42.3095C58.4213 42.0529 58.7662 41.7627 59.0823 41.4427C59.2525 41.2704 59.3316 41.0092 59.48 40.7351C58.7215 40.5834 58.5406 41.1967 58.222 41.3961L56.6357 40.0676C56.0549 40.3136 55.7439 40.462 55.7439 40.462L57.3757 41.8847C56.7863 42.7028 56.1838 43.4895 55.642 44.3119C55.457 44.6206 55.333 44.962 55.2769 45.3175C55.1187 46.1302 55.7385 46.828 56.5771 46.8821C58.2025 46.9905 59.7845 46.8724 61.3242 46.323C61.4437 46.2852 61.5685 46.2673 61.6937 46.2699C63.1869 46.2558 65.717 46.3685 66.3986 46.2829C67.0801 46.1973 68.1323 45.4508 69.3654 45.7151C70.5985 45.9795 71.0698 47.4998 72.2812 48.151C73.4926 48.8022 74.4083 48.7112 74.4083 48.7112C74.8688 48.7112 75.3044 48.7535 75.7291 48.7014C76.5656 48.6007 76.8669 48.0188 76.4941 47.2614C76.3736 47.0404 76.2258 46.8355 76.0542 46.6513C75.7486 46.2992 75.4268 45.96 75.0649 45.5678L72.7482 44.1429C72.7482 44.1429 73.0581 44.0855 73.6444 43.9717C74.2306 43.8579 75.325 43.8958 75.325 43.8958C76.3251 44.0584 77.2602 44.2534 78.2062 44.3488C78.8333 44.394 79.4634 44.377 80.0872 44.2978C80.5965 44.2458 80.8706 43.8904 80.9367 43.3855C81.0332 42.5999 80.7157 41.9649 80.0656 41.5954ZM49.7659 57.4599C45.4977 57.0991 41.4376 55.9624 37.5454 54.1984C36.1779 53.6008 35.9929 53.7718 34.8948 52.761L33.7029 53.1631L33.8212 53.8112C33.8212 53.8112 33.8943 53.7822 32.4803 54.3857C31.543 54.7877 32.0572 55.4822 31.769 55.3489L33.8212 56.6676C35.0229 55.5147 35.3371 56.1282 36.0837 54.7391C37.6159 55.2938 39.109 55.8714 40.6271 56.3752C43.4292 57.3049 46.2985 57.9204 49.262 58.0006C49.7074 58.0114 50.1549 57.9301 50.6013 57.8922C50.6013 57.8034 50.6078 57.7145 50.61 57.6257C50.332 57.5544 50.0502 57.499 49.7659 57.4599ZM51.4996 5.50086C51.0206 5.57779 50.5428 5.66882 50.0671 5.76742C49.0713 5.9733 48.5826 5.76743 48.1037 4.87565C47.88 4.42381 47.6821 3.95965 47.511 3.48543C47.0775 2.37695 46.5228 1.99013 45.3254 2.03238C43.2862 2.1039 41.533 2.92848 40.0691 4.28619C39.4395 4.86914 38.8327 5.10536 37.9962 5.02951C36.671 4.90815 35.5647 5.40226 34.6848 6.41214C34.4497 6.68195 34.1431 6.8889 33.9014 7.15329C33.4431 7.65606 32.9143 8.12851 32.5849 8.70822C32.0637 9.62924 31.6617 10.6207 31.2467 11.5992C30.3322 13.7576 29.1034 15.6885 27.2288 17.1405C25.2784 19.9047 24.56 21.685 25.2784 23.4642C25.9968 25.2434 26.5158 26.6964 26.5158 26.6964L22.653 30.282L16.8971 36.442L15.9219 36.481C15.7702 36.4106 15.6585 36.3629 15.5491 36.3077C13.577 35.2924 11.6212 34.2489 9.6296 33.2737C7.99451 32.4718 6.31932 31.7372 4.50002 31.4533C4.00497 31.3664 3.49766 31.3774 3.00687 31.4858C2.19636 31.6906 2.0089 32.4285 2.60161 33.0082C3.04913 33.4416 3.57681 33.8068 4.07092 34.1914C4.64521 34.6368 5.22709 35.0702 5.88373 35.5687C5.51424 35.8135 5.28452 35.9837 5.03963 36.1245C4.32014 36.5374 3.58224 36.9166 2.8725 37.3511C2.3719 37.6589 1.86262 38.0663 2.03383 38.7294C2.19636 39.359 2.82157 39.4879 3.38394 39.5302C4.11968 39.5768 4.86085 39.5302 5.59984 39.541C5.85664 39.541 6.11236 39.6028 6.53278 39.6569C6.25106 40.1055 6.08527 40.4631 5.83496 40.7405C5.45355 41.1739 5.00062 41.5369 4.60404 41.9563C4.27247 42.3063 4.02433 42.7007 4.24862 43.2219C4.47292 43.7431 4.91068 43.9078 5.39828 43.8298C6.31931 43.6824 7.23384 43.4852 8.1397 43.2587C8.53087 43.1612 8.84944 43.1504 9.21026 43.3671C9.92675 43.8189 10.6684 44.2295 11.4316 44.5969C11.8359 44.7927 12.2833 44.8825 12.7318 44.8581C12.9818 44.8267 13.2355 44.8504 13.4753 44.9275C13.7151 45.0046 13.9351 45.1333 14.1199 45.3045C14.8611 45.9611 15.587 46.6362 16.3022 47.3221C16.36 47.384 16.4033 47.458 16.429 47.5388C16.429 47.5388 17.9329 48.2973 18.5007 48.112C19.0685 47.9267 19.0306 44.7031 19.0306 44.7031C19.0306 44.7031 21.7959 44.0595 23.2728 42.9607C24.7496 41.862 27.7229 40.967 27.7229 40.967L29.2735 40.2702C29.2562 40.2041 29.2399 40.137 29.2226 40.0709C28.9842 40.0503 28.7458 40.0134 28.5085 40.0134C26.8637 40.0134 25.416 40.6842 24.0128 41.4221C22.9964 41.9584 22.0765 42.6736 21.072 43.2338C20.358 43.6315 19.5735 43.9034 18.7391 44.2675V42.9607C18.4436 43.2065 18.2251 43.5321 18.1098 43.8988C17.9945 44.2654 17.9873 44.6575 18.089 45.0282C18.1833 45.3532 18.3414 45.6783 18.3761 46.012C18.4108 46.3458 18.3371 46.7218 18.3111 47.0696C17.5591 47.1064 17.0271 46.9547 16.6034 46.4953C16.3965 46.2699 16.1548 46.0716 15.9717 45.8278C15.1363 44.7161 13.8988 44.1732 12.7362 43.5307C12.2117 43.2403 12.0546 43.3432 11.5919 44.08L7.99776 41.5759L7.82764 41.6843C7.86231 41.9866 7.8959 42.2889 7.94574 42.7245C7.20458 42.8567 6.41901 43.0192 5.62584 43.1211C5.46656 43.1406 5.2065 42.9716 5.12307 42.8188C5.05264 42.6909 5.1144 42.4114 5.22059 42.277C5.84147 41.5185 6.49161 40.7773 7.171 39.9885L8.39217 40.6777C8.36291 40.4609 8.38459 40.3255 8.32824 40.2507C7.84606 39.6147 7.26635 39.1108 6.42226 39.0664C5.90106 39.0393 5.37662 39.0664 4.85326 39.0664C4.60011 39.0782 4.34643 39.0691 4.09477 39.0393C3.66134 38.9645 3.11955 38.9656 2.97869 38.4369C2.83783 37.9081 3.39478 37.7726 3.69926 37.5581C4.46426 37.0163 5.27368 36.5493 6.04518 36.0639L7.38663 37.0824L7.5925 36.9534C7.48414 36.6641 7.43864 36.312 7.24468 36.0974C6.70771 35.4921 6.12835 34.9258 5.51098 34.4028C4.93127 33.9206 4.25405 33.5565 3.66892 33.0862C3.46304 32.9215 3.242 32.5704 3.28101 32.3483C3.35361 31.9409 3.77728 32.0135 4.09585 32.0536C5.60309 32.241 7.00305 32.7882 8.32824 33.485C10.3556 34.5501 12.3212 35.7312 14.3496 36.7909C15.2045 37.2384 16.1429 37.5353 17.0661 37.8344C17.3782 37.9352 17.7563 37.8344 18.1041 37.8203C18.1204 37.7293 18.1356 37.6393 18.1507 37.5483L16.8981 36.9654C17.8441 36.2166 18.7489 35.4722 19.6829 34.769C20.9301 33.8295 22.0667 32.7937 22.9238 31.4706C23.9446 29.9038 25.5699 28.999 27.0208 27.7692L28.7296 29.5961L28.9084 29.5408C28.8585 29.2981 28.8629 29.025 28.748 28.8191C28.3958 28.1907 27.9472 27.6131 27.6287 26.9695C27.0555 25.8101 26.5137 24.6312 26.025 23.4338C25.5916 22.3709 25.7801 21.3176 26.2417 20.2915C26.8438 18.9412 27.6973 17.7178 28.7567 16.6865C30.187 15.2909 31.1871 13.5647 32.0074 11.7422C32.3628 10.9534 32.6813 10.1418 33.1126 9.39628C33.4377 8.83066 33.9112 8.34739 34.3348 7.84028C34.5418 7.59214 34.8159 7.39709 35.0066 7.1392C35.7142 6.18459 36.6905 5.77608 37.8304 5.82701C38.8728 5.87252 39.7191 5.50195 40.5317 4.91249C41.2577 4.38371 41.9859 3.82892 42.7899 3.44317C43.4043 3.14844 44.1313 3.05201 44.8205 2.95774C45.7404 2.83096 46.3635 3.29798 46.7633 4.10957C47.0061 4.63269 47.2763 5.14267 47.5727 5.63739C48.1427 6.54 48.9315 6.80764 49.9479 6.50424C50.2589 6.41322 50.5742 6.33738 50.8895 6.26803C50.9824 6.26152 51.0756 6.26735 51.1669 6.28537C51.2872 6.77839 50.9502 6.99402 50.6501 7.20314C49.6605 7.90746 48.5157 8.36278 47.3127 8.53051C46.6755 8.61936 46.2963 8.84366 46.3115 9.63791C45.8845 9.03436 45.527 8.53159 45.1705 8.02882L44.9538 8.15559C45.035 8.3723 45.0827 8.60636 45.203 8.79815C46.1717 10.3368 46.5282 12.0283 46.3949 13.814C46.241 15.7882 46.6409 17.6064 47.6616 19.3033C48.0094 19.8852 48.2435 20.5418 48.4775 21.1833C49.2783 23.3894 48.7506 25.4005 47.5391 27.3054C47.1123 27.9524 46.7318 28.6288 46.4003 29.3295C47.2651 28.6705 47.9619 27.8166 48.4342 26.8373C48.9153 25.8621 49.2414 24.811 49.6391 23.786C49.5784 20.9005 48.0332 19.248 47.2249 16.875C46.4166 14.502 47.5782 14.5995 46.6647 10.6684L47.446 10.21C47.3571 9.83187 47.2769 9.49162 47.1859 9.10696C47.4644 9.0387 47.6898 8.98885 47.9119 8.92708C48.5707 8.74396 49.2371 8.5836 49.8851 8.36364C50.3613 8.2138 50.7956 7.95426 51.1532 7.6059C51.5108 7.25753 51.7816 6.83009 51.9438 6.35796C52.0305 6.12066 51.9904 5.83786 52.0088 5.5648C51.7412 5.52904 51.6188 5.48244 51.4963 5.50086H51.4996Z"/>
</mask>
<path d="M80.0656 41.5954C79.2963 41.1688 78.4932 40.8064 77.6644 40.5119C76.9601 40.2529 76.2113 40.1153 75.4972 39.9278L72.7417 39.5237C72.9985 39.0608 73.2851 38.6153 73.5999 38.1898C74.1417 37.4508 75.2003 36.5406 75.2003 36.5406C75.5005 36.3391 75.8169 36.1624 76.0921 35.9349C76.7531 35.3866 77.5008 34.8936 78.0176 34.2305C78.6829 33.3874 78.2462 32.4968 77.1833 32.4415C76.2601 32.3927 75.3293 32.4968 74.3292 32.5368C73.7646 32.565 66.0941 36.3131 66.0941 36.3131C66.0204 36.6002 65.9641 36.8158 65.8644 37.2048C66.6575 36.9123 67.3564 36.7097 68.0077 36.4052C69.9191 35.5145 71.812 34.5859 73.7115 33.6692C74.4852 33.2953 75.2859 33.019 76.1582 33.1036C76.622 33.148 77.1898 33.1946 77.336 33.706C77.4823 34.2175 76.9525 34.4645 76.6003 34.7191C74.9273 35.9512 73.2694 37.1951 72.2314 39.0653C71.85 39.7534 71.9464 40.6603 72.5218 41.1241C72.5846 40.9434 72.6381 40.7597 72.6822 40.5736C72.7147 40.4024 72.7157 40.2237 72.7374 39.9668C73.6357 40.163 74.4949 40.3363 75.3466 40.5433C76.1983 40.7503 77.0164 40.9897 77.8518 41.2119C78.595 41.402 79.2346 41.8748 79.6343 42.5295C79.9713 43.0626 79.8087 43.4982 79.2009 43.6239C78.7611 43.7138 78.3103 43.7365 77.8637 43.6911C77.1839 43.6051 76.5091 43.4839 75.8418 43.3281C74.5838 43.0583 73.4255 43.3649 72.1198 43.9002L73.0235 44.702C73.6563 45.2633 74.3086 45.8051 74.9132 46.3956C75.1613 46.6569 75.3582 46.9623 75.494 47.2961C75.7638 47.9115 75.5102 48.2908 74.8438 48.1629C74.2108 48.0462 73.6019 47.8234 73.043 47.5041C72.4113 47.1357 71.8695 46.6113 71.2876 46.1562C70.9896 45.9232 70.6906 45.6902 70.3872 45.4648C69.5777 44.8624 68.6805 44.7215 67.7216 44.9946C66.9252 45.221 66.1418 45.4963 65.3378 45.7141C64.6671 45.895 63.9573 45.8689 63.3017 45.6393C63.9725 45.233 64.7223 45.0975 65.1102 44.4658C65.0885 44.4181 65.0669 44.3704 65.0441 44.3228C64.8471 44.358 64.6532 44.4091 64.4644 44.4756C62.812 45.2135 61.1119 45.8224 59.311 46.037C58.5362 46.1291 57.729 46.0673 56.951 45.9655C56.199 45.8668 55.9151 45.2384 56.2423 44.5568C56.6649 43.6672 57.224 42.8838 58.0519 42.3095C58.4213 42.0529 58.7662 41.7627 59.0823 41.4427C59.2525 41.2704 59.3316 41.0092 59.48 40.7351C58.7215 40.5834 58.5406 41.1967 58.222 41.3961L56.6357 40.0676C56.0549 40.3136 55.7439 40.462 55.7439 40.462L57.3757 41.8847C56.7863 42.7028 56.1838 43.4895 55.642 44.3119C55.457 44.6206 55.333 44.962 55.2769 45.3175C55.1187 46.1302 55.7385 46.828 56.5771 46.8821C58.2025 46.9905 59.7845 46.8724 61.3242 46.323C61.4437 46.2852 61.5685 46.2673 61.6937 46.2699C63.1869 46.2558 65.717 46.3685 66.3986 46.2829C67.0801 46.1973 68.1323 45.4508 69.3654 45.7151C70.5985 45.9795 71.0698 47.4998 72.2812 48.151C73.4926 48.8022 74.4083 48.7112 74.4083 48.7112C74.8688 48.7112 75.3044 48.7535 75.7291 48.7014C76.5656 48.6007 76.8669 48.0188 76.4941 47.2614C76.3736 47.0404 76.2258 46.8355 76.0542 46.6513C75.7486 46.2992 75.4268 45.96 75.0649 45.5678L72.7482 44.1429C72.7482 44.1429 73.0581 44.0855 73.6444 43.9717C74.2306 43.8579 75.325 43.8958 75.325 43.8958C76.3251 44.0584 77.2602 44.2534 78.2062 44.3488C78.8333 44.394 79.4634 44.377 80.0872 44.2978C80.5965 44.2458 80.8706 43.8904 80.9367 43.3855C81.0332 42.5999 80.7157 41.9649 80.0656 41.5954ZM49.7659 57.4599C45.4977 57.0991 41.4376 55.9624 37.5454 54.1984C36.1779 53.6008 35.9929 53.7718 34.8948 52.761L33.7029 53.1631L33.8212 53.8112C33.8212 53.8112 33.8943 53.7822 32.4803 54.3857C31.543 54.7877 32.0572 55.4822 31.769 55.3489L33.8212 56.6676C35.0229 55.5147 35.3371 56.1282 36.0837 54.7391C37.6159 55.2938 39.109 55.8714 40.6271 56.3752C43.4292 57.3049 46.2985 57.9204 49.262 58.0006C49.7074 58.0114 50.1549 57.9301 50.6013 57.8922C50.6013 57.8034 50.6078 57.7145 50.61 57.6257C50.332 57.5544 50.0502 57.499 49.7659 57.4599ZM51.4996 5.50086C51.0206 5.57779 50.5428 5.66882 50.0671 5.76742C49.0713 5.9733 48.5826 5.76743 48.1037 4.87565C47.88 4.42381 47.6821 3.95965 47.511 3.48543C47.0775 2.37695 46.5228 1.99013 45.3254 2.03238C43.2862 2.1039 41.533 2.92848 40.0691 4.28619C39.4395 4.86914 38.8327 5.10536 37.9962 5.02951C36.671 4.90815 35.5647 5.40226 34.6848 6.41214C34.4497 6.68195 34.1431 6.8889 33.9014 7.15329C33.4431 7.65606 32.9143 8.12851 32.5849 8.70822C32.0637 9.62924 31.6617 10.6207 31.2467 11.5992C30.3322 13.7576 29.1034 15.6885 27.2288 17.1405C25.2784 19.9047 24.56 21.685 25.2784 23.4642C25.9968 25.2434 26.5158 26.6964 26.5158 26.6964L22.653 30.282L16.8971 36.442L15.9219 36.481C15.7702 36.4106 15.6585 36.3629 15.5491 36.3077C13.577 35.2924 11.6212 34.2489 9.6296 33.2737C7.99451 32.4718 6.31932 31.7372 4.50002 31.4533C4.00497 31.3664 3.49766 31.3774 3.00687 31.4858C2.19636 31.6906 2.0089 32.4285 2.60161 33.0082C3.04913 33.4416 3.57681 33.8068 4.07092 34.1914C4.64521 34.6368 5.22709 35.0702 5.88373 35.5687C5.51424 35.8135 5.28452 35.9837 5.03963 36.1245C4.32014 36.5374 3.58224 36.9166 2.8725 37.3511C2.3719 37.6589 1.86262 38.0663 2.03383 38.7294C2.19636 39.359 2.82157 39.4879 3.38394 39.5302C4.11968 39.5768 4.86085 39.5302 5.59984 39.541C5.85664 39.541 6.11236 39.6028 6.53278 39.6569C6.25106 40.1055 6.08527 40.4631 5.83496 40.7405C5.45355 41.1739 5.00062 41.5369 4.60404 41.9563C4.27247 42.3063 4.02433 42.7007 4.24862 43.2219C4.47292 43.7431 4.91068 43.9078 5.39828 43.8298C6.31931 43.6824 7.23384 43.4852 8.1397 43.2587C8.53087 43.1612 8.84944 43.1504 9.21026 43.3671C9.92675 43.8189 10.6684 44.2295 11.4316 44.5969C11.8359 44.7927 12.2833 44.8825 12.7318 44.8581C12.9818 44.8267 13.2355 44.8504 13.4753 44.9275C13.7151 45.0046 13.9351 45.1333 14.1199 45.3045C14.8611 45.9611 15.587 46.6362 16.3022 47.3221C16.36 47.384 16.4033 47.458 16.429 47.5388C16.429 47.5388 17.9329 48.2973 18.5007 48.112C19.0685 47.9267 19.0306 44.7031 19.0306 44.7031C19.0306 44.7031 21.7959 44.0595 23.2728 42.9607C24.7496 41.862 27.7229 40.967 27.7229 40.967L29.2735 40.2702C29.2562 40.2041 29.2399 40.137 29.2226 40.0709C28.9842 40.0503 28.7458 40.0134 28.5085 40.0134C26.8637 40.0134 25.416 40.6842 24.0128 41.4221C22.9964 41.9584 22.0765 42.6736 21.072 43.2338C20.358 43.6315 19.5735 43.9034 18.7391 44.2675V42.9607C18.4436 43.2065 18.2251 43.5321 18.1098 43.8988C17.9945 44.2654 17.9873 44.6575 18.089 45.0282C18.1833 45.3532 18.3414 45.6783 18.3761 46.012C18.4108 46.3458 18.3371 46.7218 18.3111 47.0696C17.5591 47.1064 17.0271 46.9547 16.6034 46.4953C16.3965 46.2699 16.1548 46.0716 15.9717 45.8278C15.1363 44.7161 13.8988 44.1732 12.7362 43.5307C12.2117 43.2403 12.0546 43.3432 11.5919 44.08L7.99776 41.5759L7.82764 41.6843C7.86231 41.9866 7.8959 42.2889 7.94574 42.7245C7.20458 42.8567 6.41901 43.0192 5.62584 43.1211C5.46656 43.1406 5.2065 42.9716 5.12307 42.8188C5.05264 42.6909 5.1144 42.4114 5.22059 42.277C5.84147 41.5185 6.49161 40.7773 7.171 39.9885L8.39217 40.6777C8.36291 40.4609 8.38459 40.3255 8.32824 40.2507C7.84606 39.6147 7.26635 39.1108 6.42226 39.0664C5.90106 39.0393 5.37662 39.0664 4.85326 39.0664C4.60011 39.0782 4.34643 39.0691 4.09477 39.0393C3.66134 38.9645 3.11955 38.9656 2.97869 38.4369C2.83783 37.9081 3.39478 37.7726 3.69926 37.5581C4.46426 37.0163 5.27368 36.5493 6.04518 36.0639L7.38663 37.0824L7.5925 36.9534C7.48414 36.6641 7.43864 36.312 7.24468 36.0974C6.70771 35.4921 6.12835 34.9258 5.51098 34.4028C4.93127 33.9206 4.25405 33.5565 3.66892 33.0862C3.46304 32.9215 3.242 32.5704 3.28101 32.3483C3.35361 31.9409 3.77728 32.0135 4.09585 32.0536C5.60309 32.241 7.00305 32.7882 8.32824 33.485C10.3556 34.5501 12.3212 35.7312 14.3496 36.7909C15.2045 37.2384 16.1429 37.5353 17.0661 37.8344C17.3782 37.9352 17.7563 37.8344 18.1041 37.8203C18.1204 37.7293 18.1356 37.6393 18.1507 37.5483L16.8981 36.9654C17.8441 36.2166 18.7489 35.4722 19.6829 34.769C20.9301 33.8295 22.0667 32.7937 22.9238 31.4706C23.9446 29.9038 25.5699 28.999 27.0208 27.7692L28.7296 29.5961L28.9084 29.5408C28.8585 29.2981 28.8629 29.025 28.748 28.8191C28.3958 28.1907 27.9472 27.6131 27.6287 26.9695C27.0555 25.8101 26.5137 24.6312 26.025 23.4338C25.5916 22.3709 25.7801 21.3176 26.2417 20.2915C26.8438 18.9412 27.6973 17.7178 28.7567 16.6865C30.187 15.2909 31.1871 13.5647 32.0074 11.7422C32.3628 10.9534 32.6813 10.1418 33.1126 9.39628C33.4377 8.83066 33.9112 8.34739 34.3348 7.84028C34.5418 7.59214 34.8159 7.39709 35.0066 7.1392C35.7142 6.18459 36.6905 5.77608 37.8304 5.82701C38.8728 5.87252 39.7191 5.50195 40.5317 4.91249C41.2577 4.38371 41.9859 3.82892 42.7899 3.44317C43.4043 3.14844 44.1313 3.05201 44.8205 2.95774C45.7404 2.83096 46.3635 3.29798 46.7633 4.10957C47.0061 4.63269 47.2763 5.14267 47.5727 5.63739C48.1427 6.54 48.9315 6.80764 49.9479 6.50424C50.2589 6.41322 50.5742 6.33738 50.8895 6.26803C50.9824 6.26152 51.0756 6.26735 51.1669 6.28537C51.2872 6.77839 50.9502 6.99402 50.6501 7.20314C49.6605 7.90746 48.5157 8.36278 47.3127 8.53051C46.6755 8.61936 46.2963 8.84366 46.3115 9.63791C45.8845 9.03436 45.527 8.53159 45.1705 8.02882L44.9538 8.15559C45.035 8.3723 45.0827 8.60636 45.203 8.79815C46.1717 10.3368 46.5282 12.0283 46.3949 13.814C46.241 15.7882 46.6409 17.6064 47.6616 19.3033C48.0094 19.8852 48.2435 20.5418 48.4775 21.1833C49.2783 23.3894 48.7506 25.4005 47.5391 27.3054C47.1123 27.9524 46.7318 28.6288 46.4003 29.3295C47.2651 28.6705 47.9619 27.8166 48.4342 26.8373C48.9153 25.8621 49.2414 24.811 49.6391 23.786C49.5784 20.9005 48.0332 19.248 47.2249 16.875C46.4166 14.502 47.5782 14.5995 46.6647 10.6684L47.446 10.21C47.3571 9.83187 47.2769 9.49162 47.1859 9.10696C47.4644 9.0387 47.6898 8.98885 47.9119 8.92708C48.5707 8.74396 49.2371 8.5836 49.8851 8.36364C50.3613 8.2138 50.7956 7.95426 51.1532 7.6059C51.5108 7.25753 51.7816 6.83009 51.9438 6.35796C52.0305 6.12066 51.9904 5.83786 52.0088 5.5648C51.7412 5.52904 51.6188 5.48244 51.4963 5.50086H51.4996Z" fill="#03001B"/>
<path d="M80.0656 41.5954C79.2963 41.1688 78.4932 40.8064 77.6644 40.5119C76.9601 40.2529 76.2113 40.1153 75.4972 39.9278L72.7417 39.5237C72.9985 39.0608 73.2851 38.6153 73.5999 38.1898C74.1417 37.4508 75.2003 36.5406 75.2003 36.5406C75.5005 36.3391 75.8169 36.1624 76.0921 35.9349C76.7531 35.3866 77.5008 34.8936 78.0176 34.2305C78.6829 33.3874 78.2462 32.4968 77.1833 32.4415C76.2601 32.3927 75.3293 32.4968 74.3292 32.5368C73.7646 32.565 66.0941 36.3131 66.0941 36.3131C66.0204 36.6002 65.9641 36.8158 65.8644 37.2048C66.6575 36.9123 67.3564 36.7097 68.0077 36.4052C69.9191 35.5145 71.812 34.5859 73.7115 33.6692C74.4852 33.2953 75.2859 33.019 76.1582 33.1036C76.622 33.148 77.1898 33.1946 77.336 33.706C77.4823 34.2175 76.9525 34.4645 76.6003 34.7191C74.9273 35.9512 73.2694 37.1951 72.2314 39.0653C71.85 39.7534 71.9464 40.6603 72.5218 41.1241C72.5846 40.9434 72.6381 40.7597 72.6822 40.5736C72.7147 40.4024 72.7157 40.2237 72.7374 39.9668C73.6357 40.163 74.4949 40.3363 75.3466 40.5433C76.1983 40.7503 77.0164 40.9897 77.8518 41.2119C78.595 41.402 79.2346 41.8748 79.6343 42.5295C79.9713 43.0626 79.8087 43.4982 79.2009 43.6239C78.7611 43.7138 78.3103 43.7365 77.8637 43.6911C77.1839 43.6051 76.5091 43.4839 75.8418 43.3281C74.5838 43.0583 73.4255 43.3649 72.1198 43.9002L73.0235 44.702C73.6563 45.2633 74.3086 45.8051 74.9132 46.3956C75.1613 46.6569 75.3582 46.9623 75.494 47.2961C75.7638 47.9115 75.5102 48.2908 74.8438 48.1629C74.2108 48.0462 73.6019 47.8234 73.043 47.5041C72.4113 47.1357 71.8695 46.6113 71.2876 46.1562C70.9896 45.9232 70.6906 45.6902 70.3872 45.4648C69.5777 44.8624 68.6805 44.7215 67.7216 44.9946C66.9252 45.221 66.1418 45.4963 65.3378 45.7141C64.6671 45.895 63.9573 45.8689 63.3017 45.6393C63.9725 45.233 64.7223 45.0975 65.1102 44.4658C65.0885 44.4181 65.0669 44.3704 65.0441 44.3228C64.8471 44.358 64.6532 44.4091 64.4644 44.4756C62.812 45.2135 61.1119 45.8224 59.311 46.037C58.5362 46.1291 57.729 46.0673 56.951 45.9655C56.199 45.8668 55.9151 45.2384 56.2423 44.5568C56.6649 43.6672 57.224 42.8838 58.0519 42.3095C58.4213 42.0529 58.7662 41.7627 59.0823 41.4427C59.2525 41.2704 59.3316 41.0092 59.48 40.7351C58.7215 40.5834 58.5406 41.1967 58.222 41.3961L56.6357 40.0676C56.0549 40.3136 55.7439 40.462 55.7439 40.462L57.3757 41.8847C56.7863 42.7028 56.1838 43.4895 55.642 44.3119C55.457 44.6206 55.333 44.962 55.2769 45.3175C55.1187 46.1302 55.7385 46.828 56.5771 46.8821C58.2025 46.9905 59.7845 46.8724 61.3242 46.323C61.4437 46.2852 61.5685 46.2673 61.6937 46.2699C63.1869 46.2558 65.717 46.3685 66.3986 46.2829C67.0801 46.1973 68.1323 45.4508 69.3654 45.7151C70.5985 45.9795 71.0698 47.4998 72.2812 48.151C73.4926 48.8022 74.4083 48.7112 74.4083 48.7112C74.8688 48.7112 75.3044 48.7535 75.7291 48.7014C76.5656 48.6007 76.8669 48.0188 76.4941 47.2614C76.3736 47.0404 76.2258 46.8355 76.0542 46.6513C75.7486 46.2992 75.4268 45.96 75.0649 45.5678L72.7482 44.1429C72.7482 44.1429 73.0581 44.0855 73.6444 43.9717C74.2306 43.8579 75.325 43.8958 75.325 43.8958C76.3251 44.0584 77.2602 44.2534 78.2062 44.3488C78.8333 44.394 79.4634 44.377 80.0872 44.2978C80.5965 44.2458 80.8706 43.8904 80.9367 43.3855C81.0332 42.5999 80.7157 41.9649 80.0656 41.5954ZM49.7659 57.4599C45.4977 57.0991 41.4376 55.9624 37.5454 54.1984C36.1779 53.6008 35.9929 53.7718 34.8948 52.761L33.7029 53.1631L33.8212 53.8112C33.8212 53.8112 33.8943 53.7822 32.4803 54.3857C31.543 54.7877 32.0572 55.4822 31.769 55.3489L33.8212 56.6676C35.0229 55.5147 35.3371 56.1282 36.0837 54.7391C37.6159 55.2938 39.109 55.8714 40.6271 56.3752C43.4292 57.3049 46.2985 57.9204 49.262 58.0006C49.7074 58.0114 50.1549 57.9301 50.6013 57.8922C50.6013 57.8034 50.6078 57.7145 50.61 57.6257C50.332 57.5544 50.0502 57.499 49.7659 57.4599ZM51.4996 5.50086C51.0206 5.57779 50.5428 5.66882 50.0671 5.76742C49.0713 5.9733 48.5826 5.76743 48.1037 4.87565C47.88 4.42381 47.6821 3.95965 47.511 3.48543C47.0775 2.37695 46.5228 1.99013 45.3254 2.03238C43.2862 2.1039 41.533 2.92848 40.0691 4.28619C39.4395 4.86914 38.8327 5.10536 37.9962 5.02951C36.671 4.90815 35.5647 5.40226 34.6848 6.41214C34.4497 6.68195 34.1431 6.8889 33.9014 7.15329C33.4431 7.65606 32.9143 8.12851 32.5849 8.70822C32.0637 9.62924 31.6617 10.6207 31.2467 11.5992C30.3322 13.7576 29.1034 15.6885 27.2288 17.1405C25.2784 19.9047 24.56 21.685 25.2784 23.4642C25.9968 25.2434 26.5158 26.6964 26.5158 26.6964L22.653 30.282L16.8971 36.442L15.9219 36.481C15.7702 36.4106 15.6585 36.3629 15.5491 36.3077C13.577 35.2924 11.6212 34.2489 9.6296 33.2737C7.99451 32.4718 6.31932 31.7372 4.50002 31.4533C4.00497 31.3664 3.49766 31.3774 3.00687 31.4858C2.19636 31.6906 2.0089 32.4285 2.60161 33.0082C3.04913 33.4416 3.57681 33.8068 4.07092 34.1914C4.64521 34.6368 5.22709 35.0702 5.88373 35.5687C5.51424 35.8135 5.28452 35.9837 5.03963 36.1245C4.32014 36.5374 3.58224 36.9166 2.8725 37.3511C2.3719 37.6589 1.86262 38.0663 2.03383 38.7294C2.19636 39.359 2.82157 39.4879 3.38394 39.5302C4.11968 39.5768 4.86085 39.5302 5.59984 39.541C5.85664 39.541 6.11236 39.6028 6.53278 39.6569C6.25106 40.1055 6.08527 40.4631 5.83496 40.7405C5.45355 41.1739 5.00062 41.5369 4.60404 41.9563C4.27247 42.3063 4.02433 42.7007 4.24862 43.2219C4.47292 43.7431 4.91068 43.9078 5.39828 43.8298C6.31931 43.6824 7.23384 43.4852 8.1397 43.2587C8.53087 43.1612 8.84944 43.1504 9.21026 43.3671C9.92675 43.8189 10.6684 44.2295 11.4316 44.5969C11.8359 44.7927 12.2833 44.8825 12.7318 44.8581C12.9818 44.8267 13.2355 44.8504 13.4753 44.9275C13.7151 45.0046 13.9351 45.1333 14.1199 45.3045C14.8611 45.9611 15.587 46.6362 16.3022 47.3221C16.36 47.384 16.4033 47.458 16.429 47.5388C16.429 47.5388 17.9329 48.2973 18.5007 48.112C19.0685 47.9267 19.0306 44.7031 19.0306 44.7031C19.0306 44.7031 21.7959 44.0595 23.2728 42.9607C24.7496 41.862 27.7229 40.967 27.7229 40.967L29.2735 40.2702C29.2562 40.2041 29.2399 40.137 29.2226 40.0709C28.9842 40.0503 28.7458 40.0134 28.5085 40.0134C26.8637 40.0134 25.416 40.6842 24.0128 41.4221C22.9964 41.9584 22.0765 42.6736 21.072 43.2338C20.358 43.6315 19.5735 43.9034 18.7391 44.2675V42.9607C18.4436 43.2065 18.2251 43.5321 18.1098 43.8988C17.9945 44.2654 17.9873 44.6575 18.089 45.0282C18.1833 45.3532 18.3414 45.6783 18.3761 46.012C18.4108 46.3458 18.3371 46.7218 18.3111 47.0696C17.5591 47.1064 17.0271 46.9547 16.6034 46.4953C16.3965 46.2699 16.1548 46.0716 15.9717 45.8278C15.1363 44.7161 13.8988 44.1732 12.7362 43.5307C12.2117 43.2403 12.0546 43.3432 11.5919 44.08L7.99776 41.5759L7.82764 41.6843C7.86231 41.9866 7.8959 42.2889 7.94574 42.7245C7.20458 42.8567 6.41901 43.0192 5.62584 43.1211C5.46656 43.1406 5.2065 42.9716 5.12307 42.8188C5.05264 42.6909 5.1144 42.4114 5.22059 42.277C5.84147 41.5185 6.49161 40.7773 7.171 39.9885L8.39217 40.6777C8.36291 40.4609 8.38459 40.3255 8.32824 40.2507C7.84606 39.6147 7.26635 39.1108 6.42226 39.0664C5.90106 39.0393 5.37662 39.0664 4.85326 39.0664C4.60011 39.0782 4.34643 39.0691 4.09477 39.0393C3.66134 38.9645 3.11955 38.9656 2.97869 38.4369C2.83783 37.9081 3.39478 37.7726 3.69926 37.5581C4.46426 37.0163 5.27368 36.5493 6.04518 36.0639L7.38663 37.0824L7.5925 36.9534C7.48414 36.6641 7.43864 36.312 7.24468 36.0974C6.70771 35.4921 6.12835 34.9258 5.51098 34.4028C4.93127 33.9206 4.25405 33.5565 3.66892 33.0862C3.46304 32.9215 3.242 32.5704 3.28101 32.3483C3.35361 31.9409 3.77728 32.0135 4.09585 32.0536C5.60309 32.241 7.00305 32.7882 8.32824 33.485C10.3556 34.5501 12.3212 35.7312 14.3496 36.7909C15.2045 37.2384 16.1429 37.5353 17.0661 37.8344C17.3782 37.9352 17.7563 37.8344 18.1041 37.8203C18.1204 37.7293 18.1356 37.6393 18.1507 37.5483L16.8981 36.9654C17.8441 36.2166 18.7489 35.4722 19.6829 34.769C20.9301 33.8295 22.0667 32.7937 22.9238 31.4706C23.9446 29.9038 25.5699 28.999 27.0208 27.7692L28.7296 29.5961L28.9084 29.5408C28.8585 29.2981 28.8629 29.025 28.748 28.8191C28.3958 28.1907 27.9472 27.6131 27.6287 26.9695C27.0555 25.8101 26.5137 24.6312 26.025 23.4338C25.5916 22.3709 25.7801 21.3176 26.2417 20.2915C26.8438 18.9412 27.6973 17.7178 28.7567 16.6865C30.187 15.2909 31.1871 13.5647 32.0074 11.7422C32.3628 10.9534 32.6813 10.1418 33.1126 9.39628C33.4377 8.83066 33.9112 8.34739 34.3348 7.84028C34.5418 7.59214 34.8159 7.39709 35.0066 7.1392C35.7142 6.18459 36.6905 5.77608 37.8304 5.82701C38.8728 5.87252 39.7191 5.50195 40.5317 4.91249C41.2577 4.38371 41.9859 3.82892 42.7899 3.44317C43.4043 3.14844 44.1313 3.05201 44.8205 2.95774C45.7404 2.83096 46.3635 3.29798 46.7633 4.10957C47.0061 4.63269 47.2763 5.14267 47.5727 5.63739C48.1427 6.54 48.9315 6.80764 49.9479 6.50424C50.2589 6.41322 50.5742 6.33738 50.8895 6.26803C50.9824 6.26152 51.0756 6.26735 51.1669 6.28537C51.2872 6.77839 50.9502 6.99402 50.6501 7.20314C49.6605 7.90746 48.5157 8.36278 47.3127 8.53051C46.6755 8.61936 46.2963 8.84366 46.3115 9.63791C45.8845 9.03436 45.527 8.53159 45.1705 8.02882L44.9538 8.15559C45.035 8.3723 45.0827 8.60636 45.203 8.79815C46.1717 10.3368 46.5282 12.0283 46.3949 13.814C46.241 15.7882 46.6409 17.6064 47.6616 19.3033C48.0094 19.8852 48.2435 20.5418 48.4775 21.1833C49.2783 23.3894 48.7506 25.4005 47.5391 27.3054C47.1123 27.9524 46.7318 28.6288 46.4003 29.3295C47.2651 28.6705 47.9619 27.8166 48.4342 26.8373C48.9153 25.8621 49.2414 24.811 49.6391 23.786C49.5784 20.9005 48.0332 19.248 47.2249 16.875C46.4166 14.502 47.5782 14.5995 46.6647 10.6684L47.446 10.21C47.3571 9.83187 47.2769 9.49162 47.1859 9.10696C47.4644 9.0387 47.6898 8.98885 47.9119 8.92708C48.5707 8.74396 49.2371 8.5836 49.8851 8.36364C50.3613 8.2138 50.7956 7.95426 51.1532 7.6059C51.5108 7.25753 51.7816 6.83009 51.9438 6.35796C52.0305 6.12066 51.9904 5.83786 52.0088 5.5648C51.7412 5.52904 51.6188 5.48244 51.4963 5.50086H51.4996Z" stroke="#F5DEA6" stroke-width="2.4" stroke-linejoin="bevel" mask="url(#path-9-outside-1_2080_2)"/>
<path d="M30.4319 57.3044L30.9886 56.2458L30.7719 56.1082L30.0506 57.0622C30.1636 57.1632 30.2924 57.245 30.4319 57.3044Z" fill="#03001B" stroke="#F5DEA6" stroke-width="1.2" stroke-linejoin="bevel"/>
<path d="M36.373 23.3179L36.2884 23.2647C36.167 23.4579 36.0814 23.6702 36.0055 23.8862C35.9762 23.9694 35.9488 24.0519 35.9214 24.1344C35.8762 24.2703 35.8311 24.406 35.778 24.5444C35.769 24.5679 35.7691 24.5939 35.7785 24.6173C35.8354 24.7601 35.884 24.9007 35.9326 25.0411C35.9593 25.1183 35.9859 25.1954 36.0139 25.2728C36.0917 25.4876 36.178 25.6985 36.298 25.8902L36.298 25.8902L36.2986 25.8911C36.5019 26.2082 36.7977 26.3697 37.1084 26.3703C37.417 26.3709 37.7248 26.2129 37.9571 25.9226C38.2403 25.5715 38.3779 25.063 38.38 24.5647C38.3821 24.0664 38.2489 23.5591 37.968 23.2109C37.7235 22.9044 37.4157 22.7372 37.1046 22.7426C36.7913 22.7481 36.4992 22.9281 36.2883 23.2648L36.373 23.3179ZM36.373 23.3179C36.7674 22.6883 37.4284 22.6948 37.89 23.2735C38.4145 23.9236 38.409 25.2033 37.8792 25.8599C37.4457 26.4017 36.7566 26.4201 36.3828 25.8372C36.2284 25.5906 36.1304 25.3071 36.0283 25.0118C35.9791 24.8697 35.9291 24.7249 35.8713 24.5802C35.925 24.4403 35.9717 24.3001 36.0175 24.1622C36.1179 23.8605 36.2146 23.57 36.373 23.3179Z" fill="#03001B" stroke="#03001B" stroke-width="0.2" stroke-linejoin="round"/>
<path d="M37.1612 13.0934C37.1251 13.1016 37.0873 13.0891 37.0632 13.0609L36.8702 12.8357C36.8588 12.8909 36.8475 12.9463 36.8362 13.0019C36.7578 13.3865 36.6778 13.7795 36.5571 14.1565C36.5228 14.2641 36.4351 14.3739 36.3422 14.4547C36.2944 14.4961 36.2417 14.5331 36.1881 14.5601C36.1358 14.5865 36.0759 14.6068 36.0158 14.6063C35.9016 14.6055 35.7864 14.532 35.6987 14.4557C35.6065 14.3755 35.5219 14.2723 35.4687 14.1769L35.4686 14.1768C35.1296 13.5677 35.0788 12.8918 35.4139 12.2732L37.1612 13.0934ZM37.1612 13.0934L37.2902 13.0641C37.3173 13.058 37.3407 13.0408 37.3546 13.0167C37.3686 12.9926 37.3718 12.9637 37.3636 12.9371C37.3471 12.8835 37.3336 12.8257 37.3203 12.7642C37.3173 12.7504 37.3143 12.7365 37.3113 12.7223C37.301 12.6743 37.2903 12.6244 37.2783 12.576C37.2473 12.452 37.2033 12.3189 37.1137 12.2161L37.1137 12.2161M37.1612 13.0934L37.1137 12.2161M37.1137 12.2161L37.1134 12.2157M37.1137 12.2161L37.1134 12.2157M37.1134 12.2157C37.0083 12.0964 36.8759 11.9557 36.7332 11.8454C36.5937 11.7375 36.4276 11.6454 36.2571 11.6509C36.0915 11.6562 35.9167 11.7483 35.7718 11.8621M37.1134 12.2157L35.7718 11.8621M35.7718 11.8621C35.6246 11.9777 35.4925 12.1281 35.4139 12.2732L35.7718 11.8621Z" fill="#03001B" stroke="#03001B" stroke-width="0.2" stroke-linejoin="round"/>
<path d="M40.3627 14.5898C40.1222 14.0307 40.1352 13.4358 40.4711 12.9373C40.6477 12.6784 41.0128 12.4032 41.2956 12.4053V12.3053C41.3796 12.3053 41.46 12.3363 41.5316 12.3789C41.6038 12.4219 41.6735 12.4803 41.7382 12.5443C41.8675 12.6723 41.9861 12.8321 42.0744 12.9641L42.0746 12.9643C42.1532 13.0826 42.1826 13.2249 42.1853 13.3683C42.1879 13.512 42.1638 13.6639 42.1285 13.8084C42.1189 13.8481 42.086 13.8779 42.0456 13.8837C42.0052 13.8895 41.9653 13.8702 41.9449 13.8348L41.7395 13.4804L41.2964 12.3053C41.1257 12.304 40.9435 12.3848 40.7874 12.4907C40.6293 12.5979 40.4845 12.7401 40.3884 12.881L40.3884 12.881L40.3881 12.8815C40.03 13.4128 40.0193 14.0445 40.2707 14.6291M40.3627 14.5898L40.2707 14.6289C40.2707 14.6289 40.2707 14.629 40.2707 14.6291M40.3627 14.5898C40.4451 14.7837 40.6628 15.0698 40.7961 15.0579L40.2707 14.6291M40.3627 14.5898L40.2708 14.6293C40.2708 14.6292 40.2708 14.6292 40.2707 14.6291" fill="#03001B" stroke="#03001B" stroke-width="0.2" stroke-linejoin="round"/>
<path d="M37.7005 20.1838C37.8651 20.232 38.0618 20.2159 38.2442 20.1683C38.4282 20.1203 38.6099 20.0373 38.7486 19.9386C38.9834 19.7722 39.1371 19.5555 39.2088 19.3034C39.2802 19.0525 39.2686 18.7729 39.1845 18.4813C39.1749 18.4481 39.1488 18.4221 39.1155 18.4128C39.0822 18.4034 39.0464 18.4119 39.0209 18.4353C38.9329 18.5159 38.8496 18.6058 38.7703 18.6939C38.75 18.7164 38.7301 18.7387 38.7104 18.7608C38.6521 18.8261 38.5959 18.889 38.5393 18.9478C38.3847 19.1085 38.2511 19.2117 38.1188 19.2303L38.1186 19.2303C37.9407 19.2557 37.7452 19.2049 37.5175 19.1179C37.4379 19.0875 37.3527 19.0518 37.2638 19.0146C37.1097 18.9501 36.9446 18.881 36.779 18.8268C36.7473 18.8164 36.7124 18.8226 36.6862 18.8432C36.6599 18.8639 36.6457 18.8963 36.6482 18.9296C36.6769 19.3022 36.8087 19.5805 37.0034 19.7844C37.1966 19.9867 37.4458 20.1096 37.7005 20.1838ZM37.7005 20.1838C37.7005 20.1838 37.7004 20.1837 37.7004 20.1837L37.7286 20.0878L37.7006 20.1838C37.7006 20.1838 37.7005 20.1838 37.7005 20.1838Z" fill="#03001B" stroke="#03001B" stroke-width="0.2" stroke-linejoin="round"/>
<path d="M40.8846 9.25646C40.851 9.26566 40.8245 9.29176 40.8149 9.3253C40.8053 9.35884 40.8138 9.39499 40.8375 9.42066C40.9225 9.51304 41.0061 9.60572 41.0892 9.6979C41.615 10.281 42.1229 10.8441 42.8775 11.1864C42.9094 11.2008 42.9464 11.1976 42.9753 11.1778C43.0041 11.1581 43.0206 11.1248 43.0187 11.0899C42.9884 10.529 42.7008 10.0066 42.3027 9.65691C41.9053 9.3077 41.384 9.11994 40.8846 9.25646Z" fill="#03001B" stroke="#03001B" stroke-width="0.2" stroke-linejoin="round"/>
<path d="M35.3008 11.366C35.3227 11.3902 35.355 11.4023 35.3875 11.3982C35.4199 11.3942 35.4483 11.3745 35.4635 11.3456C35.5083 11.2605 35.5483 11.1825 35.5857 11.1098C35.6782 10.9298 35.7542 10.7819 35.8434 10.639L35.8435 10.639L35.8444 10.6375C35.8641 10.6046 35.8837 10.5719 35.9033 10.5391C36.0983 10.2134 36.2907 9.8921 36.512 9.59218L36.5123 9.59175C36.5619 9.52379 36.63 9.46483 36.7108 9.4042C36.738 9.38382 36.768 9.3623 36.799 9.34003C36.8545 9.30027 36.9132 9.25812 36.965 9.21585C37.0074 9.18126 37.0141 9.11906 36.9801 9.07622L36.8718 8.93969C36.8489 8.91086 36.812 8.89693 36.7758 8.90342C36.0713 9.02963 35.5961 9.50249 35.2254 10.0651L35.2253 10.0652C35.1236 10.2202 35.0091 10.4048 34.9904 10.6239C34.9712 10.8499 35.0545 11.0928 35.3008 11.366Z" fill="#03001B" stroke="#03001B" stroke-width="0.2" stroke-linejoin="round"/>
<mask id="path-17-outside-2_2080_2" maskUnits="userSpaceOnUse" x="1" y="1.0293" width="81" height="58" fill="black">
<rect fill="white" x="1" y="1.0293" width="81" height="58"/>
<path d="M80.0656 41.5954C79.2963 41.1688 78.4932 40.8064 77.6644 40.5119C76.9601 40.2529 76.2113 40.1153 75.4972 39.9278L72.7417 39.5237C72.9985 39.0608 73.2851 38.6153 73.5999 38.1898C74.1417 37.4508 75.2003 36.5406 75.2003 36.5406C75.5005 36.3391 75.8169 36.1624 76.0921 35.9349C76.7531 35.3866 77.5008 34.8936 78.0176 34.2305C78.6829 33.3874 78.2462 32.4968 77.1833 32.4415C76.2601 32.3927 75.3293 32.4968 74.3292 32.5368C73.7646 32.565 66.0941 36.3131 66.0941 36.3131C66.0204 36.6002 65.9641 36.8158 65.8644 37.2048C66.6575 36.9123 67.3564 36.7097 68.0077 36.4052C69.9191 35.5145 71.812 34.5859 73.7115 33.6692C74.4852 33.2953 75.2859 33.019 76.1582 33.1036C76.622 33.148 77.1898 33.1946 77.336 33.706C77.4823 34.2175 76.9525 34.4645 76.6003 34.7191C74.9273 35.9512 73.2694 37.1951 72.2314 39.0653C71.85 39.7534 71.9464 40.6603 72.5218 41.1241C72.5846 40.9434 72.6381 40.7597 72.6822 40.5736C72.7147 40.4024 72.7157 40.2237 72.7374 39.9668C73.6357 40.163 74.4949 40.3363 75.3466 40.5433C76.1983 40.7503 77.0164 40.9897 77.8518 41.2119C78.595 41.402 79.2346 41.8748 79.6343 42.5295C79.9713 43.0626 79.8087 43.4982 79.2009 43.6239C78.7611 43.7138 78.3103 43.7365 77.8637 43.6911C77.1839 43.6051 76.5091 43.4839 75.8418 43.3281C74.5838 43.0583 73.4255 43.3649 72.1198 43.9002L73.0235 44.702C73.6563 45.2633 74.3086 45.8051 74.9132 46.3956C75.1613 46.6569 75.3582 46.9623 75.494 47.2961C75.7638 47.9115 75.5102 48.2908 74.8438 48.1629C74.2108 48.0462 73.6019 47.8234 73.043 47.5041C72.4113 47.1357 71.8695 46.6113 71.2876 46.1562C70.9896 45.9232 70.6906 45.6902 70.3872 45.4648C69.5777 44.8624 68.6805 44.7215 67.7216 44.9946C66.9252 45.221 66.1418 45.4963 65.3378 45.7141C64.6671 45.895 63.9573 45.8689 63.3017 45.6393C63.9725 45.233 64.7223 45.0975 65.1102 44.4658C65.0885 44.4181 65.0669 44.3704 65.0441 44.3228C64.8471 44.358 64.6532 44.4091 64.4644 44.4756C62.812 45.2135 61.1119 45.8224 59.311 46.037C58.5362 46.1291 57.729 46.0673 56.951 45.9655C56.199 45.8668 55.9151 45.2384 56.2423 44.5568C56.6649 43.6672 57.224 42.8838 58.0519 42.3095C58.4213 42.0529 58.7662 41.7627 59.0823 41.4427C59.2525 41.2704 59.3316 41.0092 59.48 40.7351C58.7215 40.5834 58.5406 41.1967 58.222 41.3961L56.6357 40.0676C56.0549 40.3136 55.7439 40.462 55.7439 40.462L57.3757 41.8847C56.7863 42.7028 56.1838 43.4895 55.642 44.3119C55.457 44.6206 55.333 44.962 55.2769 45.3175C55.1187 46.1302 55.7385 46.828 56.5771 46.8821C58.2025 46.9905 59.7845 46.8724 61.3242 46.323C61.4437 46.2852 61.5685 46.2673 61.6937 46.2699C63.1869 46.2558 65.717 46.3685 66.3986 46.2829C67.0801 46.1973 68.1323 45.4508 69.3654 45.7151C70.5985 45.9795 71.0698 47.4998 72.2812 48.151C73.4926 48.8022 74.4083 48.7112 74.4083 48.7112C74.8688 48.7112 75.3044 48.7535 75.7291 48.7014C76.5656 48.6007 76.8669 48.0188 76.4941 47.2614C76.3736 47.0404 76.2258 46.8355 76.0542 46.6513C75.7486 46.2992 75.4268 45.96 75.0649 45.5678L72.7482 44.1429C72.7482 44.1429 73.0581 44.0855 73.6444 43.9717C74.2306 43.8579 75.325 43.8958 75.325 43.8958C76.3251 44.0584 77.2602 44.2534 78.2062 44.3488C78.8333 44.394 79.4634 44.377 80.0872 44.2978C80.5965 44.2458 80.8706 43.8904 80.9367 43.3855C81.0332 42.5999 80.7157 41.9649 80.0656 41.5954ZM49.7659 57.4599C45.4977 57.0991 41.4376 55.9624 37.5454 54.1984C36.1779 53.6008 35.9929 53.7718 34.8948 52.761L33.7029 53.1631L33.8212 53.8112C33.8212 53.8112 33.8943 53.7822 32.4803 54.3857C31.543 54.7877 32.0572 55.4822 31.769 55.3489L33.8212 56.6676C35.0229 55.5147 35.3371 56.1282 36.0837 54.7391C37.6159 55.2938 39.109 55.8714 40.6271 56.3752C43.4292 57.3049 46.2985 57.9204 49.262 58.0006C49.7074 58.0114 50.1549 57.9301 50.6013 57.8922C50.6013 57.8034 50.6078 57.7145 50.61 57.6257C50.332 57.5544 50.0502 57.499 49.7659 57.4599ZM51.4996 5.50086C51.0206 5.57779 50.5428 5.66882 50.0671 5.76742C49.0713 5.9733 48.5826 5.76743 48.1037 4.87565C47.88 4.42381 47.6821 3.95965 47.511 3.48543C47.0775 2.37695 46.5228 1.99013 45.3254 2.03238C43.2862 2.1039 41.533 2.92848 40.0691 4.28619C39.4395 4.86914 38.8327 5.10536 37.9962 5.02951C36.671 4.90815 35.5647 5.40226 34.6848 6.41214C34.4497 6.68195 34.1431 6.8889 33.9014 7.15329C33.4431 7.65606 32.9143 8.12851 32.5849 8.70822C32.0637 9.62924 31.6617 10.6207 31.2467 11.5992C30.3322 13.7576 29.1034 15.6885 27.2288 17.1405C25.2784 19.9047 24.56 21.685 25.2784 23.4642C25.9968 25.2434 26.5158 26.6964 26.5158 26.6964L22.653 30.282L16.8971 36.442L15.9219 36.481C15.7702 36.4106 15.6585 36.3629 15.5491 36.3077C13.577 35.2924 11.6212 34.2489 9.6296 33.2737C7.99451 32.4718 6.31932 31.7372 4.50002 31.4533C4.00497 31.3664 3.49766 31.3774 3.00687 31.4858C2.19636 31.6906 2.0089 32.4285 2.60161 33.0082C3.04913 33.4416 3.57681 33.8068 4.07092 34.1914C4.64521 34.6368 5.22709 35.0702 5.88373 35.5687C5.51424 35.8135 5.28452 35.9837 5.03963 36.1245C4.32014 36.5374 3.58224 36.9166 2.8725 37.3511C2.3719 37.6589 1.86262 38.0663 2.03383 38.7294C2.19636 39.359 2.82157 39.4879 3.38394 39.5302C4.11968 39.5768 4.86085 39.5302 5.59984 39.541C5.85664 39.541 6.11236 39.6028 6.53278 39.6569C6.25106 40.1055 6.08527 40.4631 5.83496 40.7405C5.45355 41.1739 5.00062 41.5369 4.60404 41.9563C4.27247 42.3063 4.02433 42.7007 4.24862 43.2219C4.47292 43.7431 4.91068 43.9078 5.39828 43.8298C6.31931 43.6824 7.23384 43.4852 8.1397 43.2587C8.53087 43.1612 8.84944 43.1504 9.21026 43.3671C9.92675 43.8189 10.6684 44.2295 11.4316 44.5969C11.8359 44.7927 12.2833 44.8825 12.7318 44.8581C12.9818 44.8267 13.2355 44.8504 13.4753 44.9275C13.7151 45.0046 13.9351 45.1333 14.1199 45.3045C14.8611 45.9611 15.587 46.6362 16.3022 47.3221C16.36 47.384 16.4033 47.458 16.429 47.5388C16.429 47.5388 17.9329 48.2973 18.5007 48.112C19.0685 47.9267 19.0306 44.7031 19.0306 44.7031C19.0306 44.7031 21.7959 44.0595 23.2728 42.9607C24.7496 41.862 27.7229 40.967 27.7229 40.967L29.2735 40.2702C29.2562 40.2041 29.2399 40.137 29.2226 40.0709C28.9842 40.0503 28.7458 40.0134 28.5085 40.0134C26.8637 40.0134 25.416 40.6842 24.0128 41.4221C22.9964 41.9584 22.0765 42.6736 21.072 43.2338C20.358 43.6315 19.5735 43.9034 18.7391 44.2675V42.9607C18.4436 43.2065 18.2251 43.5321 18.1098 43.8988C17.9945 44.2654 17.9873 44.6575 18.089 45.0282C18.1833 45.3532 18.3414 45.6783 18.3761 46.012C18.4108 46.3458 18.3371 46.7218 18.3111 47.0696C17.5591 47.1064 17.0271 46.9547 16.6034 46.4953C16.3965 46.2699 16.1548 46.0716 15.9717 45.8278C15.1363 44.7161 13.8988 44.1732 12.7362 43.5307C12.2117 43.2403 12.0546 43.3432 11.5919 44.08L7.99776 41.5759L7.82764 41.6843C7.86231 41.9866 7.8959 42.2889 7.94574 42.7245C7.20458 42.8567 6.41901 43.0192 5.62584 43.1211C5.46656 43.1406 5.2065 42.9716 5.12307 42.8188C5.05264 42.6909 5.1144 42.4114 5.22059 42.277C5.84147 41.5185 6.49161 40.7773 7.171 39.9885L8.39217 40.6777C8.36291 40.4609 8.38459 40.3255 8.32824 40.2507C7.84606 39.6147 7.26635 39.1108 6.42226 39.0664C5.90106 39.0393 5.37662 39.0664 4.85326 39.0664C4.60011 39.0782 4.34643 39.0691 4.09477 39.0393C3.66134 38.9645 3.11955 38.9656 2.97869 38.4369C2.83783 37.9081 3.39478 37.7726 3.69926 37.5581C4.46426 37.0163 5.27368 36.5493 6.04518 36.0639L7.38663 37.0824L7.5925 36.9534C7.48414 36.6641 7.43864 36.312 7.24468 36.0974C6.70771 35.4921 6.12835 34.9258 5.51098 34.4028C4.93127 33.9206 4.25405 33.5565 3.66892 33.0862C3.46304 32.9215 3.242 32.5704 3.28101 32.3483C3.35361 31.9409 3.77728 32.0135 4.09585 32.0536C5.60309 32.241 7.00305 32.7882 8.32824 33.485C10.3556 34.5501 12.3212 35.7312 14.3496 36.7909C15.2045 37.2384 16.1429 37.5353 17.0661 37.8344C17.3782 37.9352 17.7563 37.8344 18.1041 37.8203C18.1204 37.7293 18.1356 37.6393 18.1507 37.5483L16.8981 36.9654C17.8441 36.2166 18.7489 35.4722 19.6829 34.769C20.9301 33.8295 22.0667 32.7937 22.9238 31.4706C23.9446 29.9038 25.5699 28.999 27.0208 27.7692L28.7296 29.5961L28.9084 29.5408C28.8585 29.2981 28.8629 29.025 28.748 28.8191C28.3958 28.1907 27.9472 27.6131 27.6287 26.9695C27.0555 25.8101 26.5137 24.6312 26.025 23.4338C25.5916 22.3709 25.7801 21.3176 26.2417 20.2915C26.8438 18.9412 27.6973 17.7178 28.7567 16.6865C30.187 15.2909 31.1871 13.5647 32.0074 11.7422C32.3628 10.9534 32.6813 10.1418 33.1126 9.39628C33.4377 8.83066 33.9112 8.34739 34.3348 7.84028C34.5418 7.59214 34.8159 7.39709 35.0066 7.1392C35.7142 6.18459 36.6905 5.77608 37.8304 5.82701C38.8728 5.87252 39.7191 5.50195 40.5317 4.91249C41.2577 4.38371 41.9859 3.82892 42.7899 3.44317C43.4043 3.14844 44.1313 3.05201 44.8205 2.95774C45.7404 2.83096 46.3635 3.29798 46.7633 4.10957C47.0061 4.63269 47.2763 5.14267 47.5727 5.63739C48.1427 6.54 48.9315 6.80764 49.9479 6.50424C50.2589 6.41322 50.5742 6.33738 50.8895 6.26803C50.9824 6.26152 51.0756 6.26735 51.1669 6.28537C51.2872 6.77839 50.9502 6.99402 50.6501 7.20314C49.6605 7.90746 48.5157 8.36278 47.3127 8.53051C46.6755 8.61936 46.2963 8.84366 46.3115 9.63791C45.8845 9.03436 45.527 8.53159 45.1705 8.02882L44.9538 8.15559C45.035 8.3723 45.0827 8.60636 45.203 8.79815C46.1717 10.3368 46.5282 12.0283 46.3949 13.814C46.241 15.7882 46.6409 17.6064 47.6616 19.3033C48.0094 19.8852 48.2435 20.5418 48.4775 21.1833C49.2783 23.3894 48.7506 25.4005 47.5391 27.3054C47.1123 27.9524 46.7318 28.6288 46.4003 29.3295C47.2651 28.6705 47.9619 27.8166 48.4342 26.8373C48.9153 25.8621 49.2414 24.811 49.6391 23.786C49.5784 20.9005 48.0332 19.248 47.2249 16.875C46.4166 14.502 47.5782 14.5995 46.6647 10.6684L47.446 10.21C47.3571 9.83187 47.2769 9.49162 47.1859 9.10696C47.4644 9.0387 47.6898 8.98885 47.9119 8.92708C48.5707 8.74396 49.2371 8.5836 49.8851 8.36364C50.3613 8.2138 50.7956 7.95426 51.1532 7.6059C51.5108 7.25753 51.7816 6.83009 51.9438 6.35796C52.0305 6.12066 51.9904 5.83786 52.0088 5.5648C51.7412 5.52904 51.6188 5.48244 51.4963 5.50086H51.4996Z"/>
</mask>
<path d="M80.0656 41.5954C79.2963 41.1688 78.4932 40.8064 77.6644 40.5119C76.9601 40.2529 76.2113 40.1153 75.4972 39.9278L72.7417 39.5237C72.9985 39.0608 73.2851 38.6153 73.5999 38.1898C74.1417 37.4508 75.2003 36.5406 75.2003 36.5406C75.5005 36.3391 75.8169 36.1624 76.0921 35.9349C76.7531 35.3866 77.5008 34.8936 78.0176 34.2305C78.6829 33.3874 78.2462 32.4968 77.1833 32.4415C76.2601 32.3927 75.3293 32.4968 74.3292 32.5368C73.7646 32.565 66.0941 36.3131 66.0941 36.3131C66.0204 36.6002 65.9641 36.8158 65.8644 37.2048C66.6575 36.9123 67.3564 36.7097 68.0077 36.4052C69.9191 35.5145 71.812 34.5859 73.7115 33.6692C74.4852 33.2953 75.2859 33.019 76.1582 33.1036C76.622 33.148 77.1898 33.1946 77.336 33.706C77.4823 34.2175 76.9525 34.4645 76.6003 34.7191C74.9273 35.9512 73.2694 37.1951 72.2314 39.0653C71.85 39.7534 71.9464 40.6603 72.5218 41.1241C72.5846 40.9434 72.6381 40.7597 72.6822 40.5736C72.7147 40.4024 72.7157 40.2237 72.7374 39.9668C73.6357 40.163 74.4949 40.3363 75.3466 40.5433C76.1983 40.7503 77.0164 40.9897 77.8518 41.2119C78.595 41.402 79.2346 41.8748 79.6343 42.5295C79.9713 43.0626 79.8087 43.4982 79.2009 43.6239C78.7611 43.7138 78.3103 43.7365 77.8637 43.6911C77.1839 43.6051 76.5091 43.4839 75.8418 43.3281C74.5838 43.0583 73.4255 43.3649 72.1198 43.9002L73.0235 44.702C73.6563 45.2633 74.3086 45.8051 74.9132 46.3956C75.1613 46.6569 75.3582 46.9623 75.494 47.2961C75.7638 47.9115 75.5102 48.2908 74.8438 48.1629C74.2108 48.0462 73.6019 47.8234 73.043 47.5041C72.4113 47.1357 71.8695 46.6113 71.2876 46.1562C70.9896 45.9232 70.6906 45.6902 70.3872 45.4648C69.5777 44.8624 68.6805 44.7215 67.7216 44.9946C66.9252 45.221 66.1418 45.4963 65.3378 45.7141C64.6671 45.895 63.9573 45.8689 63.3017 45.6393C63.9725 45.233 64.7223 45.0975 65.1102 44.4658C65.0885 44.4181 65.0669 44.3704 65.0441 44.3228C64.8471 44.358 64.6532 44.4091 64.4644 44.4756C62.812 45.2135 61.1119 45.8224 59.311 46.037C58.5362 46.1291 57.729 46.0673 56.951 45.9655C56.199 45.8668 55.9151 45.2384 56.2423 44.5568C56.6649 43.6672 57.224 42.8838 58.0519 42.3095C58.4213 42.0529 58.7662 41.7627 59.0823 41.4427C59.2525 41.2704 59.3316 41.0092 59.48 40.7351C58.7215 40.5834 58.5406 41.1967 58.222 41.3961L56.6357 40.0676C56.0549 40.3136 55.7439 40.462 55.7439 40.462L57.3757 41.8847C56.7863 42.7028 56.1838 43.4895 55.642 44.3119C55.457 44.6206 55.333 44.962 55.2769 45.3175C55.1187 46.1302 55.7385 46.828 56.5771 46.8821C58.2025 46.9905 59.7845 46.8724 61.3242 46.323C61.4437 46.2852 61.5685 46.2673 61.6937 46.2699C63.1869 46.2558 65.717 46.3685 66.3986 46.2829C67.0801 46.1973 68.1323 45.4508 69.3654 45.7151C70.5985 45.9795 71.0698 47.4998 72.2812 48.151C73.4926 48.8022 74.4083 48.7112 74.4083 48.7112C74.8688 48.7112 75.3044 48.7535 75.7291 48.7014C76.5656 48.6007 76.8669 48.0188 76.4941 47.2614C76.3736 47.0404 76.2258 46.8355 76.0542 46.6513C75.7486 46.2992 75.4268 45.96 75.0649 45.5678L72.7482 44.1429C72.7482 44.1429 73.0581 44.0855 73.6444 43.9717C74.2306 43.8579 75.325 43.8958 75.325 43.8958C76.3251 44.0584 77.2602 44.2534 78.2062 44.3488C78.8333 44.394 79.4634 44.377 80.0872 44.2978C80.5965 44.2458 80.8706 43.8904 80.9367 43.3855C81.0332 42.5999 80.7157 41.9649 80.0656 41.5954ZM49.7659 57.4599C45.4977 57.0991 41.4376 55.9624 37.5454 54.1984C36.1779 53.6008 35.9929 53.7718 34.8948 52.761L33.7029 53.1631L33.8212 53.8112C33.8212 53.8112 33.8943 53.7822 32.4803 54.3857C31.543 54.7877 32.0572 55.4822 31.769 55.3489L33.8212 56.6676C35.0229 55.5147 35.3371 56.1282 36.0837 54.7391C37.6159 55.2938 39.109 55.8714 40.6271 56.3752C43.4292 57.3049 46.2985 57.9204 49.262 58.0006C49.7074 58.0114 50.1549 57.9301 50.6013 57.8922C50.6013 57.8034 50.6078 57.7145 50.61 57.6257C50.332 57.5544 50.0502 57.499 49.7659 57.4599ZM51.4996 5.50086C51.0206 5.57779 50.5428 5.66882 50.0671 5.76742C49.0713 5.9733 48.5826 5.76743 48.1037 4.87565C47.88 4.42381 47.6821 3.95965 47.511 3.48543C47.0775 2.37695 46.5228 1.99013 45.3254 2.03238C43.2862 2.1039 41.533 2.92848 40.0691 4.28619C39.4395 4.86914 38.8327 5.10536 37.9962 5.02951C36.671 4.90815 35.5647 5.40226 34.6848 6.41214C34.4497 6.68195 34.1431 6.8889 33.9014 7.15329C33.4431 7.65606 32.9143 8.12851 32.5849 8.70822C32.0637 9.62924 31.6617 10.6207 31.2467 11.5992C30.3322 13.7576 29.1034 15.6885 27.2288 17.1405C25.2784 19.9047 24.56 21.685 25.2784 23.4642C25.9968 25.2434 26.5158 26.6964 26.5158 26.6964L22.653 30.282L16.8971 36.442L15.9219 36.481C15.7702 36.4106 15.6585 36.3629 15.5491 36.3077C13.577 35.2924 11.6212 34.2489 9.6296 33.2737C7.99451 32.4718 6.31932 31.7372 4.50002 31.4533C4.00497 31.3664 3.49766 31.3774 3.00687 31.4858C2.19636 31.6906 2.0089 32.4285 2.60161 33.0082C3.04913 33.4416 3.57681 33.8068 4.07092 34.1914C4.64521 34.6368 5.22709 35.0702 5.88373 35.5687C5.51424 35.8135 5.28452 35.9837 5.03963 36.1245C4.32014 36.5374 3.58224 36.9166 2.8725 37.3511C2.3719 37.6589 1.86262 38.0663 2.03383 38.7294C2.19636 39.359 2.82157 39.4879 3.38394 39.5302C4.11968 39.5768 4.86085 39.5302 5.59984 39.541C5.85664 39.541 6.11236 39.6028 6.53278 39.6569C6.25106 40.1055 6.08527 40.4631 5.83496 40.7405C5.45355 41.1739 5.00062 41.5369 4.60404 41.9563C4.27247 42.3063 4.02433 42.7007 4.24862 43.2219C4.47292 43.7431 4.91068 43.9078 5.39828 43.8298C6.31931 43.6824 7.23384 43.4852 8.1397 43.2587C8.53087 43.1612 8.84944 43.1504 9.21026 43.3671C9.92675 43.8189 10.6684 44.2295 11.4316 44.5969C11.8359 44.7927 12.2833 44.8825 12.7318 44.8581C12.9818 44.8267 13.2355 44.8504 13.4753 44.9275C13.7151 45.0046 13.9351 45.1333 14.1199 45.3045C14.8611 45.9611 15.587 46.6362 16.3022 47.3221C16.36 47.384 16.4033 47.458 16.429 47.5388C16.429 47.5388 17.9329 48.2973 18.5007 48.112C19.0685 47.9267 19.0306 44.7031 19.0306 44.7031C19.0306 44.7031 21.7959 44.0595 23.2728 42.9607C24.7496 41.862 27.7229 40.967 27.7229 40.967L29.2735 40.2702C29.2562 40.2041 29.2399 40.137 29.2226 40.0709C28.9842 40.0503 28.7458 40.0134 28.5085 40.0134C26.8637 40.0134 25.416 40.6842 24.0128 41.4221C22.9964 41.9584 22.0765 42.6736 21.072 43.2338C20.358 43.6315 19.5735 43.9034 18.7391 44.2675V42.9607C18.4436 43.2065 18.2251 43.5321 18.1098 43.8988C17.9945 44.2654 17.9873 44.6575 18.089 45.0282C18.1833 45.3532 18.3414 45.6783 18.3761 46.012C18.4108 46.3458 18.3371 46.7218 18.3111 47.0696C17.5591 47.1064 17.0271 46.9547 16.6034 46.4953C16.3965 46.2699 16.1548 46.0716 15.9717 45.8278C15.1363 44.7161 13.8988 44.1732 12.7362 43.5307C12.2117 43.2403 12.0546 43.3432 11.5919 44.08L7.99776 41.5759L7.82764 41.6843C7.86231 41.9866 7.8959 42.2889 7.94574 42.7245C7.20458 42.8567 6.41901 43.0192 5.62584 43.1211C5.46656 43.1406 5.2065 42.9716 5.12307 42.8188C5.05264 42.6909 5.1144 42.4114 5.22059 42.277C5.84147 41.5185 6.49161 40.7773 7.171 39.9885L8.39217 40.6777C8.36291 40.4609 8.38459 40.3255 8.32824 40.2507C7.84606 39.6147 7.26635 39.1108 6.42226 39.0664C5.90106 39.0393 5.37662 39.0664 4.85326 39.0664C4.60011 39.0782 4.34643 39.0691 4.09477 39.0393C3.66134 38.9645 3.11955 38.9656 2.97869 38.4369C2.83783 37.9081 3.39478 37.7726 3.69926 37.5581C4.46426 37.0163 5.27368 36.5493 6.04518 36.0639L7.38663 37.0824L7.5925 36.9534C7.48414 36.6641 7.43864 36.312 7.24468 36.0974C6.70771 35.4921 6.12835 34.9258 5.51098 34.4028C4.93127 33.9206 4.25405 33.5565 3.66892 33.0862C3.46304 32.9215 3.242 32.5704 3.28101 32.3483C3.35361 31.9409 3.77728 32.0135 4.09585 32.0536C5.60309 32.241 7.00305 32.7882 8.32824 33.485C10.3556 34.5501 12.3212 35.7312 14.3496 36.7909C15.2045 37.2384 16.1429 37.5353 17.0661 37.8344C17.3782 37.9352 17.7563 37.8344 18.1041 37.8203C18.1204 37.7293 18.1356 37.6393 18.1507 37.5483L16.8981 36.9654C17.8441 36.2166 18.7489 35.4722 19.6829 34.769C20.9301 33.8295 22.0667 32.7937 22.9238 31.4706C23.9446 29.9038 25.5699 28.999 27.0208 27.7692L28.7296 29.5961L28.9084 29.5408C28.8585 29.2981 28.8629 29.025 28.748 28.8191C28.3958 28.1907 27.9472 27.6131 27.6287 26.9695C27.0555 25.8101 26.5137 24.6312 26.025 23.4338C25.5916 22.3709 25.7801 21.3176 26.2417 20.2915C26.8438 18.9412 27.6973 17.7178 28.7567 16.6865C30.187 15.2909 31.1871 13.5647 32.0074 11.7422C32.3628 10.9534 32.6813 10.1418 33.1126 9.39628C33.4377 8.83066 33.9112 8.34739 34.3348 7.84028C34.5418 7.59214 34.8159 7.39709 35.0066 7.1392C35.7142 6.18459 36.6905 5.77608 37.8304 5.82701C38.8728 5.87252 39.7191 5.50195 40.5317 4.91249C41.2577 4.38371 41.9859 3.82892 42.7899 3.44317C43.4043 3.14844 44.1313 3.05201 44.8205 2.95774C45.7404 2.83096 46.3635 3.29798 46.7633 4.10957C47.0061 4.63269 47.2763 5.14267 47.5727 5.63739C48.1427 6.54 48.9315 6.80764 49.9479 6.50424C50.2589 6.41322 50.5742 6.33738 50.8895 6.26803C50.9824 6.26152 51.0756 6.26735 51.1669 6.28537C51.2872 6.77839 50.9502 6.99402 50.6501 7.20314C49.6605 7.90746 48.5157 8.36278 47.3127 8.53051C46.6755 8.61936 46.2963 8.84366 46.3115 9.63791C45.8845 9.03436 45.527 8.53159 45.1705 8.02882L44.9538 8.15559C45.035 8.3723 45.0827 8.60636 45.203 8.79815C46.1717 10.3368 46.5282 12.0283 46.3949 13.814C46.241 15.7882 46.6409 17.6064 47.6616 19.3033C48.0094 19.8852 48.2435 20.5418 48.4775 21.1833C49.2783 23.3894 48.7506 25.4005 47.5391 27.3054C47.1123 27.9524 46.7318 28.6288 46.4003 29.3295C47.2651 28.6705 47.9619 27.8166 48.4342 26.8373C48.9153 25.8621 49.2414 24.811 49.6391 23.786C49.5784 20.9005 48.0332 19.248 47.2249 16.875C46.4166 14.502 47.5782 14.5995 46.6647 10.6684L47.446 10.21C47.3571 9.83187 47.2769 9.49162 47.1859 9.10696C47.4644 9.0387 47.6898 8.98885 47.9119 8.92708C48.5707 8.74396 49.2371 8.5836 49.8851 8.36364C50.3613 8.2138 50.7956 7.95426 51.1532 7.6059C51.5108 7.25753 51.7816 6.83009 51.9438 6.35796C52.0305 6.12066 51.9904 5.83786 52.0088 5.5648C51.7412 5.52904 51.6188 5.48244 51.4963 5.50086H51.4996Z" fill="#03001B"/>
<path d="M80.0656 41.5954C79.2963 41.1688 78.4932 40.8064 77.6644 40.5119C76.9601 40.2529 76.2113 40.1153 75.4972 39.9278L72.7417 39.5237C72.9985 39.0608 73.2851 38.6153 73.5999 38.1898C74.1417 37.4508 75.2003 36.5406 75.2003 36.5406C75.5005 36.3391 75.8169 36.1624 76.0921 35.9349C76.7531 35.3866 77.5008 34.8936 78.0176 34.2305C78.6829 33.3874 78.2462 32.4968 77.1833 32.4415C76.2601 32.3927 75.3293 32.4968 74.3292 32.5368C73.7646 32.565 66.0941 36.3131 66.0941 36.3131C66.0204 36.6002 65.9641 36.8158 65.8644 37.2048C66.6575 36.9123 67.3564 36.7097 68.0077 36.4052C69.9191 35.5145 71.812 34.5859 73.7115 33.6692C74.4852 33.2953 75.2859 33.019 76.1582 33.1036C76.622 33.148 77.1898 33.1946 77.336 33.706C77.4823 34.2175 76.9525 34.4645 76.6003 34.7191C74.9273 35.9512 73.2694 37.1951 72.2314 39.0653C71.85 39.7534 71.9464 40.6603 72.5218 41.1241C72.5846 40.9434 72.6381 40.7597 72.6822 40.5736C72.7147 40.4024 72.7157 40.2237 72.7374 39.9668C73.6357 40.163 74.4949 40.3363 75.3466 40.5433C76.1983 40.7503 77.0164 40.9897 77.8518 41.2119C78.595 41.402 79.2346 41.8748 79.6343 42.5295C79.9713 43.0626 79.8087 43.4982 79.2009 43.6239C78.7611 43.7138 78.3103 43.7365 77.8637 43.6911C77.1839 43.6051 76.5091 43.4839 75.8418 43.3281C74.5838 43.0583 73.4255 43.3649 72.1198 43.9002L73.0235 44.702C73.6563 45.2633 74.3086 45.8051 74.9132 46.3956C75.1613 46.6569 75.3582 46.9623 75.494 47.2961C75.7638 47.9115 75.5102 48.2908 74.8438 48.1629C74.2108 48.0462 73.6019 47.8234 73.043 47.5041C72.4113 47.1357 71.8695 46.6113 71.2876 46.1562C70.9896 45.9232 70.6906 45.6902 70.3872 45.4648C69.5777 44.8624 68.6805 44.7215 67.7216 44.9946C66.9252 45.221 66.1418 45.4963 65.3378 45.7141C64.6671 45.895 63.9573 45.8689 63.3017 45.6393C63.9725 45.233 64.7223 45.0975 65.1102 44.4658C65.0885 44.4181 65.0669 44.3704 65.0441 44.3228C64.8471 44.358 64.6532 44.4091 64.4644 44.4756C62.812 45.2135 61.1119 45.8224 59.311 46.037C58.5362 46.1291 57.729 46.0673 56.951 45.9655C56.199 45.8668 55.9151 45.2384 56.2423 44.5568C56.6649 43.6672 57.224 42.8838 58.0519 42.3095C58.4213 42.0529 58.7662 41.7627 59.0823 41.4427C59.2525 41.2704 59.3316 41.0092 59.48 40.7351C58.7215 40.5834 58.5406 41.1967 58.222 41.3961L56.6357 40.0676C56.0549 40.3136 55.7439 40.462 55.7439 40.462L57.3757 41.8847C56.7863 42.7028 56.1838 43.4895 55.642 44.3119C55.457 44.6206 55.333 44.962 55.2769 45.3175C55.1187 46.1302 55.7385 46.828 56.5771 46.8821C58.2025 46.9905 59.7845 46.8724 61.3242 46.323C61.4437 46.2852 61.5685 46.2673 61.6937 46.2699C63.1869 46.2558 65.717 46.3685 66.3986 46.2829C67.0801 46.1973 68.1323 45.4508 69.3654 45.7151C70.5985 45.9795 71.0698 47.4998 72.2812 48.151C73.4926 48.8022 74.4083 48.7112 74.4083 48.7112C74.8688 48.7112 75.3044 48.7535 75.7291 48.7014C76.5656 48.6007 76.8669 48.0188 76.4941 47.2614C76.3736 47.0404 76.2258 46.8355 76.0542 46.6513C75.7486 46.2992 75.4268 45.96 75.0649 45.5678L72.7482 44.1429C72.7482 44.1429 73.0581 44.0855 73.6444 43.9717C74.2306 43.8579 75.325 43.8958 75.325 43.8958C76.3251 44.0584 77.2602 44.2534 78.2062 44.3488C78.8333 44.394 79.4634 44.377 80.0872 44.2978C80.5965 44.2458 80.8706 43.8904 80.9367 43.3855C81.0332 42.5999 80.7157 41.9649 80.0656 41.5954ZM49.7659 57.4599C45.4977 57.0991 41.4376 55.9624 37.5454 54.1984C36.1779 53.6008 35.9929 53.7718 34.8948 52.761L33.7029 53.1631L33.8212 53.8112C33.8212 53.8112 33.8943 53.7822 32.4803 54.3857C31.543 54.7877 32.0572 55.4822 31.769 55.3489L33.8212 56.6676C35.0229 55.5147 35.3371 56.1282 36.0837 54.7391C37.6159 55.2938 39.109 55.8714 40.6271 56.3752C43.4292 57.3049 46.2985 57.9204 49.262 58.0006C49.7074 58.0114 50.1549 57.9301 50.6013 57.8922C50.6013 57.8034 50.6078 57.7145 50.61 57.6257C50.332 57.5544 50.0502 57.499 49.7659 57.4599ZM51.4996 5.50086C51.0206 5.57779 50.5428 5.66882 50.0671 5.76742C49.0713 5.9733 48.5826 5.76743 48.1037 4.87565C47.88 4.42381 47.6821 3.95965 47.511 3.48543C47.0775 2.37695 46.5228 1.99013 45.3254 2.03238C43.2862 2.1039 41.533 2.92848 40.0691 4.28619C39.4395 4.86914 38.8327 5.10536 37.9962 5.02951C36.671 4.90815 35.5647 5.40226 34.6848 6.41214C34.4497 6.68195 34.1431 6.8889 33.9014 7.15329C33.4431 7.65606 32.9143 8.12851 32.5849 8.70822C32.0637 9.62924 31.6617 10.6207 31.2467 11.5992C30.3322 13.7576 29.1034 15.6885 27.2288 17.1405C25.2784 19.9047 24.56 21.685 25.2784 23.4642C25.9968 25.2434 26.5158 26.6964 26.5158 26.6964L22.653 30.282L16.8971 36.442L15.9219 36.481C15.7702 36.4106 15.6585 36.3629 15.5491 36.3077C13.577 35.2924 11.6212 34.2489 9.6296 33.2737C7.99451 32.4718 6.31932 31.7372 4.50002 31.4533C4.00497 31.3664 3.49766 31.3774 3.00687 31.4858C2.19636 31.6906 2.0089 32.4285 2.60161 33.0082C3.04913 33.4416 3.57681 33.8068 4.07092 34.1914C4.64521 34.6368 5.22709 35.0702 5.88373 35.5687C5.51424 35.8135 5.28452 35.9837 5.03963 36.1245C4.32014 36.5374 3.58224 36.9166 2.8725 37.3511C2.3719 37.6589 1.86262 38.0663 2.03383 38.7294C2.19636 39.359 2.82157 39.4879 3.38394 39.5302C4.11968 39.5768 4.86085 39.5302 5.59984 39.541C5.85664 39.541 6.11236 39.6028 6.53278 39.6569C6.25106 40.1055 6.08527 40.4631 5.83496 40.7405C5.45355 41.1739 5.00062 41.5369 4.60404 41.9563C4.27247 42.3063 4.02433 42.7007 4.24862 43.2219C4.47292 43.7431 4.91068 43.9078 5.39828 43.8298C6.31931 43.6824 7.23384 43.4852 8.1397 43.2587C8.53087 43.1612 8.84944 43.1504 9.21026 43.3671C9.92675 43.8189 10.6684 44.2295 11.4316 44.5969C11.8359 44.7927 12.2833 44.8825 12.7318 44.8581C12.9818 44.8267 13.2355 44.8504 13.4753 44.9275C13.7151 45.0046 13.9351 45.1333 14.1199 45.3045C14.8611 45.9611 15.587 46.6362 16.3022 47.3221C16.36 47.384 16.4033 47.458 16.429 47.5388C16.429 47.5388 17.9329 48.2973 18.5007 48.112C19.0685 47.9267 19.0306 44.7031 19.0306 44.7031C19.0306 44.7031 21.7959 44.0595 23.2728 42.9607C24.7496 41.862 27.7229 40.967 27.7229 40.967L29.2735 40.2702C29.2562 40.2041 29.2399 40.137 29.2226 40.0709C28.9842 40.0503 28.7458 40.0134 28.5085 40.0134C26.8637 40.0134 25.416 40.6842 24.0128 41.4221C22.9964 41.9584 22.0765 42.6736 21.072 43.2338C20.358 43.6315 19.5735 43.9034 18.7391 44.2675V42.9607C18.4436 43.2065 18.2251 43.5321 18.1098 43.8988C17.9945 44.2654 17.9873 44.6575 18.089 45.0282C18.1833 45.3532 18.3414 45.6783 18.3761 46.012C18.4108 46.3458 18.3371 46.7218 18.3111 47.0696C17.5591 47.1064 17.0271 46.9547 16.6034 46.4953C16.3965 46.2699 16.1548 46.0716 15.9717 45.8278C15.1363 44.7161 13.8988 44.1732 12.7362 43.5307C12.2117 43.2403 12.0546 43.3432 11.5919 44.08L7.99776 41.5759L7.82764 41.6843C7.86231 41.9866 7.8959 42.2889 7.94574 42.7245C7.20458 42.8567 6.41901 43.0192 5.62584 43.1211C5.46656 43.1406 5.2065 42.9716 5.12307 42.8188C5.05264 42.6909 5.1144 42.4114 5.22059 42.277C5.84147 41.5185 6.49161 40.7773 7.171 39.9885L8.39217 40.6777C8.36291 40.4609 8.38459 40.3255 8.32824 40.2507C7.84606 39.6147 7.26635 39.1108 6.42226 39.0664C5.90106 39.0393 5.37662 39.0664 4.85326 39.0664C4.60011 39.0782 4.34643 39.0691 4.09477 39.0393C3.66134 38.9645 3.11955 38.9656 2.97869 38.4369C2.83783 37.9081 3.39478 37.7726 3.69926 37.5581C4.46426 37.0163 5.27368 36.5493 6.04518 36.0639L7.38663 37.0824L7.5925 36.9534C7.48414 36.6641 7.43864 36.312 7.24468 36.0974C6.70771 35.4921 6.12835 34.9258 5.51098 34.4028C4.93127 33.9206 4.25405 33.5565 3.66892 33.0862C3.46304 32.9215 3.242 32.5704 3.28101 32.3483C3.35361 31.9409 3.77728 32.0135 4.09585 32.0536C5.60309 32.241 7.00305 32.7882 8.32824 33.485C10.3556 34.5501 12.3212 35.7312 14.3496 36.7909C15.2045 37.2384 16.1429 37.5353 17.0661 37.8344C17.3782 37.9352 17.7563 37.8344 18.1041 37.8203C18.1204 37.7293 18.1356 37.6393 18.1507 37.5483L16.8981 36.9654C17.8441 36.2166 18.7489 35.4722 19.6829 34.769C20.9301 33.8295 22.0667 32.7937 22.9238 31.4706C23.9446 29.9038 25.5699 28.999 27.0208 27.7692L28.7296 29.5961L28.9084 29.5408C28.8585 29.2981 28.8629 29.025 28.748 28.8191C28.3958 28.1907 27.9472 27.6131 27.6287 26.9695C27.0555 25.8101 26.5137 24.6312 26.025 23.4338C25.5916 22.3709 25.7801 21.3176 26.2417 20.2915C26.8438 18.9412 27.6973 17.7178 28.7567 16.6865C30.187 15.2909 31.1871 13.5647 32.0074 11.7422C32.3628 10.9534 32.6813 10.1418 33.1126 9.39628C33.4377 8.83066 33.9112 8.34739 34.3348 7.84028C34.5418 7.59214 34.8159 7.39709 35.0066 7.1392C35.7142 6.18459 36.6905 5.77608 37.8304 5.82701C38.8728 5.87252 39.7191 5.50195 40.5317 4.91249C41.2577 4.38371 41.9859 3.82892 42.7899 3.44317C43.4043 3.14844 44.1313 3.05201 44.8205 2.95774C45.7404 2.83096 46.3635 3.29798 46.7633 4.10957C47.0061 4.63269 47.2763 5.14267 47.5727 5.63739C48.1427 6.54 48.9315 6.80764 49.9479 6.50424C50.2589 6.41322 50.5742 6.33738 50.8895 6.26803C50.9824 6.26152 51.0756 6.26735 51.1669 6.28537C51.2872 6.77839 50.9502 6.99402 50.6501 7.20314C49.6605 7.90746 48.5157 8.36278 47.3127 8.53051C46.6755 8.61936 46.2963 8.84366 46.3115 9.63791C45.8845 9.03436 45.527 8.53159 45.1705 8.02882L44.9538 8.15559C45.035 8.3723 45.0827 8.60636 45.203 8.79815C46.1717 10.3368 46.5282 12.0283 46.3949 13.814C46.241 15.7882 46.6409 17.6064 47.6616 19.3033C48.0094 19.8852 48.2435 20.5418 48.4775 21.1833C49.2783 23.3894 48.7506 25.4005 47.5391 27.3054C47.1123 27.9524 46.7318 28.6288 46.4003 29.3295C47.2651 28.6705 47.9619 27.8166 48.4342 26.8373C48.9153 25.8621 49.2414 24.811 49.6391 23.786C49.5784 20.9005 48.0332 19.248 47.2249 16.875C46.4166 14.502 47.5782 14.5995 46.6647 10.6684L47.446 10.21C47.3571 9.83187 47.2769 9.49162 47.1859 9.10696C47.4644 9.0387 47.6898 8.98885 47.9119 8.92708C48.5707 8.74396 49.2371 8.5836 49.8851 8.36364C50.3613 8.2138 50.7956 7.95426 51.1532 7.6059C51.5108 7.25753 51.7816 6.83009 51.9438 6.35796C52.0305 6.12066 51.9904 5.83786 52.0088 5.5648C51.7412 5.52904 51.6188 5.48244 51.4963 5.50086H51.4996Z" stroke="#03001B" stroke-width="0.4" stroke-linejoin="round" mask="url(#path-17-outside-2_2080_2)"/>
<path d="M30.6278 56.8443C30.6757 56.8647 30.7312 56.845 30.7555 56.7989C30.7797 56.7528 30.7645 56.6958 30.7206 56.6679L30.5039 56.5303C30.4599 56.5024 30.4019 56.5129 30.3705 56.5544C30.3391 56.5959 30.3448 56.6546 30.3836 56.6893C30.456 56.7539 30.5385 56.8063 30.6278 56.8443Z" fill="#03001B" stroke="#03001B" stroke-width="0.2" stroke-linejoin="round"/>
</svg>
