<svg width="74" height="92" viewBox="0 0 74 92" fill="none" xmlns="http://www.w3.org/2000/svg">
<path fill-rule="evenodd" clip-rule="evenodd" d="M53.5984 84.0523L53.6887 84.537C53.7725 84.9861 53.8488 85.3953 53.9175 85.7745C53.5765 86.036 53.1966 86.0391 52.8257 86.0422C52.4164 86.0456 52.0181 86.0489 51.6952 86.3992C51.928 86.7109 52.2197 86.7137 52.54 86.7169C52.7988 86.7194 53.0762 86.7221 53.3563 86.888C53.389 87.0573 53.4273 87.2579 53.4703 87.4833L53.487 87.5706L53.4929 87.6012C53.5425 87.8614 53.5977 88.1509 53.6573 88.4609L51.7925 88.6012V88.8795C52.0886 89.0652 52.4209 89.052 52.7712 89.038C53.0528 89.0268 53.346 89.0151 53.6415 89.1058C54.1461 89.5585 54.0941 90.2057 54.0194 90.8598C52.5823 91.2287 49.7806 91.0612 48.8979 90.5475V84.3035L53.5984 84.0523ZM44.6099 85.691C44.4088 85.1408 44.2157 84.613 44.0187 84.0772C42.6766 84.2695 41.4772 84.609 40.4361 85.2902C39.7762 85.7137 39.2044 86.2608 38.7524 86.9016C37.9874 88.0376 38.2409 89.1398 39.3453 89.9613C41.2192 91.3577 43.308 91.2897 45.5463 90.905C45.4782 90.4867 45.4999 90.0729 45.5209 89.6727C45.5577 88.9687 45.5924 88.3065 45.1321 87.7366H42.8373C42.7739 88.1893 42.7241 88.5559 42.6744 88.9248C42.0927 89.1126 41.7057 88.9226 41.3459 88.4518C41.7199 87.1825 42.7305 86.8776 43.7664 86.5651C44.1157 86.4597 44.4678 86.3534 44.7994 86.209L44.6099 85.691ZM22.7271 84.2107H25.1939C25.9023 85.4124 25.8321 88.7256 25.0604 89.778C24.1235 91.0544 22.752 91.2377 21.3172 91.0974C19.8823 90.9571 18.71 90.3664 18.0718 88.9972C17.9121 88.6553 17.8206 88.2856 17.8026 87.9086C17.778 87.07 17.7819 86.2303 17.7859 85.3584C17.7874 85.0256 17.7889 84.6881 17.7889 84.3442H20.4391C20.5482 84.7537 20.6283 85.1704 20.679 85.5912C20.7141 86.1323 20.725 86.6733 20.7359 87.212V87.2152C20.7432 87.5767 20.7504 87.9371 20.765 88.2956C20.7904 88.472 20.8352 88.645 20.8985 88.8116C22.0708 89.3503 22.6705 89.038 22.709 87.8295C22.7474 87.0093 22.7405 86.188 22.7332 85.3174L22.733 85.3001C22.7301 84.9463 22.7271 84.5842 22.7271 84.2107ZM60.1683 90.8915V88.2866C60.7239 88.7006 61.1146 89.2174 61.4883 89.7118C61.9625 90.339 62.4093 90.93 63.1307 91.2287L65.0226 89.9952L63.0379 88.0422C63.1161 87.9609 63.1956 87.8823 63.2739 87.8048C63.7191 87.3644 64.1304 86.9575 64.1016 86.2724C63.8775 85.5029 63.4565 84.8647 62.6079 84.6225C60.952 84.1504 59.2731 84.2159 57.5792 84.282L57.3755 84.2899V90.5904C58.1969 91.1289 59.0396 91.0273 59.9485 90.9176C60.0213 90.9089 60.0945 90.9 60.1683 90.8915ZM29.0706 84.3035V90.6244C29.9753 91.1543 30.8582 91.0282 31.8344 90.8888L31.895 90.8801V88.3907C32.424 88.7601 32.7958 89.2494 33.1605 89.7292C33.6133 90.3252 34.0553 90.9067 34.7737 91.2264L36.6702 89.9613L34.5972 88.0127C34.7957 87.8718 34.9868 87.7207 35.1697 87.5601C36.2515 86.5372 35.6314 85.5188 34.8235 84.9122C34.5778 84.7392 34.3 84.6169 34.0065 84.5524C32.3906 84.179 30.7567 84.2016 29.0706 84.3035ZM14.2654 87.6227C14.2153 87.5682 14.1622 87.5105 14.1069 87.447L14.7496 86.3381C14.4282 85.3672 13.9077 84.7855 13.0251 84.5592C11.5609 84.2016 10.0785 84.1926 8.52826 84.3035V90.6787C8.61292 90.7126 8.6994 90.7598 8.78729 90.8078C8.95801 90.901 9.13428 90.9972 9.31354 91.0047C10.891 91.0567 12.4706 91.0567 13.9326 90.3257C15.1434 89.7101 15.3018 89.0176 14.5029 87.8996C14.4348 87.8069 14.3547 87.7197 14.2654 87.6227Z" fill="#F5DEA6"/>
<path d="M50.2678 90.321C51.2873 90.3783 52.2704 90.4336 53.2771 90.2578V89.5223L51.1769 89.3525V87.9788L52.8743 87.8181V87.103L51.1045 87.0034C51.1317 86.4738 51.1543 86.0506 51.1792 85.6048L53.0598 85.2608V84.4664L49.2985 84.6927M44.6387 90.2827V90.2917C44.9171 89.1873 44.9149 89.1194 44.6207 88.1847H43.2628C43.2418 88.2569 43.2218 88.3264 43.2024 88.3941L43.1348 88.631C43.0597 88.8947 42.9881 89.1459 42.8984 89.443C42.5258 89.4248 42.1559 89.3703 41.794 89.2801C40.6058 88.8614 40.3637 87.7503 41.3187 86.9219C41.6915 86.5996 42.1574 86.3804 42.6172 86.1641C42.7353 86.1085 42.853 86.0532 42.9686 85.9963C43.3284 85.846 43.6973 85.7183 44.073 85.6139C43.9033 85.1997 43.772 84.876 43.6204 84.5026C43.3676 84.5789 43.1248 84.6473 42.8899 84.7133C42.3866 84.8549 41.9202 84.986 41.4727 85.1635C40.4719 85.5196 39.6235 86.2082 39.0692 87.1143M18.606 89.2303C18.3967 88.9169 18.2734 88.554 18.2484 88.178C18.2162 87.411 18.2218 86.6428 18.2277 85.8283V85.8262V85.8241V85.822V85.8197C18.2301 85.4882 18.2325 85.149 18.2325 84.7991L19.8755 84.7041C19.8887 84.8681 19.9008 85.0222 19.9122 85.1696L19.9135 85.1859C19.9393 85.5159 19.9624 85.8121 19.9887 86.1095C20.0195 86.8571 20.095 87.6023 20.215 88.3409C20.3915 89.1602 20.989 89.5313 21.7856 89.4725C22.5098 89.4204 22.9964 88.9904 23.0938 88.1689C23.155 87.6524 23.1569 87.1299 23.1588 86.6075C23.1595 86.4157 23.1602 86.2239 23.1639 86.0325V84.6022C23.4392 84.5615 23.7164 84.535 23.9944 84.523C24.1652 84.5275 24.3348 84.5518 24.5377 84.5808C24.6414 84.5957 24.7537 84.6118 24.8793 84.6271C25.0446 85.9827 25.1215 87.3271 24.7322 88.6238M64.0043 89.5245C63.2936 88.8773 62.6962 88.3251 62.0511 87.7253C62.0852 87.6975 62.1183 87.6705 62.1506 87.6444L62.2225 87.5862L62.3292 87.5005C62.5114 87.3543 62.6663 87.2299 62.8138 87.0962C63.7825 86.2158 63.5833 85.3468 62.3182 84.9507C61.9996 84.8333 61.6672 84.7572 61.3292 84.7244C60.3176 84.6814 59.306 84.6701 58.2921 84.6679C58.1206 84.6983 57.9554 84.7571 57.8033 84.8421V90.217H59.4825C59.4959 89.4131 59.5098 88.6294 59.5234 87.8603C59.5375 87.064 59.5513 86.2833 59.564 85.512C60.7589 85.3015 60.949 85.3898 61.5578 86.4421C61.4785 86.5607 61.3967 86.6828 61.3119 86.8092C61.0893 87.141 60.8466 87.5028 60.5779 87.9109C60.8917 88.3001 61.2056 88.6936 61.5287 89.0987L61.5322 89.1031L61.5399 89.1126M31.1854 89.3336V89.3323C31.1799 88.7861 31.1748 88.2711 31.1912 87.757C31.198 87.5438 31.1873 87.3293 31.1766 87.1153V87.114V87.1128V87.1115V87.1103C31.1483 86.54 31.1202 85.9735 31.4175 85.4464C32.162 85.254 32.6758 85.5301 33.1465 86.2113C33.0722 86.5077 32.9699 86.7965 32.841 87.0735C32.6644 87.3412 32.4653 87.5934 32.2458 87.8272C33.1035 89.1851 33.71 89.8957 34.5089 90.4252L35.731 89.6196L35.4487 89.3649L35.4442 89.3608C35.1639 89.1082 34.9331 88.9001 34.7036 88.6894C34.4503 88.457 34.2065 88.223 33.9104 87.9386L33.7281 87.7638C34.0715 87.4678 34.3993 87.1543 34.7103 86.8246C35.3214 86.1004 35.163 85.3106 34.2803 85.039C32.755 84.566 31.1889 84.5977 29.5278 84.7538C29.3779 86.5729 29.3854 88.4015 29.5504 90.2193M13.5728 89.6241C14.2698 89.2779 14.3196 89.0787 14.1431 88.0807L12.7852 87.2637C12.9214 87.0462 13.1366 86.8956 13.3472 86.7483C13.7521 86.465 14.1401 86.1935 13.9167 85.4803C12.6998 84.5676 11.3165 84.6339 9.87738 84.703C9.57166 84.7177 9.26343 84.7325 8.95374 84.738M53.6887 84.537L53.5984 84.0523L48.8979 84.3035V90.5475C49.7806 91.0612 52.5823 91.2287 54.0194 90.8598C54.0941 90.2057 54.1461 89.5585 53.6415 89.1058C53.346 89.0151 53.0528 89.0268 52.7712 89.038C52.4209 89.052 52.0886 89.0652 51.7925 88.8795V88.6012L53.6573 88.4609C53.5977 88.1509 53.5425 87.8614 53.4929 87.6012L53.487 87.5706L53.4703 87.4833C53.4273 87.2579 53.389 87.0573 53.3563 86.888C53.0762 86.7221 52.7988 86.7194 52.54 86.7169C52.2197 86.7137 51.928 86.7109 51.6952 86.3992C52.0181 86.0489 52.4164 86.0456 52.8257 86.0422C53.1966 86.0391 53.5765 86.036 53.9175 85.7745C53.8488 85.3953 53.7725 84.9861 53.6887 84.537ZM44.0187 84.0772C44.2157 84.613 44.4088 85.1408 44.6099 85.691L44.7994 86.209C44.4678 86.3534 44.1157 86.4597 43.7664 86.5651C42.7305 86.8776 41.7199 87.1825 41.3459 88.4518C41.7057 88.9226 42.0927 89.1126 42.6744 88.9248C42.7241 88.5559 42.7739 88.1893 42.8373 87.7366H45.1321C45.5924 88.3065 45.5577 88.9687 45.5209 89.6727C45.4999 90.0729 45.4782 90.4867 45.5463 90.905C43.308 91.2897 41.2192 91.3577 39.3453 89.9613C38.2409 89.1398 37.9874 88.0376 38.7524 86.9016C39.2044 86.2608 39.7762 85.7137 40.4361 85.2902C41.4772 84.609 42.6766 84.2695 44.0187 84.0772ZM25.1939 84.2107H22.7271C22.7271 84.5842 22.7301 84.9463 22.733 85.3001L22.7332 85.3174C22.7405 86.188 22.7474 87.0093 22.709 87.8295C22.6705 89.038 22.0708 89.3503 20.8985 88.8116C20.8352 88.645 20.7904 88.472 20.765 88.2956C20.7504 87.9371 20.7432 87.5767 20.7359 87.2152V87.212C20.725 86.6733 20.7141 86.1323 20.679 85.5912C20.6283 85.1704 20.5482 84.7537 20.4391 84.3442H17.7889C17.7889 84.6881 17.7874 85.0256 17.7859 85.3584C17.7819 86.2303 17.778 87.07 17.8026 87.9086C17.8206 88.2856 17.9121 88.6553 18.0718 88.9972C18.71 90.3664 19.8823 90.9571 21.3172 91.0974C22.752 91.2377 24.1235 91.0544 25.0604 89.778C25.8321 88.7256 25.9023 85.4124 25.1939 84.2107ZM60.1683 88.2866V90.8915C60.0945 90.9 60.0213 90.9089 59.9485 90.9176C59.0396 91.0273 58.1969 91.1289 57.3755 90.5904V84.2899L57.5792 84.282C59.2731 84.2159 60.952 84.1504 62.6079 84.6225C63.4565 84.8647 63.8775 85.5029 64.1016 86.2724C64.1304 86.9575 63.7191 87.3644 63.2739 87.8048C63.1956 87.8823 63.1161 87.9609 63.0379 88.0422L65.0226 89.9952L63.1307 91.2287C62.4093 90.93 61.9625 90.339 61.4883 89.7118C61.1146 89.2174 60.7239 88.7006 60.1683 88.2866ZM29.0706 90.6244V84.3035C30.7567 84.2016 32.3906 84.179 34.0065 84.5524C34.3 84.6169 34.5778 84.7392 34.8235 84.9122C35.6314 85.5188 36.2515 86.5372 35.1697 87.5601C34.9868 87.7207 34.7957 87.8718 34.5972 88.0127L36.6702 89.9613L34.7737 91.2264C34.0553 90.9067 33.6133 90.3252 33.1605 89.7292C32.7958 89.2494 32.424 88.7601 31.895 88.3907V90.8801L31.8344 90.8888C30.8582 91.0282 29.9753 91.1543 29.0706 90.6244ZM14.1069 87.447C14.1622 87.5105 14.2153 87.5682 14.2654 87.6227C14.3547 87.7197 14.4348 87.8069 14.5029 87.8996C15.3018 89.0176 15.1434 89.7101 13.9326 90.3257C12.4706 91.0567 10.891 91.0567 9.31354 91.0047C9.13428 90.9972 8.95801 90.901 8.78729 90.8078C8.6994 90.7598 8.61292 90.7126 8.52826 90.6787V84.3035C10.0785 84.1926 11.5609 84.2016 13.0251 84.5592C13.9077 84.7855 14.4282 85.3672 14.7496 86.3381L14.1069 87.447Z" stroke="#F5DEA6" stroke-width="0.5" stroke-linejoin="round"/>
<path d="M1.84355 37.2696C1.28246 17.4063 17.2318 1 37.1031 1V1C56.5841 1 72.3766 16.7925 72.3766 36.2736V83.5776L3.1242 82.6069L1.84355 37.2696Z" fill="#3290FF" stroke="#F5DEA6" stroke-width="0.5" stroke-linejoin="round"/>
<path d="M5.50989 21.5763L6.855 18.0236L8.93883 22.1375L11.5073 19.5502L13.2761 18.8233L14.6297 20.1733L13.0162 23.751L14.9723 26.2863L15.261 27.4691V29.7841L13.4457 28.8305L11.3861 26.066H10.5215L11.8707 31.6413L8.93883 31.3747L7.02461 26.8034L5.50989 21.5763Z" fill="#03001B"/>
<path d="M19.6104 28.5915L17.9284 27.8371V25.2201L18.283 22.173L19.6104 16.2447L21.2941 15.8238L24.942 22.1375L25.9241 26.066L25.34 26.8034L22.9292 25.7301L20.9433 26.066L19.6104 28.5915Z" fill="#03001B"/>
<path d="M27.8884 15.8238L28.7302 14.9119L30.4138 20.1733L31.1154 21.0151L32.3781 20.524L34.0617 14.9119L35.6281 15.3962L36.5171 16.6657L35.8155 21.0151L34.4125 26.6272L33.5707 26.066L32.8921 25.3698L32.3781 23.1196H30.4138L29.7123 26.6272H28.7302L27.0465 21.5763L27.8884 15.8238Z" fill="#03001B"/>
<path d="M38.0088 16.9907L40.1553 15.3962L40.8008 15.9221L40.6153 17.1747L39.91 21.8357L40.37 25.1475L43.0071 26.066L40.9219 26.8034L38.4074 25.1475L38.2541 23.1196L38.0088 16.9907Z" fill="#03001B"/>
<path d="M42.737 25.7301L44.111 18.064L44.6055 16.6657L45.0971 15.9221L46.6869 16.1934L47.3308 17.1747L45.8283 24.1049L43.4364 25.7301H42.737Z" fill="#03001B"/>
<path d="M48.0361 22.173L50.8879 15.7641L52.3905 16.1934V19.1372L53.2798 23.6449L55.9476 17.7573L57.1435 17.42L57.6307 18.7097L57.4195 20.524L55.7636 26.8034L53.6477 28.2446L50.8879 23.6449L48.9867 27.4167L48.0361 26.066V22.173Z" fill="#03001B"/>
<path d="M58.4928 28.674L57.4195 26.8034L60.5166 21.1611L61.8352 19.4132L64.4724 17.42L66.4349 16.4081L67.4162 17.7573L67.0789 26.8034L64.9323 31.1271L63.5831 30.4525L63.7977 27.4167L61.8352 26.066L58.4928 28.674Z" fill="#03001B"/>
<path d="M29.7123 14.0594V7.2662H31.7017L34.9061 8.61203L34.4125 10.4706L35.2906 12.9059L29.7123 14.0594Z" fill="#03001B"/>
<path d="M36.5171 14.0594V7.84299H38.6872L38.4074 10.4706V14.0594H36.5171Z" fill="#03001B"/>
<path d="M39.91 9.82969L43.4364 7.2662H44.5192L44.111 9.82969L42.7925 10.4706L44.9037 11.1114V13.6749L44.111 14.5721L40.37 13.2263L39.3922 11.6241L39.91 9.82969Z" fill="#03001B"/>
<path d="M72.0199 62.9376C72.026 62.8819 72.0133 62.8258 71.9837 62.7782C71.8401 62.547 71.7227 62.3543 71.6024 62.1568C71.5334 62.0436 71.4635 61.9287 71.387 61.804C71.3417 61.7301 71.2613 61.685 71.1747 61.6847C71.1671 61.6847 71.1596 61.685 71.1522 61.6857C71.2991 61.4365 71.3604 61.1728 71.3797 60.9118C71.3943 60.7132 71.3849 60.515 71.3722 60.3297C71.3689 60.2815 71.3654 60.2346 71.362 60.1887C71.352 60.0535 71.3427 59.9268 71.3402 59.8005C71.3402 56.1501 71.322 52.4965 71.2519 48.8445H71.252L71.2516 48.8371C71.147 46.7126 71.1341 44.5685 71.1212 42.4159L71.1196 42.1531C71.1061 39.9143 71.0884 37.6673 70.9624 35.4367C70.7103 30.975 70.0243 26.5627 68.0599 22.3688C68.0138 22.2703 67.9093 22.213 67.8014 22.2269C67.6936 22.2409 67.6071 22.323 67.5876 22.43C67.4386 23.2465 67.3461 24.0622 67.2559 24.8586L67.2531 24.8834C67.1616 25.6906 67.0719 26.477 66.9276 27.2416C66.6497 28.7145 66.1724 30.0881 65.1087 31.3117C64.5238 31.0661 64.1952 30.7819 64.0016 30.4892C64.1216 30.5643 64.2601 30.6325 64.4179 30.6943C64.5274 30.7371 64.652 30.6978 64.7171 30.5999C64.8541 30.3941 64.9806 30.2052 65.0974 30.0307C65.6542 29.1994 65.9925 28.6942 66.2078 28.231C66.477 27.6522 66.5567 27.1367 66.663 26.1754C66.6643 26.1634 66.6648 26.1514 66.6644 26.1394C66.6391 25.4012 66.7216 24.6049 66.8362 23.7739C66.8763 23.4836 66.9205 23.1874 66.9652 22.8886C67.047 22.3408 67.1303 21.7839 67.1914 21.2373C67.3807 19.5461 67.3768 17.8346 66.4582 16.4375C66.4195 16.3786 66.3578 16.3388 66.2882 16.3279C66.2186 16.317 66.1476 16.3359 66.0927 16.38C65.8791 16.5517 65.659 16.7111 65.4341 16.8627C65.4487 16.7977 65.4367 16.7294 65.4008 16.6732C59.2097 6.99771 49.9987 3.12998 38.9792 2.59856L38.1243 1.26283C48.7275 1.59363 56.1355 4.56872 61.2987 9.29143C66.5412 14.0866 69.4985 20.7098 71.1136 28.281C72.7289 35.8533 72.9974 44.3534 72.8782 52.8806C72.829 56.3953 72.7138 59.9195 72.6005 63.3837C72.4394 68.3064 72.2824 73.1077 72.3247 77.5881C72.2802 78.9308 72.2134 80.2722 72.1469 81.6067C72.1224 82.0996 72.0979 82.5916 72.0745 83.0824C72.0051 83.0886 71.9187 83.0949 71.8157 83.1012C71.5576 83.1169 71.203 83.132 70.7639 83.1465C69.8861 83.1754 68.6774 83.2014 67.2425 83.224C64.3731 83.2693 60.6037 83.3013 56.7791 83.3168C49.5418 83.3463 42.134 83.3167 40.2326 83.2096C40.3015 82.8512 40.3719 82.4816 40.4531 82.0527H70.461C70.5912 82.0527 70.6996 81.9528 70.7102 81.823C70.9754 78.5653 71.077 75.2963 71.0145 72.0284L72.0199 62.9376ZM58.1825 28.4401C58.3361 28.4945 58.5022 28.4933 58.6605 28.4617C58.887 28.4164 59.1257 28.3046 59.3586 28.1601C59.8263 27.8701 60.326 27.4135 60.7476 26.9359C61.0572 26.585 61.3353 26.2107 61.5305 25.8683C61.7116 26.0724 61.8921 26.2615 62.0801 26.4239C62.0363 26.435 61.9953 26.4581 61.9622 26.4922L59.4776 29.0559C58.8721 29.0228 58.4568 28.7835 58.1825 28.4401ZM63.4789 27.7422C63.3722 27.4478 63.2034 27.1711 62.9402 26.9203C63.1497 26.9824 63.3748 27.0093 63.6217 26.9945C63.7377 27.2507 63.7545 27.5118 63.7217 27.7836C63.7003 27.9603 63.6602 28.1307 63.6138 28.304C63.5869 28.1155 63.5456 27.9262 63.4789 27.7422Z" fill="#F5DEA6" stroke="#F5DEA6" stroke-width="0.5" stroke-linejoin="round"/>
<path d="M9.37665 21.5398C9.4094 21.5456 9.44251 21.5447 9.47417 21.5376C9.32434 21.7155 9.17164 21.8925 9.01202 22.0669L7.23159 18.4604C7.19731 18.3909 7.13277 18.3413 7.05684 18.326C6.98092 18.3107 6.90218 18.3314 6.84366 18.3821C6.03702 19.0814 5.71546 20.0827 5.68581 21.1991C5.66846 21.8525 5.75051 22.5549 5.89887 23.2774C5.88514 23.291 5.87284 23.3064 5.86235 23.3234C4.84016 24.9772 4.25707 27.0085 3.89427 29.1048C3.54001 31.1517 3.39289 33.2796 3.25997 35.2022L3.25017 35.3439L3.24984 35.3439L3.24961 35.3567C3.20069 38.122 3.14442 40.8814 3.08819 43.6388C2.965 49.6796 2.84202 55.7104 2.79695 61.77C2.79639 61.8464 2.83079 61.9189 2.89036 61.9667C2.94993 62.0146 3.02812 62.0326 3.10261 62.0156C3.22344 61.988 3.34239 61.9545 3.45913 61.9171C3.29168 62.2021 3.28099 62.5053 3.30178 62.7776C3.30903 62.8726 3.32199 62.98 3.33415 63.0808C3.3418 63.1443 3.34913 63.2051 3.35452 63.2585C3.37 63.4118 3.37604 63.5508 3.35946 63.6821C3.3288 63.925 3.21805 64.1727 2.84806 64.4171C2.78146 64.4611 2.73987 64.5342 2.73612 64.6139C2.73237 64.6937 2.76691 64.7704 2.82908 64.8204C2.84017 64.8294 2.86716 64.8592 2.89844 64.9348C2.92876 65.008 2.95642 65.108 2.97955 65.2365C3.02585 65.4936 3.04869 65.8337 3.05458 66.2355C3.06502 66.9478 3.02215 67.8187 2.97871 68.7012C2.97317 68.8138 2.96761 68.9265 2.96217 69.0392C2.91438 70.0268 2.8741 71.0083 2.92191 71.7409C2.94562 72.1042 2.99208 72.4294 3.08129 72.6691C3.13845 72.8226 3.23494 72.9918 3.3913 73.0807L3.31352 75.8494C3.15115 76.838 3.16798 77.8065 3.23288 78.7687C3.25817 79.1435 3.29026 79.5131 3.32234 79.8825C3.37413 80.4789 3.42588 81.0748 3.4489 81.6922C3.45381 81.8237 3.55992 81.929 3.69152 81.9327C9.02812 82.0866 14.3696 82.0598 19.7097 82.033C22.9513 82.0167 26.1925 82.0004 29.4316 82.0246C29.2196 82.2949 28.8708 82.5346 28.3745 82.7403C27.6886 83.0246 26.7648 83.225 25.6581 83.3578C23.4466 83.6232 20.5652 83.6125 17.5354 83.5075C15.875 83.4499 14.1884 83.3649 12.5462 83.2822C11.1795 83.2133 9.84369 83.1461 8.57955 83.0974C5.99904 82.9981 3.73929 82.9775 2.26316 83.1969C2.20037 78.9506 1.96381 74.3205 1.71768 69.5031C1.51701 65.5755 1.30999 61.5234 1.18558 57.4533C0.904492 48.2573 1.04242 38.9295 2.61003 30.5829C4.17772 22.2359 7.17083 14.8945 12.5806 9.64695C17.9277 4.46026 25.665 1.29121 36.8064 1.25251C36.6419 1.63586 36.4374 1.909 36.2074 2.10797C35.9161 2.36003 35.5669 2.50762 35.1644 2.59679C34.7585 2.68671 34.3103 2.71493 33.8244 2.73564C33.7549 2.7386 33.6847 2.7414 33.6138 2.74423C33.1965 2.7609 32.7564 2.77848 32.3194 2.83378C25.0356 3.56725 18.4891 6.0448 13.1295 11.24C11.0592 13.2463 8.80545 16.2921 7.76947 18.5341C7.73683 18.6047 7.73894 18.6865 7.77518 18.7554C8.0537 19.2846 8.33815 19.8118 8.63286 20.3581C8.81735 20.7001 9.00586 21.0495 9.19946 21.4115C9.23568 21.4792 9.30101 21.5265 9.37665 21.5398ZM12.1946 30.7366C12.3031 31.1355 12.3068 31.5173 12.1272 31.8988C11.8889 31.8906 11.6528 31.899 11.4244 31.9085C11.397 31.9097 11.3697 31.9109 11.3425 31.912C11.0875 31.9229 10.8425 31.9334 10.597 31.9257C10.1692 31.9122 9.75298 31.8435 9.33702 31.6258H11.3232C11.4556 31.6258 11.565 31.5226 11.5728 31.3904C11.6075 30.7966 11.4026 30.1841 11.1504 29.605C11.0328 29.3349 10.9011 29.0641 10.773 28.8006C10.7626 28.7792 10.7522 28.7578 10.7418 28.7365C10.6029 28.4507 10.4697 28.1738 10.3577 27.9044C10.1305 27.3578 10.01 26.8853 10.0838 26.4836C10.1466 26.1419 10.3592 25.8086 10.8828 25.5133C10.9832 25.6463 11.1111 25.8218 11.2607 26.0272C11.2927 26.0711 11.3257 26.1164 11.3596 26.1629C11.2838 26.1656 11.2131 26.2026 11.1676 26.2639C10.7836 26.7819 10.7445 27.3198 10.8717 27.8429C10.9944 28.3475 11.2757 28.8526 11.5395 29.3261L11.5416 29.3299C11.8139 29.8189 12.0703 30.2795 12.1946 30.7366ZM15.3479 29.1944C15.4432 28.9412 15.4662 28.5769 15.4303 28.1029C15.5121 26.9521 14.942 26.1235 14.2707 25.4113C14.0572 25.1848 13.8235 24.9602 13.5949 24.7405C13.4678 24.6184 13.3423 24.4978 13.2227 24.3792C12.9145 24.0736 12.632 23.769 12.4066 23.4426C12.5458 23.1581 12.7837 22.8242 13.0608 22.4503C13.0959 22.403 13.1315 22.3551 13.1675 22.3068C13.4464 21.9321 13.7459 21.5298 13.9686 21.1397C14.2155 20.7075 14.4044 20.2309 14.3164 19.7829C14.2736 19.5654 14.1708 19.3745 14.0087 19.2101C14.5863 19.4068 14.8388 19.6742 14.9348 19.9445C15.0402 20.2412 14.986 20.6176 14.8011 21.0662C14.6181 21.5099 14.3257 21.9807 14.0168 22.4444C13.9348 22.5674 13.8512 22.6907 13.7684 22.8126C13.5458 23.1404 13.3297 23.4588 13.1701 23.7382C13.1111 23.8416 13.1331 23.9722 13.2227 24.0505C14.5849 25.24 15.451 26.4353 15.9092 27.4371C16.1384 27.9383 16.263 28.3855 16.3 28.7554C16.3374 29.1286 16.2841 29.4035 16.1822 29.5802C16.0871 29.7454 15.9408 29.8427 15.7269 29.8594C15.517 29.8757 15.2295 29.814 14.8645 29.6244C14.9497 29.6124 15.0333 29.5814 15.1098 29.5263C15.2227 29.4449 15.2982 29.3268 15.3479 29.1944Z" fill="#F5DEA6" stroke="#F5DEA6" stroke-width="0.5" stroke-linejoin="round"/>
<path d="M39.7374 26.4629C39.4438 26.1876 39.1772 25.8963 38.9554 25.5824C39.8236 26.4907 41.2597 26.7893 42.5575 26.22L42.5614 26.2204C42.639 26.2274 42.7153 26.1978 42.768 26.1405C42.7719 26.1362 42.7758 26.1319 42.7798 26.1276C43.6516 25.7274 44.2466 25.0286 44.7488 24.3084L44.7489 24.3082C46.3105 22.0642 46.9455 19.5219 47.1399 16.8692C47.1408 16.8574 47.1408 16.8455 47.14 16.8337C47.1398 16.8311 47.1396 16.8285 47.1394 16.8259L47.5114 17.3982C47.1816 20.7777 46.5452 24.051 43.8223 26.4894C43.2519 26.977 42.5248 27.2427 41.7743 27.2377C41.0242 27.2327 40.3011 26.9576 39.7374 26.4629ZM42.4544 25.7087C42.4774 25.6924 42.4997 25.676 42.5215 25.6593C42.5089 25.6753 42.4961 25.6911 42.483 25.7069C42.4794 25.7079 42.4758 25.7091 42.4723 25.7103L42.4544 25.7087ZM40.3243 24.6251C40.3292 24.7778 40.3342 24.9344 40.3353 25.1028C40.3161 25.0836 40.2978 25.0639 40.2804 25.0437C39.9893 24.7043 39.8922 24.1481 39.9813 23.1327L39.9813 23.1326C40.0672 22.1492 40.2008 21.1713 40.3351 20.1873C40.3732 19.9083 40.4114 19.6289 40.4486 19.3486C40.5128 18.8673 40.5833 18.3863 40.6541 17.9037L40.6556 17.8934C40.7257 17.4147 40.7962 16.9346 40.8604 16.4541L40.8606 16.4533C40.8695 16.3847 40.8791 16.3078 40.8847 16.2276L41.2311 16.7846C41.1955 17.0509 41.1585 17.3278 41.1204 17.6122C41.0234 18.337 40.9199 19.1109 40.8174 19.8847L40.8174 19.8851C40.7829 20.1488 40.7481 20.4127 40.7132 20.6768C40.581 21.6778 40.4483 22.6822 40.337 23.6875L40.3369 23.6881C40.3113 23.9247 40.3117 24.1605 40.3177 24.4013C40.3196 24.4756 40.322 24.5499 40.3243 24.6251Z" fill="#F5DEA6" stroke="#F5DEA6" stroke-width="0.5" stroke-linejoin="round"/>
<path d="M35.1427 24.2168C35.5345 21.8025 35.8994 19.3825 36.2076 16.9664L36.2077 16.9659C36.2281 16.8034 36.2127 16.6418 36.1815 16.4905L36.5924 17.1372C36.5685 17.401 36.5452 17.6645 36.522 17.9279C36.3072 20.3569 36.0942 22.767 35.4757 25.1249L35.4755 25.1256C35.467 25.1584 35.4585 25.1911 35.4502 25.2236C35.2613 25.9557 35.0976 26.5904 34.4828 26.9389L33.4115 26.2899L32.9283 25.5401C32.9266 25.5257 32.9248 25.5113 32.923 25.4969L33.8969 26.1187C33.9885 26.1772 34.1073 26.1698 34.191 26.1005C34.8432 25.5599 35.0401 24.8538 35.1427 24.2168ZM35.1427 24.2168L34.896 24.1767L35.1428 24.2165C35.1428 24.2166 35.1428 24.2167 35.1427 24.2168ZM30.0845 17.6472L30.0845 17.6472L30.0847 17.6494C30.1514 18.3306 30.2301 19.0101 30.3085 19.6883C30.3209 19.7947 30.3332 19.901 30.3454 20.0073L30.3454 20.0074C30.3465 20.0167 30.3476 20.0259 30.3486 20.0351C30.3744 20.2585 30.395 20.4374 30.4874 20.603L30.2045 20.3996C30.1915 20.3047 30.1788 20.213 30.1663 20.1236C30.1278 19.8462 30.0924 19.5914 30.0612 19.3356C30.0229 19.0111 29.9866 18.6868 29.9502 18.3627C29.8605 17.5632 29.771 16.7645 29.6529 15.9657L29.6529 15.9656C29.6464 15.9215 29.6407 15.8756 29.6345 15.8253L29.6343 15.8233C29.8993 16.3742 30.0258 16.9888 30.0845 17.6472ZM29.6298 25.8908C29.7942 24.7004 29.9522 23.5571 30.1192 22.3514C30.4783 22.588 30.851 22.7139 31.2412 22.7358C31.6481 22.7585 32.057 22.6671 32.4701 22.4938C32.5045 22.8499 32.5375 23.1926 32.5695 23.5261C32.5463 23.5149 32.5211 23.5071 32.4945 23.5035L30.7451 23.2659C30.6196 23.2488 30.5012 23.3283 30.4694 23.4509C30.3781 23.8035 30.3352 24.1645 30.3043 24.5176C30.2935 24.6414 30.2843 24.7625 30.2752 24.8823C30.2577 25.1115 30.2406 25.3355 30.2137 25.5625C30.1412 26.1723 30.0026 26.7408 29.6279 27.2514C29.0459 26.839 28.57 26.2971 28.2365 25.6706L29.1933 26.3639C29.2644 26.4155 29.3573 26.4259 29.4381 26.3915C29.5189 26.357 29.5756 26.2827 29.5876 26.1957L29.6298 25.8908Z" fill="#F5DEA6" stroke="#F5DEA6" stroke-width="0.5" stroke-linejoin="round"/>
<path d="M53.4819 23.264C53.4579 23.2695 53.4328 23.2715 53.4074 23.2695C53.303 23.2616 53.2147 23.1894 53.186 23.0887C53.1382 22.921 53.1011 22.7503 53.0751 22.5778C53.0744 22.5731 53.0738 22.5683 53.0734 22.5635C53.0493 22.3027 53.025 22.0417 53.0007 21.7806C52.8861 20.5475 52.7713 19.3114 52.6703 18.0755M53.4819 23.264L52.9195 18.055M53.4819 23.264C53.4574 23.32 53.4329 23.3759 53.4083 23.4319C53.0658 23.1959 52.9875 22.7942 52.9351 22.2954C52.845 21.4027 52.7709 20.5149 52.6965 19.6244C52.6398 18.9454 52.583 18.2648 52.5189 17.5793L53.4819 23.264ZM52.6703 18.0755C52.6703 18.0755 52.6703 18.0754 52.6703 18.0753L52.9195 18.055M52.6703 18.0755C52.6703 18.0756 52.6703 18.0757 52.6703 18.0758L52.9195 18.055M52.6703 18.0755C52.6364 17.6699 52.5653 17.2898 52.4392 16.9369M52.9195 18.055C52.8605 17.3496 52.6915 16.6999 52.3167 16.1294C52.3378 16.2747 52.3599 16.4173 52.3816 16.5578C52.4014 16.6858 52.4209 16.8121 52.4392 16.9369M52.4392 16.9369C52.3489 16.6843 52.2305 16.4457 52.0775 16.2216L52.5189 17.5792C52.4993 17.3681 52.4711 17.1546 52.4392 16.9369ZM54.2105 28.8147C53.9916 28.4889 53.767 28.1733 53.5455 27.8628L53.5144 27.8192C53.2408 27.4359 52.9726 27.0601 52.7201 26.6746C52.5686 26.4432 52.4232 26.2092 52.2868 25.9696C52.5614 26.4023 52.8519 26.8205 53.1382 27.2325C53.2657 27.4161 53.3923 27.5984 53.5164 27.7802C53.5475 27.8259 53.5929 27.8599 53.6455 27.877L53.6523 27.8793C53.7118 27.8986 53.7765 27.895 53.8334 27.869C55.4758 27.1198 56.2016 25.7441 56.6983 24.2606L56.6984 24.2607L56.6996 24.2568C57.2758 22.4399 57.5959 20.5514 57.6504 18.646C57.6505 18.641 57.6505 18.636 57.6503 18.631C57.644 18.4298 57.622 18.2297 57.5846 18.0325C57.7465 18.3546 57.817 18.7297 57.8181 19.1189C57.8181 21.5852 57.4659 24.0045 56.4398 26.2568C56.086 27.0293 55.6858 27.7084 54.9295 28.0906L54.9295 28.0905L54.9231 28.094C54.7447 28.1908 54.6039 28.343 54.4715 28.4997C54.4287 28.5502 54.3863 28.6019 54.3424 28.6554C54.3003 28.7067 54.2569 28.7596 54.2105 28.8147ZM51.029 23.9955C50.2795 25.1801 49.8058 26.5167 49.6413 27.9067C49.4009 27.8688 49.238 27.7871 49.1139 27.6874C48.9453 27.552 48.8273 27.3677 48.6911 27.1339C48.6128 26.9974 48.5419 26.8597 48.4781 26.7209C48.6083 26.8496 48.7677 26.9652 48.9634 27.0622C49.0274 27.0939 49.102 27.0967 49.1683 27.0699C49.2345 27.043 49.2861 26.9891 49.31 26.9217C49.9494 25.1187 50.2584 24.25 50.512 23.7832C50.6338 23.5588 50.7319 23.4491 50.8329 23.3751C50.8889 23.3341 50.9498 23.3006 51.0261 23.266C51.0823 23.4754 51.1476 23.6799 51.2204 23.88C51.1431 23.8861 51.0716 23.9281 51.029 23.9955Z" fill="#F5DEA6" stroke="#F5DEA6" stroke-width="0.5" stroke-linejoin="round"/>
<path d="M21.2561 25.8753C21.1412 25.8753 21.0411 25.9535 21.0134 26.065C20.9916 26.153 20.9655 26.2503 20.9377 26.3539C20.8707 26.6034 20.7938 26.8897 20.743 27.1718L20.7429 27.1722C20.6365 27.768 20.3757 28.1964 20.0382 28.3794C19.7274 28.5478 19.2698 28.5494 18.6456 28.1205L19.3598 28.1716C19.4696 28.1794 19.5715 28.1146 19.611 28.0119L20.5714 25.514L21.9446 25.7119C21.9964 25.7193 22.0492 25.7104 22.0956 25.6862L22.9663 25.2333C23.0891 25.2713 23.1926 25.3469 23.2956 25.4562C23.3856 25.5518 23.46 25.6544 23.5443 25.7705C23.5842 25.8256 23.6264 25.8836 23.6734 25.9454L23.6298 25.9166C23.5889 25.8896 23.541 25.8753 23.492 25.8753H21.2561ZM21.5091 16.2131C21.4512 16.114 21.3932 16.0149 21.3353 15.9157L21.8528 16.18C22.127 16.6978 22.4075 17.221 22.6907 17.7491C23.5129 19.2824 24.3575 20.8576 25.1361 22.4677C25.7422 23.7353 25.9172 25.1376 26.0717 26.65L25.3593 27.0584L24.6253 26.5739C24.783 26.5914 24.9563 26.5795 25.148 26.5336C25.2437 26.5107 25.3171 26.4337 25.3354 26.337C25.3856 26.0718 25.406 25.802 25.3962 25.5323C25.3958 25.5209 25.3946 25.5096 25.3926 25.4983C25.3876 25.4696 25.3826 25.4409 25.3776 25.4122C25.0988 23.8182 24.8119 22.1773 23.9432 20.6943C23.6827 20.249 23.4458 19.7872 23.2092 19.3173C23.174 19.2473 23.1387 19.177 23.1033 19.1066C22.9025 18.7068 22.6993 18.3022 22.4825 17.9056L22.4825 17.9056L22.4817 17.9041C22.1655 17.3349 21.8374 16.7741 21.5091 16.2131ZM17.7135 26.4981C17.7135 26.4981 17.7135 26.4981 17.7135 26.4982L17.8195 26.5032C17.822 26.6746 17.8393 26.8502 17.8628 27.0287C17.8756 27.1259 17.891 27.2281 17.9065 27.3311C17.9258 27.4594 17.9453 27.5891 17.9602 27.7122L17.7135 26.4981Z" fill="#F5DEA6" stroke="#F5DEA6" stroke-width="0.5" stroke-linejoin="round"/>
<path d="M29.0706 90.6244V84.3035C30.7566 84.2016 32.3906 84.179 34.0065 84.5524C34.3 84.6169 34.5778 84.7392 34.8235 84.9122C35.6314 85.5188 36.2515 86.5372 35.1697 87.5601C34.9868 87.7207 34.7957 87.8718 34.5972 88.0127L36.6702 89.9613L34.7737 91.2264C33.4769 90.6493 33.0809 89.219 31.895 88.3907V90.8801C30.8947 91.0227 29.994 91.1653 29.0706 90.6244ZM33.7281 87.7638C34.0715 87.4678 34.3993 87.1543 34.7103 86.8246C35.3214 86.1004 35.163 85.3106 34.2803 85.039C32.755 84.566 31.1889 84.5977 29.5278 84.7538C29.3779 86.5729 29.3854 88.4015 29.5504 90.2193H31.1912C31.1912 89.3253 31.1663 88.54 31.1912 87.757C31.2161 86.974 31.0079 86.1728 31.4175 85.4464C32.162 85.254 32.6758 85.5301 33.1465 86.2113C33.0722 86.5077 32.9699 86.7965 32.841 87.0735C32.6644 87.3412 32.4653 87.5934 32.2458 87.8272C33.1035 89.1851 33.71 89.8957 34.5089 90.4252L35.731 89.6196C35.3123 89.2416 35.0068 88.9678 34.7035 88.6894C34.4003 88.411 34.1106 88.1304 33.7281 87.7638Z" fill="#F5DEA6" stroke="#F5DEA6" stroke-width="0.5" stroke-linejoin="round"/>
<path d="M60.1682 88.2866V90.8915C59.1747 91.0069 58.2627 91.1721 57.3755 90.5904V84.2899C59.1385 84.222 60.8857 84.1314 62.6079 84.6225C63.4566 84.8647 63.8775 85.5029 64.1016 86.2724C64.1355 87.0781 63.5607 87.499 63.0379 88.0422L65.0227 89.9952L63.1307 91.2287C61.8407 90.6946 61.4288 89.2258 60.1682 88.2866ZM62.0512 87.7253C62.3635 87.4696 62.5966 87.2931 62.8138 87.0962C63.7825 86.2158 63.5833 85.3468 62.3182 84.9507C61.9996 84.8333 61.6672 84.7572 61.3292 84.7244C60.3176 84.6814 59.306 84.6701 58.2921 84.6679C58.1206 84.6983 57.9554 84.7571 57.8033 84.8421V90.217H59.4825C59.5097 88.5808 59.5391 87.0283 59.564 85.512C60.7589 85.3015 60.949 85.3898 61.5578 86.4421C61.2704 86.8721 60.949 87.3474 60.5779 87.9109C61.2568 88.7528 61.9358 89.615 62.7075 90.5701L64.0043 89.5245C63.2936 88.8773 62.6962 88.3251 62.0512 87.7253Z" fill="#F5DEA6" stroke="#F5DEA6" stroke-width="0.5" stroke-linejoin="round"/>
<path d="M22.7271 84.2107H25.1939C25.9023 85.4124 25.8321 88.7256 25.0604 89.778C24.1235 91.0544 22.752 91.2377 21.3172 91.0974C19.8824 90.9571 18.7101 90.3664 18.0718 88.9972C17.9121 88.6553 17.8206 88.2856 17.8025 87.9086C17.7686 86.7499 17.789 85.5889 17.789 84.3442H20.4391C20.5481 84.7537 20.6283 85.1704 20.679 85.5912C20.7378 86.4965 20.7288 87.4017 20.765 88.2956C20.7904 88.472 20.8352 88.645 20.8985 88.8116C22.0708 89.3503 22.6705 89.038 22.709 87.8295C22.7633 86.6707 22.7271 85.5098 22.7271 84.2107ZM23.1639 84.6022C23.1639 85.1431 23.1639 85.5889 23.1639 86.0325C23.1503 86.7454 23.1775 87.4628 23.0937 88.1689C22.9964 88.9904 22.5098 89.4204 21.7856 89.4725C20.989 89.5313 20.3916 89.1602 20.215 88.3409C20.0951 87.6023 20.0195 86.8571 19.9887 86.1095C19.9502 85.6749 19.9186 85.2427 19.8756 84.7041L18.2325 84.7991C18.2325 86.0121 18.2031 87.0962 18.2484 88.178C18.2734 88.554 18.3967 88.9169 18.6059 89.2303C19.4003 90.4117 20.6428 90.5656 21.9056 90.4705C23.1684 90.3755 24.3271 89.9704 24.7322 88.6238C25.1215 87.3271 25.0445 85.9827 24.8793 84.6271C24.5082 84.5818 24.2525 84.5298 23.9945 84.523C23.7164 84.535 23.4392 84.5615 23.1639 84.6022Z" fill="#F5DEA6" stroke="#F5DEA6" stroke-width="0.5" stroke-linejoin="round"/>
<path d="M44.0187 84.0772C44.2767 84.7787 44.5279 85.4667 44.7994 86.209C43.4846 86.7816 41.8461 86.7545 41.3459 88.4518C41.7057 88.9226 42.0927 89.1126 42.6744 88.9248C42.7241 88.5559 42.7739 88.1893 42.8373 87.7366H45.1321C45.8541 88.6306 45.3584 89.7508 45.5463 90.905C43.308 91.2897 41.2192 91.3577 39.3453 89.9613C38.2409 89.1398 37.9874 88.0376 38.7524 86.9016C39.2044 86.2608 39.7762 85.7137 40.4361 85.2902C41.4772 84.609 42.6766 84.2695 44.0187 84.0772ZM44.6388 90.2917C44.9171 89.1873 44.9149 89.1194 44.6206 88.1847H43.2628C43.1315 88.6374 43.0365 88.9859 42.8984 89.443C42.5258 89.4248 42.156 89.3703 41.794 89.2801C40.6059 88.8614 40.3637 87.7503 41.3187 86.9219C41.7872 86.5168 42.4028 86.2747 42.9686 85.9963C43.3284 85.846 43.6973 85.7183 44.073 85.6139C43.9032 85.1997 43.772 84.876 43.6203 84.5026C42.826 84.7425 42.1289 84.9032 41.4726 85.1635C40.4719 85.5196 39.6235 86.2082 39.0692 87.1143C38.4966 88.0987 38.6799 89.1036 39.6123 89.6739C41.1965 90.6402 42.921 90.6402 44.6388 90.2827V90.2917Z" fill="#F5DEA6" stroke="#F5DEA6" stroke-width="0.5" stroke-linejoin="round"/>
<path d="M45.0054 9.67232L42.7241 10.5074C43.7358 10.9057 44.555 10.5912 45.3788 10.7745C45.8178 11.9242 45.5214 13.11 45.6187 14.3502C43.7493 14.7598 42.0226 14.8594 40.4814 13.6712C39.033 12.5578 38.827 10.9714 39.9314 9.51165C41.011 8.08814 42.5159 7.41826 44.3626 7.13989C44.5912 8.02025 44.7949 8.83949 45.0054 9.67232ZM44.3581 8.90514C44.2608 8.53173 44.1476 8.08815 44.0367 7.65363C42.2262 7.97499 40.977 8.68786 40.1894 9.78548C39.3566 10.96 39.4562 12.4673 40.538 13.1983C41.8958 14.1035 43.3895 14.1352 44.9782 13.6871V11.1977H43.3691C43.2831 11.6729 43.2152 12.0328 43.1428 12.413C42.4435 12.5443 41.9954 12.2794 41.7374 11.7091C41.6143 11.4704 41.5802 11.1956 41.6412 10.9339C41.7021 10.6723 41.8542 10.4409 42.0701 10.2811C42.7332 9.80583 43.4597 9.43698 44.3649 8.90514H44.3581Z" fill="#F5DEA6" stroke="#F5DEA6" stroke-width="0.5" stroke-linejoin="round"/>
<path d="M53.5985 84.0523C53.7184 84.6973 53.8248 85.2631 53.9176 85.7745C53.2002 86.3245 52.3107 85.7315 51.6952 86.3992C52.1161 86.9627 52.7294 86.5168 53.3563 86.888C53.431 87.275 53.5351 87.8249 53.6573 88.4609L51.7925 88.6012V88.8795C52.3266 89.2145 52.9784 88.9022 53.6415 89.1058C54.1461 89.5585 54.0941 90.2057 54.0194 90.8598C52.5823 91.2287 49.7806 91.0612 48.8979 90.5475V84.3035L53.5985 84.0523ZM49.2985 90.2736C50.6745 90.3211 51.9554 90.4886 53.2771 90.2578V89.5223L51.1769 89.3525V87.9788L52.8743 87.8181V87.103L51.1045 87.0034C51.1317 86.4738 51.1543 86.0506 51.1792 85.6048L53.0598 85.2608V84.4664L49.2985 84.6927V90.2736Z" fill="#F5DEA6" stroke="#F5DEA6" stroke-width="0.5" stroke-linejoin="round"/>
<path d="M14.1069 87.447C14.2608 87.6235 14.3965 87.7548 14.5029 87.8996C15.3018 89.0176 15.1434 89.7101 13.9326 90.3257C12.4706 91.0567 10.891 91.0567 9.31356 91.0047C9.04199 90.9933 8.7772 90.7783 8.52826 90.6787V84.3035C10.0785 84.1926 11.5608 84.2016 13.0251 84.5592C13.9077 84.7855 14.4282 85.3672 14.7496 86.3381L14.1069 87.447ZM8.96504 90.2397C10.6443 90.466 12.1493 90.3325 13.5728 89.6241C14.2698 89.2779 14.3196 89.0787 14.1431 88.0807L12.7852 87.2637C13.1835 86.6278 14.2562 86.5644 13.9168 85.4803C12.4412 84.3737 10.7212 84.7063 8.95373 84.738L8.96504 90.2397Z" fill="#F5DEA6" stroke="#F5DEA6" stroke-width="0.5" stroke-linejoin="round"/>
<path d="M29.7292 14.1918V7.47934C30.5621 7.25303 32.8546 7.33677 33.6331 7.59929C35.1019 8.09492 35.55 9.14726 34.905 10.5821C34.9145 10.6534 34.9328 10.7234 34.9593 10.7903C35.9302 12.4469 35.5455 13.6328 33.7169 14.1374C32.6849 14.4226 31.5737 14.4385 30.4919 14.5132C30.2407 14.5313 29.9714 14.2981 29.7292 14.1918ZM30.1819 13.8161C31.5013 13.9383 32.7437 13.8455 33.9138 13.2526C34.8801 12.7637 35.0137 12.4062 34.7194 11.1976L33.873 10.478L34.5927 9.70175C34.8394 8.93681 34.604 8.41402 33.9545 8.16055C32.7522 7.70405 31.4501 7.57591 30.1819 7.78936V13.8161Z" fill="#F5DEA6" stroke="#F5DEA6" stroke-width="0.5" stroke-linejoin="round"/>
<path d="M38.9333 14.4045C37.8629 14.4249 36.969 14.6535 36.1022 14.1601V7.4522C36.935 7.16252 37.7792 7.36171 38.7297 7.31645C39.0714 9.68594 38.707 11.992 38.9333 14.4045ZM36.5638 7.76001V13.6758H38.2408C38.4377 11.7137 38.3495 8.53853 38.0688 7.76001H36.5638Z" fill="#F5DEA6" stroke="#F5DEA6" stroke-width="0.5" stroke-linejoin="round"/>
<path d="M37.451 6.11016L36.0614 3.98964L37.4193 1.8532L38.7998 3.92173L37.451 6.11016Z" fill="#F5DEA6" stroke="#F5DEA6" stroke-width="0.5" stroke-linejoin="round"/>
<path d="M69.7119 89.1624L68.6369 87.4832L69.7074 85.8175L70.7823 87.4628L69.7119 89.1624Z" fill="#F5DEA6" stroke="#F5DEA6" stroke-width="0.5" stroke-linejoin="round"/>
<path d="M4.23061 89.1443L3.16241 87.5194L4.22835 85.8334L5.31012 87.49L4.23061 89.1443Z" fill="#F5DEA6" stroke="#F5DEA6" stroke-width="0.5" stroke-linejoin="round"/>
<path d="M64.2231 21.3999L64.2232 21.3998C64.2297 21.3905 64.236 21.3814 64.2421 21.3725C64.3395 21.2319 64.4039 21.1388 64.4805 21.0809C64.5145 21.0551 64.5449 21.042 64.5765 21.0368C64.5882 21.0349 64.6022 21.0337 64.6189 21.0342C64.7602 21.486 64.7616 22.0753 64.6423 22.6905C64.6174 22.6518 64.5818 22.6197 64.5378 22.5992C64.4313 22.5494 64.3046 22.5806 64.2333 22.674L62.554 24.8737C62.4975 24.9478 62.4868 25.0471 62.5263 25.1315C62.5284 25.1359 62.5306 25.1402 62.5329 25.1445C62.3054 24.9731 62.2074 24.8071 62.1829 24.6532C62.1547 24.4756 62.2137 24.2469 62.4259 23.9518C63.0359 23.1082 63.6299 22.2536 64.2222 21.4012L64.2231 21.3999ZM63.3282 25.2374C63.2533 25.3032 63.1766 25.3624 63.0986 25.4142C62.9838 25.3738 62.8711 25.3276 62.761 25.276C62.9648 25.2837 63.1542 25.2759 63.3282 25.2374Z" fill="#F5DEA6" stroke="#F5DEA6" stroke-width="0.5" stroke-linejoin="round"/>
<path d="M21.4979 23.9952C21.3628 23.9513 21.1978 23.8841 20.981 23.7913C20.9203 23.4377 20.9267 23.1181 21.0018 22.8057C21.0619 22.5556 21.1678 22.3029 21.3275 22.0355L22.2852 23.7239C22.1857 23.8231 22.1072 23.8956 22.0368 23.9488C21.9438 24.019 21.8801 24.0434 21.8188 24.0501C21.7509 24.0576 21.657 24.0468 21.4979 23.9952Z" fill="#F5DEA6" stroke="#F5DEA6" stroke-width="0.5" stroke-linejoin="round"/>
<path d="M10.6058 89.735V87.7842C11.7645 87.5579 12.0293 87.7118 12.4547 88.7754C12.147 89.5087 11.5495 89.7554 10.6058 89.735Z" fill="#03001B" stroke="#F5DEA6" stroke-width="0.5" stroke-linejoin="round"/>
<path d="M10.6443 87.1596V85.254C11.6401 85.1273 12.138 85.3785 12.19 85.9782C12.2421 86.5779 11.751 87.0193 10.6443 87.1596Z" fill="#03001B" stroke="#F5DEA6" stroke-width="0.5" stroke-linejoin="round"/>
<path d="M31.2242 87.1596V85.254C32.22 85.1273 32.7179 85.3785 32.77 85.9782C32.822 86.5779 32.3309 87.0193 31.2242 87.1596Z" fill="#03001B" stroke="#F5DEA6" stroke-width="0.5" stroke-linejoin="round"/>
<path d="M59.6497 87.1596V85.254C60.6454 85.1273 61.1433 85.3785 61.1954 85.9782C61.2474 86.5779 60.7563 87.0193 59.6497 87.1596Z" fill="#03001B" stroke="#F5DEA6" stroke-width="0.5" stroke-linejoin="round"/>
<path d="M31.9607 10.9352L33.0923 11.6956C33.0289 12.4922 32.6147 12.7027 31.9607 12.8V10.9352Z" fill="#F5DEA6" stroke="#F5DEA6" stroke-width="0.5" stroke-linejoin="round"/>
<path d="M31.9177 10.2336V8.67657L32.7392 8.85311C32.8229 9.81946 32.8229 9.81943 31.9177 10.2336Z" fill="#F5DEA6" stroke="#F5DEA6" stroke-width="0.5" stroke-linejoin="round"/>
<mask id="path-31-outside-1_2080_24" maskUnits="userSpaceOnUse" x="2.87439" y="27.1687" width="68" height="54" fill="black">
<rect fill="white" x="2.87439" y="27.1687" width="68" height="54"/>
<path fill-rule="evenodd" clip-rule="evenodd" d="M7.43232 47.7196C3.5593 42.448 3.02142 36.4232 13.4571 32.7654C23.8928 29.1075 45.3021 25.7724 57.3516 30.5061C69.401 35.2398 68.0024 43.739 65.2052 45.2452C62.9675 46.4501 27.192 46.6079 9.58403 46.5362C10.8033 45.8548 16.7061 44.4921 30.563 44.4921C47.8841 44.4921 59.826 43.6314 60.5791 41.9101C61.3322 40.1887 62.6061 34.0245 54.2316 31.1516C45.8571 28.2788 24.5383 30.3985 14.3178 33.4109C6.14132 35.8208 6.32062 43.9542 7.43232 47.7196ZM8.29301 51.0548C6.24891 53.9595 10.2295 59.1236 10.5523 56.3264C10.875 53.5292 15.5012 50.9472 19.2666 52.2382C21.8245 53.1152 23.1413 52.8007 24.3635 52.5088C24.9405 52.371 25.4965 52.2382 26.1521 52.2382C26.8334 52.2382 27.6463 52.5968 28.5946 53.0152C30.4913 53.852 32.9299 54.9278 35.9422 53.852C37.0451 53.4581 38.0325 52.9617 38.9812 52.4848C41.9198 51.0076 44.487 49.717 48.96 52.2382C53.0856 54.5635 54.2824 53.6463 55.2853 52.8777C55.7208 52.5439 56.1197 52.2382 56.7061 52.2382C56.9849 52.2382 57.333 52.2315 57.7283 52.2239C60.0784 52.1787 64.1001 52.1014 65.2052 53.2065C65.8311 53.8323 66.103 53.1182 66.4744 52.1426C66.8692 51.1057 67.3763 49.7736 68.5404 49.441C70.3478 48.9246 67.07 47.2893 65.2052 46.5362C67.7514 47.7196 69.2504 49.9574 54.8771 49.441C51.1097 49.3056 47.6688 49.1561 44.5175 49.0191C32.6403 48.5029 24.8783 48.1656 19.2666 49.441C13.5862 50.732 9.58403 51.0548 8.29301 51.0548ZM15.6088 63.6422C13.8874 66.4394 7.43232 64.3952 7.43232 59.7691C7.93439 59.7691 9.41189 60.221 11.3054 62.0284C12.2997 62.9775 12.7434 62.3507 13.4501 61.3525C14.4255 59.9744 15.9021 57.8886 20.0197 58.2629C24.3523 58.6568 24.8797 59.6915 25.6589 61.2205C26.1568 62.1974 26.7575 63.3759 28.5189 64.718C31.1729 66.7401 32.9733 64.6794 35.1408 62.1985L35.1409 62.1985C36.6636 60.4556 38.3675 58.5053 40.676 57.6174C46.2704 55.4657 51.8648 56.3264 60.5791 59.1236C67.5506 61.3614 68.4328 57.474 68.0024 55.2506C68.1818 55.8243 68.4328 57.5314 68.0024 59.7691C67.5616 62.0615 65.9646 61.8249 63.6853 61.4872C63.1834 61.4128 62.6483 61.3335 62.0853 61.2753C58.9653 60.9525 58.1047 62.0284 57.3516 63.6422C56.5985 65.2559 50.5737 65.5787 48.0993 62.8891C45.6249 60.1994 40.138 62.2436 38.847 64.718C37.556 67.1924 26.1521 68.4835 23.2473 64.718C20.3425 60.9525 17.3301 60.845 15.6088 63.6422ZM67.4962 66.7683C67.4221 65.2076 67.3515 63.7234 67.4125 62.5413L66.0207 63.6592C66.0207 63.6592 66.0569 69.9213 65.6224 72.9381C65.3294 74.9724 63.2148 75.2335 60.8312 75.5279C59.68 75.6701 58.4661 75.82 57.3643 76.1812C53.9809 77.2901 43.1179 77.7653 43.1179 77.7653L41.9161 79.0734C41.9161 79.0734 49.0382 78.7136 52.7339 79.0304C56.4296 79.3472 62.497 77.8468 65.6337 76.6586C67.925 75.7907 67.6972 70.9982 67.4962 66.7683ZM5.15958 73.4119C5.32671 71.9981 5.53979 70.1956 5.31011 67.8777C5.31011 67.8777 6.98935 69.1406 6.98935 74.3163C6.98935 77.0206 10.1781 77.129 14.4665 77.2748L14.4669 77.2748C15.4038 77.3067 16.3932 77.3403 17.4133 77.4032C23.1028 77.754 30.2407 78.9512 30.2407 78.9512C30.2407 78.9512 28.729 79.5034 28.0953 79.6799C27.4616 79.8565 11.9637 79.1911 7.54608 78.0029C4.70713 77.2394 4.85904 75.9543 5.15958 73.4119ZM61.1546 66.5583C50.8046 71.5978 43.2423 73.2196 37.6441 72.3765C35.9914 72.1277 34.0035 71.7631 31.9171 71.3804C26.936 70.467 21.3939 69.4506 18.5139 69.6601C14.4275 69.9573 10.9354 68.6038 10.3249 67.5766C9.71433 66.5494 14.9055 66.7076 23.1946 67.7121C26.3846 68.0987 28.3967 69.0206 30.1821 69.8387C33.036 71.1463 35.3106 72.1885 40.8906 70.3543C48.1472 67.9689 57.4235 66.8297 61.1546 66.5583Z"/>
</mask>
<path fill-rule="evenodd" clip-rule="evenodd" d="M7.43232 47.7196C3.5593 42.448 3.02142 36.4232 13.4571 32.7654C23.8928 29.1075 45.3021 25.7724 57.3516 30.5061C69.401 35.2398 68.0024 43.739 65.2052 45.2452C62.9675 46.4501 27.192 46.6079 9.58403 46.5362C10.8033 45.8548 16.7061 44.4921 30.563 44.4921C47.8841 44.4921 59.826 43.6314 60.5791 41.9101C61.3322 40.1887 62.6061 34.0245 54.2316 31.1516C45.8571 28.2788 24.5383 30.3985 14.3178 33.4109C6.14132 35.8208 6.32062 43.9542 7.43232 47.7196ZM8.29301 51.0548C6.24891 53.9595 10.2295 59.1236 10.5523 56.3264C10.875 53.5292 15.5012 50.9472 19.2666 52.2382C21.8245 53.1152 23.1413 52.8007 24.3635 52.5088C24.9405 52.371 25.4965 52.2382 26.1521 52.2382C26.8334 52.2382 27.6463 52.5968 28.5946 53.0152C30.4913 53.852 32.9299 54.9278 35.9422 53.852C37.0451 53.4581 38.0325 52.9617 38.9812 52.4848C41.9198 51.0076 44.487 49.717 48.96 52.2382C53.0856 54.5635 54.2824 53.6463 55.2853 52.8777C55.7208 52.5439 56.1197 52.2382 56.7061 52.2382C56.9849 52.2382 57.333 52.2315 57.7283 52.2239C60.0784 52.1787 64.1001 52.1014 65.2052 53.2065C65.8311 53.8323 66.103 53.1182 66.4744 52.1426C66.8692 51.1057 67.3763 49.7736 68.5404 49.441C70.3478 48.9246 67.07 47.2893 65.2052 46.5362C67.7514 47.7196 69.2504 49.9574 54.8771 49.441C51.1097 49.3056 47.6688 49.1561 44.5175 49.0191C32.6403 48.5029 24.8783 48.1656 19.2666 49.441C13.5862 50.732 9.58403 51.0548 8.29301 51.0548ZM15.6088 63.6422C13.8874 66.4394 7.43232 64.3952 7.43232 59.7691C7.93439 59.7691 9.41189 60.221 11.3054 62.0284C12.2997 62.9775 12.7434 62.3507 13.4501 61.3525C14.4255 59.9744 15.9021 57.8886 20.0197 58.2629C24.3523 58.6568 24.8797 59.6915 25.6589 61.2205C26.1568 62.1974 26.7575 63.3759 28.5189 64.718C31.1729 66.7401 32.9733 64.6794 35.1408 62.1985L35.1409 62.1985C36.6636 60.4556 38.3675 58.5053 40.676 57.6174C46.2704 55.4657 51.8648 56.3264 60.5791 59.1236C67.5506 61.3614 68.4328 57.474 68.0024 55.2506C68.1818 55.8243 68.4328 57.5314 68.0024 59.7691C67.5616 62.0615 65.9646 61.8249 63.6853 61.4872C63.1834 61.4128 62.6483 61.3335 62.0853 61.2753C58.9653 60.9525 58.1047 62.0284 57.3516 63.6422C56.5985 65.2559 50.5737 65.5787 48.0993 62.8891C45.6249 60.1994 40.138 62.2436 38.847 64.718C37.556 67.1924 26.1521 68.4835 23.2473 64.718C20.3425 60.9525 17.3301 60.845 15.6088 63.6422ZM67.4962 66.7683C67.4221 65.2076 67.3515 63.7234 67.4125 62.5413L66.0207 63.6592C66.0207 63.6592 66.0569 69.9213 65.6224 72.9381C65.3294 74.9724 63.2148 75.2335 60.8312 75.5279C59.68 75.6701 58.4661 75.82 57.3643 76.1812C53.9809 77.2901 43.1179 77.7653 43.1179 77.7653L41.9161 79.0734C41.9161 79.0734 49.0382 78.7136 52.7339 79.0304C56.4296 79.3472 62.497 77.8468 65.6337 76.6586C67.925 75.7907 67.6972 70.9982 67.4962 66.7683ZM5.15958 73.4119C5.32671 71.9981 5.53979 70.1956 5.31011 67.8777C5.31011 67.8777 6.98935 69.1406 6.98935 74.3163C6.98935 77.0206 10.1781 77.129 14.4665 77.2748L14.4669 77.2748C15.4038 77.3067 16.3932 77.3403 17.4133 77.4032C23.1028 77.754 30.2407 78.9512 30.2407 78.9512C30.2407 78.9512 28.729 79.5034 28.0953 79.6799C27.4616 79.8565 11.9637 79.1911 7.54608 78.0029C4.70713 77.2394 4.85904 75.9543 5.15958 73.4119ZM61.1546 66.5583C50.8046 71.5978 43.2423 73.2196 37.6441 72.3765C35.9914 72.1277 34.0035 71.7631 31.9171 71.3804C26.936 70.467 21.3939 69.4506 18.5139 69.6601C14.4275 69.9573 10.9354 68.6038 10.3249 67.5766C9.71433 66.5494 14.9055 66.7076 23.1946 67.7121C26.3846 68.0987 28.3967 69.0206 30.1821 69.8387C33.036 71.1463 35.3106 72.1885 40.8906 70.3543C48.1472 67.9689 57.4235 66.8297 61.1546 66.5583Z" fill="#03001B"/>
<path d="M13.4571 32.7654L13.7879 33.7091L13.7879 33.7091L13.4571 32.7654ZM7.43232 47.7196L6.62644 48.3117L8.3914 47.4365L7.43232 47.7196ZM57.3516 30.5061L56.9859 31.4369L56.9859 31.4369L57.3516 30.5061ZM65.2052 45.2452L64.7311 44.3647L65.2052 45.2452ZM9.58403 46.5362L9.09621 45.6633L5.77239 47.5207L9.57996 47.5362L9.58403 46.5362ZM54.2316 31.1516L54.5561 30.2057L54.5561 30.2057L54.2316 31.1516ZM14.3178 33.4109L14.6005 34.3701L14.6005 34.3701L14.3178 33.4109ZM8.29301 51.0548V50.0548H7.77394L7.47521 50.4793L8.29301 51.0548ZM19.2666 52.2382L18.9423 53.1841L18.9423 53.1841L19.2666 52.2382ZM24.3635 52.5088L24.1312 51.5361L24.1312 51.5361L24.3635 52.5088ZM28.5946 53.0152L28.191 53.9301L28.191 53.9301L28.5946 53.0152ZM35.9422 53.852L35.6059 52.9102L35.6059 52.9102L35.9422 53.852ZM38.9812 52.4848L39.4304 53.3782L39.4304 53.3782L38.9812 52.4848ZM48.96 52.2382L48.469 53.1093L48.469 53.1093L48.96 52.2382ZM55.2853 52.8777L54.677 52.084L54.677 52.084L55.2853 52.8777ZM57.7283 52.2239L57.7476 53.2237L57.7476 53.2237L57.7283 52.2239ZM66.4744 52.1426L67.409 52.4984L67.409 52.4984L66.4744 52.1426ZM68.5404 49.441L68.8151 50.4025L68.8151 50.4025L68.5404 49.441ZM65.2052 46.5362L65.5797 45.609L64.7838 47.443L65.2052 46.5362ZM54.8771 49.441L54.8412 50.4403L54.8412 50.4403L54.8771 49.441ZM44.5175 49.0191L44.5609 48.0201L44.5609 48.0201L44.5175 49.0191ZM19.2666 49.441L19.045 48.4659L19.045 48.4659L19.2666 49.441ZM7.43232 59.7691V58.7691H6.43232V59.7691H7.43232ZM11.3054 62.0284L10.6149 62.7517L10.6149 62.7517L11.3054 62.0284ZM13.4501 61.3525L14.2663 61.9302L14.2663 61.9302L13.4501 61.3525ZM20.0197 58.2629L20.1103 57.267L20.1103 57.267L20.0197 58.2629ZM25.6589 61.2205L24.768 61.6746L24.768 61.6746L25.6589 61.2205ZM28.5189 64.718L29.125 63.9226L29.125 63.9226L28.5189 64.718ZM35.1408 62.1985L35.8939 62.8564L35.9185 62.8284L35.9408 62.7985L35.1408 62.1985ZM35.1409 62.1985L34.3878 61.5405L34.3632 61.5686L34.3409 61.5985L35.1409 62.1985ZM40.676 57.6174L41.0349 58.5508L41.0349 58.5508L40.676 57.6174ZM60.5791 59.1236L60.2735 60.0758L60.2735 60.0758L60.5791 59.1236ZM68.0024 55.2506L68.9569 54.9523L67.0207 55.4406L68.0024 55.2506ZM68.0024 59.7691L68.9845 59.958L68.9845 59.958L68.0024 59.7691ZM63.6853 61.4872L63.8319 60.498L63.8319 60.498L63.6853 61.4872ZM62.0853 61.2753L61.9824 62.27L61.9824 62.27L62.0853 61.2753ZM67.4125 62.5413L68.4112 62.5928L68.5262 60.3641L66.7863 61.7616L67.4125 62.5413ZM67.4962 66.7683L68.4951 66.7209L68.4951 66.7208L67.4962 66.7683ZM66.0207 63.6592L65.3945 62.8796L65.0179 63.1821L65.0207 63.665L66.0207 63.6592ZM65.6224 72.9381L66.6122 73.0806L66.6122 73.0806L65.6224 72.9381ZM60.8312 75.5279L60.9538 76.5204L60.9538 76.5204L60.8312 75.5279ZM57.3643 76.1812L57.0528 75.2309L57.0528 75.2309L57.3643 76.1812ZM43.1179 77.7653L43.0742 76.7663L42.6611 76.7844L42.3815 77.0888L43.1179 77.7653ZM41.9161 79.0734L41.1797 78.3968L39.5274 80.1953L41.9666 80.0721L41.9161 79.0734ZM52.7339 79.0304L52.6485 80.0267L52.6485 80.0267L52.7339 79.0304ZM65.6337 76.6586L65.988 77.5938L65.988 77.5938L65.6337 76.6586ZM5.31011 67.8777L5.91116 67.0785L4.09032 65.7091L4.31498 67.9763L5.31011 67.8777ZM5.15958 73.4119L6.15267 73.5293L6.15267 73.5293L5.15958 73.4119ZM14.4665 77.2748L14.4325 78.2742L14.4375 78.2744L14.4665 77.2748ZM14.4669 77.2748L14.5008 76.2754L14.4958 76.2752L14.4669 77.2748ZM17.4133 77.4032L17.3518 78.4013L17.3518 78.4013L17.4133 77.4032ZM30.2407 78.9512L30.5838 79.8905L34.1406 78.5914L30.4061 77.965L30.2407 78.9512ZM28.0953 79.6799L27.8269 78.7166L27.8269 78.7166L28.0953 79.6799ZM7.54608 78.0029L7.28635 78.9686L7.28635 78.9686L7.54608 78.0029ZM37.6441 72.3765L37.793 71.3877L37.793 71.3877L37.6441 72.3765ZM61.1546 66.5583L61.5923 67.4574L61.082 65.5609L61.1546 66.5583ZM31.9171 71.3804L32.0975 70.3969L32.0975 70.3969L31.9171 71.3804ZM18.5139 69.6601L18.4413 68.6627L18.4413 68.6627L18.5139 69.6601ZM23.1946 67.7121L23.3149 66.7194L23.3149 66.7194L23.1946 67.7121ZM30.1821 69.8387L30.5986 68.9296L30.5986 68.9296L30.1821 69.8387ZM40.8906 70.3543L41.2029 71.3043L41.2029 71.3043L40.8906 70.3543ZM13.1263 31.8217C7.78092 33.6953 4.92149 36.2873 4.11149 39.3843C3.31081 42.4457 4.62712 45.5904 6.62644 48.3117L8.23821 47.1276C6.36451 44.5772 5.47536 42.0737 6.04641 39.8904C6.60813 37.7426 8.6976 35.4933 13.7879 33.7091L13.1263 31.8217ZM57.7172 29.5754C51.4752 27.1231 42.9239 26.7892 34.7138 27.4925C26.4789 28.198 18.4339 29.9613 13.1263 31.8217L13.7879 33.7091C18.916 31.9116 26.7934 30.1784 34.8845 29.4852C43.0004 28.79 51.1785 29.1554 56.9859 31.4369L57.7172 29.5754ZM65.6793 46.1257C66.6765 45.5887 67.4198 44.5177 67.8076 43.2691C68.2028 41.9968 68.2625 40.4492 67.8094 38.8183C66.895 35.5263 63.9417 32.0207 57.7172 29.5754L56.9859 31.4369C62.8109 33.7252 65.1831 36.836 65.8824 39.3536C66.2363 40.6275 66.1749 41.783 65.8976 42.6759C65.613 43.5923 65.1326 44.1486 64.7311 44.3647L65.6793 46.1257ZM9.57996 47.5362C18.3879 47.5721 31.7408 47.5506 43.1743 47.3693C48.8898 47.2787 54.1338 47.1481 58.0929 46.9643C60.0708 46.8724 61.7402 46.7668 62.9919 46.6449C63.6165 46.584 64.1517 46.5178 64.5757 46.4444C64.9534 46.3791 65.3777 46.2881 65.6793 46.1257L64.7311 44.3647C64.7531 44.3529 64.6356 44.4044 64.2348 44.4737C63.8803 44.535 63.4002 44.5956 62.7981 44.6543C61.5962 44.7713 59.9659 44.8751 58.0001 44.9664C54.0717 45.1488 48.8517 45.2791 43.1426 45.3696C31.727 45.5505 18.3882 45.5721 9.5881 45.5362L9.57996 47.5362ZM30.563 43.4921C23.6042 43.4921 18.6208 43.8342 15.2087 44.2666C13.5031 44.4827 12.1814 44.7226 11.1967 44.9564C10.2382 45.1841 9.5278 45.4221 9.09621 45.6633L10.0719 47.4092C10.2499 47.3097 10.7346 47.1218 11.6588 46.9023C12.5569 46.689 13.8055 46.4604 15.4602 46.2507C18.7685 45.8314 23.665 45.4921 30.563 45.4921V43.4921ZM59.663 41.5093C59.7081 41.406 59.7577 41.3852 59.7041 41.4258C59.6551 41.463 59.5563 41.5235 59.3844 41.5984C59.0393 41.7486 58.5164 41.9068 57.7963 42.0622C56.3637 42.3713 54.3097 42.636 51.7023 42.8499C46.4972 43.277 39.2126 43.4921 30.563 43.4921V45.4921C39.2346 45.4921 46.5814 45.2768 51.8658 44.8432C54.5032 44.6268 56.6584 44.3537 58.218 44.0172C58.994 43.8498 59.663 43.6584 60.1828 43.4321C60.4432 43.3187 60.6952 43.1842 60.9123 43.0197C61.1249 42.8585 61.356 42.6293 61.4953 42.3109L59.663 41.5093ZM53.9071 32.0975C57.8452 33.4484 59.3445 35.4958 59.8703 37.2498C60.4181 39.0768 59.9738 40.7988 59.663 41.5093L61.4953 42.3109C61.9376 41.3 62.5067 39.0792 61.7861 36.6755C61.0436 34.1989 58.9926 31.7277 54.5561 30.2057L53.9071 32.0975ZM14.6005 34.3701C19.6201 32.8906 27.429 31.6159 35.0383 31.0718C38.8373 30.8001 42.5656 30.7121 45.852 30.8679C49.1545 31.0245 51.9465 31.4249 53.9071 32.0975L54.5561 30.2057C52.3295 29.4419 49.3162 29.0299 45.9467 28.8702C42.5611 28.7096 38.7507 28.8012 34.8956 29.0768C27.1968 29.6274 19.2359 30.9188 14.035 32.4517L14.6005 34.3701ZM8.3914 47.4365C7.8755 45.6891 7.58074 42.918 8.35013 40.3432C9.10105 37.8302 10.8673 35.4704 14.6005 34.3701L14.035 32.4517C9.59175 33.7613 7.35946 36.6731 6.43385 39.7706C5.52671 42.8064 5.87744 45.9847 6.47325 48.0028L8.3914 47.4365ZM9.55888 56.2118C9.529 56.4707 9.47671 56.3972 9.61384 56.2752C9.82472 56.0875 10.0639 56.1326 10.1078 56.148C10.1167 56.1512 10.0301 56.1159 9.87027 55.9531C9.72248 55.8025 9.55561 55.587 9.39335 55.3156C9.06623 54.7685 8.80581 54.0754 8.73261 53.3909C8.65989 52.7108 8.77623 52.1057 9.11082 51.6303L7.47521 50.4793C6.78774 51.4562 6.63513 52.5859 6.74395 53.6036C6.8523 54.6169 7.22394 55.5846 7.67681 56.342C7.90454 56.7229 8.16465 57.0705 8.44299 57.3541C8.70928 57.6254 9.04802 57.8952 9.44349 58.0345C9.87403 58.1861 10.4612 58.1984 10.9436 57.7691C11.3522 57.4054 11.4949 56.8814 11.5457 56.441L9.55888 56.2118ZM19.591 51.2922C17.4018 50.5417 15.0237 50.9286 13.1712 51.8548C11.3615 52.7597 9.77575 54.3322 9.55888 56.2118L11.5457 56.441C11.6516 55.5234 12.5403 54.4063 14.0657 53.6436C15.5483 52.9023 17.366 52.6437 18.9423 53.1841L19.591 51.2922ZM24.1312 51.5361C23.5195 51.6822 22.9846 51.8072 22.3091 51.8118C21.6384 51.8164 20.7823 51.7007 19.591 51.2922L18.9423 53.1841C20.3089 53.6527 21.39 53.8182 22.3228 53.8118C23.2507 53.8054 23.9852 53.6273 24.5958 53.4814L24.1312 51.5361ZM26.1521 51.2382C25.363 51.2382 24.6993 51.4005 24.1312 51.5361L24.5958 53.4814C25.1818 53.3415 25.63 53.2382 26.1521 53.2382V51.2382ZM28.9983 52.1003C28.5339 51.8954 28.0547 51.6833 27.6026 51.5256C27.1531 51.3688 26.6565 51.2382 26.1521 51.2382V53.2382C26.3289 53.2382 26.5795 53.2869 26.9438 53.414C27.3056 53.5402 27.707 53.7166 28.191 53.9301L28.9983 52.1003ZM35.6059 52.9102C33.004 53.8395 30.9062 52.942 28.9983 52.1003L28.191 53.9301C30.0764 54.7619 32.8558 56.0161 36.2786 54.7937L35.6059 52.9102ZM38.5321 51.5913C37.5771 52.0714 36.6422 52.5401 35.6059 52.9102L36.2786 54.7937C37.4479 54.3761 38.4879 53.852 39.4304 53.3782L38.5321 51.5913ZM49.451 51.367C47.0672 50.0234 45.094 49.6465 43.2736 49.8695C41.5042 50.0863 39.9737 50.8666 38.5321 51.5913L39.4304 53.3782C40.9273 52.6257 42.1497 52.0222 43.5168 51.8547C44.8329 51.6934 46.3798 51.9318 48.469 53.1093L49.451 51.367ZM54.677 52.084C54.1889 52.458 53.858 52.6967 53.2567 52.7188C52.5905 52.7434 51.4549 52.4965 49.451 51.367L48.469 53.1093C50.5906 54.3052 52.1163 54.7623 53.3305 54.7175C54.6098 54.6703 55.3787 54.066 55.8936 53.6714L54.677 52.084ZM56.7061 51.2382C55.7344 51.2382 55.0797 51.7754 54.677 52.084L55.8936 53.6714C56.3619 53.3125 56.5051 53.2382 56.7061 53.2382V51.2382ZM57.7091 51.2241C57.3103 51.2317 56.9732 51.2382 56.7061 51.2382V53.2382C56.9967 53.2382 57.3557 53.2312 57.7476 53.2237L57.7091 51.2241ZM65.9124 52.4993C65.4433 52.0303 64.7711 51.7727 64.152 51.6123C63.5033 51.4443 62.7591 51.3457 62.0121 51.2869C60.5178 51.1693 58.8756 51.2016 57.7091 51.2241L57.7476 53.2237C58.9311 53.2009 60.4748 53.1721 61.8552 53.2807C62.5456 53.3351 63.1608 53.4216 63.6505 53.5484C64.1697 53.6829 64.4146 53.8301 64.4981 53.9136L65.9124 52.4993ZM65.5398 51.7868C65.444 52.0385 65.3684 52.236 65.2956 52.3979C65.2176 52.5711 65.1772 52.6228 65.1796 52.6201C65.191 52.6069 65.3579 52.4277 65.664 52.4426C65.9141 52.4548 66.0038 52.5908 65.9124 52.4993L64.4981 53.9136C64.7196 54.135 65.078 54.4164 65.5667 54.4403C66.1114 54.4668 66.4869 54.1654 66.6909 53.93C66.8859 53.7051 67.0222 53.4345 67.1193 53.2189C67.2214 52.9921 67.3191 52.7345 67.409 52.4984L65.5398 51.7868ZM68.2656 48.4795C67.3596 48.7384 66.7684 49.3744 66.3758 49.9899C65.9897 50.5952 65.7305 51.2859 65.5398 51.7868L67.409 52.4984C67.613 51.9624 67.8048 51.4686 68.062 51.0655C68.3127 50.6725 68.5571 50.4762 68.8151 50.4025L68.2656 48.4795ZM64.8308 47.4635C65.7447 47.8326 66.949 48.3972 67.6839 48.9018C67.8633 49.0249 67.99 49.1279 68.07 49.2066C68.1645 49.2995 68.1322 49.2983 68.099 49.2022C68.0425 49.0391 68.0482 48.7697 68.2244 48.5585C68.3357 48.4249 68.4209 48.4351 68.2656 48.4795L68.8151 50.4025C69.1117 50.3178 69.4898 50.1639 69.7606 49.8392C70.0961 49.4367 70.1277 48.949 69.989 48.5481C69.8735 48.2144 69.6508 47.9561 69.4721 47.7804C69.279 47.5906 69.0498 47.4136 68.8159 47.253C67.8976 46.6225 66.5305 45.993 65.5797 45.609L64.8308 47.4635ZM54.8412 50.4403C58.4544 50.5702 61.1 50.5282 62.9969 50.3678C64.8447 50.2116 66.1266 49.9344 66.8893 49.4901C67.2844 49.26 67.695 48.8937 67.8217 48.3312C67.9508 47.7577 67.7199 47.2751 67.4891 46.9649C67.0559 46.3829 66.2842 45.935 65.6267 45.6294L64.7838 47.443C65.3994 47.7292 65.7698 48.0047 65.8847 48.159C65.9278 48.217 65.8224 48.1057 65.8706 47.8918C65.9162 47.689 66.0394 47.6706 65.8827 47.7619C65.5417 47.9605 64.6625 48.2199 62.8284 48.375C61.0436 48.5259 58.4865 48.57 54.913 48.4416L54.8412 50.4403ZM44.474 50.0182C47.6251 50.1551 51.0696 50.3048 54.8412 50.4403L54.913 48.4416C51.1499 48.3064 47.7125 48.157 44.5609 48.0201L44.474 50.0182ZM19.4883 50.4161C24.9358 49.178 32.5302 49.4991 44.474 50.0182L44.5609 48.0201C32.7503 47.5068 24.8208 47.1532 19.045 48.4659L19.4883 50.4161ZM8.29301 52.0548C9.67952 52.0548 13.7588 51.7183 19.4883 50.4161L19.045 48.4659C13.4136 49.7457 9.48854 50.0548 8.29301 50.0548V52.0548ZM6.43232 59.7691C6.43232 62.6054 8.41352 64.5726 10.5001 65.4164C11.5515 65.8416 12.7019 66.0172 13.756 65.8561C14.8184 65.6938 15.8402 65.1741 16.4604 64.1663L14.7571 63.1181C14.5166 63.5088 14.086 63.7825 13.454 63.8791C12.8136 63.9769 12.0276 63.8768 11.2499 63.5623C9.67867 62.9269 8.43232 61.559 8.43232 59.7691H6.43232ZM11.9959 61.305C10.9859 60.3409 10.064 59.7166 9.29906 59.3289C8.56223 58.9556 7.90505 58.7691 7.43232 58.7691V60.7691C7.42892 60.7691 7.51476 60.7723 7.6994 60.8269C7.87359 60.8784 8.10827 60.9677 8.39508 61.113C8.96773 61.4032 9.73143 61.9084 10.6149 62.7517L11.9959 61.305ZM12.6339 60.7747C12.4498 61.0348 12.3166 61.2215 12.1944 61.3654C12.0682 61.514 12.0193 61.5359 12.036 61.5274C12.0533 61.5188 12.0911 61.5038 12.1438 61.499C12.1971 61.4941 12.2369 61.5023 12.2542 61.5076C12.2723 61.5132 12.1909 61.4912 11.9959 61.305L10.6149 62.7517C10.917 63.0401 11.2639 63.2957 11.667 63.4195C12.1152 63.5572 12.5518 63.5069 12.9352 63.3139C13.2755 63.1427 13.5321 62.8799 13.7189 62.6599C13.9098 62.4352 14.097 62.1693 14.2663 61.9302L12.6339 60.7747ZM20.1103 57.267C17.858 57.0623 16.2315 57.5275 15.0156 58.3095C13.8281 59.0733 13.1174 60.0916 12.6339 60.7747L14.2663 61.9302C14.7582 61.2353 15.2735 60.5216 16.0975 59.9916C16.8933 59.4798 18.0638 59.0892 19.9292 59.2588L20.1103 57.267ZM26.5499 60.7664C26.1674 60.016 25.7381 59.1388 24.7153 58.4766C23.7346 57.8417 22.3188 57.4678 20.1103 57.267L19.9292 59.2588C22.0533 59.4519 23.0674 59.7923 23.6284 60.1555C24.1472 60.4914 24.3712 60.8961 24.768 61.6746L26.5499 60.7664ZM29.125 63.9226C27.5382 62.7136 27.0205 61.6898 26.5499 60.7664L24.768 61.6746C25.2931 62.7049 25.9767 64.0382 27.9129 65.5134L29.125 63.9226ZM34.3878 61.5406C33.2604 62.8309 32.3948 63.8006 31.5346 64.2684C31.1406 64.4827 30.7959 64.5611 30.4591 64.5304C30.1165 64.4992 29.6805 64.3459 29.125 63.9226L27.9129 65.5134C28.6843 66.1012 29.4687 66.4485 30.2778 66.5222C31.0927 66.5963 31.8313 66.3836 32.4901 66.0254C33.7354 65.3482 34.8537 64.0471 35.8939 62.8564L34.3878 61.5406ZM34.3409 61.5985L34.3408 61.5985L35.9408 62.7985L35.9409 62.7985L34.3409 61.5985ZM40.317 56.6841C37.7379 57.676 35.8776 59.8353 34.3878 61.5405L35.8939 62.8564C37.4496 61.0758 38.9972 59.3345 41.0349 58.5508L40.317 56.6841ZM60.8847 58.1715C52.1433 55.3656 46.2561 54.3998 40.317 56.6841L41.0349 58.5508C46.2847 56.5316 51.5862 57.2872 60.2735 60.0758L60.8847 58.1715ZM67.0207 55.4406C67.2063 56.3997 67.058 57.4993 66.3837 58.1293C65.7498 58.7216 64.2563 59.2537 60.8847 58.1715L60.2735 60.0758C63.8734 61.2313 66.3067 60.9385 67.7492 59.5907C69.1513 58.2806 69.2289 56.3249 68.9842 55.0605L67.0207 55.4406ZM68.9845 59.958C69.4416 57.5805 69.1919 55.7042 68.9569 54.9523L67.048 55.5488C67.1716 55.9445 67.4239 57.4822 67.0204 59.5803L68.9845 59.958ZM63.5387 62.4764C64.0985 62.5593 64.666 62.644 65.1887 62.6811C65.7096 62.718 66.2578 62.7143 66.7763 62.5845C67.3176 62.4489 67.8255 62.1754 68.2287 61.6947C68.6193 61.229 68.8538 60.6373 68.9845 59.958L67.0204 59.5803C66.9307 60.0471 66.8003 60.2855 66.6962 60.4096C66.6047 60.5187 66.4883 60.5948 66.2903 60.6444C66.0695 60.6997 65.7636 60.7168 65.3302 60.6861C64.8987 60.6555 64.4118 60.5839 63.8319 60.498L63.5387 62.4764ZM61.9824 62.27C62.5203 62.3256 63.0343 62.4016 63.5387 62.4764L63.8319 60.498C63.3325 60.424 62.7764 60.3415 62.1882 60.2806L61.9824 62.27ZM58.2578 64.065C58.6185 63.292 58.9191 62.8524 59.355 62.5842C59.7881 62.3176 60.5274 62.1195 61.9824 62.27L62.1882 60.2806C60.5232 60.1084 59.2722 60.2868 58.3068 60.8809C57.344 61.4733 56.8377 62.3785 56.4454 63.2193L58.2578 64.065ZM47.3634 63.5661C48.8633 65.1965 51.3103 65.8217 53.3428 65.879C54.3807 65.9082 55.3927 65.7933 56.2264 65.5405C56.9907 65.3086 57.8787 64.8772 58.2578 64.065L56.4454 63.2193C56.4479 63.214 56.3004 63.4281 55.6459 63.6266C55.0608 63.804 54.2708 63.9043 53.3991 63.8798C51.6123 63.8294 49.8097 63.2712 48.8352 62.212L47.3634 63.5661ZM39.7336 65.1806C40.2008 64.285 41.5939 63.2782 43.2835 62.8342C44.9639 62.3926 46.4897 62.6164 47.3634 63.5661L48.8352 62.212C47.2345 60.4721 44.7796 60.3732 42.7752 60.8998C40.7801 61.4241 38.7842 62.6765 37.9604 64.2554L39.7336 65.1806ZM22.4555 65.3288C23.3823 66.5302 24.8977 67.2325 26.4889 67.6254C28.1046 68.0243 29.9438 68.1408 31.7001 68.0568C33.457 67.9728 35.1819 67.6857 36.5751 67.2448C37.2708 67.0247 37.9114 66.7575 38.4399 66.4403C38.9521 66.1328 39.4499 65.7243 39.7336 65.1806L37.9604 64.2554C37.9214 64.3303 37.7804 64.5034 37.4105 64.7255C37.0569 64.9378 36.5721 65.148 35.9717 65.338C34.7728 65.7174 33.2231 65.9817 31.6046 66.0591C29.9854 66.1365 28.3483 66.0244 26.9684 65.6837C25.564 65.3369 24.5647 64.7885 24.0391 64.1072L22.4555 65.3288ZM16.4604 64.1663C17.1733 63.0079 18.0213 62.6182 18.8738 62.713C19.8171 62.8178 21.0783 63.5436 22.4555 65.3288L24.0391 64.1072C22.5114 62.1269 20.8141 60.9162 19.0947 60.7252C17.2844 60.5241 15.7656 61.4792 14.7571 63.1181L16.4604 64.1663ZM66.4139 62.4897C66.3498 63.7322 66.424 65.2721 66.4974 66.8158L68.4951 66.7208C68.4201 65.143 68.3533 63.7146 68.4112 62.5928L66.4139 62.4897ZM66.647 64.4389L68.0388 63.3209L66.7863 61.7616L65.3945 62.8796L66.647 64.4389ZM66.6122 73.0806C66.839 71.5057 66.939 69.1306 66.9842 67.1907C67.007 66.2119 67.0162 65.3287 67.0196 64.6902C67.0213 64.3708 67.0216 64.1124 67.0214 63.9334C67.0214 63.8439 67.0212 63.7743 67.021 63.7269C67.0209 63.7032 67.0209 63.685 67.0208 63.6727C67.0208 63.6665 67.0207 63.6618 67.0207 63.6586C67.0207 63.657 67.0207 63.6557 67.0207 63.6549C67.0207 63.6545 67.0207 63.6541 67.0207 63.6539C67.0207 63.6538 67.0207 63.6537 67.0207 63.6536C67.0207 63.6535 67.0207 63.6535 66.0207 63.6592C65.0207 63.665 65.0207 63.665 65.0207 63.665C65.0207 63.6651 65.0207 63.6651 65.0207 63.6652C65.0207 63.6653 65.0207 63.6656 65.0207 63.6659C65.0207 63.6666 65.0207 63.6676 65.0208 63.669C65.0208 63.6718 65.0208 63.6762 65.0208 63.6819C65.0209 63.6935 65.0209 63.7108 65.021 63.7337C65.0212 63.7795 65.0214 63.8474 65.0214 63.935C65.0216 64.1103 65.0213 64.3646 65.0196 64.6795C65.0162 65.3094 65.0072 66.1802 64.9848 67.1441C64.9395 69.0893 64.8403 71.3537 64.6326 72.7955L66.6122 73.0806ZM60.9538 76.5204C62.1013 76.3787 63.3775 76.2288 64.3924 75.8098C64.9199 75.592 65.4304 75.2823 65.8368 74.8193C66.2515 74.347 66.5136 73.7653 66.6122 73.0806L64.6326 72.7955C64.5847 73.128 64.4726 73.3418 64.3339 73.4998C64.1869 73.6672 63.9649 73.8226 63.6292 73.9611C62.9176 74.2549 61.9447 74.3828 60.7086 74.5355L60.9538 76.5204ZM57.6757 77.1314C58.6689 76.8059 59.7835 76.6649 60.9538 76.5204L60.7086 74.5355C59.5766 74.6753 58.2633 74.8341 57.0528 75.2309L57.6757 77.1314ZM43.1179 77.7653C43.1616 78.7644 43.1617 78.7644 43.1618 78.7644C43.1619 78.7644 43.162 78.7644 43.1622 78.7644C43.1626 78.7643 43.1632 78.7643 43.1639 78.7643C43.1653 78.7642 43.1674 78.7641 43.1702 78.764C43.1756 78.7638 43.1837 78.7634 43.1942 78.7629C43.2154 78.762 43.2466 78.7605 43.2873 78.7586C43.3687 78.7548 43.4881 78.7491 43.6411 78.7415C43.947 78.7262 44.3872 78.7032 44.9257 78.6721C46.0024 78.6099 47.4744 78.5153 49.054 78.3857C50.6321 78.2563 52.326 78.0913 53.8439 77.8876C55.3425 77.6865 56.7353 77.4396 57.6757 77.1314L57.0528 75.2309C56.3015 75.4771 55.0676 75.7055 53.5779 75.9054C52.1074 76.1027 50.4512 76.2644 48.8905 76.3924C47.3315 76.5203 45.8763 76.6138 44.8104 76.6754C44.2777 76.7062 43.8427 76.7289 43.5414 76.744C43.3907 76.7515 43.2734 76.7571 43.1941 76.7608C43.1544 76.7627 43.1242 76.764 43.104 76.765C43.0939 76.7654 43.0863 76.7658 43.0813 76.766C43.0788 76.7661 43.077 76.7662 43.0758 76.7662C43.0752 76.7662 43.0747 76.7663 43.0745 76.7663C43.0743 76.7663 43.0743 76.7663 43.0742 76.7663C43.0741 76.7663 43.0742 76.7663 43.1179 77.7653ZM42.6525 79.7499L43.8543 78.4419L42.3815 77.0888L41.1797 78.3968L42.6525 79.7499ZM52.8193 78.0341C50.912 77.8705 48.159 77.883 45.9167 77.9333C44.7883 77.9587 43.7767 77.9939 43.0471 78.0229C42.6821 78.0374 42.3875 78.0503 42.1838 78.0596C42.0819 78.0642 42.0027 78.068 41.9489 78.0706C41.9219 78.0719 41.9013 78.0729 41.8873 78.0736C41.8804 78.0739 41.875 78.0742 41.8714 78.0744C41.8696 78.0745 41.8682 78.0745 41.8673 78.0746C41.8668 78.0746 41.8664 78.0746 41.8661 78.0746C41.866 78.0746 41.8659 78.0746 41.8658 78.0746C41.8657 78.0746 41.8657 78.0747 41.9161 79.0734C41.9666 80.0721 41.9666 80.0721 41.9666 80.0721C41.9667 80.0721 41.9667 80.0721 41.9668 80.0721C41.967 80.0721 41.9672 80.0721 41.9676 80.0721C41.9684 80.072 41.9696 80.072 41.9712 80.0719C41.9745 80.0717 41.9794 80.0715 41.986 80.0711C41.9992 80.0705 42.019 80.0695 42.0452 80.0683C42.0974 80.0657 42.1749 80.0621 42.275 80.0575C42.4752 80.0484 42.7658 80.0356 43.1264 80.0213C43.8476 79.9927 44.8475 79.9578 45.9616 79.9328C48.2042 79.8825 50.8601 79.8734 52.6485 80.0267L52.8193 78.0341ZM65.2795 75.7235C63.7678 76.2961 61.5191 76.9543 59.1934 77.4291C56.852 77.9071 54.523 78.1801 52.8193 78.0341L52.6485 80.0267C54.6404 80.1975 57.1931 79.8787 59.5935 79.3887C62.0096 78.8954 64.363 78.2093 65.988 77.5938L65.2795 75.7235ZM66.4974 66.8158C66.599 68.9546 66.6995 71.1234 66.5057 72.8636C66.409 73.7321 66.2454 74.4224 66.0136 74.9188C65.7871 75.4038 65.5343 75.627 65.2795 75.7235L65.988 77.5938C66.8788 77.2564 67.4568 76.555 67.8257 75.7651C68.1893 74.9866 68.3858 74.0517 68.4934 73.0849C68.7084 71.1543 68.5945 68.8119 68.4951 66.7209L66.4974 66.8158ZM4.31498 67.9763C4.53323 70.1787 4.33262 71.8893 4.1665 73.2945L6.15267 73.5293C6.3208 72.107 6.54636 70.2124 6.30523 67.7791L4.31498 67.9763ZM7.98935 74.3163C7.98935 71.622 7.55235 69.8708 7.06636 68.7564C6.82328 68.1989 6.56963 67.8049 6.35715 67.536C6.25116 67.4018 6.15626 67.2999 6.07934 67.2251C6.04091 67.1877 6.00708 67.1572 5.97873 67.133C5.96455 67.1209 5.95176 67.1103 5.94046 67.1013C5.93481 67.0967 5.92953 67.0926 5.92464 67.0888C5.9222 67.0869 5.91985 67.0851 5.9176 67.0834C5.91648 67.0825 5.91538 67.0817 5.9143 67.0809C5.91377 67.0804 5.91298 67.0799 5.91271 67.0797C5.91193 67.0791 5.91116 67.0785 5.31011 67.8777C4.70906 68.6769 4.7083 68.6763 4.70754 68.6758C4.7073 68.6756 4.70655 68.675 4.70607 68.6746C4.70509 68.6739 4.70415 68.6732 4.70323 68.6725C4.70138 68.6711 4.69965 68.6697 4.69801 68.6685C4.69473 68.6659 4.69187 68.6637 4.68939 68.6617C4.68445 68.6577 4.68108 68.6549 4.67921 68.6533C4.67545 68.6501 4.6777 68.6518 4.68519 68.6591C4.7001 68.6736 4.73639 68.7107 4.78783 68.7758C4.8902 68.9054 5.05637 69.1506 5.23309 69.5558C5.58673 70.3668 5.98935 71.835 5.98935 74.3163H7.98935ZM14.5004 76.2754C12.3043 76.2007 10.5824 76.135 9.3961 75.7939C8.82007 75.6283 8.48025 75.4255 8.2862 75.2172C8.11671 75.0353 7.98935 74.7769 7.98935 74.3163H5.98935C5.98935 75.2079 6.26058 75.9771 6.82298 76.5807C7.36083 77.1579 8.08622 77.4983 8.84341 77.716C10.3236 78.1416 12.3402 78.2031 14.4325 78.2742L14.5004 76.2754ZM14.4958 76.2752L14.4954 76.2752L14.4375 78.2744L14.4379 78.2744L14.4958 76.2752ZM17.4749 76.4051C16.4389 76.3412 15.436 76.3072 14.5008 76.2754L14.4329 78.2742C15.3716 78.3062 16.3475 78.3394 17.3518 78.4013L17.4749 76.4051ZM30.2407 78.9512C30.4061 77.965 30.4061 77.965 30.406 77.965C30.4059 77.965 30.4058 77.9649 30.4057 77.9649C30.4054 77.9649 30.405 77.9648 30.4045 77.9647C30.4035 77.9646 30.4021 77.9643 30.4003 77.964C30.3966 77.9634 30.3913 77.9625 30.3842 77.9613C30.3701 77.959 30.3492 77.9555 30.322 77.951C30.2674 77.942 30.187 77.9288 30.0828 77.912C29.8746 77.8782 29.5714 77.8297 29.19 77.7705C28.4273 77.6521 27.3515 77.4906 26.0968 77.3181C23.592 76.9737 20.3565 76.5828 17.4749 76.4051L17.3518 78.4013C20.1596 78.5744 23.3378 78.9575 25.8244 79.2994C27.0654 79.4701 28.1296 79.6298 28.8831 79.7468C29.2598 79.8053 29.5587 79.8531 29.763 79.8862C29.8651 79.9028 29.9436 79.9156 29.9964 79.9243C30.0228 79.9287 30.0427 79.932 30.056 79.9342C30.0626 79.9353 30.0675 79.9361 30.0708 79.9367C30.0724 79.9369 30.0736 79.9371 30.0743 79.9373C30.0747 79.9373 30.075 79.9374 30.0751 79.9374C30.0752 79.9374 30.0753 79.9374 30.0753 79.9374C30.0753 79.9374 30.0753 79.9374 30.2407 78.9512ZM28.3636 80.6433C28.717 80.5448 29.2838 80.3516 29.7362 80.1932C29.9681 80.112 30.1796 80.0364 30.333 79.9813C30.4098 79.9537 30.4722 79.9311 30.5155 79.9154C30.5372 79.9075 30.5541 79.9013 30.5657 79.8971C30.5715 79.895 30.5759 79.8934 30.579 79.8923C30.5805 79.8917 30.5817 79.8913 30.5825 79.891C30.5829 79.8909 30.5832 79.8907 30.5834 79.8907C30.5835 79.8906 30.5836 79.8906 30.5837 79.8906C30.5837 79.8906 30.5838 79.8905 30.5838 79.8905C30.5838 79.8905 30.5838 79.8905 30.2407 78.9512C29.8976 78.0119 29.8976 78.0119 29.8976 78.0119C29.8976 78.0119 29.8976 78.0119 29.8976 78.0119C29.8976 78.0119 29.8975 78.0119 29.8975 78.012C29.8973 78.012 29.8971 78.0121 29.8968 78.0122C29.8961 78.0125 29.8951 78.0128 29.8938 78.0133C29.891 78.0143 29.8869 78.0158 29.8815 78.0178C29.8706 78.0218 29.8544 78.0276 29.8335 78.0352C29.7917 78.0504 29.7311 78.0723 29.6562 78.0993C29.5064 78.1531 29.3003 78.2267 29.0751 78.3056C28.6132 78.4674 28.1073 78.6385 27.8269 78.7166L28.3636 80.6433ZM7.28635 78.9686C9.61058 79.5937 14.6979 80.0602 19.1748 80.3511C21.4371 80.4981 23.5818 80.6024 25.2036 80.6589C26.0137 80.6871 26.6984 80.7035 27.2042 80.7073C27.4561 80.7091 27.6714 80.7079 27.8389 80.7028C27.9221 80.7003 28.0023 80.6965 28.0737 80.6908C28.1219 80.6869 28.2421 80.6771 28.3636 80.6433L27.8269 78.7166C27.9089 78.6938 27.9604 78.6934 27.9126 78.6973C27.8879 78.6993 27.8446 78.7017 27.7783 78.7037C27.647 78.7077 27.46 78.7091 27.2189 78.7073C26.7387 78.7038 26.0741 78.688 25.2732 78.6601C23.6728 78.6043 21.5481 78.5011 19.3045 78.3553C14.7697 78.0606 9.8992 77.6003 7.8058 77.0372L7.28635 78.9686ZM4.1665 73.2945C4.093 73.9163 4.0203 74.5237 4.00676 75.0697C3.99314 75.6192 4.03533 76.1895 4.24083 76.7299C4.6912 77.9142 5.75388 78.5564 7.28635 78.9686L7.8058 77.0372C6.49933 76.6859 6.21849 76.3037 6.11022 76.019C6.0364 75.8249 5.99548 75.5496 6.00615 75.1192C6.01691 74.6854 6.0759 74.1787 6.15267 73.5293L4.1665 73.2945ZM37.4952 73.3654C43.3929 74.2535 51.1786 72.5279 61.5923 67.4574L60.7168 65.6592C50.4305 70.6677 43.0918 72.1856 37.793 71.3877L37.4952 73.3654ZM31.7367 72.364C33.8181 72.7458 35.8234 73.1136 37.4952 73.3654L37.793 71.3877C36.1595 71.1417 34.1889 70.7804 32.0975 70.3969L31.7367 72.364ZM18.5864 70.6574C19.9074 70.5613 21.917 70.7468 24.2846 71.0889C26.6305 71.4277 29.2418 71.9065 31.7367 72.364L32.0975 70.3969C29.6114 69.9409 26.9611 69.4547 24.5706 69.1094C22.2019 68.7672 20.0004 68.5493 18.4413 68.6627L18.5864 70.6574ZM9.46526 68.0875C9.75479 68.5747 10.2763 68.9578 10.7994 69.2502C11.3555 69.5611 12.0491 69.8435 12.8337 70.0744C14.4039 70.5364 16.4186 70.8151 18.5864 70.6574L18.4413 68.6627C16.5227 68.8023 14.7482 68.5529 13.3982 68.1557C12.7226 67.9569 12.1734 67.727 11.7753 67.5044C11.5765 67.3933 11.4279 67.291 11.3241 67.2046C11.2155 67.1142 11.1836 67.0642 11.1845 67.0657L9.46526 68.0875ZM23.3149 66.7194C19.1614 66.216 15.7497 65.9201 13.4386 65.8826C12.3013 65.8641 11.3525 65.9058 10.7025 66.0454C10.4112 66.108 9.99461 66.2251 9.68437 66.5114C9.50325 66.6786 9.32545 66.9353 9.28465 67.2804C9.24499 67.6158 9.35145 67.896 9.46526 68.0875L11.1845 67.0657C11.222 67.1288 11.2975 67.2898 11.2708 67.5152C11.243 67.7502 11.1222 67.906 11.0408 67.9811C10.93 68.0834 10.8835 68.0522 11.1226 68.0008C11.5332 67.9126 12.2859 67.8641 13.4061 67.8823C15.6103 67.9181 18.9388 68.2037 23.0743 68.7048L23.3149 66.7194ZM30.5986 68.9296C28.793 68.1022 26.6649 67.1253 23.3149 66.7194L23.0743 68.7048C26.1043 69.072 28.0004 69.939 29.7655 70.7478L30.5986 68.9296ZM40.5783 69.4043C37.8794 70.2914 36.068 70.454 34.6332 70.2818C33.1869 70.1083 32.0389 69.5895 30.5986 68.9296L29.7655 70.7478C31.1792 71.3955 32.5954 72.0516 34.3949 72.2676C36.2058 72.4848 38.3217 72.2513 41.2029 71.3043L40.5783 69.4043ZM61.082 65.5609C57.3138 65.8351 47.9458 66.9824 40.5783 69.4043L41.2029 71.3043C48.3486 68.9553 57.5332 67.8244 61.2271 67.5557L61.082 65.5609Z" fill="#F5DEA6" mask="url(#path-31-outside-1_2080_24)"/>
</svg>
