<svg width="109" height="79" viewBox="0 0 109 79" fill="none" xmlns="http://www.w3.org/2000/svg">
<path d="M5.16504 44.1698C4.93674 43.1584 4.56852 42.2256 4.54151 41.2805C4.41632 36.8348 4.41386 32.3843 4.29603 27.9387C4.25921 26.5591 4.00393 25.1844 3.85419 23.8073C3.70445 22.4301 3.16684 21.3844 1.97382 20.5621C1.48286 20.2257 1.19075 19.3347 1.15392 18.6768C1.09746 17.6777 1.34296 16.6614 1.47552 15.5199C3.65537 15.3113 5.73209 15.1198 7.91685 15.5052C10.4625 15.952 11.0933 17.6458 11.3536 19.725C11.5156 21.0972 11.4739 22.4915 11.5181 23.876C11.5181 24.3056 11.5181 24.7352 11.5181 25.5355C12.7086 24.367 13.6685 23.4636 14.5816 22.5185C15.8287 21.2273 17.0364 19.8919 18.2638 18.5909C18.8042 18.0328 19.3781 17.5082 19.9822 17.0198C21.4747 15.7924 22.9745 16.0698 24.6192 17.1794C24.2792 17.8004 23.9047 18.4019 23.4974 18.9812C20.8168 22.4179 18.0969 25.8374 15.4162 29.279C14.8983 29.9443 14.4761 30.6856 13.9704 31.4539L23.6938 44.8767C23.2028 45.1885 22.8665 45.542 22.4664 45.6328C20.8045 46.0207 19.1352 46.4061 17.4488 46.6368C17.2117 46.677 16.9688 46.668 16.7353 46.6101C16.5018 46.5523 16.2827 46.447 16.0918 46.3007C15.9008 46.1544 15.742 45.9704 15.6254 45.76C15.5087 45.5496 15.4367 45.3175 15.4138 45.078C14.9965 41.9457 13.2045 39.5155 11.5009 37.041C11.1267 36.5724 10.726 36.1257 10.3005 35.7032C9.80954 38.7668 9.34557 41.5407 8.87671 44.4005L5.16504 44.1698Z" fill="#3290FF" stroke="#F5DEA6"/>
<path d="M30.0885 59.8092C31.257 57.7202 32.3715 55.6017 33.6136 53.5593C34.2571 52.5281 35.012 51.5707 35.8646 50.7044C36.305 50.2427 36.8512 49.8953 37.456 49.6921C38.0608 49.489 38.7059 49.4362 39.3357 49.5384C40.8429 49.7446 41.2602 50.6283 40.4403 51.9342C39.6204 53.2402 38.749 54.4332 37.9635 55.7171C36.2893 58.4615 34.6569 61.2305 32.9581 64.0633C34.6765 66.0885 36.2672 67.991 37.8677 69.8763C39.3406 71.6192 40.8429 73.3424 42.2863 75.1025C43.3419 76.379 43.148 77.0467 41.4984 77.3364C40.0539 77.5812 38.5872 77.6685 37.1239 77.5966C36.633 77.577 36.0193 76.9706 35.7616 76.4747C34.3869 73.8408 33.1128 71.1552 31.7897 68.4967C31.5412 68.0789 31.2692 67.6757 30.9747 67.2889C28.8415 70.2175 29.8381 73.4455 29.357 76.5189H25.7657C25.3754 74.7687 24.9286 73.0822 24.6291 71.3835C23.9172 67.3258 23.2716 63.2557 22.6088 59.1906C22.5614 58.7917 22.4291 58.4076 22.2208 58.0642C22.0124 57.7208 21.7329 57.426 21.401 57.1998C19.3881 55.7563 18.8088 53.5176 19.8054 50.8492C21.6539 50.5571 23.6422 50.1128 25.6552 49.9606C27.2827 49.8329 28.9225 51.2174 29.1925 52.9554C29.5043 54.961 29.5239 57.0107 29.6835 59.0408C29.6982 59.2716 29.735 59.4999 29.7596 59.7282L30.0885 59.8092Z" fill="#3290FF" stroke="#F5DEA6"/>
<path d="M43.229 37.9395C43.3689 39.0515 43.504 40.1365 43.6562 41.3541C40.5337 43.0528 37.3768 42.201 34.2175 41.8279L32.7446 36.555C32.6342 36.1622 32.5433 35.7621 32.4132 35.3767C31.8732 33.7688 31.5123 33.6166 29.74 34.3555C29.74 34.8047 29.74 35.3227 29.74 35.8407C29.7105 37.6768 29.7743 39.5228 29.6197 41.3492C29.4405 43.448 26.8237 44.479 25.1888 43.1191C24.8271 42.7426 24.627 42.2395 24.6315 41.7174C24.7003 35.0208 24.805 28.3233 24.9458 21.625C24.9752 20.3829 25.2772 19.1456 25.503 17.5549C27.9406 17.82 30.2113 17.9477 32.4329 18.3503C33.7732 18.5958 35.0717 19.1849 36.331 19.7471C38.5207 20.729 39.6671 22.5676 40.1777 24.8211C40.7031 27.1458 39.9028 29.0212 38.1697 30.6365C36.3458 32.3377 36.3949 32.3966 37.4529 34.655C37.8334 35.4651 38.2409 36.2653 38.7392 37.2841L43.229 37.9395ZM30.5255 27.8282C31.775 28.3953 32.887 28.2824 33.4565 27.2464C33.8751 26.4423 33.9785 25.5109 33.7462 24.6345C33.405 23.5839 31.7185 23.1617 30.5255 23.5053V27.8282Z" fill="#3290FF" stroke="#F5DEA6"/>
<path d="M64.0333 72.2206C60.7071 73.1632 57.2728 73.2025 53.5759 72.957C52.9794 70.8287 52.3903 68.7176 51.7987 66.609L51.3421 66.6531V73.4529C49.528 74.3023 47.9054 74.2949 46.2852 74.0961C45.9636 74.0543 45.5488 73.448 45.4678 73.0479C45.1094 71.1282 44.6479 69.1938 44.6037 67.257C44.4736 61.6699 44.5227 56.0804 44.5178 50.4908C44.5495 50.0487 44.6152 49.6096 44.7142 49.1775C46.8425 48.3772 48.8185 48.8952 50.7529 49.558C52.4099 50.1226 54.0301 50.7977 55.6478 51.4727C57.9259 52.4227 58.6623 53.8023 58.2548 56.2154C58.2204 56.4167 58.1861 56.6155 58.1566 56.8193C57.8129 59.1685 57.4201 61.4834 54.6462 62.4653C54.8917 63.0127 55.0022 63.4472 55.2403 63.7786C55.6846 64.4119 56.2222 64.9741 56.6837 65.6C57.8596 67.2104 59.2661 68.3961 61.3895 68.4476C61.8399 68.4642 62.2823 68.571 62.6906 68.7618C64.3402 69.5252 64.6053 70.188 64.0333 72.2206ZM48.5068 53.6231L48.2024 54.0233C48.4675 55.4765 48.731 56.9256 48.9929 58.3707C51.2365 58.0565 52.7168 56.6204 52.0491 54.6247L48.5068 53.6231Z" fill="#3290FF" stroke="#F5DEA6"/>
<path d="M87.4913 58.3682C87.9111 58.5695 88.1934 58.7193 88.4855 58.8445C90.8617 59.8657 91.7012 61.0538 91.333 63.5969C91.0456 65.4485 90.5635 67.2644 89.8946 69.0147C89.6491 69.6873 88.8071 70.4016 88.0976 70.6029C85.552 71.3222 82.9426 71.8303 80.3601 72.4047C79.8389 72.5007 79.3091 72.5426 78.7793 72.5299C76.2312 72.5545 75.4309 71.7051 75.7231 69.1791C76.4251 63.106 77.1517 57.0361 77.9029 50.9695C78.0207 50.017 78.3595 49.0916 78.6221 48.0508C82.1717 48.2594 85.6919 47.9501 88.3946 50.8149C89.843 52.3491 90.113 54.9217 88.8856 56.6278C88.4781 57.1826 88.0289 57.7005 87.4913 58.3682ZM81.4623 66.6777C83.5808 66.7808 85.2795 66.5991 86.5732 65.1655C87.2925 64.3677 87.2286 62.8703 86.4062 62.6052C85.2519 62.2515 84.0577 62.0445 82.8517 61.989C82.4982 61.967 81.8527 62.5267 81.7839 62.9022C81.5679 64.1026 81.5581 65.3423 81.4623 66.6777ZM84.0497 53.2746C83.9662 53.1543 83.8803 53.0291 83.8042 52.9162C82.4639 52.6707 82.0122 53.1224 82.432 54.664L84.0497 53.2746Z" fill="#3290FF" stroke="#F5DEA6"/>
<path d="M68.4716 55.3685C68.0592 55.3047 67.6493 55.231 67.2442 55.1819C66.0708 55.0445 64.8704 55.0199 63.724 54.7646C61.4043 54.2467 60.8225 53.1273 61.4166 50.4491C65.2313 50.5326 69.1663 50.0293 72.576 52.4596C73.067 52.818 73.6021 53.5544 73.607 54.1215C73.6389 58.0761 73.5358 62.0332 73.472 65.9879C73.4632 66.1105 73.4434 66.2321 73.4131 66.3512C72.8117 69.4933 71.7291 70.134 68.6164 69.3264C66.4488 68.7618 64.2592 68.2782 62.0671 67.8118C60.5451 67.4878 58.8145 65.74 58.839 64.0928C58.8654 62.2632 59.0702 60.4405 59.4503 58.6505C59.8209 56.9322 61.1269 56.073 62.887 56.1491C64.188 56.208 65.4817 56.5051 66.7802 56.5173C67.3792 56.5173 67.9806 56.1098 68.5796 55.8865C68.5379 55.7023 68.5134 55.5305 68.4716 55.3685ZM69.3333 60.7862C68.3268 60.6757 67.4406 60.5137 66.552 60.4916C64.5881 60.4474 64.0186 61.3729 64.8582 63.3245L69.3333 62.9022V60.7862Z" fill="#3290FF" stroke="#F5DEA6"/>
<path d="M67.5314 22.9997C68.8275 24.3375 70.0549 25.7515 71.4345 26.9961C74.3164 29.5932 74.6798 32.9244 74.2477 36.4347C73.7838 40.1832 72.3477 41.4327 68.5649 41.3026C66.5495 41.2338 64.539 40.787 62.5482 40.3992C59.6024 39.8223 57.9945 35.5657 59.1605 32.8114C59.4232 32.1879 60.4395 31.7682 61.1956 31.4932C62.7478 30.8921 64.4734 30.9212 66.0045 31.5742C66.1125 31.8835 66.25 32.1806 66.3187 32.4923C66.7017 34.0487 66.3482 34.5838 64.7968 34.8833C64.242 34.9888 63.6381 35.0404 63.1619 35.3055C62.8403 35.4872 62.7078 35.9978 62.396 36.5157C64.6053 37.4191 66.6354 37.6793 68.6606 36.6826C69.7923 36.123 69.9739 34.9913 69.8585 33.8253C69.591 31.1373 67.8702 29.3036 65.9628 27.7128C64.0554 26.1221 62.1923 24.6984 61.0532 22.4031C60.1327 20.5719 61.0213 18.3871 63.0931 18.2693C65.7934 18.1146 68.4937 17.9919 71.1056 18.8535C72.7356 19.3911 73.2903 20.648 72.5785 21.9686C72.1022 22.8597 71.351 23.0978 70.4207 22.9849L67.6812 22.6437L67.5314 22.9997Z" fill="#3290FF" stroke="#F5DEA6"/>
<path d="M108.065 21.8164C102.709 31.3778 94.6568 38.8355 88.6499 47.7758L85.5103 47.1302C85.6796 46.3373 85.6674 45.5322 86.0135 44.9209C87.3514 42.5913 88.7138 40.2568 90.2455 38.0647C91.3404 36.501 91.4459 35.1926 90.491 33.4939C89.5091 31.7338 88.8954 29.7675 88.1884 27.8675C87.9994 27.3569 88.0583 26.753 87.9896 26.0411C89.0722 25.7662 90.0762 25.344 91.0998 25.3047C92.1235 25.2654 92.8771 26.0043 93.2919 26.9764C93.751 28.0516 94.1978 29.1317 94.7894 30.5358C95.7713 29.2054 96.5986 28.1302 97.3841 27.028C98.7293 25.1378 99.964 23.1592 101.407 21.3476C103.354 18.9173 106.158 19.1186 108.065 21.8164Z" fill="#3290FF" stroke="#F5DEA6"/>
<path d="M48.5387 31.4981C50.4903 31.2527 50.9935 30.6905 51.0254 28.7979C51.0647 26.0976 51.0451 23.3973 51.05 20.7142V19.2831H56.6788V38.7643L52.3756 38.563C52.3044 37.5295 52.2357 36.5746 52.1571 35.4577C51.6244 35.4577 51.1752 35.4921 50.7554 35.4577C49.1303 35.3031 47.4955 35.2122 45.89 34.9348C44.4343 34.6894 43.3714 34.1002 42.9295 32.3499C41.9967 28.6506 42.2152 24.9856 42.6841 21.3034C42.9173 19.4967 45.3254 18.284 46.975 19.0254C47.1685 19.1314 47.3387 19.275 47.4758 19.4479C47.6128 19.6207 47.7138 19.8193 47.7728 20.0318C47.9769 20.9435 48.0969 21.8721 48.1312 22.8057C48.2319 25.2114 48.2614 27.6196 48.3399 30.0253C48.3595 30.4819 48.4651 30.9507 48.5387 31.4981Z" fill="#3290FF" stroke="#F5DEA6"/>
<path d="M89.973 19.5286C89.9338 20.3338 89.8896 21.247 89.8405 22.2632L85.8097 23.4906C85.5888 29.7724 85.3679 35.9953 85.1445 42.3606C83.7845 42.3606 82.5154 42.503 81.3003 42.3139C80.365 42.1691 80.0385 41.3075 80.0508 40.3501C80.1073 36.0665 80.1318 31.7829 80.1686 27.4993C80.1686 26.9813 80.1686 26.4609 80.1686 25.8178L78.2441 25.6754C77.5518 25.6619 76.8609 25.6086 76.1747 25.5158C74.7705 25.2532 74.1888 24.5339 74.1421 23.1175C74.1225 22.5063 74.1127 21.8901 74.1053 21.2813C74.1053 20.7904 74.1053 20.2994 74.1053 19.5335L89.973 19.5286Z" fill="#3290FF" stroke="#F5DEA6"/>
<path d="M42.3379 1.82711L45.62 1.49571C45.7427 3.15515 45.8654 4.7213 45.9833 6.40529L47.5985 6.54766C47.7016 4.86613 47.7998 3.29752 47.9128 1.4908C49.0518 1.4147 50.2129 1.24533 51.3495 1.3116C51.752 1.33861 52.4345 1.97685 52.4443 2.34753C52.5277 5.85051 52.4934 9.35594 52.4934 12.9915L49.1205 13.1461L48.3841 10.3649H46.5871C46.5037 11.364 46.43 12.2845 46.3417 13.3597L42.3306 13.5855L42.3379 1.82711Z" fill="#3290FF" stroke="#F5DEA6"/>
<path d="M38.1991 5.81369V12.7902L33.8542 13.4751C33.6431 11.0007 33.4589 8.83308 33.2699 6.60167H31.1367C29.6638 5.40374 29.9093 3.99469 30.3119 2.38926C33.1128 2.00631 35.926 1.589 38.7515 1.26987C39.2007 1.22078 39.7015 1.61109 40.1875 1.80011V5.03552L38.1991 5.81369Z" fill="#3290FF" stroke="#F5DEA6"/>
<path d="M63.4074 12.8295H55.3999C55.1961 12.3557 54.8034 11.8476 54.7936 11.3566C54.7371 8.0991 54.7641 4.8416 54.7641 1.38526C57.2311 1.42208 59.4282 1.03176 61.6227 1.64546V4.01433L58.0093 4.59121L58.024 4.96925L59.2367 5.70568L59.3275 7.3823L57.8227 8.31512L57.997 8.87236H63.1521C63.2429 10.3231 63.3215 11.5186 63.4074 12.8295Z" fill="#3290FF" stroke="#F5DEA6"/>
</svg>
