<svg width="167" height="24" viewBox="0 0 167 24" fill="none" xmlns="http://www.w3.org/2000/svg">
<path d="M71.4314 11.0986L71.9312 11.1119L71.9312 11.1118L71.9312 11.1112L71.9313 11.1087L71.9315 11.0989L71.9326 11.0606L71.9365 10.9126L71.9511 10.3646C71.9634 9.89968 71.9804 9.2523 71.9994 8.52241C72.0325 7.24751 72.0713 5.72041 72.1008 4.47418L75.9418 4.73218C76.3954 8.22621 76.3155 11.5334 76.2368 14.7968C76.2086 15.9617 76.1807 17.121 76.1771 18.2813L74.1008 19.9057L72.9584 20.7995H74.4089H80.5545H82.231L80.8284 19.8812L78.8853 18.609C78.9341 17.3696 78.9074 16.1416 78.881 14.9243C78.8714 14.4832 78.8618 14.0435 78.8559 13.6052C78.8365 12.1687 78.8551 10.7283 79.0299 9.23854C80.5334 10.8157 81.8486 12.4788 83.1787 14.1608C83.339 14.3635 83.4996 14.5666 83.6607 14.7698C85.3571 16.9089 87.1115 19.0579 89.311 21.0111L90.0929 21.7053L90.1425 20.6609C90.2732 17.9078 90.2619 15.2763 90.2511 12.7479C90.2504 12.5833 90.2497 12.4191 90.249 12.2553C90.2386 9.67871 90.2385 7.21103 90.3979 4.80448L92.6656 3.80942L92.4647 2.85155H86.4057H85.0077L86.0887 3.73814C86.6551 4.20277 87.0471 4.51567 87.3368 4.74689C87.3688 4.77244 87.3996 4.797 87.4292 4.82065V13.1492L78.878 2.92677L78.7281 2.74758H78.4945H67.3459H65.4541L67.0989 3.68229L69.2052 4.87932C69.437 9.81224 69.3876 12.5949 69.1603 14.3354C69.0453 15.2155 68.8863 15.8164 68.7013 16.287C68.5164 16.7571 68.2988 17.1158 68.0396 17.5192C67.5774 18.2386 67.052 18.5735 66.4989 18.7398C65.9185 18.9144 65.2863 18.9119 64.5763 18.8994C63.9405 18.8881 63.0918 18.7767 62.3978 18.4452C61.7218 18.1222 61.236 17.6183 61.1625 16.7991C60.9803 14.7676 60.7983 9.48941 60.6695 4.87062C60.9646 4.64331 61.2684 4.34536 61.6383 3.98256C61.764 3.85921 61.8974 3.72837 62.0407 3.59026L62.9329 2.73026H61.6937H55.2279H53.401L54.9733 3.66057L57.213 4.98577C57.2115 5.01169 57.2101 5.03915 57.2085 5.06812C57.1951 5.31713 57.1765 5.67734 57.1558 6.12298C57.1146 7.01411 57.065 8.24759 57.032 9.61693C56.9662 12.3452 56.9648 15.6483 57.233 17.8499C57.2905 18.3217 57.5271 18.7379 57.8014 19.0791C58.0781 19.4235 58.4196 19.7241 58.7405 19.9681C59.0633 20.2135 59.3783 20.4114 59.6116 20.5476C59.7287 20.6159 59.8263 20.6694 59.8955 20.7062C59.9302 20.7247 59.9577 20.7389 59.9772 20.7489L60.0001 20.7605L60.0068 20.7638L60.0088 20.7648L60.0095 20.7652L60.0098 20.7653C60.0099 20.7654 60.01 20.7654 60.2309 20.3168L60.01 20.7654L60.1145 20.8168H60.2309H68.2547H68.4552L68.6002 20.6783L71.2449 18.1509L71.3721 18.0294L71.3952 17.855C71.5748 16.4966 71.7086 14.8107 71.7974 13.4708C71.8419 12.7995 71.8752 12.2125 71.8975 11.7932C71.9086 11.5835 71.9169 11.4156 71.9225 11.3001L71.9288 11.1673L71.9303 11.1327L71.9307 11.1238L71.9308 11.1215L71.9309 11.1209L71.9309 11.1207L71.4314 11.0986ZM71.4314 11.0986L71.9312 11.112L71.931 11.1207L71.4314 11.0986Z" fill="#3290FF" stroke="#F5DEA6"/>
<path d="M117.843 2.75644H117.014L117.401 3.48964C117.592 3.85104 117.825 4.20109 118.029 4.5077C118.107 4.6251 118.181 4.73614 118.246 4.839C118.501 5.23793 118.642 5.52675 118.668 5.77208C118.759 9.09681 118.747 12.4042 118.736 15.6438C118.732 16.6182 118.729 17.5864 118.728 18.5472L116.642 19.7445L115.016 20.6782H116.891H123.949L123.936 20.6871H125.486H131.061H132.078L131.456 19.8815C130.997 19.2867 130.721 18.9091 130.54 18.5111C130.366 18.1279 130.268 17.6987 130.229 16.9983C130.181 16.1293 130.224 14.9234 130.292 13.0012C130.327 12.0094 130.37 10.8269 130.409 9.40158C131.246 10.3981 132.074 11.385 132.904 12.3739C135.307 15.2365 137.725 18.1161 140.389 21.2956L141.272 22.3496V20.9744V5.52057L143.34 3.74848L144.366 2.86886H143.014H137.509H136.09L137.196 3.75849L139.086 5.27908V13.8136C138.787 13.4521 138.491 13.095 138.199 12.7421C135.237 9.16563 132.623 6.00952 130.087 2.93814L129.937 2.75644H129.702H117.843ZM125.194 19.7813L124.864 20.019L124.552 19.7808L122.481 18.1997V18.1896V18.1638V18.1381V18.1124V18.0867V18.0609V18.0352V18.0095V17.9838V17.9581V17.9324V17.9067V17.881V17.8553V17.8296V17.8039V17.7782V17.7525V17.7269V17.7012V17.6755V17.6498V17.6242V17.5985V17.5728V17.5472V17.5215V17.4959V17.4702V17.4446V17.4189V17.3933V17.3676V17.342V17.3164V17.2907V17.2651V17.2395V17.2138V17.1882V17.1626V17.137V17.1114V17.0858V17.0602V17.0345V17.0089V16.9833V16.9577V16.9322V16.9066V16.881V16.8554V16.8298V16.8042V16.7786V16.7531V16.7275V16.7019V16.6763V16.6508V16.6252V16.5997V16.5741V16.5485V16.523V16.4974V16.4719V16.4463V16.4208V16.3953V16.3697V16.3442V16.3186V16.2931V16.2676V16.2421V16.2165V16.191V16.1655V16.14V16.1145V16.0889V16.0634V16.0379V16.0124V15.9869V15.9614V15.9359V15.9104V15.8849V15.8594V15.8339V15.8085V15.783V15.7575V15.732V15.7065V15.681V15.6556V15.6301V15.6046V15.5792V15.5537V15.5282V15.5028V15.4773V15.4518V15.4264V15.4009V15.3755V15.35V15.3246V15.2991V15.2737V15.2483V15.2228V15.1974V15.1719V15.1465V15.1211V15.0956V15.0702V15.0448V15.0194V14.9939V14.9685V14.9431V14.9177V14.8923V14.8669V14.8415V14.816V14.7906V14.7652V14.7398V14.7144V14.689V14.6636V14.6382V14.6128V14.5875V14.5621V14.5367V14.5113V14.4859V14.4605V14.4351V14.4098V14.3844V14.359V14.3336V14.3082V14.2829V14.2575V14.2321V14.2068V14.1814V14.156V14.1307V14.1053V14.08V14.0546V14.0292V14.0039V13.9785V13.9532V13.9278V13.9025V13.8771V13.8518V13.8265V13.8011V13.7758V13.7504V13.7251V13.6998V13.6744V13.6491V13.6238V13.5984V13.5731V13.5478V13.5225V13.4971V13.4718V13.4465V13.4212V13.3958V13.3705V13.3452V13.3199V13.2946V13.2693V13.244V13.2186V13.1933V13.168V13.1427V13.1174V13.0921V13.0668V13.0415V13.0162V12.9909V12.9656V12.9403V12.915V12.8897V12.8644V12.8391V12.8138V12.7886V12.7633V12.738V12.7127V12.6874V12.6621V12.6368V12.6116V12.5863V12.561V12.5357V12.5104V12.4852V12.4599V12.4346V12.4093V12.3841V12.3588V12.3335V12.3082V12.283V12.2577V12.2324V12.2072V12.1819V12.1566V12.1314V12.1061V12.0809V12.0556V12.0303V12.0051V11.9798V11.9546V11.9293V11.904V11.8788V11.8535V11.8283V11.803V11.7778V11.7525V11.7273V11.702V11.6768V11.6515V11.6263V11.601V11.5758V11.5505V11.5253V11.5V11.4748V11.4495V11.4243V11.3991V11.3738V11.3486V11.3233V11.2981V11.2729V11.2476V11.2224V11.1971V11.1719V11.1467V11.1214V11.0962V11.071V11.0457V11.0205V10.9952V10.97V10.9448V10.9195V10.8943V10.8691V10.8438V10.8186V10.7934V10.7682V10.7429V10.7177V10.6925V10.6672V10.642V10.6168V10.5916V10.5663V10.5411V10.5159V10.4906V10.4654V10.4402V10.415V10.3897V10.3645V10.3393V10.3141V10.2888V10.2636V10.2384V10.2132V10.1879V10.1627V10.1375V10.1123V10.087V10.0618V10.0366V10.0114V9.98614V9.96092V9.93569V9.91047V9.88525V9.86002V9.8348V9.80958V9.78435V9.75913V9.73391V9.70868V9.68346V9.65824V9.63301V9.60779V9.58257V9.55734V9.53212V9.5069V9.48167V9.45645V9.43122V9.406V9.38077V9.35555V9.33033V9.3051V9.27988V9.25465V9.22943V9.2042V9.17897V9.15375V9.12852V9.1033V9.07807V9.05284V9.02761V9.00239V8.97716V8.95193V8.9267V8.90147V8.87625V8.85102V8.82579V8.80056V8.77533V8.75009V8.72486V8.69963V8.6744V8.64917V8.62393V8.5987V8.57347V8.54823V8.523V8.49776V8.47253V8.44729V8.42206V8.39682V8.37158V8.34634V8.32111V8.29587V8.27063V8.24539V8.22015V8.19491V8.16966V8.14442V8.11918V8.09393V8.06869V8.04345V8.0182V7.99295V7.96771V7.94246V7.91721V7.89196V7.86671V7.84146V7.81621V7.79096V7.76571V7.74045V7.7152V7.68995V7.66469V7.63943V7.61418V7.58892V7.56366V7.5384V7.51314V7.48788V7.46262V7.43736V7.41209V7.38683V7.36156V7.3363V7.31103V7.28576V7.26049V7.23522V7.20995V7.18468V7.15941V7.13413V7.10886V7.08358V7.05831V7.03303V7.00775V6.98247V6.95719V6.93191V6.90663V6.88134V6.85606V6.83077V6.80548V6.7802V6.75491V6.72962V6.70432V6.67903V6.65374V6.62844V6.60315V6.57785V6.55255V6.52725V6.50195V6.47665V6.45135V6.42604V6.40074V6.37543V6.35012V6.32481V6.2995V6.27419V6.24888V6.22356V6.19825V6.17293V6.14761V6.12229V6.09697V6.07165V6.04632V6.021V5.99567V5.97034V5.94501V5.91968V5.89435V5.86902V5.84368V5.81835V5.79301V5.76767V5.74233V5.71698V5.69164V5.6663V5.64095V5.6156V5.59025V5.5649V5.53955V5.51419V5.48883V5.47151C122.483 5.4325 122.508 5.34963 122.628 5.16676C122.655 5.12484 122.691 5.07293 122.731 5.01452C122.796 4.92154 122.872 4.81208 122.943 4.70018C123.703 4.47671 124.403 4.35172 125.075 4.4221C125.734 4.49114 126.401 4.75202 127.09 5.36215V18.4162L125.194 19.7813Z" fill="#3290FF" stroke="#F5DEA6"/>
<path d="M28.6933 2.32891L28.2505 1.53565L27.8172 2.33413C26.6669 4.45392 25.7433 6.77403 24.8274 9.07474C24.5041 9.88697 24.1817 10.6968 23.8506 11.4945C22.5715 14.5768 21.1512 17.5145 19.0187 19.9251L18.2834 20.7564H19.3932H24.5866H25.6953L24.9614 19.9254C24.8027 19.7457 24.6549 19.5788 24.5115 19.4168C24.1786 19.0409 23.869 18.6913 23.4992 18.2675C23.6581 17.8524 23.8168 17.4366 23.9752 17.0211C24.2243 16.3683 24.4729 15.7163 24.722 15.0693H30.0567C30.2377 15.438 30.3994 15.7628 30.5438 16.0528C30.7478 16.4624 30.9173 16.8029 31.058 17.1003C31.3238 17.6617 31.445 17.9869 31.4813 18.2308C31.512 18.4368 31.4847 18.6014 31.3658 18.8527C31.2622 19.0715 31.1089 19.3175 30.8864 19.6746C30.8181 19.7842 30.7433 19.9043 30.6614 20.0372L30.1918 20.7995H31.0871H37.4404H38.622L37.7993 19.9514C35.4903 17.5709 34.0923 14.7667 32.8313 11.7413C32.5172 10.9879 32.2109 10.2183 31.9005 9.43845C30.9731 7.10834 30.009 4.68627 28.6933 2.32891ZM29.4488 12.7452H25.5675C25.856 12.1371 26.0981 11.6203 26.3192 11.1482C26.7786 10.1675 27.1476 9.37985 27.6543 8.36785C27.895 8.95493 28.1166 9.49607 28.3297 10.0166C28.7092 10.9436 29.062 11.8054 29.4488 12.7452Z" fill="#3290FF" stroke="#F5DEA6"/>
<path d="M104.188 19.9605L103.695 20.7302H104.609H110.408H111.423L110.804 19.9254C108.824 17.3491 107.639 14.4207 106.425 11.3527C106.392 11.2695 106.359 11.1862 106.326 11.1028C105.15 8.12807 103.928 5.03507 101.902 2.14689L101.387 1.4128L101.033 2.23664C100.382 3.75165 99.7661 5.20254 99.1692 6.60764C97.8513 9.70977 96.6282 12.5887 95.3387 15.4416C94.525 17.0048 93.6262 18.522 92.6464 19.9868L92.126 20.7648H93.062H97.9958H99.327L98.3249 19.8885C97.781 19.4128 97.4762 18.9796 97.3197 18.5879C97.1655 18.2017 97.1434 17.8257 97.2133 17.4388C97.349 16.687 97.8142 15.9351 98.3611 15.052H103.687C104.265 15.8653 104.658 16.6238 104.793 17.3781C104.934 18.172 104.797 19.0086 104.188 19.9605ZM99.3036 12.8056C99.9589 11.1049 100.404 9.99763 101.159 8.55136C101.206 8.66252 101.252 8.7727 101.298 8.88202C101.864 10.2314 102.376 11.4512 102.941 12.8056H99.3036Z" fill="#3290FF" stroke="#F5DEA6"/>
<path d="M148.313 9.22187L148.313 9.22173C148.8 7.15035 149.497 5.9567 150.629 5.30883C151.763 4.65913 153.445 4.48985 156.083 4.77853L159.444 8.7056L160.413 9.83855L160.323 8.35023C160.193 6.21314 160.106 4.70784 160.028 3.30646L160.006 2.89752L159.6 2.83927C159.074 2.76359 158.601 2.70454 158.163 2.64994C157.314 2.54386 156.599 2.45456 155.884 2.29263C152.919 1.61172 150.397 1.85282 148.396 3.12056C146.398 4.38565 145.012 6.61489 144.193 9.71555L144.193 9.71554L144.192 9.71882C143.729 11.5198 143.937 13.5591 144.6 15.3699C145.263 17.1787 146.401 18.8168 147.863 19.7818L147.863 19.7821C149.111 20.6046 151.078 21.0986 153.059 21.0818C155.042 21.065 157.146 20.535 158.62 19.1885L158.644 19.1665L158.665 19.1415C159.336 18.3456 159.919 17.4803 160.404 16.56L161.137 15.171L159.736 15.8806L153.923 18.8243C151.309 17.9373 149.66 16.7484 148.778 15.2456C147.877 13.7104 147.72 11.7486 148.313 9.22187Z" fill="#3290FF" stroke="#F5DEA6"/>
<path d="M53.7672 2.56605L53.6826 1.94065L53.0931 2.16604C52.8455 2.26072 52.6167 2.3775 52.4396 2.46786C52.3862 2.49516 52.3374 2.52004 52.2943 2.54118C52.1922 2.59119 52.1196 2.62224 52.0624 2.63997C52.0147 2.65473 51.9935 2.65511 51.9892 2.655C51.6128 2.61136 51.2426 2.52417 50.845 2.42C50.757 2.39696 50.667 2.37289 50.5753 2.34835C50.2601 2.26401 49.9241 2.17411 49.5771 2.10117C47.5722 1.65889 45.4776 1.88604 43.614 2.74768C41.7497 3.60967 40.2194 5.05889 39.2577 6.87391L39.2574 6.87442C37.9162 9.41292 37.6031 11.9329 38.3447 14.3133C39.083 16.6831 40.8459 18.8491 43.5324 20.7346L43.6414 20.811L43.774 20.8232C46.0633 21.0333 48.7161 21.0697 50.7889 21.0543C51.827 21.0465 52.7229 21.0258 53.3595 21.0069C53.6778 20.9975 53.9314 20.9885 54.1057 20.9819C54.1929 20.9786 54.2602 20.9759 54.3059 20.974L54.3579 20.9718L54.3713 20.9712L54.3748 20.9711L54.3757 20.971L54.3759 20.971C54.376 20.971 54.3761 20.971 54.3536 20.4715L54.3761 20.971L54.9991 20.943L54.8363 20.341L53.7543 16.3399L53.4447 15.1948L52.8415 16.2155L52.8415 16.2156L52.8414 16.2158L52.8412 16.216L52.8411 16.2163L52.838 16.2214L52.8233 16.2454C52.8097 16.2673 52.7886 16.3007 52.7603 16.3439C52.7036 16.4302 52.6185 16.5551 52.5075 16.7044C52.2845 17.0042 51.9614 17.3963 51.5589 17.7714C50.7379 18.5364 49.6805 19.1472 48.5111 18.9415C47.1394 18.7002 45.9788 18.3457 44.9978 17.7077C44.0474 17.0895 43.2341 16.1844 42.5712 14.7869V14.7831V14.7788V14.7744V14.7701V14.7657V14.7614V14.757V14.7526V14.7482V14.7437V14.7393V14.7348V14.7304V14.7259V14.7214V14.7169V14.7124V14.7078V14.7033V14.6987V14.6941V14.6895V14.6849V14.6803V14.6757V14.6711V14.6664V14.6617V14.657V14.6524V14.6476V14.6429V14.6382V14.6334V14.6287V14.6239V14.6191V14.6143V14.6095V14.6047V14.5998V14.595V14.5901V14.5852V14.5804V14.5755V14.5705V14.5656V14.5607V14.5557V14.5508V14.5458V14.5408V14.5358V14.5308V14.5257V14.5207V14.5156V14.5106V14.5055V14.5004V14.4953V14.4902V14.4851V14.4799V14.4748V14.4696V14.4645V14.4593V14.4541V14.4489V14.4437V14.4384V14.4332V14.4279V14.4227V14.4174V14.4121V14.4068V14.4015V14.3961V14.3908V14.3855V14.3801V14.3747V14.3693V14.3639V14.3585V14.3531V14.3477V14.3422V14.3368V14.3313V14.3259V14.3204V14.3149V14.3094V14.3039V14.2983V14.2928V14.2872V14.2817V14.2761V14.2705V14.2649V14.2593V14.2537V14.2481V14.2424V14.2368V14.2311V14.2255V14.2198V14.2141V14.2084V14.2027V14.1969V14.1912V14.1855V14.1797V14.174V14.1682V14.1624V14.1566V14.1508V14.145V14.1392V14.1333V14.1275V14.1216V14.1157V14.1099V14.104V14.0981V14.0922V14.0863V14.0803V14.0744V14.0685V14.0625V14.0565V14.0506V14.0446V14.0386V14.0326V14.0266V14.0205V14.0145V14.0085V14.0024V13.9964V13.9903V13.9842V13.9781V13.972V13.9659V13.9598V13.9537V13.9475V13.9414V13.9352V13.9291V13.9229V13.9167V13.9105V13.9043V13.8981V13.8919V13.8857V13.8794V13.8732V13.8669V13.8607V13.8544V13.8481V13.8418V13.8355V13.8292V13.8229V13.8166V13.8103V13.8039V13.7976V13.7912V13.7849V13.7785V13.7721V13.7657V13.7593V13.7529V13.7465V13.7401V13.7337V13.7272V13.7208V13.7143V13.7079V13.7014V13.6949V13.6884V13.6819V13.6754V13.6689V13.6624V13.6559V13.6493V13.6428V13.6362V13.6297V13.6231V13.6166V13.61V13.6034V13.5968V13.5902V13.5836V13.577V13.5703V13.5637V13.5571V13.5504V13.5438V13.5371V13.5304V13.5238V13.5171V13.5104V13.5037V13.497V13.4903V13.4836V13.4768V13.4701V13.4634V13.4566V13.4499V13.4431V13.4363V13.4296V13.4228V13.416V13.4092V13.4024V13.3956V13.3888V13.382V13.3751V13.3683V13.3615V13.3546V13.3478V13.3409V13.3341V13.3272V13.3203V13.3134V13.3065V13.2996V13.2927V13.2858V13.2789V13.272V13.2651V13.2581V13.2512V13.2443V13.2373V13.2304V13.2234V13.2164V13.2095V13.2025V13.1955V13.1885V13.1815V13.1745V13.1675V13.1605V13.1535V13.1464V13.1394V13.1324V13.1253V13.1183V13.1112V13.1042V13.0971V13.0901V13.083V13.0759V13.0688V13.0617V13.0546V13.0476V13.0405V13.0333V13.0262V13.0191V13.012V13.0049V12.9977V12.9906V12.9835V12.9763V12.9692V12.962V12.9548V12.9477V12.9405V12.9333V12.9261V12.919V12.9118V12.9046V12.8974V12.8902V12.883V12.8758V12.8686V12.8613V12.8541V12.8469V12.8397V12.8324V12.8252V12.8179V12.8107V12.8034V12.7962V12.7889V12.7817V12.7744V12.7671V12.7598V12.7526V12.7453V12.738V12.7307V12.7234V12.7161V12.7088V12.7015V12.6942V12.6869V12.6796V12.6722V12.6649V12.6576V12.6503V12.6429V12.6356V12.6283V12.6209V12.6136V12.6062V12.5989V12.5915V12.5842V12.5768V12.5694V12.5621V12.5547V12.5473V12.5399V12.5326V12.5252V12.5178V12.5104V12.503V12.4956V12.4882V12.4808V12.4734V12.466V12.4586V12.4512V12.4438V12.4364V12.429V12.4215V12.4141V12.4067V12.3993V12.3918V12.3844V12.377V12.3695V12.3621V12.3547V12.3472V12.3398V12.3323V12.3249V12.3174V12.31V12.3025V12.2951V12.2876V12.2801V12.2727V12.2652V12.2577V12.2503V12.2428V12.2353V12.2279V12.2204V12.2129V12.2054V12.198V12.1905V12.183V12.1755V12.168V12.1605V12.1531V12.1456V12.1381V12.1306V12.1231V12.1156V12.1081V12.1006V12.0931V12.0856V12.0781V12.0706V12.0631V12.0556V12.0481V12.0406V12.0331V12.0256V12.0181V12.0106V12.0031V11.9956V11.9881V11.9805V11.973V11.9655V11.958V11.9505V11.943V11.9355V11.928V11.9204V11.9129V11.9054V11.8979V11.8904V11.8829V11.8754V11.8678V11.8603V11.8528V11.8453V11.8378V11.8303V11.8227V11.8152V11.8077V11.8002V11.7927V11.7852V11.7776V11.7701V11.7626V11.7551V11.7476V11.7401V11.7326V11.725V11.7175V11.71V11.7025V11.695V11.6875V11.68V11.6725V11.665V11.6574V11.6499V11.6424V11.641C42.5973 10.57 42.6526 9.50087 42.7118 8.35688C42.731 7.98638 42.7505 7.60802 42.7697 7.2192C42.8009 6.58396 43.0677 6.13064 43.5025 5.73792C43.9586 5.32592 44.581 4.99673 45.3089 4.62869C46.1103 4.22357 47.3314 4.20484 48.4368 4.32278C48.974 4.38009 49.4561 4.46628 49.804 4.53827C49.9699 4.5726 50.1045 4.60354 50.1991 4.62629C50.2878 4.73729 50.3761 4.84789 50.4644 4.95843C51.4329 6.17069 52.3954 7.3755 53.6848 9.0026L54.8063 10.4178L54.5724 8.62731C54.2694 6.30685 54.0529 4.67883 53.7672 2.56605Z" fill="#3290FF" stroke="#F5DEA6"/>
<path d="M18.5149 15.2787L18.2382 14.4878L17.6735 15.1068L14.9486 18.0942H9.16904C9.01611 13.5495 9.01763 9.38147 9.14402 5.22L11.1752 3.63315L12.3195 2.73914H10.8674H4.44479H3.42353L4.04987 3.54578C4.26898 3.82798 4.52553 4.09204 4.73542 4.30808C4.81524 4.39024 4.88832 4.46546 4.95001 4.53208C5.07303 4.66491 5.15672 4.76759 5.20901 4.85286C5.234 4.89361 5.2473 4.92326 5.25413 4.94328C5.25743 4.95297 5.25899 4.95975 5.25974 4.96393C5.26047 4.96801 5.26048 4.96997 5.26048 4.97028H5.26045L5.26051 4.97596C5.31146 9.45894 5.31239 13.9423 5.31241 18.2733L3.24446 19.8974L2.10713 20.7906H3.55328H16.9177H17.3241L17.4072 20.3928C17.4765 20.0605 17.6122 19.7364 17.7847 19.3846C17.8401 19.2717 17.9023 19.1502 17.9671 19.0238C18.0915 18.781 18.2252 18.5201 18.3369 18.2673C18.6999 17.4456 18.9388 16.4906 18.5149 15.2787Z" fill="#3290FF" stroke="#F5DEA6"/>
<circle cx="164.098" cy="18.7503" r="2.01455" fill="#3290FF" stroke="#F5DEA6"/>
</svg>
