<svg width="46" height="73" viewBox="0 0 46 73" fill="none" xmlns="http://www.w3.org/2000/svg">
<path d="M20.7443 28.3916C20.6413 26.6026 20.9355 24.8129 21.6055 23.1509C21.1001 22.8026 20.97 22.2971 21.1835 21.6789L21.8361 21.3182V12.5348L21.1245 12.1054V10.8394C22.4396 10.81 23.6933 10.7683 24.947 10.7756C25.1458 10.7756 25.342 11.0063 25.5506 11.1387C27.9673 10.0568 29.9277 11.07 30.3987 13.7124C30.572 14.7637 30.516 15.84 30.2344 16.8676C29.8418 18.4084 28.1611 19.8314 26.1689 19.245C25.9529 19.2039 25.7336 19.1834 25.5138 19.1837V19.9197C28.35 19.2892 31.1151 19.0855 33.5735 20.8079C35.9436 22.4664 37.1139 24.9052 37.6365 27.6776C38.1615 27.9107 38.6326 28.156 39.1282 28.3278C41.0272 28.9853 42.2465 30.4083 43.1837 32.062C44.135 33.7849 44.6702 35.7064 44.7466 37.6731C44.8318 39.8386 44.6347 42.0061 44.1602 44.1208C43.4364 47.5924 42.8182 51.0911 41.9521 54.5284C41.1277 57.8063 40.1439 61.0547 39.0496 64.2515C37.975 67.3797 35.7669 69.5977 32.7099 70.844C30.8649 71.5972 28.88 71.688 26.9173 71.3347C25.7941 71.1475 24.6931 70.8449 23.632 70.4318C22.0593 69.7841 20.6315 69.9853 19.1471 70.6772C18.1494 71.1393 17.1091 71.5033 16.041 71.7641C15.2658 71.9513 14.4608 71.9802 13.6741 71.8491C12.8875 71.718 12.1354 71.4295 11.4628 71.001C9.90726 70.0712 8.77625 68.7365 7.81694 67.2669C5.79528 64.1755 4.1613 60.8878 3.18972 57.3107C2.58371 55.0682 1.88196 52.8478 1.40844 50.5783C1.02815 48.748 0.932434 46.8589 0.704261 44.9991C0.502988 43.2528 0.520286 41.4883 0.755774 39.7462C1.07227 37.2167 1.6489 34.7731 3.14552 32.6312C4.88503 30.1507 7.3483 28.816 10.2409 28.2026C12.0842 27.8079 13.9866 27.7754 15.8422 28.107C16.1195 28.156 16.4065 28.1487 16.8236 28.1757C16.2443 27.3078 15.4001 26.6503 14.4168 26.3012C13.5068 25.9273 12.5267 25.7549 11.5437 25.7958C10.6875 25.8424 10.6851 25.7958 9.92695 25.3296C10.0472 24.4636 10.7194 24.071 11.242 23.7398C12.427 24.0219 13.487 24.2673 14.5419 24.5298C15.9451 24.8565 17.2035 25.6317 18.1264 26.7379L19.5201 28.3916H20.7443ZM25.3176 46.8736L24.4441 47.6096C24.0859 49.1946 24.9643 50.1514 25.6709 51.231L26.5958 51.3512C26.9614 49.9551 27.3319 48.6278 28.3133 47.5826C28.4605 47.4256 28.4065 47.0748 28.4507 46.7803C27.2877 46.8834 26.8878 47.8182 26.137 48.6793C26.1812 47.5017 26.4752 47.8133 27.1891 47.087L25.558 48.1886L26.137 47.2465L25.2685 48.0192L25.3176 46.8736ZM37.3101 29.4269L37.3396 29.4686C36.898 27.8273 36.6893 26.073 35.9631 24.5617C34.6603 21.8629 32.4695 20.1013 29.3192 19.9467C28.424 19.921 27.5286 19.9951 26.6497 20.1675C24.2723 20.5895 21.9686 22.28 21.4681 25.1922C21.3994 25.5922 21.2939 25.9872 21.2228 26.3871C21.2116 26.5128 21.2116 26.6392 21.2228 26.7649L21.8925 25.9724C24.346 26.679 25.3274 28.3965 24.6183 30.8328C24.5229 30.5965 24.4011 30.3718 24.2552 30.163C24.0974 30.0345 23.9223 29.9288 23.735 29.8489L24.2257 29.2527L23.632 28.9681L22.6948 29.768C22.5845 29.6101 22.4829 29.4463 22.3905 29.2773C22.3276 29.1288 22.2744 28.9763 22.2311 28.8209C20.8498 30.1237 20.7787 32.9182 21.9686 34.3044C22.3146 34.0591 22.6776 33.8137 23.026 33.5684C23.3155 33.35 23.5904 33.1096 23.8701 32.8765L23.8308 32.8471C24.0246 33.8285 23.0727 34.1965 22.685 34.9031C23.5791 35.3401 24.5629 35.562 25.558 35.5508C26.2941 35.5238 27.0301 35.5508 27.7661 35.5631L27.7416 35.5336C26.9589 35.9703 26.0977 35.8648 25.2685 35.8256C24.4392 35.7863 23.6688 35.6121 22.8297 35.4919C21.5049 36.4095 20.1603 37.332 18.833 38.2815C18.6139 38.4803 18.421 38.7062 18.2589 38.9538L18.3816 39.1869C18.627 39.1869 18.9214 39.2408 19.1177 39.1329C19.5711 38.8601 20.0093 38.5628 20.4303 38.2423L23.3965 36.1544C24.6232 37.7663 26.1959 37.6608 28.0286 37.2633C27.3318 37.862 26.7356 37.7393 26.1836 37.754C25.6316 37.7687 25.0035 37.6976 24.3435 37.6608C24.4465 38.3968 24.5153 39.0298 24.638 39.6604C24.7038 39.8946 24.8231 40.1105 24.9863 40.2909C25.9677 41.5422 27.273 41.763 28.6666 40.9141C29.4026 40.47 30.0724 39.9008 30.8477 39.5622C32.3592 38.9056 33.5643 37.6987 34.2187 36.1863C34.3905 35.8182 34.572 35.4502 34.8591 34.8516C34.9572 36.9517 34.0789 38.3183 32.8399 39.4764L32.9822 39.9793L32.175 40.5657C33.2373 40.5829 34.0225 39.9818 34.9327 39.5205C34.8959 39.7659 34.8689 39.9376 34.8419 40.1118L35.3547 40.2271C34.5916 41.4686 33.1908 41.7483 31.9665 42.6929L34.42 42.423C33.1933 43.5295 31.8267 43.3627 30.6024 43.7111C31.3384 44.0104 32.0745 44.3122 32.8105 44.3465C33.5465 44.3809 34.2653 44.1306 35.2516 43.9613C34.5156 44.7562 33.7257 44.6066 32.8301 44.8446L34.0862 45.1365C32.8742 45.7106 31.7629 45.6051 30.5607 45.4113C31.3752 46.4442 32.4228 46.7436 33.4876 47.0159C33.5759 47.0404 33.6422 47.1557 33.7329 47.2465L33.0975 47.6832L33.6569 48.1886L33.5662 48.3947L30.2367 47.7151C30.4984 48.4412 30.9439 49.0871 31.5297 49.5896C31.7482 49.8191 31.9546 50.0599 32.148 50.3109L32.175 50.279L30.5165 49.8398L31.5469 51.0666L31.4022 51.253L29.832 50.3109C29.9399 50.6617 30.0429 50.993 30.2122 51.5376C29.351 50.9635 29.4344 50.0999 28.8579 49.5331L28.5193 51.5524C27.7612 50.5047 28.6322 49.6509 28.8555 48.6597L28.6101 48.1886C26.927 49.6387 26.8337 51.4689 28.48 52.6417V51.5106C28.9192 52.0013 29.351 52.4724 29.7976 52.941C29.9803 53.1565 30.2095 53.3277 30.4678 53.442C30.7262 53.5563 31.007 53.6107 31.2893 53.601L31.5714 52.9189C33.4361 53.601 34.761 53.6869 36.0221 53.1643L34.3046 52.7717C35.5314 52.2295 36.6796 52.1118 37.5162 51.2481L35.3817 51.4935C35.5407 51.355 35.7105 51.2295 35.8896 51.1181C37.6757 50.3575 38.2866 48.7088 38.9318 47.087C38.9576 46.9322 38.9634 46.7747 38.9491 46.6184C38.9634 46.2673 39.0052 45.9178 39.0742 45.5732C39.2459 44.9034 39.5428 44.2557 39.6458 43.5786C39.8053 42.5211 39.9623 41.4391 39.4839 40.2786C39.0521 40.9632 38.8018 41.6011 38.2571 42.0353C38.6129 40.7816 39.1184 39.6039 39.2558 38.3846C39.5232 36.0464 39.3392 35.5655 38.5197 34.7534C38.2891 35.2858 38.0953 35.8231 37.8303 36.3187C37.585 36.7751 37.5849 37.3983 36.9323 37.6264C37.0058 37.0743 37.1484 36.5335 37.3567 36.017C37.9088 34.5596 38.4313 33.09 38.3037 31.5001C38.2277 30.7126 38.0952 29.9054 37.3101 29.4269ZM26.4608 12.6525H25.5335V17.5227C25.6673 17.5875 25.8105 17.6305 25.9579 17.6503C26.1274 17.6213 26.2924 17.5701 26.4486 17.4981L26.4608 12.6525ZM20.9823 27.8273L22.3415 27.6678V27.5427L21.1736 27.2556C21.1172 27.4421 21.0779 27.5746 20.9896 27.8273H20.9823Z" fill="#3290FF"/>
<path d="M12.2847 39.0544L10.9524 38.7649C10.9083 38.4778 10.8764 38.2447 10.8421 38.0116L10.2262 38.5269L8.62905 37.8718C9.00198 36.861 9.45099 36.0292 10.4324 35.5704L11.8186 36.3065C11.4653 36.9174 11.1341 37.489 10.8004 38.0583L12.2283 36.7702M8.58485 38.2374L9.99559 38.7722C10.0594 39.1991 10.1159 39.5868 10.1821 40.0382L10.7145 39.02L12.0958 39.4347C11.9829 40.1854 11.875 40.8847 11.7572 41.6575H10.3146L9.9563 40.9656L9.66687 41.6624M20.7443 28.3916C20.6413 26.6026 20.9355 24.8129 21.6055 23.1509C21.1001 22.8026 20.97 22.2971 21.1835 21.6789L21.8361 21.3182V12.5348L21.1245 12.1054V10.8394C22.4396 10.81 23.6933 10.7683 24.947 10.7756C25.1458 10.7756 25.342 11.0063 25.5506 11.1387C27.9673 10.0568 29.9277 11.07 30.3987 13.7124C30.572 14.7637 30.516 15.84 30.2344 16.8676C29.8418 18.4084 28.1611 19.8314 26.1689 19.245C25.9529 19.2039 25.7336 19.1834 25.5138 19.1837V19.9197C28.35 19.2892 31.1151 19.0855 33.5735 20.8079C35.9436 22.4664 37.1139 24.9052 37.6365 27.6776C38.1615 27.9107 38.6326 28.156 39.1282 28.3278C41.0272 28.9853 42.2465 30.4083 43.1837 32.062C44.135 33.7849 44.6702 35.7064 44.7466 37.6731C44.8318 39.8386 44.6347 42.0061 44.1602 44.1208C43.4364 47.5924 42.8182 51.0911 41.9521 54.5284C41.1277 57.8063 40.1439 61.0547 39.0496 64.2515C37.975 67.3797 35.7669 69.5977 32.7099 70.844C30.8649 71.5972 28.88 71.688 26.9173 71.3347C25.7941 71.1475 24.6932 70.8449 23.632 70.4318C22.0593 69.7841 20.6315 69.9853 19.1471 70.6772C18.1494 71.1393 17.1091 71.5033 16.041 71.7641C15.2658 71.9513 14.4608 71.9802 13.6741 71.8491C12.8875 71.718 12.1354 71.4295 11.4628 71.001C9.90726 70.0712 8.77625 68.7365 7.81694 67.2669C5.79528 64.1755 4.1613 60.8878 3.18972 57.3107C2.58371 55.0682 1.88196 52.8478 1.40844 50.5783C1.02815 48.748 0.932434 46.8589 0.704261 44.9991C0.502988 43.2528 0.520286 41.4883 0.755774 39.7462C1.07227 37.2167 1.6489 34.7731 3.14552 32.6312C4.88503 30.1507 7.3483 28.816 10.2409 28.2026C12.0842 27.8079 13.9866 27.7754 15.8422 28.107C16.1195 28.156 16.4065 28.1487 16.8236 28.1757C16.2443 27.3078 15.4001 26.6503 14.4168 26.3012C13.5068 25.9273 12.5267 25.7549 11.5437 25.7958C10.6875 25.8424 10.6851 25.7958 9.92695 25.3296C10.0472 24.4636 10.7194 24.071 11.242 23.7398C12.427 24.0219 13.487 24.2673 14.5419 24.5298C15.9451 24.8565 17.2035 25.6317 18.1264 26.7379L19.5201 28.3916H20.7443ZM25.3176 46.8736L24.4441 47.6096C24.0859 49.1946 24.9643 50.1514 25.6709 51.231L26.5958 51.3512C26.9614 49.9551 27.3319 48.6278 28.3133 47.5826C28.4605 47.4256 28.4065 47.0748 28.4507 46.7803C27.2877 46.8834 26.8878 47.8182 26.137 48.6793C26.1812 47.5017 26.4752 47.8133 27.1891 47.087L25.558 48.1886L26.137 47.2465L25.2685 48.0192L25.3176 46.8736ZM37.3101 29.4269L37.3396 29.4686C36.898 27.8273 36.6893 26.073 35.9631 24.5617C34.6603 21.8629 32.4695 20.1013 29.3192 19.9467C28.424 19.921 27.5286 19.9951 26.6497 20.1675C24.2723 20.5895 21.9686 22.28 21.4681 25.1922C21.3994 25.5922 21.2939 25.9872 21.2228 26.3871C21.2116 26.5128 21.2116 26.6392 21.2228 26.7649L21.8925 25.9724C24.346 26.679 25.3274 28.3965 24.6183 30.8328C24.5229 30.5965 24.4011 30.3718 24.2552 30.163C24.0974 30.0345 23.9223 29.9288 23.735 29.8489L24.2257 29.2527L23.632 28.9681L22.6948 29.768C22.5845 29.6101 22.4829 29.4463 22.3905 29.2773C22.3276 29.1288 22.2744 28.9763 22.2311 28.8209C20.8498 30.1237 20.7787 32.9182 21.9686 34.3044C22.3146 34.0591 22.6776 33.8137 23.026 33.5684C23.3155 33.35 23.5904 33.1096 23.8701 32.8765L23.8308 32.8471C24.0246 33.8285 23.0727 34.1965 22.685 34.9031C23.5791 35.3401 24.5629 35.562 25.558 35.5508C26.2941 35.5238 27.0301 35.5508 27.7661 35.5631L27.7416 35.5336C26.9589 35.9703 26.0977 35.8648 25.2685 35.8256C24.4392 35.7863 23.6688 35.6121 22.8297 35.4919C21.5049 36.4095 20.1603 37.332 18.833 38.2815C18.6139 38.4803 18.421 38.7062 18.2589 38.9538L18.3816 39.1869C18.627 39.1869 18.9214 39.2408 19.1177 39.1329C19.5711 38.8601 20.0093 38.5628 20.4303 38.2423L23.3965 36.1544C24.6232 37.7663 26.1959 37.6608 28.0286 37.2633C27.3318 37.862 26.7356 37.7393 26.1836 37.754C25.6316 37.7687 25.0035 37.6976 24.3435 37.6608C24.4465 38.3968 24.5153 39.0298 24.638 39.6604C24.7038 39.8946 24.8231 40.1105 24.9863 40.2909C25.9677 41.5422 27.273 41.763 28.6666 40.9141C29.4026 40.47 30.0724 39.9008 30.8477 39.5622C32.3592 38.9056 33.5643 37.6987 34.2187 36.1863C34.3905 35.8182 34.572 35.4502 34.8591 34.8516C34.9572 36.9517 34.0789 38.3183 32.8399 39.4764L32.9822 39.9793L32.175 40.5657C33.2373 40.5829 34.0225 39.9818 34.9327 39.5205C34.8959 39.7659 34.8689 39.9376 34.8419 40.1118L35.3547 40.2271C34.5916 41.4686 33.1908 41.7483 31.9665 42.6929L34.42 42.423C33.1933 43.5295 31.8267 43.3627 30.6024 43.7111C31.3384 44.0104 32.0745 44.3122 32.8105 44.3465C33.5465 44.3809 34.2653 44.1306 35.2516 43.9613C34.5156 44.7562 33.7257 44.6066 32.8301 44.8446L34.0862 45.1365C32.8742 45.7106 31.7629 45.6051 30.5607 45.4113C31.3752 46.4442 32.4228 46.7436 33.4876 47.0159C33.5759 47.0404 33.6422 47.1557 33.7329 47.2465L33.0975 47.6832L33.6569 48.1886L33.5662 48.3947L30.2367 47.7151C30.4984 48.4412 30.9439 49.0871 31.5297 49.5896C31.7482 49.8191 31.9546 50.0599 32.148 50.3109L32.175 50.279L30.5165 49.8398L31.5469 51.0666L31.4022 51.253L29.832 50.3109C29.9399 50.6617 30.0429 50.993 30.2122 51.5376C29.351 50.9635 29.4344 50.0999 28.8579 49.5331L28.5193 51.5524C27.7612 50.5047 28.6322 49.6509 28.8555 48.6597L28.6101 48.1886C26.927 49.6387 26.8337 51.4689 28.48 52.6417V51.5106C28.9192 52.0013 29.351 52.4724 29.7976 52.941C29.9803 53.1565 30.2095 53.3277 30.4678 53.442C30.7262 53.5563 31.007 53.6107 31.2893 53.601L31.5714 52.9189C33.4361 53.601 34.761 53.6869 36.0221 53.1643L34.3046 52.7717C35.5314 52.2295 36.6796 52.1118 37.5162 51.2481L35.3817 51.4935C35.5407 51.355 35.7105 51.2295 35.8896 51.1181C37.6757 50.3575 38.2866 48.7088 38.9318 47.087C38.9576 46.9322 38.9634 46.7747 38.9491 46.6184C38.9634 46.2673 39.0052 45.9178 39.0742 45.5732C39.2459 44.9034 39.5428 44.2557 39.6458 43.5786C39.8053 42.5211 39.9623 41.4391 39.4839 40.2786C39.0521 40.9632 38.8018 41.6011 38.2571 42.0353C38.6129 40.7816 39.1184 39.6039 39.2558 38.3846C39.5232 36.0464 39.3392 35.5655 38.5197 34.7534C38.2891 35.2858 38.0953 35.8231 37.8303 36.3187C37.585 36.7751 37.5849 37.3983 36.9323 37.6264C37.0058 37.0743 37.1484 36.5335 37.3567 36.017C37.9088 34.5596 38.4313 33.09 38.3037 31.5001C38.2277 30.7126 38.0952 29.9054 37.3101 29.4269ZM26.4608 12.6525H25.5335V17.5227C25.6673 17.5875 25.8105 17.6305 25.9579 17.6503C26.1274 17.6213 26.2924 17.5701 26.4486 17.4981L26.4608 12.6525ZM20.9823 27.8273L22.3415 27.6678V27.5427L21.1736 27.2556C21.1172 27.4421 21.0779 27.5746 20.9896 27.8273H20.9823Z" stroke="#F5DEA6" stroke-linejoin="round"/>
<mask id="mask0_12_237140" style="mask-type:alpha" maskUnits="userSpaceOnUse" x="18" y="19" width="23" height="36">
<path d="M21.3191 23.1034C22.1321 21.9335 24.7931 19.5224 28.9333 19.2368L30.1631 19.3405L33.7316 20.6323L36.4131 23.1034L37.9627 27.656C39.0027 31.2028 40.83 39.5257 39.8198 44.4437C38.557 50.5912 36.8374 53.5509 33.7316 54.127C31.247 54.5879 27.854 52.6826 26.4681 51.6724C25.9756 51.3552 24.7585 50.6906 23.8294 50.5704C22.6703 50.4204 22.6111 48.8233 22.586 48.1448L22.5858 48.1408C22.5608 47.4646 22.8614 46.4786 23.8294 46.2373C24.6038 46.0442 24.9263 46.3177 24.9907 46.4786C25.8133 46.5787 27.7534 46.7188 28.9333 46.4786C30.4081 46.1784 29.7995 43.7765 29.7995 40.5265C29.2692 40.8397 28.0585 41.482 27.4584 41.5451C26.7082 41.6241 25.8396 41.4859 24.9907 40.8739C24.1419 40.262 23.8294 39.294 23.8294 38.2962C23.8294 37.4979 23.3859 36.8549 23.1642 36.6332L18.8102 39.6568L18.0543 38.659L22.2269 35.5749C22.2269 35.5749 21.0779 33.8515 20.6546 32.763C20.3159 31.8922 20.5135 29.82 20.6546 28.8927L20.0699 26.2561L21.3191 23.1034Z" fill="black"/>
</mask>
<g mask="url(#mask0_12_237140)">
<rect x="18.0543" y="17.4266" width="26.2924" height="40.7885" fill="#03001B" stroke="#F5DEA6" stroke-linejoin="round"/>
<path d="M20.7443 28.3915C20.6414 26.6025 20.9355 24.8129 21.6055 23.1509C21.1001 22.8025 20.97 22.2971 21.1835 21.6788L21.8361 21.3182V12.5347L21.1245 12.1054V10.8394C22.4396 10.8099 23.6934 10.7682 24.9471 10.7756C25.1458 10.7756 25.3421 11.0062 25.5506 11.1387C27.9673 10.0567 29.9277 11.07 30.3987 13.7124C30.5721 14.7637 30.516 15.84 30.2344 16.8676C29.8418 18.4084 28.1611 19.8314 26.1689 19.245C25.953 19.2039 25.7337 19.1834 25.5138 19.1837V19.9197C28.3501 19.2892 31.1151 19.0855 33.5735 20.8079C35.9436 22.4664 37.1139 24.9052 37.6365 27.6776C38.1615 27.9107 38.6326 28.156 39.1282 28.3277C41.0272 28.9853 42.2465 30.4083 43.1838 32.0619C44.135 33.7849 44.6702 35.7064 44.7467 37.673C44.8319 39.8386 44.6347 42.0061 44.1602 44.1208C43.4365 47.5924 42.8182 51.0911 41.9521 54.5284C41.1278 57.8062 40.1439 61.0546 39.0496 64.2515C37.975 67.3797 35.7669 69.5976 32.7099 70.844C30.8649 71.5972 28.8801 71.688 26.9173 71.3347C25.7941 71.1474 24.6932 70.8449 23.632 70.4318C22.0594 69.7841 20.6315 69.9853 19.1472 70.6772C18.1495 71.1393 17.1092 71.5033 16.041 71.764C15.2658 71.9512 14.4608 71.9802 13.6742 71.849C12.8875 71.7179 12.1354 71.4295 11.4628 71.001C9.9073 70.0712 8.77628 68.7365 7.81697 67.2668C5.79531 64.1754 4.16133 60.8878 3.18975 57.3106C2.58374 55.0682 1.88199 52.8478 1.40847 50.5783C1.02818 48.748 0.932465 46.8588 0.704292 44.9991C0.503019 43.2528 0.520317 41.4882 0.755805 39.7462C1.0723 37.2167 1.64893 34.773 3.14555 32.6311C4.88506 30.1507 7.34833 28.816 10.241 28.2026C12.0842 27.8079 13.9866 27.7754 15.8423 28.1069C16.1195 28.156 16.4066 28.1486 16.8237 28.1756C16.2444 27.3077 15.4001 26.6502 14.4168 26.3012C13.5068 25.9273 12.5267 25.7548 11.5438 25.7958C10.6875 25.8424 10.6851 25.7958 9.92698 25.3296C10.0472 24.4635 10.7194 24.071 11.242 23.7397C12.427 24.0219 13.487 24.2672 14.542 24.5298C15.9451 24.8564 17.2035 25.6316 18.1265 26.7379L19.5201 28.3915H20.7443ZM10.8421 38.0116C10.8765 38.2447 10.9083 38.4778 10.9525 38.7648L12.2847 39.0543L13.482 37.4228L12.2283 36.7701L10.8004 38.0582C11.1341 37.489 11.4653 36.9174 11.8186 36.3064L10.4324 35.5704C9.45102 36.0292 9.00201 36.8609 8.62908 37.8718L10.2262 38.5268L10.8421 38.0116ZM25.3176 46.8736L24.4442 47.6096C24.086 49.1945 24.9643 50.1514 25.6709 51.2309L26.5959 51.3511C26.9614 49.9551 27.3319 48.6278 28.3133 47.5826C28.4605 47.4256 28.4065 47.0747 28.4507 46.7803C27.2878 46.8834 26.8878 47.8181 26.137 48.6793C26.1812 47.5016 26.9516 47.0747 27.6655 46.3485L25.7666 46.8809L25.3176 46.8736ZM37.3102 29.4269L37.3396 29.4686C36.898 27.8272 36.6894 26.073 35.9632 24.5617C34.6604 21.8628 32.4695 20.1012 29.3192 19.9467C28.424 19.921 27.5286 19.995 26.6498 20.1675C24.2724 20.5895 21.9686 22.2799 21.4681 25.1922C21.3994 25.5921 21.2939 25.9871 21.2228 26.387C21.2116 26.5127 21.2116 26.6392 21.2228 26.7649L21.8926 25.9724C24.346 26.679 25.3274 28.3964 24.6184 30.8327C24.523 30.5965 24.4011 30.3718 24.2552 30.1629C24.0974 30.0345 23.9223 29.9287 23.7351 29.8489L24.2258 29.2527L23.632 28.9681L22.6949 29.7679C22.5845 29.6101 22.4829 29.4463 22.3906 29.2772C22.3276 29.1287 22.2744 28.9763 22.2311 28.8209C20.8498 30.1237 20.7787 32.9182 21.9686 34.3044C22.3146 34.0591 22.6776 33.8137 23.026 33.5684C23.3155 33.35 23.5904 33.1096 23.8701 32.8765L23.8308 32.847C24.0246 33.8284 23.0727 34.1965 22.685 34.9031C23.5791 35.3401 24.563 35.5619 25.5581 35.5508C26.2941 35.5238 27.0301 35.5508 27.7662 35.563L27.7416 35.5336C26.959 35.9703 26.0978 35.8648 25.2685 35.8256C24.4392 35.7863 23.6688 35.6121 22.8298 35.4919C21.5049 36.4095 20.1604 37.332 18.833 38.2815C18.6139 38.4803 18.421 38.7062 18.259 38.9537L18.3816 39.1868C18.627 39.1868 18.9214 39.2408 19.1177 39.1328C19.5711 38.8601 20.0093 38.5628 20.4303 38.2422L23.3965 36.1543C24.6233 37.7663 26.1959 37.6608 28.0287 37.2633C27.3319 37.8619 26.7357 37.7393 26.1836 37.754C25.6316 37.7687 25.0035 37.6976 24.3435 37.6608C24.4466 38.3968 24.5153 39.0298 24.638 39.6603C24.7039 39.8946 24.8231 40.1104 24.9864 40.2909C25.9678 41.5422 27.273 41.763 28.6666 40.9141C29.4026 40.47 30.0725 39.9008 30.8478 39.5622C32.3592 38.9055 33.5643 37.6986 34.2188 36.1862C34.3905 35.8182 34.572 35.4502 34.8591 34.8515C34.9572 36.9517 34.0789 38.3183 32.8399 39.4763L32.9822 39.9793L32.175 40.5657C33.2374 40.5828 34.0225 39.9817 34.9328 39.5205C34.896 39.7658 34.8689 39.9376 34.842 40.1118L35.3547 40.2271C34.5917 41.4685 33.1908 41.7482 31.9666 42.6928L34.42 42.423C33.1933 43.5295 31.8267 43.3626 30.6024 43.711C31.3384 44.0104 32.0745 44.3121 32.8105 44.3465C33.5466 44.3808 34.2654 44.1306 35.2517 43.9613C34.5156 44.7562 33.7257 44.6065 32.8302 44.8445L34.0863 45.1365C32.8742 45.7106 31.7629 45.6051 30.5607 45.4113C31.3753 46.4442 32.4228 46.7435 33.4876 47.0159C33.576 47.0404 33.6422 47.1557 33.733 47.2465L33.0976 47.6832L33.6569 48.1886L33.5662 48.3947L30.2368 47.7151C30.4984 48.4412 30.9439 49.087 31.5298 49.5896C31.7482 49.8191 31.9546 50.0599 32.148 50.3109L32.175 50.279L30.5165 49.8398L31.5469 51.0665L31.4022 51.253L29.832 50.3109C29.9399 50.6617 30.0429 50.9929 30.2122 51.5376C29.3511 50.9635 29.4345 50.0999 28.8579 49.5331L28.5194 51.5523C27.7612 50.5047 28.6322 49.6509 28.8555 48.6597L28.6102 48.1886C26.9271 49.6386 26.8338 51.4689 28.4801 52.6417V51.5106C28.9192 52.0013 29.3511 52.4724 29.7976 52.941C29.9803 53.1564 30.2095 53.3277 30.4679 53.442C30.7262 53.5563 31.007 53.6107 31.2893 53.601L31.5715 52.9189C33.4361 53.601 34.761 53.6869 36.0221 53.1643L34.3047 52.7717C35.5314 52.2295 36.6796 52.1117 37.5162 51.2481L35.3818 51.4934C35.5408 51.355 35.7106 51.2295 35.8896 51.1181C37.6757 50.3575 38.2866 48.7088 38.9319 47.087C38.9576 46.9322 38.9635 46.7747 38.9491 46.6184C38.9634 46.2673 39.0052 45.9178 39.0742 45.5732C39.2459 44.9034 39.5428 44.2557 39.6459 43.5785C39.8054 42.5211 39.9623 41.4391 39.4839 40.2786C39.0521 40.9631 38.8018 41.601 38.2572 42.0353C38.6129 40.7816 39.1184 39.6039 39.2558 38.3845C39.5232 36.0464 39.3392 35.5655 38.5198 34.7534C38.2891 35.2858 38.0953 35.8231 37.8303 36.3187C37.585 36.7751 37.5849 37.3982 36.9323 37.6264C37.0058 37.0742 37.1484 36.5335 37.3568 36.0169C37.9088 34.5596 38.4314 33.0899 38.3038 31.5001C38.2277 30.7125 38.0953 29.9053 37.3102 29.4269ZM10.7145 39.02L10.1822 40.0382C10.1159 39.5867 10.0594 39.1991 9.99562 38.7722L8.58488 38.2373C7.99359 39.3291 8.04268 40.3596 8.18008 41.5397L9.6669 41.6624L9.95633 40.9656L10.3146 41.6575H11.7573C11.875 40.8846 11.983 40.1854 12.0958 39.4346L10.7145 39.02ZM26.4609 12.6525H25.5335V17.5226C25.6673 17.5874 25.8106 17.6305 25.9579 17.6502C26.1275 17.6212 26.2924 17.5701 26.4486 17.4981L26.4609 12.6525ZM20.9823 27.8272L22.3416 27.6678V27.5426L21.1737 27.2556C21.1172 27.442 21.078 27.5745 20.9897 27.8272H20.9823Z" fill="#F5DEA6" stroke="#F5DEA6" stroke-linejoin="round"/>
<path d="M31.1448 40.7933C32.2204 39.833 34.5329 37.2208 35.1783 34.455L37.5408 31.4587C37.9058 32.8992 39.1567 36.6832 39.285 38.0602C39.7957 43.5387 39.285 44.0959 38.2899 47.1317C37.4193 49.7877 35.1783 53.0091 32.8735 53.2972C30.5687 53.5853 31.1448 52.8362 29.2433 51.6838C27.3419 50.5313 24.115 50.589 23.8845 50.128C23.6541 49.667 23.4853 47.4198 24.753 47.1317C26.0206 46.8436 29.0128 47.224 31.1448 46.4173C33.2768 45.6106 34.4868 44.3659 34.4868 43.9049C34.4868 43.5361 32.1628 44.1279 31.1448 44.2816V40.7933Z" fill="#03001B"/>
</g>
<path d="M26.8534 1.02551H29.9841C30.0896 3.43973 29.9841 5.79506 30.0429 8.24608C30.2564 8.62392 30.8747 9.00666 30.3398 9.71817C30.1263 9.74761 29.8491 9.79178 29.5768 9.82122C28.4139 9.94144 27.251 9.63475 26.0684 9.92426C25.6587 10.0249 25.0869 9.62494 24.6404 9.37223C24.373 9.22257 24.1963 8.91098 23.9043 8.59202C22.1869 10.1451 20.3763 10.4591 18.4896 8.91589C16.3845 10.28 15.6189 10.2653 14.1321 8.73678C14.061 9.10971 13.9998 9.42375 13.9335 9.7746H9.45592C9.42403 9.34279 9.39701 8.99194 9.37003 8.63864L10.0595 8.11605V2.86316C9.662 2.56629 9.19831 2.24243 9.58351 1.51375C9.78667 1.45836 9.99437 1.42141 10.2042 1.40335C11.6763 1.38863 13.1484 1.38617 14.6204 1.38372C14.7431 1.38372 14.8658 1.38372 14.9885 1.40089C15.8349 1.48677 16.6298 1.6904 16.9316 2.61045C17.2334 3.53051 17.0812 4.38186 16.3403 5.06393C16.2736 5.10993 16.2105 5.16077 16.1513 5.21604C16.0991 5.30317 16.0556 5.39521 16.0214 5.49084C17.2898 5.83923 17.1328 7.09786 17.4934 8.04981L17.7584 8.01055C17.8118 7.7816 17.8519 7.54978 17.8786 7.31622C17.9129 6.71512 17.8148 6.08948 17.9694 5.52028C18.3448 4.16351 19.3826 3.42746 20.7639 3.38575C22.3587 3.33914 23.0064 3.7685 23.6443 5.29456C23.6737 5.36816 23.7179 5.43441 23.7547 5.50556C24.1988 4.902 24.5275 4.13161 25.1114 3.74641C25.6586 3.38575 26.4731 3.43482 27.2582 3.28762C27.2778 2.96376 27.4398 2.55157 26.9541 2.21054C26.5321 1.93084 26.6424 1.51621 26.8534 1.02551ZM22.95 7.64989L23.843 8.00319C23.7547 7.64499 23.6909 7.39228 23.637 7.16901H20.6486C20.7369 7.59592 20.8007 7.91977 20.8571 8.20192C21.971 8.38593 21.9711 8.38593 22.95 7.64989ZM26.9884 8.2559C27.3834 6.94084 27.3294 5.49819 26.9074 4.8652C26.8829 6.00852 26.3358 7.14203 26.9884 8.26572V8.2559ZM13.249 5.90302C13.2882 6.77646 13.3201 7.52231 13.352 8.21664C13.4316 8.24682 13.5137 8.26981 13.5974 8.28534C13.6797 8.27994 13.7617 8.26929 13.8427 8.25344C14.1543 6.76419 14.0978 6.51148 13.2661 5.91284L13.249 5.90302ZM13.3815 2.77238C13.2114 3.37837 13.2424 4.02316 13.4698 4.61003C14.1003 4.36469 14.3236 3.97458 14.2058 3.43727C14.1469 3.05208 14.0021 2.64726 13.3912 2.7822L13.3815 2.77238ZM20.7787 5.8515C21.3871 5.34118 21.4361 5.0443 21.0068 4.74252C20.9626 4.71063 20.8645 4.74252 20.7001 4.7646C20.7295 5.05166 20.7517 5.3289 20.7885 5.86131L20.7787 5.8515Z" fill="#3290FF" stroke="#F5DEA6" stroke-linejoin="round"/>
<path d="M12.7607 12.5568L12.0566 12.1446V10.9179C13.5826 10.7683 15.067 10.464 16.6249 11.0676C16.7569 11.0378 16.8864 10.9984 17.0126 10.9498C18.3007 10.3757 19.4219 10.5867 20.315 11.573C21.8042 13.2168 21.868 16.5241 20.4548 18.1679C19.9101 18.8009 19.2527 19.2573 18.34 19.1984C17.7781 19.1616 17.2089 19.1984 16.5416 19.1984V21.3893L17.0789 21.7402V22.9448C15.3811 23.2368 13.7887 22.7559 12.1228 22.886C12.0786 22.4541 12.0468 22.1499 12.0149 21.8162L12.7509 21.3673L12.7607 12.5568ZM16.4409 12.6869C16.4409 14.2644 16.4409 15.7292 16.4409 17.1939C16.4409 17.5644 16.598 17.8244 17.1893 17.7631C17.7144 16.1512 17.4616 14.4656 17.3488 12.7899C17.3488 12.7286 17.2482 12.6721 17.1451 12.5617L16.4409 12.6869Z" fill="#3290FF" stroke="#F5DEA6" stroke-linejoin="round"/>
<path d="M4.18832 16.9731L4.94401 17.5619V19.034C3.65839 19.1984 2.41689 19.1199 1.0405 19.0732C1.00369 18.4991 0.971818 17.9962 0.937469 17.4564L2.07831 17.108C3.2339 13.813 4.39194 10.5131 5.57451 7.14691H7.947C9.12712 10.4297 10.3073 13.7173 11.5267 17.1154L12.5081 17.4122V18.904C11.4163 19.2082 7.3386 19.1763 6.47252 18.8451L6.40376 17.6478L7.1398 17.1056C6.97787 16.3303 6.40379 16.4627 5.94744 16.5118C5.37578 16.5584 4.64712 16.1315 4.18832 16.9731ZM6.50439 14.5368C6.13146 13.8547 6.14861 13.2144 5.55978 12.758C5.33651 13.4229 4.98321 13.9259 5.06908 14.6202L6.50439 14.5368Z" fill="#3290FF" stroke="#F5DEA6" stroke-linejoin="round"/>
<path d="M35.6271 17.1866C35.5265 16.4652 35.3671 15.7464 35.3352 15.0201C35.2149 12.3213 37.6218 10.1843 40.5341 10.5671C42.1435 10.7805 43.5738 12.5519 43.7063 14.4411C43.7057 14.7733 43.6852 15.1051 43.645 15.4348C42.8942 15.4348 42.173 15.4667 41.4639 15.4348C40.7549 15.4029 40.0237 15.344 39.1355 15.2851C39.2189 15.9107 39.2876 16.4137 39.3661 17.0025L40.6591 17.6674L42.6931 16.4088L43.8413 17.3607C43.5183 17.7357 43.1751 18.0928 42.8133 18.4305C42.3153 18.8328 41.7408 19.1299 41.1247 19.3038C40.5085 19.4777 39.8635 19.5248 39.2286 19.4423C38.5937 19.3597 37.9823 19.1492 37.4312 18.8235C36.88 18.4977 36.4006 18.0635 36.0221 17.5472C35.8921 17.3981 35.7475 17.2625 35.5903 17.1424L35.6271 17.1866ZM40.1586 13.8817C40.3573 12.4342 40.3451 12.4096 39.5698 12.0907C39.0644 12.947 39.0644 12.947 39.2999 13.8302C39.406 13.8714 39.5163 13.901 39.6287 13.9185C39.8059 13.9163 39.9828 13.904 40.1586 13.8817Z" fill="#3290FF" stroke="#F5DEA6" stroke-linejoin="round"/>
<path d="M35.5927 17.1498V18.6905C34.3659 19.0046 31.4954 18.9702 30.5115 18.6317V17.427L31.174 16.951V8.05474L30.4846 7.61557V6.16066C31.9377 6.05268 33.3957 6.02729 34.8517 6.0846V17.0197L35.6295 17.1866L35.5927 17.1498Z" fill="#3290FF" stroke="#F5DEA6" stroke-linejoin="round"/>
<path d="M27.9722 28.9117C27.7588 29.5275 27.2877 29.6477 26.6523 29.5594C26.5279 29.2007 26.516 28.8126 26.6182 28.4469C26.7203 28.0813 26.9317 27.7555 27.224 27.5132C28.5268 26.2865 29.2063 26.0411 31.3458 26.2865L31.6451 27.4519C30.0381 27.5574 28.4163 27.2679 27.1969 28.7645L27.9968 28.9485L27.9722 28.9117Z" fill="#F5DEA6"/>
<path d="M30.7491 35.5753C30.8497 35.3339 30.9503 35.0925 31.1055 34.7132H30.1858L30.2146 34.7476L30.4444 34.3281L27.0964 31.9887V31.2214C27.9586 31.7531 28.7431 32.3709 29.6254 32.7359C30.5076 33.1009 31.4158 33.1727 32.3786 33.3883C31.959 34.0895 31.5997 34.7304 31.1945 35.3454C31.1198 35.4604 30.8727 35.4661 30.706 35.5236L30.7491 35.5753Z" fill="#F5DEA6"/>
<path d="M37.3102 29.4269C37.2586 29.871 37.212 30.3151 37.1556 30.7567C36.9299 32.5944 35.87 33.6322 33.9661 33.9879C34.1771 33.4334 34.6433 33.2887 35.0186 33.0507C36.2454 32.2705 36.7361 31.1394 36.4907 29.5079L35.3547 29.4097L35.3867 29.4392C35.6909 28.7301 36.2527 28.8798 36.7851 29.0564C36.9961 29.1629 37.1891 29.302 37.3568 29.4686L37.3102 29.4269Z" fill="#F5DEA6"/>
<path d="M37.3837 48.5051C37.0918 50.0655 35.6663 50.5121 33.4582 49.8644C34.9597 49.8006 36.2061 49.619 37.3837 48.5051Z" fill="#F5DEA6"/>
<path d="M35.5682 47.5679L37.5555 45.6787C37.3936 46.5767 36.5741 47.0993 35.5682 47.5679Z" fill="#F5DEA6"/>
<path d="M27.9869 28.946C28.6543 28.4553 29.3265 28.6173 30.1043 28.946L29.0174 29.7312L27.9722 28.9142L27.9869 28.946Z" fill="#F5DEA6"/>
<path d="M23.8652 32.8888L23.5437 32.3367L24.2674 31.0438C24.7581 31.586 24.0222 31.9614 24.1767 32.4005L24.6968 32.6459C24.633 32.7416 24.5963 32.8495 24.5497 32.8544C24.3043 32.8716 24.0589 32.8544 23.8259 32.8667L23.8652 32.8888Z" fill="#F5DEA6"/>
<path d="M27.7563 35.5753L29.9939 34.8565L29.9694 34.827C29.6691 35.0993 29.3141 35.3042 28.9282 35.4282C28.5423 35.5522 28.1344 35.5923 27.7318 35.5459L27.7563 35.5753Z" fill="#F5DEA6"/>
<path d="M26.0242 33.1071C26.3284 32.5453 26.5493 32.4128 27.0964 32.7489L26.0242 33.1071Z" fill="#F5DEA6"/>
<path d="M30.9434 30.1016L30.5165 29.6943L30.6392 29.5251L31.1299 29.8489L30.9434 30.1016Z" fill="#F5DEA6"/>
</svg>
