<svg width="152" height="61" viewBox="0 0 152 61" fill="none" xmlns="http://www.w3.org/2000/svg">
<path d="M0.62763 7.64327C3.93039 7.49401 7.23327 7.34487 10.5363 7.19587C12.6041 7.10405 14.6726 7.02239 16.7404 6.93095C19.953 6.78847 23.1655 6.64363 26.3779 6.49646C28.3679 6.40776 30.3579 6.32531 32.3479 6.2374C35.0661 6.11705 37.7843 5.9954 40.5026 5.87245C42.4143 5.78727 44.3263 5.70327 46.2385 5.62043C49.0479 5.49618 51.8572 5.37153 54.6663 5.24649C56.6171 5.16001 58.5682 5.07483 60.5195 4.99096C63.2776 4.86931 66.0348 4.74648 68.791 4.62249C70.69 4.53809 72.589 4.45447 74.4879 4.37164C77.3101 4.24712 80.1325 4.12209 82.9552 3.99653C84.8799 3.91135 86.8048 3.82708 88.7298 3.74373C91.5132 3.62052 94.2965 3.49678 97.0798 3.37253C98.9655 3.28891 100.851 3.20582 102.738 3.12324C105.573 2.99794 108.408 2.87239 111.244 2.74657C113.143 2.66243 115.042 2.57907 116.941 2.4965C119.75 2.37225 122.559 2.2476 125.368 2.12257C127.333 2.03608 129.297 1.95064 131.261 1.86624C134.005 1.74459 136.749 1.62217 139.493 1.49896C141.379 1.41508 143.265 1.33185 145.151 1.24928C146.816 1.1753 148.48 1.10158 150.145 1.02812C150.286 1.02226 150.427 1.02812 150.563 1.02812C150.571 1.04254 150.578 1.05788 150.584 1.07384C150.586 1.08601 150.584 1.09861 150.578 1.10939C150.488 1.22036 150.401 1.33367 150.307 1.44035C133.276 20.714 116.243 39.9891 99.209 59.2656C99.1938 59.2484 99.1807 59.2296 99.1699 59.2094C99.1671 59.1976 99.1685 59.1851 99.1738 59.1742C99.1843 59.1508 99.198 59.1289 99.2105 59.1062C99.2172 59.0949 99.223 59.0832 99.2305 59.0726C99.2449 59.0507 99.2605 59.03 99.2754 59.0085L132.668 10.0936C132.675 10.083 132.683 10.0721 132.69 10.0611C132.697 10.0504 132.704 10.0394 132.71 10.0279C132.716 10.0164 132.721 10.004 132.723 9.99119C132.723 9.95971 132.721 9.92827 132.717 9.89703C127.85 9.81028 122.977 9.82982 118.104 9.77629C113.22 9.72276 108.338 9.70596 103.456 9.67314C98.5732 9.64031 93.6906 9.61023 88.808 9.57389C83.9254 9.53755 79.0431 9.493 74.1605 9.45667C69.2651 9.42072 64.3694 9.3879 59.4735 9.3582C54.5909 9.32538 49.7083 9.29152 44.8256 9.25661C39.943 9.2217 35.0604 9.18263 30.1778 9.13939C25.2951 9.1037 20.4125 9.07127 15.5299 9.0421C10.6488 9.00849 5.76736 8.97177 0.843706 8.93582C0.821434 8.75608 0.808931 8.59236 0.778845 8.43177C0.734691 8.19303 0.677645 7.95664 0.626068 7.71946L0.62763 7.64327Z" fill="#3290FF" stroke="#F5DEA6"/>
<path d="M10.2858 31.6016C10.512 31.586 10.6922 31.5625 10.8719 31.5625C12.7735 31.5555 14.6751 31.5503 16.5766 31.5469C17.0713 31.5449 17.566 31.5391 18.0614 31.5254C18.5043 31.5153 18.9406 31.4154 19.3438 31.2319C19.5314 31.1456 19.7443 31.1077 19.9198 31.0038C20.7098 30.5349 21.1435 29.8335 21.2518 28.9231C21.3026 28.4933 21.0904 28.1733 20.8196 27.8869C20.5488 27.6005 20.1944 27.4324 19.8318 27.282C19.1617 27.0042 18.499 26.7088 17.8321 26.4224C17.6535 26.3466 17.4609 26.2993 17.2913 26.2086C16.7443 25.9164 16.1683 25.6616 15.6744 25.2936C15.2946 25.0122 14.8617 24.7157 14.7538 24.1823C14.7477 24.1435 14.7329 24.1067 14.7105 24.0745C14.3483 23.6087 14.3365 23.0316 14.2115 22.4924C14.1185 22.0911 14.1599 21.6929 14.2963 21.3026C14.3446 21.1542 14.3799 21.0019 14.4018 20.8474C14.5241 20.0983 14.9488 19.4798 15.2774 18.8222C15.5623 18.2505 15.9667 17.7563 16.3633 17.2675C16.6946 16.8591 17.128 16.5329 17.5191 16.1734C17.6242 16.0769 17.7535 16.0042 17.8504 15.9022C18.1419 15.5975 18.4994 15.3943 18.8687 15.2052C19.0071 15.1338 19.1414 15.0549 19.2711 14.9688C19.6974 14.6874 20.164 14.5081 20.6481 14.3475C21.151 14.1806 21.6269 13.936 22.1595 13.8548C22.5689 13.7923 22.9862 13.7465 23.3801 13.627C23.9936 13.4406 24.6184 13.5187 25.2369 13.4707C25.3275 13.4636 25.4287 13.4773 25.5069 13.4422C25.916 13.2566 26.3462 13.3038 26.7736 13.3046C34.3776 13.3179 41.9815 13.3309 49.5852 13.3437H50.0634C50.2099 13.5297 50.1775 13.693 50.1213 13.8563C49.7504 14.9359 49.3765 16.0148 49.008 17.0955C48.9299 17.3268 48.8709 17.5644 48.7924 17.8379C46.9782 17.9161 45.1706 17.8575 43.3408 17.9223C43.1845 18.3811 43.0317 18.8331 42.8719 19.2833C42.6488 19.919 42.4183 20.5528 42.1964 21.1889C42.0256 21.6792 41.8646 22.1735 41.6958 22.6643C41.4086 23.4981 41.1226 24.3319 40.8276 25.165C40.7237 25.458 40.583 25.7386 40.4795 26.0317C40.29 26.5685 40.118 27.1112 39.9344 27.6501C39.6417 28.5097 39.3944 29.3861 39.0388 30.2176C38.5555 31.3394 38.2593 32.5272 37.7955 33.6572C37.5298 34.3043 37.3321 34.9795 37.1031 35.6422C37.0844 35.6809 37.0634 35.7185 37.0402 35.7547C35.0709 35.8524 33.077 35.8418 31.0338 35.7488C31.1729 35.2987 31.2843 34.9045 31.4164 34.5172C31.5875 34.0148 31.7786 33.5193 31.9544 33.0184C32.2166 32.2713 32.4737 31.5223 32.732 30.774C33.0281 29.9144 33.32 29.0548 33.6193 28.1994C33.9225 27.3301 34.232 26.463 34.5399 25.5952C34.8349 24.7653 35.1006 23.9232 35.4347 23.1089C35.7805 22.2661 36.0399 21.3971 36.3334 20.5375C36.5538 19.8885 36.8054 19.2481 37.0426 18.6069C37.2743 17.977 37.2094 17.8731 36.5377 17.8747C32.6968 17.8844 28.8559 17.8778 25.0153 17.929C24.1557 17.9407 23.2805 18.0638 22.4595 18.3744C21.8344 18.6088 21.3307 19.0101 20.9767 19.5833C20.8438 19.799 20.6227 19.9881 20.7087 20.2828C20.7461 20.415 20.8038 20.5406 20.8798 20.6551C21.1893 21.1064 21.6769 21.3194 22.1501 21.523C22.8534 21.8266 23.5692 22.0969 24.2894 22.3556C24.9145 22.5799 25.5483 22.7854 26.1082 23.1437C26.6619 23.5001 27.1769 23.8744 27.5024 24.509C27.7704 25.0314 27.8618 25.5479 27.9021 26.1078C27.9802 27.2054 27.8431 28.2772 27.4027 29.2759C27.0597 30.0539 26.6951 30.8283 26.1414 31.5055C25.8035 31.9189 25.4491 32.3108 25.0825 32.696C24.2378 33.5818 23.1996 34.198 22.1446 34.7814C21.8066 34.9678 21.4135 35.051 21.0623 35.2171C20.4086 35.5257 19.6912 35.5953 19.0047 35.7742C18.5104 35.9028 17.995 35.9915 17.4671 35.9856C16.9635 35.9802 16.459 36.0599 15.9542 36.0946C15.7588 36.1079 15.5658 36.1044 15.3716 36.1032C13.3658 36.0884 11.3608 36.0722 9.35662 36.0548C9.1679 36.0548 8.97956 36.0231 8.73145 36.0013C9.25933 34.5079 9.7665 33.0719 10.2858 31.6016Z" fill="#3290FF" stroke="#F5DEA6"/>
<path d="M82.8383 24.6551C82.8817 24.7645 82.8989 24.8552 82.9481 24.9235C83.0982 25.133 83.2607 25.3346 83.417 25.5378C83.7429 25.9527 83.8859 26.429 83.8859 26.9507C83.8942 29.7358 83.9011 32.521 83.9066 35.3062C83.9066 35.3843 83.8925 35.4585 83.8796 35.5871C81.9029 35.7004 79.9332 35.6781 77.9112 35.5953C77.9018 35.4511 77.8858 35.3144 77.8842 35.178C77.86 33.0568 77.8377 30.9356 77.8174 28.8145C77.8168 28.4755 77.7124 28.1448 77.5181 27.8669C77.3297 27.5903 77.0457 27.4555 76.7401 27.3895C76.3852 27.3132 76.0249 27.2645 75.6625 27.2437C75.2354 27.2195 74.8056 27.2383 74.3418 27.2383C74.2609 27.4371 74.1773 27.6235 74.1073 27.815C73.8396 28.56 73.5749 29.3062 73.3134 30.0535C73.1254 30.5912 72.9465 31.1319 72.7585 31.6696C72.5022 32.4046 72.2389 33.1372 71.9837 33.8729C71.8391 34.2899 71.7067 34.7107 71.5641 35.1288C71.5144 35.2753 71.4515 35.4171 71.3835 35.5894C69.3889 35.6897 67.3905 35.6897 65.3959 35.5894C65.4053 35.2565 65.5346 34.9869 65.6303 34.7111C65.9403 33.8163 66.2541 32.9229 66.5716 32.031C66.7885 31.4199 67.0132 30.8115 67.232 30.2012C67.525 29.385 67.8153 28.5675 68.1088 27.7517C68.2573 27.3387 68.4132 26.9284 68.5616 26.5154C68.8594 25.687 69.1536 24.8575 69.451 24.0291C69.617 23.5673 69.7889 23.1074 69.9523 22.6444C70.2922 21.6816 70.6236 20.7157 70.9682 19.7529C71.3589 18.6647 71.7582 17.5812 72.149 16.4942C72.4034 15.7874 72.646 15.0766 72.8992 14.3694C73.0254 14.0177 73.1645 13.6711 73.304 13.305H73.7459C76.467 13.3167 79.1882 13.3289 81.9096 13.3414C82.3909 13.3437 82.8735 13.3414 83.3553 13.3668C84.0684 13.4015 84.7971 13.3781 85.4895 13.5231C86.5835 13.7485 87.6706 14.0556 88.3856 15.0313C88.5224 15.2177 88.6591 15.4169 88.7373 15.6311C88.9279 16.1535 89.0569 16.6837 89.0717 17.2558C89.0913 18.0048 88.9084 18.7046 88.6556 19.3802C88.4294 19.9839 88.0726 20.5379 87.796 21.124C87.6486 21.4258 87.4446 21.6964 87.195 21.9211C86.9801 22.1231 86.8105 22.3732 86.6214 22.6022C86.5718 22.6624 86.5335 22.7382 86.4718 22.7804C86.0568 23.064 85.6079 23.3055 85.2257 23.6267C84.5806 24.169 83.78 24.3003 83.0247 24.5645C82.9774 24.5797 82.9333 24.6086 82.8383 24.6551ZM76.0395 22.5881C76.1806 22.608 76.3271 22.6456 76.474 22.6463C77.2555 22.6506 78.037 22.6209 78.8138 22.6518C79.4362 22.6768 79.9934 22.4807 80.5295 22.2267C81.3703 21.8277 81.9752 21.1944 82.2401 20.2789C82.312 20.0311 82.3573 19.774 82.4386 19.5302C82.5988 19.0586 82.3894 18.6581 82.0889 18.3826C81.8271 18.1427 81.4325 17.9919 81.073 17.927C80.526 17.8305 79.9574 17.8903 79.4131 17.7356C79.3872 17.7322 79.3609 17.7322 79.335 17.7356C78.9611 17.7356 78.5871 17.7328 78.2136 17.7375C78.0471 17.7399 77.8815 17.7575 77.7361 17.7668C77.4591 18.2443 76.0579 22.2036 76.0391 22.5869L76.0395 22.5881Z" fill="#3290FF" stroke="#F5DEA6"/>
<path d="M102.084 23.8584C102.273 24.3515 102.451 24.8086 102.624 25.2681C102.921 26.0566 103.21 26.8479 103.509 27.6344C103.866 28.5667 104.235 29.4935 104.593 30.4254C104.783 30.9213 104.957 31.4242 105.145 31.9208C105.351 32.4678 105.571 33.0063 105.777 33.5517C106.007 34.1585 106.228 34.7681 106.45 35.378C106.466 35.4226 106.452 35.478 106.452 35.5253C106.004 35.6906 100.276 35.725 99.1347 35.5667C98.069 32.3726 96.9993 29.1664 95.9256 25.948C95.7333 26.0105 95.6841 26.1547 95.6317 26.3063C95.3324 27.1777 95.0295 28.048 94.7229 28.9172C94.4376 29.7247 94.149 30.5312 93.857 31.3366C93.5386 32.2135 93.2111 33.0867 92.8942 33.9636C92.7446 34.3785 92.6106 34.7989 92.4695 35.2166C92.4304 35.3378 92.3875 35.4585 92.3425 35.5906C90.3739 35.6914 88.4014 35.6894 86.433 35.5847C86.5589 35.194 86.6675 34.8513 86.7792 34.5098C86.891 34.1683 87.002 33.8166 87.1262 33.4751C87.2634 33.0981 87.4263 32.7304 87.5584 32.3522C87.7467 31.8137 87.91 31.2667 88.0976 30.7271C88.2457 30.2973 88.4102 29.8765 88.5665 29.4506C88.6598 29.1954 88.7501 28.9391 88.84 28.6824C89.2389 27.543 89.6418 26.4052 90.0345 25.2638C90.3931 24.2221 90.7343 23.175 91.0945 22.1344C91.302 21.5343 91.5372 20.9439 91.7502 20.3453C91.9065 19.9057 92.0428 19.4587 92.1956 19.0168C92.4918 18.1599 92.7618 17.2917 93.1013 16.452C93.476 15.5248 93.7742 14.5764 94.084 13.6266C94.12 13.5402 94.1608 13.4559 94.2063 13.3742C96.1659 13.3144 98.1367 13.3175 100.165 13.3742C100.138 13.5695 100.144 13.7137 100.099 13.8372C99.7438 14.814 99.3715 15.7819 99.0194 16.7583C98.7338 17.5511 98.4786 18.3545 98.193 19.1473C97.9558 19.8045 97.6792 20.4472 97.4506 21.1072C97.3435 21.417 97.1177 21.7042 97.2044 22.1008C97.2826 22.0668 97.3564 22.0528 97.4033 22.009C98.3223 21.1494 99.2397 20.2868 100.155 19.4212C100.437 19.1566 100.702 18.8835 101.035 18.6624C101.383 18.4279 101.638 18.0595 101.949 17.766C102.288 17.4464 102.649 17.1502 102.992 16.8353C103.344 16.5114 103.704 16.1906 104.033 15.8428C104.312 15.5555 104.61 15.2871 104.925 15.0395C105.346 14.6984 105.715 14.292 106.105 13.9122C106.217 13.8032 106.322 13.6883 106.432 13.5773C106.623 13.3843 106.834 13.3112 107.125 13.3132C108.946 13.3265 110.768 13.3054 112.589 13.3011C112.88 13.3011 113.172 13.3277 113.551 13.346C113.432 13.5297 113.374 13.6551 113.284 13.7504C113.025 14.0239 112.787 14.3365 112.479 14.5428C111.886 14.9379 111.474 15.5248 110.916 15.9389C110.442 16.2906 110.08 16.7595 109.61 17.0936C109.032 17.5046 108.611 18.0798 108.053 18.4936C107.516 18.8917 107.109 19.4235 106.581 19.8158C106.13 20.1503 105.775 20.5856 105.342 20.9247C104.755 21.3834 104.287 21.9688 103.696 22.406C103.119 22.8366 102.668 23.3883 102.084 23.8584Z" fill="#3290FF" stroke="#F5DEA6"/>
<path d="M63.5895 35.5883C61.5928 35.6894 59.5924 35.6903 57.5956 35.591C57.4784 34.0789 57.5433 32.5866 57.4909 31.0643C57.3311 31.0503 57.2057 31.0303 57.0799 31.0296C54.7112 31.0142 52.3425 31.0012 49.9736 30.9905C49.3832 30.9877 49.3808 30.9948 49.0475 31.4703C48.4987 32.2536 47.9516 33.0383 47.4064 33.8245C47.0446 34.3446 46.6847 34.8662 46.3214 35.3855C46.2288 35.5172 46.1123 35.6019 45.9345 35.6086C43.9828 35.6817 42.0315 35.693 40.0805 35.5918C40.0494 35.5848 40.0188 35.5759 39.9887 35.5652C40.1091 35.3632 40.1974 35.1491 40.3423 34.9846C40.71 34.5673 40.9995 34.0949 41.3281 33.6502C41.6888 33.1622 42.0506 32.6734 42.4089 32.185C42.8512 31.5801 43.2885 30.9713 43.732 30.3677C44.168 29.7733 44.6123 29.1845 45.0476 28.5894C45.3527 28.1725 45.6462 27.7474 45.9494 27.3293C46.2897 26.8604 46.6363 26.3943 46.9766 25.9246C47.2501 25.5499 47.5104 25.1677 47.7858 24.7958C48.2211 24.2073 48.6685 23.6279 49.1018 23.0375C49.4074 22.6225 49.6922 22.1923 49.997 21.7766C50.5014 21.0877 51.0184 20.409 51.5209 19.7193C51.819 19.3114 52.0925 18.8855 52.3906 18.478C52.6501 18.1228 52.9318 17.784 53.1963 17.4324C53.2889 17.3093 53.3491 17.162 53.4413 17.0389C53.7496 16.6267 54.0689 16.2226 54.3791 15.8104C54.51 15.635 54.6202 15.4439 54.7472 15.2657C55.1356 14.7187 55.5372 14.1818 55.9143 13.6278C56.0807 13.3832 56.2957 13.2945 56.5723 13.2972C58.5635 13.3162 60.5547 13.3358 62.5459 13.3558C62.7518 13.3582 62.9573 13.3816 63.198 13.3976C63.221 13.5836 63.2566 13.7469 63.2593 13.9107C63.2757 14.9121 63.2859 15.914 63.2953 16.9158C63.3051 18.0099 63.3058 19.1016 63.3238 20.1941C63.3281 20.4641 63.393 20.7329 63.4137 21.0033C63.4363 21.3002 63.45 21.5988 63.4528 21.8969C63.4559 23.7052 63.4801 25.5139 63.4387 27.3215C63.4262 27.8626 63.5895 28.3683 63.5868 28.9008C63.5778 30.7353 63.5899 32.5698 63.5938 34.4039C63.5903 34.7779 63.5895 35.1549 63.5895 35.5883ZM57.7996 18.6382C57.5077 18.7781 57.4151 19.0176 57.2827 19.2051C57.0224 19.5728 56.8138 19.9757 56.5602 20.3496C55.9018 21.3264 55.2274 22.2908 54.5674 23.2668C53.9813 24.1354 53.4058 25.0118 52.8287 25.8847C52.6688 26.1274 52.5204 26.3771 52.3336 26.6768H57.7996V18.6382Z" fill="#3290FF" stroke="#F5DEA6"/>
<path d="M95.6169 39.0494C95.6169 39.2198 95.6517 39.3721 95.6106 39.5003C95.418 40.106 95.2047 40.7046 94.9855 41.345C93.244 41.4192 91.5028 41.3657 89.7367 41.4274C89.3987 42.2011 89.1815 43.0072 88.8998 43.859C90.5198 43.9297 92.0882 43.8468 93.6831 43.9762C93.6628 44.4181 93.5061 44.7784 93.3428 45.146C93.1865 45.4977 93.0834 45.8771 92.9443 46.2792C91.2875 46.3964 89.623 46.346 87.9753 46.3847C87.7522 46.7445 87.1626 48.4775 87.1602 48.7928C87.2384 48.8076 87.3243 48.8373 87.4087 48.8373C91.0014 48.8399 94.5943 48.8399 98.1875 48.8373C98.7346 48.8373 99.3961 48.3087 99.5817 47.7659C99.6489 47.5706 99.7544 47.3904 99.6489 47.1701C99.5563 46.9774 99.4563 46.8137 99.2437 46.725C98.5853 46.4515 97.9121 46.2018 97.2842 45.8681C96.7703 45.5946 96.2976 45.2703 96.0264 44.674C95.7443 44.0532 95.7814 43.4378 95.7986 42.8052C95.8 42.7144 95.8235 42.6254 95.867 42.5457C96.1041 42.1444 96.2968 41.7005 96.6059 41.3618C97.2463 40.6585 97.8464 39.877 98.8459 39.6234C98.9466 39.5961 99.0429 39.5547 99.132 39.5003C99.8486 39.0756 100.644 39.0224 101.45 38.9275C102.839 38.7638 104.227 38.8017 105.617 38.8032C105.847 38.8032 106.076 38.8298 106.298 38.8423C106.334 39.192 106.06 40.12 105.601 41.261C105.39 41.4173 105.135 41.3848 104.893 41.3868C103.591 41.3985 102.289 41.3985 100.988 41.4114C100.312 41.418 99.6352 41.9639 99.4461 42.6555L99.6594 43.0341C100.086 43.249 100.499 43.4678 100.921 43.6655C101.12 43.7612 101.33 43.8322 101.546 43.8769C102.002 43.9656 102.334 44.2653 102.69 44.5174C103.5 45.091 103.6 45.9013 103.419 46.8043C103.26 47.5983 102.829 48.2633 102.442 48.9506C102.409 49.0054 102.367 49.0539 102.316 49.0936C102.087 49.2835 101.82 49.4402 101.631 49.6629C101.22 50.1467 100.677 50.4112 100.123 50.666C99.8068 50.8113 99.4832 50.9418 99.1577 51.0661C98.6244 51.27 98.0637 51.2775 97.5034 51.2771C92.8823 51.2745 88.261 51.2728 83.6397 51.272H82.9168C82.9168 51.1438 82.8946 51.0512 82.9203 50.975C83.0911 50.4718 83.272 49.972 83.4502 49.4711C83.7581 48.6044 84.0601 47.7358 84.3747 46.8715C84.6759 46.0432 84.9924 45.2203 85.2984 44.3935C85.6724 43.3838 86.0439 42.3731 86.4127 41.3614C86.6909 40.5944 86.9598 39.8234 87.2333 39.0494C87.7123 38.9197 95.0433 38.9083 95.6169 39.0494Z" fill="#3290FF" stroke="#F5DEA6"/>
<path d="M62.2071 51.2399C61.2115 51.3747 59.2535 51.3298 58.8987 51.1669C59.1207 50.5077 59.3391 49.8442 59.5673 49.1843C59.851 48.3637 60.1417 47.5432 60.4324 46.7227C60.5797 46.3065 60.7352 45.8939 60.8833 45.4782C61.0353 45.0484 61.1818 44.6185 61.3326 44.1887C61.5944 43.4436 61.8597 42.6993 62.1176 41.9526C62.1532 41.8502 62.1539 41.7361 62.1801 41.5681H61.6687C59.3763 41.5681 57.0849 41.5681 54.7944 41.5681C54.07 41.5681 53.5187 41.8572 53.1788 42.5117C53.1432 42.5809 53.1073 42.6496 53.0756 42.7106C53.0791 42.9415 53.1928 43.0622 53.3831 43.1717C54.0595 43.5659 54.7898 43.8222 55.5157 44.1047C56.1144 44.3392 56.6364 44.6815 56.9306 45.307C57.185 45.8478 57.165 46.3944 57.0478 46.9442C56.8958 47.6632 56.5571 48.302 56.146 48.9108C55.9967 49.1315 55.8662 49.3312 55.6142 49.45C55.4814 49.5125 55.372 49.6454 55.2778 49.7677C54.9757 50.1584 54.567 50.4089 54.1447 50.6359C53.8241 50.8073 53.4939 50.9599 53.1557 51.093C52.636 51.2978 52.1007 51.4396 51.5349 51.4627C51.1477 51.4783 50.7617 51.5369 50.3748 51.5713C50.1795 51.5889 49.9841 51.6037 49.7887 51.6041C48.877 51.6075 47.9653 51.6075 47.0536 51.6041C46.8488 51.6041 46.6445 51.5748 46.4284 51.5584C46.4186 51.4509 46.3874 51.3677 46.4089 51.3013C46.6504 50.564 46.8996 49.8294 47.1513 49.0839C47.3955 49.0682 47.6014 49.0448 47.8073 49.0448C49.0577 49.0284 50.3074 49.0146 51.5564 49.0034C52.0187 48.9987 52.4364 48.9213 52.7884 48.5587C52.9787 48.3673 53.2471 48.2582 53.2862 47.9507C53.3214 47.6733 53.2839 47.4084 53.1377 47.1634C53.1119 47.1204 53.1033 47.0669 53.0658 46.9571C52.6059 46.7531 52.1128 46.5273 51.6139 46.3147C51.0301 46.0658 50.4288 45.8521 49.9888 45.359C49.7782 45.1245 49.6465 44.8534 49.5273 44.5584C49.219 43.7941 49.432 43.122 49.8075 42.4609C49.9165 42.2694 50.0587 42.0874 50.1232 41.8814C50.2885 41.3551 50.7054 41.0441 51.0547 40.6631C51.3507 40.3373 51.7134 40.0793 52.1183 39.9067C52.604 39.6961 53.0725 39.4331 53.5742 39.2741C53.9895 39.1424 54.4408 39.0943 54.8792 39.0689C55.8401 39.0131 56.8032 38.9681 57.7652 38.967C61.4627 38.9619 65.1603 38.9755 68.8578 38.9841C69.0492 38.9841 69.2407 39.0033 69.4888 39.0166C69.2497 39.8762 68.9942 40.6835 68.6491 41.5118L65.6159 41.5767C65.0544 43.2017 64.505 44.8198 63.9357 46.4288C63.3664 48.0379 62.7811 49.6422 62.2071 51.2399Z" fill="#3290FF" stroke="#F5DEA6"/>
<path d="M20.3605 51.2618C18.9488 51.3302 17.5863 51.3212 16.1726 51.2642C15.7495 48.74 15.329 46.2342 14.909 43.7281L14.8308 43.7078C14.7593 43.8512 14.6745 43.9891 14.6195 44.1376C14.3116 44.9925 14.0081 45.849 13.709 46.707C13.4047 47.5756 13.1073 48.4466 12.801 49.3144C12.6025 49.8767 12.3919 50.4347 12.1914 50.9965C12.1328 51.1606 12.0351 51.272 11.8554 51.27C10.9176 51.2672 9.98129 51.2607 9.04639 51.2505C9.01123 51.2505 8.97684 51.22 8.9155 51.1915C9.04092 50.8008 9.15931 50.41 9.29334 50.0232C9.42462 49.6434 9.57115 49.2695 9.71103 48.8928C10.04 48.0055 10.3733 47.1193 10.6973 46.23C10.9594 45.5106 11.2052 44.7842 11.4686 44.0661C11.7186 43.385 11.9914 42.7122 12.2383 42.0299C12.5829 41.0793 12.9131 40.1235 13.2507 39.1701C13.2675 39.1221 13.2949 39.0779 13.3374 38.9908C14.6742 38.9318 16.0218 38.9248 17.3667 38.9908C17.4175 39.0877 17.4734 39.1518 17.4839 39.2252C17.5965 39.9157 17.7004 40.6073 17.8098 41.2961C17.8264 41.3852 17.8488 41.473 17.877 41.5591C17.8989 41.6341 17.9532 41.7084 17.9493 41.7803C17.9286 42.1499 18.0517 42.4926 18.1185 42.847C18.2052 43.3053 18.2486 43.7718 18.3185 44.2337C18.4057 44.8108 18.4928 45.3887 18.5964 45.9631C18.6448 46.2138 18.7321 46.4554 18.855 46.6793C19.0918 46.0487 19.3329 45.4196 19.5642 44.7874C19.7955 44.1551 20.021 43.5206 20.2433 42.8853C20.4703 42.2359 20.6856 41.5825 20.9158 40.9343C21.1408 40.2998 21.3776 39.6695 21.6238 38.9978C22.6334 38.9197 23.6478 38.9244 24.6567 39.0119C23.9627 41.1309 23.2016 43.1396 22.4963 45.1668C21.793 47.1833 21.0834 49.1984 20.3605 51.2618Z" fill="#3290FF" stroke="#F5DEA6"/>
<path d="M22.1552 51.2216C22.3627 50.5753 22.5459 49.9669 22.7534 49.3683C23.0312 48.5736 23.3395 47.789 23.6185 46.9954C23.9249 46.1279 24.2105 45.2535 24.5153 44.3857C24.6438 44.0191 24.8091 43.6651 24.9384 43.299C25.1244 42.7735 25.285 42.239 25.4698 41.7134C25.7824 40.821 26.1067 39.9321 26.4377 39.0091C26.5795 38.997 26.7315 38.9732 26.8839 38.9732C28.3023 38.9732 29.7202 38.9658 31.1382 38.9802C31.6852 38.9861 32.2284 39.0349 32.7727 39.0756C33.6549 39.1412 34.4853 39.4046 35.2187 39.8879C35.6688 40.1845 36.0439 40.5768 36.2021 41.1468C36.3674 41.7357 36.5628 42.3155 36.487 42.9341C36.4315 43.3944 36.3362 43.85 36.2463 44.3056C36.09 45.0995 35.7559 45.8337 35.4476 46.5749C35.3591 46.7746 35.2482 46.9637 35.1171 47.1384C34.7994 47.5764 34.6044 48.1019 34.1641 48.4536C34.0664 48.5317 34.0117 48.6615 33.9246 48.756C33.8132 48.8768 33.6901 48.9905 33.569 49.0987C33.4908 49.1671 33.3978 49.2159 33.3252 49.2886C32.5437 50.0626 31.5891 50.535 30.565 50.9059C29.7445 51.2036 28.902 51.3013 28.0381 51.2966C26.2407 51.2872 24.4473 51.2841 22.6514 51.2739C22.4889 51.2724 22.3267 51.2403 22.1552 51.2216ZM28.9931 41.5763C28.103 44.0582 27.1957 46.503 26.3404 48.9842C27.2461 49.1151 28.0733 48.9178 28.9067 48.8111C28.9449 48.802 28.9812 48.7866 29.0142 48.7654C29.4049 48.565 29.7988 48.368 30.1864 48.1605C30.3915 48.0508 30.6021 47.9421 30.783 47.7991C31.3405 47.3538 31.8042 46.8026 32.1475 46.1772C32.4386 45.655 32.6427 45.0888 32.7516 44.5009C32.9344 43.5315 32.8801 42.6395 32.0068 41.9799C31.7314 41.772 31.4285 41.6005 31.0925 41.5853C30.4169 41.5548 29.7406 41.5767 28.9939 41.5767L28.9931 41.5763Z" fill="#3290FF" stroke="#F5DEA6"/>
<path d="M76.4029 51.1579C76.0047 51.3365 73.7209 51.3697 73.0977 51.2095C73.0836 51.0184 73.0586 50.8144 73.0555 50.6101C73.0398 49.686 73.034 48.7619 73.0164 47.8382C73.0059 47.2419 72.6257 46.8403 72.0286 46.7992C71.7942 46.7832 71.5597 46.7957 71.3253 46.8016C71.1045 46.8067 70.9627 46.9215 70.8916 47.1302C70.7083 47.671 70.5278 48.2129 70.3367 48.751C70.0464 49.568 69.7479 50.3823 69.4525 51.1974C68.9379 51.3634 66.504 51.3482 66.1113 51.163L70.4004 39.0084C70.5317 38.9978 70.6712 38.9767 70.8103 38.9767C72.542 38.9752 74.2743 38.9763 76.0071 38.9802C76.2001 38.9802 76.3931 39.0275 76.5862 39.0529C76.6756 39.0642 76.7706 39.1006 76.8534 39.0826C77.2477 38.9962 77.6247 39.1111 77.9475 39.278C78.2941 39.4585 78.5766 39.7625 78.8852 40.0126C78.9911 40.5158 79.3807 40.9593 79.1365 41.5392C79.0193 41.8127 79.0552 42.1491 78.9681 42.441C78.8384 42.8766 78.6492 43.2893 78.2991 43.6073C78.1957 43.705 78.1092 43.8192 78.0432 43.9453C77.9502 44.1312 77.7979 44.2809 77.6103 44.3704C77.4028 44.4705 77.2266 44.6334 77.0242 44.749C76.7897 44.8835 76.5416 44.9933 76.3025 45.1195C76.1575 45.1976 76.018 45.2836 75.8336 45.3899C76.365 45.7923 76.4232 46.3151 76.4138 46.8856C76.3924 48.1863 76.4033 49.4879 76.4013 50.789L76.4029 51.1579ZM72.9961 41.438C72.8398 41.8795 72.7081 42.3284 72.5241 42.7543C72.2678 43.3475 72.1111 43.8203 72.14 44.1575C72.56 44.1614 72.9855 44.1762 73.411 44.1668C74.466 44.1426 75.1694 43.6468 75.5452 42.6821C75.7547 42.1424 75.4229 41.6165 74.8466 41.5548C74.5645 41.5247 74.2863 41.4618 74.0054 41.4223C73.6724 41.3754 73.338 41.3243 72.9961 41.438Z" fill="#3290FF" stroke="#F5DEA6"/>
<path d="M39.0545 39.0342C39.6406 38.908 41.9893 38.9201 42.3246 39.0475C42.4 39.3124 42.2554 39.5484 42.1757 39.784C41.9557 40.4346 41.7068 41.0762 41.4689 41.7205C41.1977 42.4504 40.9191 43.1771 40.6526 43.9086C40.3728 44.6772 40.1056 45.4493 39.8297 46.2202C39.8135 46.2832 39.7909 46.3443 39.7621 46.4027C39.4042 46.9763 39.5167 47.6139 39.5441 48.2262C39.5668 48.7436 40.1345 49.1823 40.6444 49.1519C40.7468 49.146 40.8503 49.1659 40.9535 49.1675C41.5005 49.1757 41.9647 48.9788 42.3546 48.6002C42.4476 48.5103 42.5336 48.4122 42.6313 48.3266C43.1099 47.9128 43.3346 47.3361 43.5831 46.786C43.8316 46.2358 44.0149 45.6481 44.2204 45.0753C44.533 44.2083 44.8456 43.342 45.1433 42.4707C45.4504 41.572 45.7412 40.6698 46.0389 39.7691C46.1206 39.523 46.2026 39.2768 46.296 38.9967C46.396 38.9728 46.5054 38.9236 46.6141 38.9248C47.4737 38.933 48.3333 38.949 49.1929 38.9674C49.3164 38.9701 49.4395 39.0002 49.5696 39.0182C49.5766 39.1096 49.5965 39.1647 49.5821 39.208C49.3543 39.8977 49.1257 40.587 48.8897 41.2735C48.4591 42.5259 48.0259 43.777 47.5901 45.0269C47.3295 45.7744 47.1009 46.5359 46.7864 47.2599C46.5309 47.8548 46.1991 48.414 45.7994 48.9233C45.3145 49.5391 44.728 50.0216 44.1231 50.4741C43.6105 50.8582 42.9986 51.1204 42.3597 51.2751C42.0702 51.3455 41.7701 51.3845 41.4919 51.4849C41.125 51.6174 40.7495 51.6076 40.3752 51.6158C39.8938 51.626 39.412 51.6448 38.9295 51.6432C38.7758 51.6399 38.624 51.6095 38.4809 51.5533C38.3121 51.4896 38.1652 51.34 37.9956 51.3134C37.5045 51.2353 37.1645 50.9008 36.791 50.6394C36.4561 50.405 36.2775 50.0213 36.1775 49.6235C36.0919 49.2847 36.0466 48.9362 35.9857 48.5919C35.974 48.5417 35.9724 48.4896 35.981 48.4388C36.0693 48.0652 36.1619 47.6929 36.2545 47.3201C36.2689 47.2838 36.2797 47.2461 36.2865 47.2076C36.3123 46.5547 36.6546 45.9963 36.8414 45.393C37.0711 44.6506 37.3786 43.9344 37.6346 43.2002C37.8221 42.6614 37.9702 42.1085 38.155 41.5681C38.3477 41.0043 38.5657 40.4486 38.7677 39.8879C38.8681 39.6109 38.9568 39.3268 39.0545 39.0342Z" fill="#3290FF" stroke="#F5DEA6"/>
<path d="M3.80701 51.1997C3.92423 50.8246 4.01996 50.4651 4.1446 50.1158C4.47516 49.189 4.81627 48.2657 5.15621 47.3416C5.52741 46.3317 5.9007 45.3224 6.27606 44.3138C6.58474 43.4878 6.90124 42.6656 7.21383 41.84C7.29197 41.6341 7.34824 41.4204 7.4217 41.2125C7.67568 40.4932 7.93278 39.775 8.20317 39.0158C8.3195 38.995 8.43691 38.9808 8.55483 38.9732C9.42617 38.9537 10.2975 38.9341 11.1688 38.9251C11.4553 38.9216 11.5408 39.0377 11.4506 39.3206C11.3205 39.7281 11.1728 40.1298 11.0278 40.5318C10.7113 41.4106 10.3971 42.2902 10.0721 43.1658C9.82863 43.8211 9.56801 44.4701 9.3195 45.1234C9.26441 45.2687 9.23393 45.4231 9.18157 45.5696C8.8992 46.3615 8.61474 47.153 8.32821 47.9441C7.96248 48.9541 7.59245 49.9622 7.22985 50.9731C7.16694 51.1489 7.0798 51.2739 6.87545 51.2735C5.92635 51.2712 4.97765 51.2704 4.02855 51.265C3.96643 51.2669 3.90704 51.231 3.80701 51.1997Z" fill="#3290FF" stroke="#F5DEA6"/>
<path d="M77.833 51.1766C78.1417 50.3534 78.4504 49.5563 78.7383 48.7517C78.9607 48.1297 79.1521 47.4963 79.3666 46.8711C79.5972 46.1975 79.8398 45.5278 80.0743 44.8553C80.4498 43.7789 80.8167 42.6996 81.198 41.6255C81.5055 40.7593 81.8287 39.8981 82.1432 39.0392C82.6543 38.9068 84.9635 38.9189 85.3973 39.0685C85.3828 39.1826 85.3836 39.31 85.3484 39.4272C85.2632 39.7125 85.1652 39.9942 85.0651 40.2747C84.9346 40.6412 84.7998 41.0058 84.6635 41.3688C84.3309 42.2554 83.9914 43.1392 83.6639 44.0258C83.4131 44.7068 83.1841 45.3961 82.9313 46.0768C82.6387 46.8641 82.3233 47.6432 82.0326 48.4313C81.8802 48.8447 81.7673 49.2726 81.622 49.6887C81.4684 50.1287 81.2973 50.5624 81.1339 50.9985C81.0749 51.1567 80.98 51.272 80.796 51.272C79.8605 51.2657 78.9251 51.2578 77.9897 51.2481C77.9549 51.2501 77.9209 51.2192 77.833 51.1766Z" fill="#3290FF" stroke="#F5DEA6"/>
</svg>
