<svg width="63" height="63" viewBox="0 0 63 63" fill="none" xmlns="http://www.w3.org/2000/svg">
<path d="M51.3028 31.4554C51.3028 42.3758 42.45 51.2286 31.5296 51.2286C26.212 51.2286 21.3853 49.1301 17.8312 45.715L50.7322 26.7196C51.105 28.2364 51.3028 29.8225 51.3028 31.4554ZM45.2279 17.1957L12.327 36.1911C11.9542 34.6743 11.7563 33.0882 11.7563 31.4554C11.7563 20.5349 20.6091 11.6821 31.5296 11.6821C36.8472 11.6821 41.6738 13.7806 45.2279 17.1957ZM31.5296 62.2286C48.5252 62.2286 62.3028 48.4509 62.3028 31.4554C62.3028 14.4598 48.5252 0.682129 31.5296 0.682129C14.534 0.682129 0.756348 14.4598 0.756348 31.4554C0.756348 48.4509 14.534 62.2286 31.5296 62.2286Z" fill="#FF3232" stroke="#F5DEA6"/>
</svg>
