<svg width="30" height="25" viewBox="0 0 30 25" fill="none" xmlns="http://www.w3.org/2000/svg">
<path fill-rule="evenodd" clip-rule="evenodd" d="M1.75254 23.8125L28.4224 23.8125C28.8789 23.8125 29.375 23.316 29.375 22.8599L29.375 16.1922C29.3681 15.6915 29.1644 15.2136 28.8079 14.8619C28.4514 14.5102 27.9707 14.3131 27.4699 14.3131C26.9692 14.3131 26.4885 14.5102 26.132 14.8619C25.7755 15.2136 25.5717 15.6915 25.5649 16.1922L25.5649 20.0024L4.61005 20.0024L4.61005 16.1922C4.60319 15.6915 4.39946 15.2136 4.04294 14.8619C3.68642 14.5103 3.20577 14.3131 2.70499 14.3131C2.2042 14.3131 1.72355 14.5103 1.36703 14.8619C1.01051 15.2136 0.806779 15.6915 0.799922 16.1922L0.799923 22.8599C0.799923 23.376 1.17711 23.8125 1.75254 23.8125Z" fill="#F5F1E7" stroke="#3290FF" stroke-linejoin="round"/>
<path d="M16.9922 11.4408H18.8974V11.4419C19.5693 11.4419 20.1605 11.3515 20.5337 11.7276C20.7126 11.9082 20.8129 12.1521 20.8129 12.4063C20.8129 12.6604 20.7126 12.9043 20.5337 13.0849L15.8263 18.7914C15.6256 18.9664 15.3683 19.0628 15.102 19.0628C14.8356 19.0628 14.5783 18.9664 14.3776 18.7914L9.66983 13.0839C9.49097 12.9033 9.39062 12.6594 9.39062 12.4052C9.39062 12.151 9.49097 11.9071 9.66983 11.7265C10.0438 11.3504 10.9039 11.4408 11.2772 11.4408H13.1824V2.86826C13.1824 2.36306 13.3831 1.87854 13.7403 1.52131C14.0976 1.16407 14.5821 0.963379 15.0873 0.963379C15.5925 0.963379 16.077 1.16407 16.4343 1.52131C16.7915 1.87854 16.9922 2.36306 16.9922 2.86826V11.4408Z" fill="#F5F1E7" stroke="#3290FF" stroke-linejoin="round"/>
</svg>
