<svg width="15" height="28" viewBox="0 0 15 28" fill="none" xmlns="http://www.w3.org/2000/svg">
<path fill-rule="evenodd" clip-rule="evenodd" d="M3.84576 14.2435V26.94C3.84576 27.1589 3.95521 27.2683 4.17412 27.2683H9.20892C9.42783 27.2683 9.53728 27.1589 9.53728 26.94V14.0246H13.2587C13.4776 14.0246 13.587 13.9151 13.587 13.6962L13.9154 9.75594C13.9154 9.53704 13.8059 9.42758 13.587 9.42758H9.53728V6.69128C9.53728 6.03456 10.0845 5.4873 10.8507 5.4873H13.6965C14.0248 5.4873 14.1343 5.37785 14.1343 5.15894V1.32811C14.1343 1.10921 14.0248 0.999756 13.8059 0.999756H8.99002C6.14426 0.999756 3.84576 3.07935 3.84576 5.7062V9.42758H1.32836C1.10945 9.42758 1 9.53704 1 9.75594V13.6962C1 13.9151 1.10945 14.0246 1.32836 14.0246H3.84576V14.2435Z" fill="#F5F1E7" stroke="#3290FF" stroke-linejoin="round"/>
</svg>
