<svg width="33" height="29" viewBox="0 0 33 29" fill="none" xmlns="http://www.w3.org/2000/svg">
<path d="M28.658 3.49747L28.721 3.43147C27.9769 2.68736 27.1998 1.99124 26.2847 1.61319C25.3274 1.24876 24.3082 1.07449 23.2842 1.10012C22.2653 1.11365 21.259 1.32775 20.3228 1.73021C19.3952 2.13582 18.5577 2.72234 17.8594 3.45546C16.9593 4.35559 17.2594 5.21371 15.9722 5.21371C14.685 5.21371 14.991 4.3736 14.0789 3.46146C13.4098 2.69167 12.574 2.08457 11.635 1.68631C10.696 1.28805 9.67863 1.10912 8.66012 1.16312C6.63366 1.2624 4.70363 2.05836 3.19632 3.41645L3.16032 3.37744C1.84571 4.91771 1.08512 6.85405 1 8.87725C1 9.88839 1.00001 10.9415 1.38406 11.8777C1.80876 12.8137 2.41096 13.6584 3.15731 14.365C4.21947 15.4272 4.32148 15.3282 5.38363 16.3903C6.44578 17.4525 6.33177 17.5665 7.39693 18.6287C8.46208 19.6908 8.5731 19.5738 9.63526 20.636C10.6974 21.6981 10.5774 21.8361 11.6395 22.8833C12.7017 23.9304 12.7347 23.9184 13.7969 24.9836C14.2742 25.4623 15.3049 27.1769 16.0742 27.1769C16.8435 27.1769 17.0133 25.9767 18.0755 24.9236C19.1376 23.8704 19.2756 23.9874 20.3258 22.9223C21.3759 21.8571 21.412 21.8871 22.4741 20.822C23.5363 19.7568 23.3532 19.5738 24.4154 18.5116C25.4775 17.4495 25.6156 17.5755 26.6717 16.5104C27.7279 15.4452 27.6979 15.4092 28.772 14.347C29.5711 13.6898 30.1961 12.8459 30.5917 11.8898C30.9873 10.9337 31.1414 9.89498 31.0403 8.86525C31.0642 7.84032 30.8858 6.82074 30.5153 5.86482C30.1222 4.96769 29.4021 4.23858 28.658 3.49747Z" stroke="#F6DFA3" stroke-width="2" stroke-linecap="round" stroke-linejoin="round"/>
</svg>
