<svg width="285" height="285" viewBox="0 0 285 285" fill="none" xmlns="http://www.w3.org/2000/svg">
<circle cx="142.471" cy="142.471" r="127.471" fill="#03001B" stroke="#03001B" stroke-width="30"/>
<circle cx="142.471" cy="142.471" r="113.971" fill="#03001B" stroke="#F6DFA3" stroke-width="3"/>
<path d="M65.031 161.796C65.9321 161.394 66.8995 161.162 67.8847 161.112C68.7 161.094 69.5035 161.308 70.2022 161.728C70.96 162.204 71.609 162.834 72.1069 163.577C72.7712 164.576 73.329 165.642 73.771 166.758L78.819 178.894L60.0878 186.679L52.6606 168.804L55.0152 167.824L61.3576 183.091L66.387 181.002L62.4177 171.454C61.9233 170.315 61.5413 169.13 61.2774 167.917C61.0757 167.045 61.0757 166.138 61.2774 165.266C61.4803 164.5 61.91 163.812 62.5101 163.294C63.2613 162.658 64.1133 162.152 65.031 161.796ZM75.3736 177.248L71.509 167.947C71.2482 167.31 70.9413 166.692 70.5906 166.098C70.314 165.599 69.946 165.155 69.5058 164.792C69.0987 164.472 68.6045 164.283 68.0882 164.249C67.4401 164.234 66.7971 164.366 66.2082 164.638C65.6008 164.862 65.054 165.225 64.6118 165.698C64.2737 166.079 64.0588 166.554 63.9955 167.06C63.94 167.622 63.9944 168.189 64.1557 168.73C64.3461 169.395 64.5767 170.047 64.8461 170.684L68.723 180.016L75.3736 177.248Z" fill="#F6DFA3"/>
<path d="M62.7259 154.856L70.1222 154.239L70.3564 157.062L50.1459 158.726L49.0427 145.339C48.9492 144.364 49.0094 143.38 49.2213 142.424C49.4053 141.586 49.7668 140.798 50.2815 140.112C50.8011 139.442 51.4675 138.901 52.2293 138.528C53.1214 138.098 54.0883 137.845 55.0768 137.783C56.0294 137.723 56.9849 137.842 57.8936 138.134C58.669 138.388 59.3727 138.823 59.9461 139.404C60.5188 140.002 60.9634 140.711 61.2527 141.487C61.5939 142.384 61.8016 143.327 61.8691 144.285L62.7259 154.856ZM60.1803 155.065L59.3236 144.624C59.2894 143.531 58.85 142.49 58.0909 141.703C57.6966 141.345 57.2275 141.08 56.7179 140.926C56.2082 140.773 55.6708 140.735 55.1446 140.815C54.6104 140.828 54.0853 140.956 53.6054 141.191C53.1255 141.426 52.7023 141.763 52.3648 142.177C51.7211 143.067 51.4411 144.17 51.5821 145.259L52.4449 155.737L60.1803 155.065Z" fill="#F6DFA3"/>
<path d="M70.5728 115.828L73.0382 116.371L68.9578 135.274L49.1357 130.997L53.0127 113.024L55.509 113.56L52.2299 128.759L57.5799 129.912L60.2426 117.585L62.708 118.121L60.0453 130.448L67.0411 131.958L70.5728 115.828Z" fill="#F6DFA3"/>
<path d="M66.6815 107.322L75.1009 112.148L73.6896 114.614L56.0986 104.524L57.5101 102.059L64.4687 106.046L71.9884 92.9365L65.0297 88.9486L66.4412 86.4832L84.032 96.573L82.6206 99.0384L74.2011 94.2124L66.6815 107.322Z" fill="#F6DFA3"/>
<path d="M86.7872 93.3615L89.4129 96.3754L87.268 98.2245L82.9534 93.2936L83.385 92.9177C83.7281 92.5932 83.9983 92.1997 84.1778 91.763C84.3574 91.3263 84.4422 90.8564 84.4266 90.3844C84.3947 89.2828 84.1606 88.1965 83.7362 87.1794C83.2474 85.9706 82.6491 84.8091 81.9488 83.7093C81.203 82.5259 80.4387 81.4226 79.656 80.3871C78.8732 79.3516 78.1397 78.4394 77.4555 77.6381C76.7713 76.8369 76.2845 76.239 76.001 75.8507L88.1493 65.2924L99.7801 78.6736L101.944 76.8245L106.258 81.7554L104.119 83.6045L101.494 80.5843L86.7872 93.3615ZM79.773 75.9678C80.488 76.88 81.2688 77.8846 82.1152 78.9818C82.9697 80.0774 83.76 81.2217 84.482 82.4088C85.1925 83.5665 85.8108 84.7783 86.3311 86.033C86.8245 87.1733 87.1124 88.3919 87.1817 89.6325L97.6598 80.535L87.7056 69.0769L79.773 75.9678Z" fill="#F6DFA3"/>
<path d="M110.53 64.2757L111.479 66.2296L101.346 71.1605L100.397 69.2066L110.53 64.2757Z" fill="#F6DFA3"/>
<path d="M115.992 55.0488L120.227 72.2637L117.472 72.9418L112.627 53.2182L128.652 49.2859L129.269 51.7513L115.992 55.0488Z" fill="#F6DFA3"/>
<path d="M157.132 59.5478C157.102 61.2089 156.735 62.8465 156.054 64.3617C155.466 65.6376 154.585 66.7568 153.483 67.6284C152.357 68.496 151.055 69.108 149.668 69.422C148.095 69.7865 146.479 69.9297 144.867 69.8473C143.251 69.7957 141.652 69.4964 140.127 68.9597C138.773 68.4929 137.53 67.75 136.478 66.7778C135.463 65.8114 134.681 64.6269 134.191 63.3139C133.648 61.7982 133.421 60.187 133.526 58.5802C133.557 56.9298 133.922 55.3028 134.598 53.7972C135.189 52.4956 136.071 51.3466 137.175 50.4381C138.298 49.5343 139.601 48.8789 140.996 48.5151C142.561 48.1025 144.181 47.9361 145.797 48.0219C147.417 48.0732 149.017 48.3854 150.537 48.9465C151.895 49.4471 153.134 50.2212 154.18 51.2209C155.197 52.2155 155.977 53.427 156.461 54.765C157.004 56.2979 157.232 57.9246 157.132 59.5478ZM136.527 58.7651C136.454 59.9641 136.615 61.1658 137.002 62.303C137.344 63.2948 137.912 64.1936 138.66 64.9287C139.436 65.6725 140.36 66.2438 141.372 66.6052C142.529 67.0275 143.747 67.2606 144.978 67.2955C146.208 67.3632 147.44 67.2406 148.633 66.9319C149.671 66.6628 150.64 66.1753 151.474 65.5019C152.267 64.8282 152.898 63.9858 153.323 63.0365C153.806 61.9245 154.068 60.7291 154.094 59.5171C154.165 58.2964 154.006 57.0733 153.625 55.9114C153.274 54.8836 152.711 53.9409 151.973 53.1439C151.213 52.3427 150.29 51.7124 149.268 51.2948C148.118 50.8389 146.898 50.5865 145.662 50.549C144.429 50.4814 143.194 50.621 142.007 50.962C140.958 51.26 139.987 51.7815 139.159 52.4906C138.357 53.2115 137.725 54.1021 137.31 55.0977C136.821 56.2601 136.556 57.5044 136.527 58.7651Z" fill="#F6DFA3"/>
<path d="M163.347 64.3867L160.752 71.3331L158.096 70.3407L165.19 51.3445L177.788 56.0411C178.711 56.3722 179.577 56.8464 180.352 57.4464C181.031 57.9692 181.59 58.6312 181.992 59.388C182.385 60.151 182.596 60.995 182.608 61.8534C182.617 62.8431 182.433 63.8249 182.066 64.7441C181.716 65.6323 181.204 66.4475 180.556 67.148C179.996 67.7415 179.303 68.1936 178.534 68.467C177.74 68.7284 176.902 68.8269 176.069 68.7567C175.115 68.6886 174.176 68.4809 173.283 68.1403L163.347 64.3867ZM164.241 62.0014L174.059 65.6625C175.06 66.0994 176.187 66.1477 177.221 65.7981C177.713 65.5921 178.154 65.2797 178.511 64.8833C178.868 64.4868 179.133 64.0162 179.286 63.5052C179.5 63.0182 179.606 62.4908 179.598 61.959C179.589 61.4272 179.466 60.9034 179.237 60.4234C178.703 59.4595 177.821 58.7361 176.771 58.4018L166.953 54.7406L164.241 62.0014Z" fill="#F6DFA3"/>
<path d="M202.369 84.2335C201.367 85.5572 200.109 86.666 198.671 87.4941C197.441 88.1765 196.069 88.5627 194.664 88.622C193.243 88.6607 191.83 88.3916 190.522 87.833C189.041 87.205 187.653 86.3753 186.399 85.3676C185.122 84.374 184.003 83.1914 183.083 81.8605C182.266 80.6839 181.699 79.3517 181.419 77.9467C181.161 76.5702 181.224 75.1527 181.604 73.8047C182.059 72.2573 182.825 70.8188 183.853 69.5764C184.858 68.2616 186.115 67.1613 187.551 66.3405C188.796 65.6413 190.182 65.2326 191.607 65.1448C193.048 65.0741 194.486 65.3094 195.829 65.8352C197.338 66.4221 198.746 67.2415 200.002 68.2636C201.283 69.257 202.395 70.4518 203.293 71.8015C204.095 72.999 204.645 74.3476 204.908 75.7647C205.147 77.1681 205.065 78.6073 204.668 79.9744C204.195 81.5341 203.413 82.9826 202.369 84.2335ZM186.177 71.4811C185.409 72.4077 184.829 73.4755 184.47 74.6245C184.173 75.6237 184.103 76.6767 184.266 77.7063C184.465 78.7661 184.885 79.772 185.499 80.6586C186.189 81.6787 187.036 82.5836 188.008 83.3398C188.963 84.1145 190.031 84.7381 191.176 85.1889C192.175 85.5838 193.246 85.7603 194.319 85.7066C195.363 85.6373 196.377 85.3295 197.284 84.8068C198.33 84.192 199.247 83.3798 199.984 82.4153C200.757 81.4712 201.347 80.3903 201.722 79.2287C202.045 78.191 202.144 77.0963 202.011 76.0175C201.866 74.9226 201.488 73.8717 200.902 72.9357C200.244 71.8916 199.41 70.9697 198.436 70.2113C197.483 69.4178 196.401 68.7924 195.238 68.3622C194.215 67.9874 193.124 67.8382 192.039 67.9246C190.95 68.0226 189.896 68.3638 188.957 68.9231C187.876 69.5914 186.933 70.4595 186.177 71.4811Z" fill="#F6DFA3"/>
<path d="M213.998 107.877C212.96 108.31 211.842 108.519 210.717 108.492C209.593 108.464 208.486 108.2 207.471 107.716C205.461 106.751 203.639 105.015 202.004 102.508C201.081 101.139 200.386 99.6302 199.945 98.0396C199.573 96.6852 199.489 95.2679 199.698 93.8791C199.914 92.5465 200.432 91.2812 201.215 90.181C202.086 88.9682 203.182 87.9344 204.444 87.1361L204.882 86.8464C206.15 85.9851 207.57 85.3724 209.067 85.0405C210.393 84.762 211.765 84.7873 213.08 85.1145C214.432 85.4827 215.692 86.1316 216.778 87.019C218.053 88.0699 219.152 89.3185 220.032 90.7172C220.82 91.8956 221.463 93.1641 221.949 94.4955C222.362 95.627 222.57 96.8228 222.565 98.0272C222.555 99.1399 222.312 100.238 221.85 101.251C221.339 102.327 220.611 103.286 219.712 104.068L217.998 101.448C218.53 100.884 218.948 100.222 219.231 99.5003C219.511 98.768 219.66 97.9917 219.668 97.2075C219.677 96.3552 219.544 95.5074 219.274 94.6989C218.964 93.7681 218.53 92.883 217.986 92.067C217.315 90.995 216.45 90.0584 215.434 89.3057C214.57 88.6734 213.58 88.236 212.531 88.0237C211.509 87.83 210.456 87.8658 209.449 88.1285C208.329 88.4214 207.267 88.9006 206.306 89.5461C205.36 90.143 204.526 90.9001 203.84 91.7835C203.212 92.6033 202.768 93.5495 202.54 94.5571C202.312 95.6029 202.312 96.6856 202.54 97.7314C202.82 98.9624 203.33 100.129 204.044 101.171C204.999 102.755 206.358 104.057 207.982 104.943C208.639 105.294 209.359 105.508 210.101 105.573C210.843 105.638 211.59 105.551 212.297 105.319L213.998 107.877Z" fill="#F6DFA3"/>
<path d="M218.381 113.362L209.875 115.526L209.172 112.777L228.822 107.772L229.525 110.521L220.963 112.703L223.238 121.653L233.451 125.967L234.314 129.363L222.905 124.469L214.978 135.601L214.066 132.007L220.735 122.633L218.381 113.362Z" fill="#F6DFA3"/>
<path d="M223.065 160.274C221.41 160.176 219.791 159.744 218.307 159.004C217.053 158.366 215.97 157.438 215.145 156.298C214.326 155.137 213.767 153.812 213.506 152.415C213.211 150.828 213.136 149.209 213.284 147.601C213.403 145.988 213.767 144.403 214.362 142.899C214.888 141.566 215.681 140.356 216.692 139.342C217.699 138.367 218.915 137.635 220.249 137.203C221.785 136.721 223.405 136.559 225.007 136.729C226.654 136.831 228.264 137.263 229.741 137.998C231.016 138.642 232.128 139.57 232.989 140.71C233.847 141.869 234.45 143.197 234.758 144.606C235.103 146.188 235.203 147.814 235.054 149.426C234.935 151.042 234.556 152.628 233.932 154.123C233.375 155.455 232.553 156.661 231.516 157.667C230.477 158.644 229.232 159.375 227.873 159.805C226.318 160.281 224.683 160.441 223.065 160.274ZM224.699 139.724C223.503 139.601 222.295 139.712 221.142 140.051C220.139 140.353 219.22 140.883 218.455 141.598C217.681 142.343 217.07 143.242 216.661 144.236C216.196 145.376 215.913 146.583 215.823 147.811C215.706 149.038 215.78 150.275 216.045 151.478C216.268 152.527 216.713 153.515 217.352 154.375C217.989 155.207 218.81 155.882 219.749 156.348C220.839 156.879 222.022 157.191 223.232 157.266C224.447 157.388 225.675 157.279 226.85 156.945C227.892 156.642 228.856 156.119 229.679 155.411C230.506 154.683 231.167 153.786 231.614 152.779C232.121 151.651 232.426 150.443 232.514 149.21C232.637 147.971 232.547 146.721 232.249 145.512C231.995 144.452 231.513 143.459 230.838 142.603C230.154 141.764 229.293 141.086 228.317 140.618C227.176 140.1 225.949 139.797 224.699 139.724Z" fill="#F6DFA3"/>
<path d="M227.466 170.333L211.144 163.411L212.254 160.797L230.923 168.712L223.348 186.586L204.679 178.672L205.788 176.058L222.109 182.98L227.466 170.333Z" fill="#F6DFA3"/>
<path d="M109.187 227.352L107.794 229.928L89.4385 219.968L91.756 215.697C94.4474 215.894 96.9129 216.118 99.1523 216.369C101.392 216.619 103.368 216.753 105.082 216.769C106.565 216.818 108.047 216.64 109.476 216.239C110.629 215.902 111.614 215.146 112.238 214.119C112.445 213.747 112.608 213.352 112.725 212.942C112.894 212.34 112.919 211.706 112.799 211.093C112.628 210.277 112.276 209.51 111.769 208.849C110.994 207.877 110.018 207.082 108.909 206.519C106.707 205.286 104.825 204.875 103.263 205.286C101.702 205.697 100.434 206.825 99.4605 208.67L96.3787 206.988C96.9176 206 97.5713 205.079 98.3264 204.245C99.0821 203.404 100.038 202.768 101.106 202.396C102.358 201.987 103.69 201.886 104.989 202.1C106.853 202.421 108.643 203.079 110.271 204.041C111.46 204.656 112.568 205.416 113.569 206.303C114.315 206.961 114.956 207.731 115.467 208.584C115.877 209.259 116.153 210.006 116.281 210.784C116.385 211.441 116.397 212.109 116.318 212.769C116.25 213.336 116.113 213.893 115.911 214.427C115.756 214.848 115.577 215.259 115.375 215.66C114.64 217.119 113.432 218.286 111.948 218.97C110.372 219.625 108.686 219.975 106.98 219.999C104.897 220.05 102.814 219.939 100.749 219.666C98.4805 219.383 96.0664 219.113 93.5064 218.859L109.187 227.352Z" fill="#F6DFA3"/>
<path d="M140.805 224.498C140.607 226.297 140.131 228.054 139.394 229.707C138.766 231.1 137.853 232.345 136.713 233.362C135.583 234.326 134.235 235 132.787 235.328C131.074 235.702 129.306 235.742 127.578 235.445C123.72 234.874 121.008 233.448 119.442 231.167C117.877 228.887 117.332 225.768 117.809 221.811C118.052 220.011 118.529 218.25 119.227 216.572C119.807 215.161 120.696 213.897 121.828 212.874C122.957 211.905 124.311 211.235 125.766 210.926C127.571 210.565 129.427 210.544 131.239 210.865C135.139 211.448 137.837 212.886 139.332 215.179C140.828 217.472 141.319 220.578 140.805 224.498ZM121.248 221.953C120.768 225.183 121.076 227.669 122.173 229.411C123.27 231.153 125.144 232.221 127.794 232.616L128.225 232.684C130.876 233.095 132.93 232.589 134.389 231.167C135.848 229.746 136.82 227.473 137.304 224.35C137.773 221.215 137.506 218.75 136.503 216.954C135.501 215.159 133.672 214.074 131.018 213.7L130.592 213.632C127.917 213.221 125.807 213.692 124.262 215.043C122.715 216.412 121.698 218.711 121.217 221.953H121.248Z" fill="#F6DFA3"/>
<path d="M167.235 228.881L167.851 231.747L147.407 236L146.414 231.242C148.602 229.658 150.618 228.24 152.479 226.989C154.341 225.738 155.931 224.567 157.262 223.463C158.426 222.544 159.441 221.451 160.27 220.221C160.934 219.222 161.198 218.01 161.01 216.825C160.934 216.399 160.803 215.985 160.621 215.592C160.362 215.024 159.974 214.524 159.487 214.132C158.828 213.618 158.061 213.26 157.244 213.084C156.02 212.844 154.76 212.867 153.546 213.152C151.08 213.624 149.377 214.524 148.436 215.851C147.511 217.176 147.271 218.853 147.721 220.893L144.269 221.608C144.038 220.506 143.94 219.38 143.98 218.255C144.016 217.127 144.336 216.027 144.91 215.056C145.604 213.936 146.555 212.998 147.684 212.319C149.316 211.361 151.107 210.705 152.972 210.384C154.276 210.089 155.611 209.955 156.948 209.983C157.942 210.01 158.926 210.182 159.87 210.495C160.617 210.747 161.31 211.14 161.91 211.654C162.415 212.087 162.857 212.589 163.222 213.145C163.539 213.619 163.793 214.13 163.981 214.668C164.13 215.083 164.253 215.507 164.35 215.938C164.731 217.524 164.564 219.192 163.876 220.671C163.099 222.192 162.038 223.55 160.751 224.671C159.192 226.054 157.529 227.315 155.777 228.443C153.862 229.676 151.847 231.03 149.73 232.505L167.235 228.881Z" fill="#F6DFA3"/>
<path d="M207.509 197.117L202.876 192.484L198.243 197.117L202.876 201.75L207.509 197.117Z" fill="#F6DFA3"/>
<path d="M83.3546 197.122L78.7217 192.489L74.0888 197.122L78.7217 201.754L83.3546 197.122Z" fill="#F6DFA3"/>
<path d="M157.217 144.005C156.653 145.17 155.743 146.133 154.61 146.76C153.346 147.43 151.969 147.86 150.548 148.03C148.829 148.256 147.098 148.365 145.364 148.356H120.13V130.365H145.438C147.17 130.357 148.901 130.454 150.622 130.654C152.029 130.8 153.394 131.218 154.641 131.887C154.964 132.066 155.271 132.272 155.559 132.503H164.934C164.891 132.356 164.841 132.208 164.792 132.06C164.168 130.174 162.994 128.519 161.42 127.308C159.603 125.991 157.506 125.109 155.294 124.731C152.244 124.178 149.148 123.922 146.048 123.967H120.161V110.333H161.562V103.96H113.055V154.742H145.975C148.98 154.787 151.981 154.519 154.93 153.94C157.149 153.528 159.252 152.638 161.094 151.333C162.724 150.112 163.97 148.45 164.687 146.544C165.025 145.666 165.279 144.758 165.445 143.832H157.334C157.272 143.888 157.248 143.949 157.217 144.005Z" fill="#F6DFA3"/>
<path d="M138.441 157.207H131.334V185.763H138.441V157.207Z" fill="#F6DFA3"/>
<path d="M165.499 134.981H157.394H131.334V145.891H138.441V141.367H157.986H165.734H172.587V134.981H165.499Z" fill="#F6DFA3"/>
<path fill-rule="evenodd" clip-rule="evenodd" d="M166.737 208.31L182.821 199.025L184.289 201.568L171.026 209.226L173.008 212.658L180.968 208.062L182.437 210.606L171.656 216.83L170.72 215.208L170.72 215.208L167.596 209.798L167.596 209.798L166.737 208.31ZM176.63 225.197C175.931 224.608 175.321 223.93 174.813 223.18L177.368 221.704C177.698 222.161 178.083 222.576 178.517 222.944C179.048 223.377 179.715 223.674 180.473 223.792C181.3 223.892 182.181 223.811 183.051 223.542L183.056 223.54C184.211 223.187 185.336 222.695 186.402 222.075C188.788 220.643 190.128 219.18 190.704 217.76C191.241 216.433 191.152 214.846 190.12 212.851L190.111 212.834L190.103 212.817C189.699 211.984 189.122 211.256 188.4 210.67C187.856 210.238 187.178 209.94 186.411 209.819C185.585 209.713 184.843 209.761 183.822 210.057C183.434 210.17 182.946 210.381 182.449 210.627L180.977 208.076C181.611 207.755 182.341 207.426 183.001 207.235C184.389 206.831 185.544 206.741 186.81 206.907L186.826 206.909L186.842 206.911C188.095 207.104 189.264 207.6 190.236 208.374L190.241 208.378L190.245 208.382C191.299 209.235 192.147 210.3 192.74 211.517C194.038 214.034 194.373 216.531 193.428 218.863C192.52 221.105 190.586 222.994 187.906 224.601L187.898 224.606L187.89 224.611C186.63 225.345 185.295 225.93 183.917 226.351C182.665 226.738 181.359 226.864 180.092 226.707L180.073 226.705L180.054 226.702C178.791 226.511 177.614 226.005 176.645 225.21L176.637 225.204L176.63 225.197Z" fill="#F6DFA3"/>
</svg>
