<svg width="26" height="22" viewBox="0 0 26 22" fill="none" xmlns="http://www.w3.org/2000/svg">
<path d="M23.03 0.822049C23.03 0.822049 25.2438 -0.0411274 25.0592 2.05511C24.9977 2.91829 24.4439 5.93923 24.0138 9.207L22.5381 18.8869C22.5381 18.8869 22.415 20.3052 21.3074 20.5517C20.1998 20.7982 18.5408 19.6885 18.2331 19.442C17.987 19.2571 13.6212 16.4826 12.0839 15.1262C11.6535 14.7559 11.1609 14.0162 12.1454 13.153L18.6027 6.98769C19.3407 6.24758 20.0791 4.52021 17.0025 6.61747L8.3953 12.4748C8.3953 12.4748 7.41145 13.0901 5.56681 12.5366L1.56988 11.3032C1.56988 11.3032 0.094105 10.3785 2.61526 9.45381C8.76382 6.55593 16.3276 3.5972 23.03 0.822049Z" fill="#F5F1E7" stroke="#3290FF" stroke-linejoin="round"/>
</svg>
