<svg width="31" height="18" viewBox="0 0 31 18" fill="none" xmlns="http://www.w3.org/2000/svg">
<path d="M18.4353 8.59806C17.9159 8.40274 17.9159 7.65676 17.8839 7.13727C17.7538 5.28666 18.4033 2.46191 17.6241 1.26086C17.0722 0.546048 14.4095 0.611295 12.7867 0.708958C12.3316 0.774621 11.7797 0.871038 11.3903 1.06636C11.0009 1.26169 10.6111 1.58502 10.6111 1.87801C10.6111 2.29983 11.5856 2.23541 11.9409 2.7869C12.3308 3.37205 12.3308 4.63751 12.3308 5.67648C12.3308 6.87753 12.1354 8.46923 11.6492 8.53365C10.9011 8.56565 10.4802 7.81884 10.0907 7.26694C9.25587 6.10678 8.53784 4.86686 7.94715 3.56529C7.65624 2.88373 7.49208 2.13692 7.07026 1.84476C6.42194 1.38969 5.25331 1.35769 4.11543 1.38969C3.07646 1.42211 1.58034 1.29203 1.28943 1.90918C1.06169 2.59074 1.54917 3.23906 1.80891 3.79304C3.1388 6.6822 4.56842 9.21521 6.3222 11.6173C7.9459 13.8573 9.47111 15.6435 12.4584 16.5848C13.3028 16.8446 17.0041 17.5914 17.7509 16.5848C18.0106 16.195 17.9462 15.3181 18.0759 14.669C18.2055 14.0198 18.3668 13.3703 18.9852 13.3391C19.5046 13.3071 19.7968 13.7609 20.1218 14.0872C20.4792 14.4446 20.7709 14.7363 21.0307 15.0613C21.6478 15.6784 22.2974 16.5225 23.0766 16.8483C24.1476 17.3034 25.8037 17.1733 27.3622 17.1081C28.6289 17.0756 29.5378 16.8171 29.6354 16.0691C29.7011 15.4844 29.0507 14.6403 28.6609 14.1532C27.6863 12.9522 27.2325 12.5948 26.1279 11.4906C25.6429 11.0002 25.0257 10.4807 25.0257 9.89678C24.9937 9.53937 25.2855 9.21521 25.5452 8.85781C26.6819 7.16969 27.8185 5.96822 28.8575 4.21486C29.1484 3.69537 29.832 2.49432 29.5723 1.90918C29.2814 1.26003 27.6564 1.45203 26.6494 1.45203C25.3507 1.45203 23.6626 1.35437 23.3376 1.61411C22.7205 2.03593 22.4607 2.71874 22.1686 3.36789C21.5194 4.86193 20.6425 6.38714 19.7332 7.52377C19.4537 7.87323 18.6737 8.6791 18.4345 8.59515L18.4353 8.59806Z" fill="#F5F1E7" stroke="#3290FF" stroke-linejoin="round"/>
</svg>
