<svg width="127" height="27" viewBox="0 0 127 27" fill="none" xmlns="http://www.w3.org/2000/svg">
<path d="M23.42 24.6925V25.1464H23.8739H26.2911H26.745V24.6925V5.62659H39.3824V24.6925V25.1464H39.8364H42.2535H42.7075V24.6925V2.70989V2.25597H42.2535H23.8739H23.42V2.70989V24.6925Z" fill="#3290FF" stroke="#F5DEA6" stroke-width="0.907837"/>
<path d="M45.4003 2.25597H44.9464V2.70989V24.6925V25.1464H45.4003H47.8175H48.2714V24.6925V16.0706H55.069C60.3705 16.0706 63.3217 12.8653 63.3217 9.45973V9.09488C63.3217 5.70702 60.3446 2.25597 55.069 2.25597H45.4003ZM55.5251 5.62659C56.5563 5.62659 57.6923 5.95514 58.5596 6.58351C59.4168 7.20458 59.9967 8.10362 59.9967 9.27731C59.9967 10.4483 59.4313 11.2852 58.5907 11.8473C57.7347 12.4197 56.5964 12.7 55.5251 12.7H48.2714V5.62659H55.5251Z" fill="#3290FF" stroke="#F5DEA6" stroke-width="0.907837"/>
<path d="M93.6747 5.63673C93.6748 5.63333 93.675 5.62995 93.6752 5.62659H102.092V24.6925V25.1464H102.546H104.963H105.417V24.6925V2.70989V2.25597H104.963H91.0075H90.5666L90.5537 2.69664C90.3716 8.93496 89.962 14.254 89.5997 17.062C89.4293 18.3116 89.2647 19.23 89.0678 19.9101C88.8705 20.592 88.6529 20.9892 88.4061 21.236C88.1694 21.4728 87.8645 21.612 87.3975 21.6892C86.9155 21.7689 86.3081 21.7758 85.489 21.7758H85.0351V22.2297V24.6925V25.1464H85.489C87.8044 25.1464 89.3967 24.942 90.4968 23.9794C91.588 23.0246 92.0948 21.4089 92.5482 18.9386C92.8963 17.1268 93.1825 13.6783 93.3816 10.7101C93.4815 9.2195 93.56 7.84056 93.6135 6.83436C93.6403 6.33121 93.6608 5.92112 93.6747 5.63673Z" fill="#3290FF" stroke="#F5DEA6" stroke-width="0.907837"/>
<path d="M86.6259 16.4687L86.6593 15.9837H86.1731H83.6191H83.2627L83.1781 16.3299C82.7217 18.1993 81.7846 19.6296 80.4509 20.5966C79.1138 21.5662 77.3431 22.095 75.1818 22.095C73.1819 22.095 71.1717 21.556 69.6366 20.3045C68.1954 19.1294 67.1305 17.292 66.9084 14.5656H86.0363H86.4025L86.4799 14.2076C87.247 10.6597 85.6285 6.95343 83.8069 5.12901C81.7454 2.97383 78.7465 1.7999 75.1818 1.7999C71.9843 1.7999 69.0866 2.83493 66.9837 4.7937C64.6839 6.90262 63.5085 9.95236 63.5085 13.5188V13.8836C63.5085 17.4026 64.6366 20.3305 66.6858 22.3796C68.7349 24.4288 71.6628 25.5569 75.1818 25.5569C77.5973 25.5569 80.1187 24.983 82.1993 23.6059C84.28 22.2287 85.895 20.0633 86.5181 16.9365C86.5785 16.7874 86.6149 16.6295 86.6259 16.4687ZM75.1818 5.26173V5.26184L75.1915 5.26163C76.8309 5.22644 78.4497 5.63061 79.88 6.43215C81.0098 7.10676 81.928 8.08456 82.5302 9.25461C82.6162 9.42667 82.6951 9.585 82.7737 9.77729C82.788 9.83152 82.8097 9.8834 82.8381 9.93152C82.8442 9.94743 82.8507 9.96234 82.8564 9.97459L82.8685 10.0116C82.9956 10.3994 83.0981 10.7946 83.1754 11.195H67.171C68.2078 7.01765 71.6996 5.26173 75.1818 5.26173Z" fill="#3290FF" stroke="#F5DEA6" stroke-width="0.907837"/>
<path d="M111.072 11.2406V2.70989V2.25597H110.618H108.201H107.747V2.70989V24.6925V25.1464H108.201H117.505C120.322 25.1464 122.423 24.5189 123.822 23.2694C125.23 22.0118 125.849 20.1944 125.849 17.9909C125.873 15.9602 125.155 14.2541 123.783 13.0621C122.418 11.8766 120.454 11.2406 118.052 11.2406H111.072ZM117.961 21.7302H111.072V14.6112H117.916C119.441 14.6112 120.607 14.9116 121.381 15.4807C122.131 16.0324 122.57 16.8786 122.57 18.1251C122.57 19.6608 122.087 20.5122 121.35 21.0098C120.573 21.5344 119.424 21.7302 117.961 21.7302Z" fill="#3290FF" stroke="#F5DEA6" stroke-width="0.907837"/>
<path d="M21.0897 8.36302H21.1353V7.9091C21.1353 5.7899 19.8684 3.96998 17.7588 2.77131L17.7495 2.76602L17.7399 2.76117C15.7277 1.74029 13.4979 1.22265 11.2417 1.25257C8.81239 1.20994 6.41302 1.7942 4.27519 2.94903L4.2668 2.95356L4.25861 2.95844C2.01018 4.29793 0.66209 6.3008 0.66209 8.68442V9.09489V9.1035L0.662418 9.11211C0.703788 10.2013 0.967006 11.2707 1.43596 12.2546L1.59802 12.5947L1.96212 12.4981L4.19687 11.9052L4.48346 11.8292H4.79231L4.49202 11.1837C4.18352 10.5207 3.99705 9.80754 3.94153 9.07844C3.9472 7.82417 4.60198 6.78279 5.9822 6.02893C7.59832 5.18051 9.40455 4.75937 11.2293 4.80553L11.2399 4.8058L11.2506 4.80557C12.9288 4.76929 14.5905 5.1428 16.0917 5.89368C17.3046 6.56521 17.8103 7.38862 17.8103 8.36517V10.2973C15.9491 10.3677 14.0946 10.5631 12.2592 10.8821C7.58927 11.6606 4.17671 13.0019 2.28968 15.0784C1.19353 16.2146 0.577805 17.7299 0.570876 19.3089V19.3109V19.3509C0.558176 19.8782 0.590301 20.4056 0.666904 20.9274L0.66797 20.9347L0.66927 20.9419C1.11966 23.4441 3.03291 25.1191 5.79605 25.5069L5.79604 25.5069L5.80273 25.5077C6.24248 25.5628 6.68485 25.5944 7.12796 25.6024L7.13883 25.6026L7.1497 25.6023C9.47074 25.5329 11.7378 24.8855 13.7455 23.7189C15.2212 22.8988 16.5737 21.8777 17.7647 20.6863V24.7837V25.2376H18.2186H20.6358H21.0897V24.7837V8.36302ZM6.33634 22.0544L6.33636 22.0542L6.3259 22.0529C5.32495 21.9278 4.20014 21.4108 3.93358 20.0018L3.9336 20.0018L3.93268 19.9972C3.91494 19.9085 3.90538 19.8164 3.89363 19.699L3.89283 19.6909C3.88358 19.5983 3.87262 19.4886 3.85288 19.3744C3.90618 18.616 4.21635 17.8977 4.73308 17.3386L4.73308 17.3386L4.73514 17.3363C6.03897 15.9063 8.77615 14.7852 12.7739 14.1035C14.4422 13.8388 16.1234 13.6649 17.8103 13.5825V15.1219C16.196 17.6902 14.1271 19.5382 12.0632 20.6872C9.96232 21.8569 7.89743 22.2864 6.33634 22.0544Z" fill="#3290FF" stroke="#F5DEA6" stroke-width="0.907837"/>
</svg>
