<svg width="114" height="39" viewBox="0 0 114 39" fill="none" xmlns="http://www.w3.org/2000/svg">
<mask id="path-1-outside-1_12_236942" maskUnits="userSpaceOnUse" x="74.707" y="7.31247" width="25" height="25" fill="black">
<rect fill="white" x="74.707" y="7.31247" width="25" height="25"/>
<path d="M87.2497 26.8315C83.4835 26.8315 81.2438 23.7048 81.2438 19.8647C81.2438 16.0247 83.4707 12.8948 87.2497 12.8948C91.0287 12.8948 93.2524 16.0215 93.2524 19.8647C93.2524 23.708 91.003 26.8315 87.2497 26.8315ZM87.2497 8.32211C84.1921 8.32889 81.2616 9.54584 79.0987 11.707C76.9358 13.8681 75.7164 16.7976 75.707 19.8551C75.7147 22.9138 76.9333 25.8449 79.0964 28.0074C81.2595 30.1699 84.191 31.3877 87.2497 31.3945C90.3078 31.3869 93.2384 30.1687 95.4008 28.0063C97.5632 25.8439 98.7815 22.9132 98.7891 19.8551C98.7823 16.7965 97.5645 13.865 95.402 11.7019C93.2395 9.53876 90.3083 8.32011 87.2497 8.31247"/>
</mask>
<path d="M87.2497 26.8315C83.4835 26.8315 81.2438 23.7048 81.2438 19.8647C81.2438 16.0247 83.4707 12.8948 87.2497 12.8948C91.0287 12.8948 93.2524 16.0215 93.2524 19.8647C93.2524 23.708 91.003 26.8315 87.2497 26.8315ZM87.2497 8.32211C84.1921 8.32889 81.2616 9.54584 79.0987 11.707C76.9358 13.8681 75.7164 16.7976 75.707 19.8551C75.7147 22.9138 76.9333 25.8449 79.0964 28.0074C81.2595 30.1699 84.191 31.3877 87.2497 31.3945C90.3078 31.3869 93.2384 30.1687 95.4008 28.0063C97.5632 25.8439 98.7815 22.9132 98.7891 19.8551C98.7823 16.7965 97.5645 13.865 95.402 11.7019C93.2395 9.53876 90.3083 8.32011 87.2497 8.31247" fill="#3290FF"/>
<path d="M75.707 19.8551L74.7992 19.8523L74.7992 19.8574L75.707 19.8551ZM87.2497 31.3945L87.2477 32.3024L87.2519 32.3024L87.2497 31.3945ZM98.7891 19.8551L99.6969 19.8574L99.6969 19.8531L98.7891 19.8551ZM87.2497 25.9236C85.6425 25.9236 84.3979 25.267 83.5375 24.2138C82.6628 23.1431 82.1516 21.6161 82.1516 19.8647H80.3359C80.3359 21.9534 80.9446 23.9098 82.1314 25.3625C83.3323 26.8326 85.0907 27.7393 87.2497 27.7393V25.9236ZM82.1516 19.8647C82.1516 18.1121 82.6603 16.5843 83.5333 15.5134C84.3917 14.4603 85.6358 13.8027 87.2497 13.8027V11.987C85.0846 11.987 83.3257 12.8943 82.1259 14.3662C80.9407 15.8202 80.3359 17.7773 80.3359 19.8647H82.1516ZM87.2497 13.8027C88.8638 13.8027 90.1069 14.4597 90.9643 15.512C91.8364 16.5823 92.3445 18.1101 92.3445 19.8647H94.1602C94.1602 17.7762 93.5565 15.819 92.3719 14.3651C91.1728 12.8933 89.4145 11.987 87.2497 11.987V13.8027ZM92.3445 19.8647C92.3445 21.617 91.8313 23.144 90.9558 24.2146C90.0941 25.2682 88.8499 25.9236 87.2497 25.9236V27.7393C89.4027 27.7393 91.1599 26.833 92.3612 25.3641C93.5487 23.9121 94.1602 21.9558 94.1602 19.8647H92.3445ZM87.2477 7.41428C83.9502 7.42159 80.7897 8.73404 78.457 11.0647L79.7404 12.3492C81.7335 10.3576 84.4341 9.23619 87.2517 9.22994L87.2477 7.41428ZM78.457 11.0647C76.1244 13.3955 74.8093 16.5549 74.7992 19.8523L76.6149 19.8579C76.6235 17.0403 77.7472 14.3407 79.7404 12.3492L78.457 11.0647ZM74.7992 19.8574C74.8074 23.1561 76.1217 26.3172 78.4546 28.6494L79.7383 27.3654C77.7449 25.3726 76.6219 22.6715 76.6149 19.8528L74.7992 19.8574ZM78.4546 28.6494C80.7874 30.9816 83.949 32.295 87.2477 32.3024L87.2517 30.4867C84.4331 30.4804 81.7316 29.3582 79.7383 27.3654L78.4546 28.6494ZM87.2519 32.3024C90.55 32.2941 93.7107 30.9803 96.0428 28.6482L94.7589 27.3643C92.7662 29.3571 90.0655 30.4797 87.2474 30.4867L87.2519 32.3024ZM96.0428 28.6482C98.3749 26.3161 99.6887 23.1555 99.6969 19.8574L97.8813 19.8528C97.8742 22.671 96.7516 25.3716 94.7589 27.3643L96.0428 28.6482ZM99.6969 19.8531C99.6896 16.5544 98.3762 13.3929 96.044 11.06L94.76 12.3437C96.7527 14.3371 97.875 17.0385 97.8813 19.8571L99.6969 19.8531ZM96.044 11.06C93.7118 8.72716 90.5506 7.41287 87.2519 7.40464L87.2474 9.2203C90.066 9.22734 92.7672 10.3504 94.76 12.3437L96.044 11.06Z" fill="#F5DEA6" mask="url(#path-1-outside-1_12_236942)"/>
<path d="M56.9812 37.9082V29.4769C58.4715 30.9775 60.526 31.8581 63.1984 31.8581C69.8496 31.8581 74.5297 26.4419 74.5297 19.8615C74.5297 13.2814 69.8626 7.86819 63.1984 7.86819C60.526 7.86819 58.4715 8.74882 56.9812 10.2494V8.88446V8.43055H56.5273H50.9905H50.5366V8.88446V37.9082V38.3621H50.9905H56.5273H56.9812V37.9082ZM62.5332 26.3776C60.7898 26.3776 59.4167 25.6585 58.4706 24.5005C57.5175 23.334 56.9812 21.6988 56.9812 19.8615C56.9812 18.0237 57.5147 16.3895 58.466 15.224C59.41 14.0674 60.7828 13.3487 62.5332 13.3487C64.2834 13.3487 65.6562 14.0681 66.6004 15.2251C67.5517 16.3911 68.0852 18.0254 68.0852 19.8615C68.0852 21.6968 67.5474 23.3321 66.5934 24.4993C65.6463 25.658 64.273 26.3776 62.5332 26.3776Z" fill="#3290FF" stroke="#F5DEA6" stroke-width="0.907837"/>
<path d="M101.898 1.7861V8.43065H98.6472H98.1933V8.88457V12.9721V13.426H98.6472H101.921V25.5976C101.921 27.0987 102.517 28.5382 103.579 29.5996C104.64 30.661 106.079 31.2573 107.581 31.2573H112.449H112.903V30.8034V26.0732V25.6193H112.449H109.573C109.247 25.6193 108.934 25.4897 108.703 25.2591C108.473 25.0284 108.343 24.7156 108.343 24.3894V13.426H111.986H112.44V12.9721V8.88457V8.43065H111.986H108.343V1.7861V1.33218H107.889H102.352H101.898V1.7861Z" fill="#3290FF" stroke="#F5DEA6" stroke-width="0.907837"/>
<mask id="path-5-outside-2_12_236942" maskUnits="userSpaceOnUse" x="0.0906982" y="0.76355" width="25" height="32" fill="black">
<rect fill="white" x="0.0906982" y="0.76355" width="25" height="32"/>
<path d="M12.6141 26.8315C8.84793 26.8315 6.60817 23.7049 6.60817 19.8616C6.60817 16.0183 8.83829 12.8949 12.6141 12.8949C16.3899 12.8949 18.6328 16.0215 18.6328 19.8552C18.6328 23.6888 16.3834 26.8251 12.6301 26.8251M18.6393 11.4745C17.2093 9.51756 15.0338 8.31573 11.9682 8.31573C5.60558 8.31573 1.0907 13.4926 1.0907 19.8552C1.0907 26.2178 5.58951 31.3978 11.9682 31.3978C15.0338 31.3978 17.2093 30.196 18.6393 28.239V30.7808H24.176V1.76355H18.6328L18.6393 11.4745Z"/>
</mask>
<path d="M12.6141 26.8315C8.84793 26.8315 6.60817 23.7049 6.60817 19.8616C6.60817 16.0183 8.83829 12.8949 12.6141 12.8949C16.3899 12.8949 18.6328 16.0215 18.6328 19.8552C18.6328 23.6888 16.3834 26.8251 12.6301 26.8251M18.6393 11.4745C17.2093 9.51756 15.0338 8.31573 11.9682 8.31573C5.60558 8.31573 1.0907 13.4926 1.0907 19.8552C1.0907 26.2178 5.58951 31.3978 11.9682 31.3978C15.0338 31.3978 17.2093 30.196 18.6393 28.239V30.7808H24.176V1.76355H18.6328L18.6393 11.4745Z" fill="#3290FF"/>
<path d="M18.6393 11.4745L17.9063 12.0101L19.5489 14.2582L19.5471 11.4739L18.6393 11.4745ZM18.6393 28.239H19.5471V25.4578L17.9063 27.7034L18.6393 28.239ZM18.6393 30.7808H17.7314V31.6887H18.6393V30.7808ZM24.176 30.7808V31.6887H25.0838V30.7808H24.176ZM24.176 1.76355H25.0838V0.855713H24.176V1.76355ZM18.6328 1.76355V0.855713H17.7244L17.725 1.76415L18.6328 1.76355ZM12.6141 25.9237C11.007 25.9237 9.7624 25.2671 8.90196 24.2135C8.02733 23.1426 7.51601 21.6147 7.51601 19.8616H5.70033C5.70033 21.9517 6.30889 23.9088 7.49567 25.362C8.69665 26.8326 10.4551 27.7394 12.6141 27.7394V25.9237ZM7.51601 19.8616C7.51601 18.1076 8.0254 16.5807 8.8985 15.5111C9.75714 14.4591 11.0013 13.8027 12.6141 13.8027V11.987C10.4511 11.987 8.69228 12.8923 7.49191 14.3629C6.306 15.8158 5.70033 17.7724 5.70033 19.8616H7.51601ZM12.6141 13.8027C14.2269 13.8027 15.4749 14.46 16.337 15.5126C17.2133 16.5825 17.725 18.1076 17.725 19.8552H19.5407C19.5407 17.7691 18.9308 15.814 17.7417 14.3622C16.5384 12.8931 14.777 11.987 12.6141 11.987V13.8027ZM17.725 19.8552C17.725 21.6022 17.212 23.1305 16.3358 24.2036C15.4734 25.2596 14.2291 25.9173 12.6301 25.9173V27.7329C14.7844 27.7329 16.5415 26.8224 17.7422 25.3519C18.929 23.8984 19.5407 21.9418 19.5407 19.8552H17.725ZM19.3723 10.9389C17.7619 8.73511 15.3072 7.4079 11.9682 7.4079V9.22357C14.7604 9.22357 16.6566 10.3 17.9063 12.0101L19.3723 10.9389ZM11.9682 7.4079C5.03513 7.4079 0.182862 13.0632 0.182862 19.8552H1.99853C1.99853 13.922 6.17603 9.22357 11.9682 9.22357V7.4079ZM0.182862 19.8552C0.182862 26.6459 5.01789 32.3056 11.9682 32.3056V30.49C6.16113 30.49 1.99853 25.7896 1.99853 19.8552H0.182862ZM11.9682 32.3056C15.3072 32.3056 17.7619 30.9784 19.3723 28.7746L17.9063 27.7034C16.6566 29.4135 14.7604 30.49 11.9682 30.49V32.3056ZM17.7314 28.239V30.7808H19.5471V28.239H17.7314ZM18.6393 31.6887H24.176V29.873H18.6393V31.6887ZM25.0838 30.7808V1.76355H23.2682V30.7808H25.0838ZM24.176 0.855713H18.6328V2.67139H24.176V0.855713ZM17.725 1.76415L17.7314 11.4751L19.5471 11.4739L19.5407 1.76295L17.725 1.76415Z" fill="#F5DEA6" mask="url(#path-5-outside-2_12_236942)"/>
<mask id="path-7-outside-3_12_236942" maskUnits="userSpaceOnUse" x="25.2121" y="7.31898" width="25" height="25" fill="black">
<rect fill="white" x="25.2121" y="7.31898" width="25" height="25"/>
<path d="M43.5293 17.8082H31.9609C32.6036 14.9676 34.6666 12.8949 37.7451 12.8949C40.8268 12.8949 42.8737 14.9676 43.5293 17.8082ZM37.7451 8.3222C34.6892 8.33152 31.7612 9.54959 29.6003 11.7104C27.4395 13.8713 26.2214 16.7993 26.2121 19.8552C26.2189 22.9139 27.4367 25.8453 29.5992 28.0084C31.7617 30.1715 34.6929 31.3902 37.7515 31.3978C39.4689 31.4009 41.1652 31.0195 42.716 30.2816C44.2668 29.5438 45.6328 28.4681 46.7138 27.1336C47.4811 26.1914 48.0949 25.1341 48.5326 24.0005H42.7163C42.2226 24.8761 41.5009 25.6014 40.6278 26.0994C39.7546 26.5973 38.7629 26.8493 37.7579 26.8283C34.5959 26.8283 32.5104 24.6207 31.9223 21.6354H48.8378V20.9156C48.8378 12.8821 44.3101 8.31898 37.7387 8.31898"/>
</mask>
<path d="M43.5293 17.8082H31.9609C32.6036 14.9676 34.6666 12.8949 37.7451 12.8949C40.8268 12.8949 42.8737 14.9676 43.5293 17.8082ZM37.7451 8.3222C34.6892 8.33152 31.7612 9.54959 29.6003 11.7104C27.4395 13.8713 26.2214 16.7993 26.2121 19.8552C26.2189 22.9139 27.4367 25.8453 29.5992 28.0084C31.7617 30.1715 34.6929 31.3902 37.7515 31.3978C39.4689 31.4009 41.1652 31.0195 42.716 30.2816C44.2668 29.5438 45.6328 28.4681 46.7138 27.1336C47.4811 26.1914 48.0949 25.1341 48.5326 24.0005H42.7163C42.2226 24.8761 41.5009 25.6014 40.6278 26.0994C39.7546 26.5973 38.7629 26.8493 37.7579 26.8283C34.5959 26.8283 32.5104 24.6207 31.9223 21.6354H48.8378V20.9156C48.8378 12.8821 44.3101 8.31898 37.7387 8.31898" fill="#3290FF"/>
<path d="M43.5293 17.8082V18.7161H44.6705L44.4138 17.6041L43.5293 17.8082ZM31.9609 17.8082L31.0755 17.6079L30.8247 18.7161H31.9609V17.8082ZM26.2121 19.8552L25.3043 19.8524L25.3043 19.8572L26.2121 19.8552ZM37.7515 31.3978L37.7492 32.3057L37.7499 32.3057L37.7515 31.3978ZM46.7138 27.1336L46.0098 26.5603L46.0083 26.5622L46.7138 27.1336ZM48.5326 24.0005L49.3795 24.3275L49.8563 23.0927H48.5326V24.0005ZM42.7163 24.0005V23.0927H42.1859L41.9255 23.5547L42.7163 24.0005ZM37.7579 26.8283L37.7768 25.9207L37.7674 25.9205H37.7579V26.8283ZM31.9223 21.6354V20.7276H30.8182L31.0316 21.8109L31.9223 21.6354ZM48.8378 21.6354V22.5433H49.7457V21.6354H48.8378ZM43.5293 16.9004H31.9609V18.7161H43.5293V16.9004ZM32.8464 18.0086C33.4143 15.4985 35.1705 13.8027 37.7451 13.8027V11.9871C34.1627 11.9871 31.7929 14.4366 31.0755 17.6079L32.8464 18.0086ZM37.7451 13.8027C40.3199 13.8027 42.0639 15.4956 42.6447 18.0124L44.4138 17.6041C43.6836 14.4395 41.3336 11.9871 37.7451 11.9871V13.8027ZM37.7423 7.41436C34.4466 7.42442 31.2888 8.73808 28.9584 11.0685L30.2423 12.3524C32.2335 10.3611 34.9318 9.23862 37.7479 9.23003L37.7423 7.41436ZM28.9584 11.0685C26.628 13.3989 25.3143 16.5567 25.3043 19.8524L27.1199 19.858C27.1285 17.0419 28.251 14.3436 30.2423 12.3524L28.9584 11.0685ZM25.3043 19.8572C25.3116 23.1559 26.625 26.3174 28.9572 28.6503L30.2412 27.3666C28.2484 25.3732 27.1262 22.6718 27.1199 19.8532L25.3043 19.8572ZM28.9572 28.6503C31.2894 30.9831 34.4506 32.2974 37.7492 32.3057L37.7538 30.49C34.9352 30.483 32.234 29.3599 30.2412 27.3666L28.9572 28.6503ZM37.7499 32.3057C39.6028 32.309 41.4329 31.8975 43.1061 31.1014L42.326 29.4618C40.8975 30.1415 39.335 30.4928 37.7531 30.49L37.7499 32.3057ZM43.1061 31.1014C44.7792 30.3053 46.253 29.1448 47.4192 27.705L46.0083 26.5622C45.0126 27.7914 43.7544 28.7822 42.326 29.4618L43.1061 31.1014ZM47.4177 27.7069C48.2453 26.6906 48.9074 25.5502 49.3795 24.3275L47.6857 23.6735C47.2824 24.718 46.7168 25.6922 46.0098 26.5603L47.4177 27.7069ZM48.5326 23.0927H42.7163V24.9084H48.5326V23.0927ZM41.9255 23.5547C41.5124 24.2872 40.9085 24.8941 40.178 25.3108L41.0775 26.888C42.0932 26.3087 42.9328 25.4649 43.5071 24.4464L41.9255 23.5547ZM40.178 25.3108C39.4475 25.7274 38.6176 25.9382 37.7768 25.9207L37.7391 27.736C38.9081 27.7603 40.0618 27.4672 41.0775 26.888L40.178 25.3108ZM37.7579 25.9205C35.125 25.9205 33.3372 24.1207 32.8131 21.46L31.0316 21.8109C31.6836 25.1208 34.0669 27.7362 37.7579 27.7362V25.9205ZM31.9223 22.5433H48.8378V20.7276H31.9223V22.5433ZM49.7457 21.6354V20.9156H47.93V21.6354H49.7457ZM49.7457 20.9156C49.7457 16.7316 48.5648 13.3445 46.4238 10.9935C44.2753 8.63424 41.2435 7.41115 37.7387 7.41115V9.22682C40.8053 9.22682 43.3231 10.2853 45.0813 12.216C46.847 14.1548 47.93 17.0661 47.93 20.9156H49.7457Z" fill="#F5DEA6" mask="url(#path-7-outside-3_12_236942)"/>
</svg>
