<svg width="115" height="38" viewBox="0 0 115 38" fill="none" xmlns="http://www.w3.org/2000/svg">
<mask id="path-1-outside-1_12_236969" maskUnits="userSpaceOnUse" x="0.0546875" y="0.0146484" width="115" height="38" fill="black">
<rect fill="white" x="0.0546875" y="0.0146484" width="115" height="38"/>
<path fill-rule="evenodd" clip-rule="evenodd" d="M43.0732 1.20936C42.9287 1.22169 42.7809 1.2343 42.7282 1.01465L38.6352 1.0167C38.6253 1.03382 38.6158 1.05581 38.6064 1.07777V1.07778V1.07778C38.5865 1.12406 38.5667 1.17019 38.5431 1.17019C37.145 1.2864 35.7775 1.64365 34.5012 2.22618C33.1198 2.83195 31.9307 3.68535 31.0733 4.93578C29.6243 7.0437 29.3235 9.35015 29.9374 11.806C30.3307 13.4203 31.2863 14.8416 32.6327 15.8151C34.5871 17.2477 36.8711 17.9026 39.2696 18.0663C40.5507 18.1796 41.8409 18.1342 43.1109 17.9312C44.2979 17.7204 45.4685 17.4953 46.5716 17.0041C46.9987 16.8134 47.4189 16.6078 47.8652 16.3893C48.0604 16.2938 48.2607 16.1958 48.4687 16.0955V17.6508H51.6736V9.62231C49.9709 9.46677 44.2447 9.51386 43.5305 9.69191C43.5506 10.0968 43.5445 10.5029 43.5383 10.9128C43.5288 11.5471 43.5192 12.1903 43.6062 12.8517H46.4161C46.3652 12.9273 46.3099 12.9998 46.2503 13.0687C44.9999 14.2761 43.4015 14.6425 41.7643 14.8144C40.6204 14.9475 39.4623 14.8873 38.3384 14.6363C37.2579 14.3784 36.2039 14.0326 35.3587 13.2918C34.1533 12.2235 33.6232 10.8462 33.744 9.24373C33.875 7.47348 34.5974 6.07363 36.2755 5.22227C37.4745 4.62769 38.7892 4.3029 40.1271 4.27066C41.04 4.21727 41.9559 4.27983 42.8531 4.45687C44.5455 4.8232 46.0661 5.41467 47.0014 6.9864C47.07 7.1013 47.1324 7.21867 47.1672 7.28421L47.1673 7.28443L47.1675 7.28469C47.1772 7.30297 47.1847 7.31717 47.1897 7.32611L51.1722 6.40312C50.7342 5.56405 50.3372 4.84574 49.7396 4.23178C47.9428 2.41447 45.71 1.54469 43.2235 1.20701C43.1769 1.20051 43.1252 1.20491 43.0732 1.20936ZM5.4097 1.41782C3.95803 1.41986 2.50636 1.42191 1.05469 1.42191L1.05674 17.6918C5.41175 17.7 9.76678 17.7 14.1218 17.6918C15.8035 17.7078 17.4473 17.192 18.8186 16.2183C19.749 15.5869 20.5355 14.7662 21.1266 13.8097C21.7177 12.8532 22.1 11.7826 22.2485 10.6681C22.4067 9.67336 22.3665 8.65716 22.1305 7.67796C21.8945 6.69876 21.4672 5.77585 20.8733 4.96236C19.2033 2.64979 16.9685 1.43828 14.1197 1.42191C11.2164 1.40963 8.31305 1.41372 5.4097 1.41782ZM7.40783 14.4394C6.66522 14.4417 5.91731 14.4439 5.16208 14.4439V4.72499C5.2434 4.71956 5.3263 4.71212 5.41016 4.70459C5.57957 4.68939 5.75296 4.67382 5.92543 4.67382C6.86531 4.66905 7.8055 4.67294 8.74564 4.67682H8.74565H8.74566H8.74567H8.74568H8.74569H8.74569H8.7457H8.74571H8.74572H8.74572H8.74573H8.74574H8.74574H8.74575H8.74575H8.74576C10.2232 4.68294 11.7005 4.68905 13.1763 4.66153C15.4438 4.61855 17.3512 6.15756 18.0143 8.20408C18.7224 10.4 17.5927 12.7064 15.7958 13.7297C14.9536 14.2262 13.9901 14.4792 13.0126 14.4603C11.1565 14.428 9.29943 14.4337 7.40794 14.4394H7.40783ZM1.05469 20.1415H5.00245C5.0382 20.1726 5.07107 20.2068 5.10068 20.2438C5.11863 20.2699 5.12924 20.3003 5.13138 20.3318V33.1062C5.88421 33.1937 6.63522 33.1808 7.3777 33.168H7.37776H7.37793H7.3781H7.37827H7.37845H7.37862H7.3788H7.37897C7.7482 33.1617 8.11531 33.1554 8.4795 33.1615C9.21014 33.1738 9.93441 33.1697 10.6602 33.1656H10.6603H10.6604H10.6606H10.6607H10.6608H10.6609H10.661H10.6619H10.6628H10.6637H10.6646H10.6655H10.6663H10.6672C11.0288 33.1635 11.3907 33.1615 11.7539 33.1615H15.1778L13.3052 36.4175H1.05878L1.05469 20.1415ZM38.2708 20.1456V36.4012C38.3421 36.4012 38.4009 36.4042 38.4524 36.4068H38.4525H38.4525H38.4525H38.4526H38.4526C38.5281 36.4107 38.5877 36.4138 38.6473 36.4053C43.7132 36.4175 48.7797 36.4175 53.8469 36.4053C54.2448 36.3787 54.6394 36.3157 55.0257 36.217C57.1029 35.8159 58.5805 33.7591 58.6644 31.7556C58.736 30.0754 58.0484 28.7349 56.7878 27.6195C56.8457 27.4519 56.9047 27.2842 56.9637 27.1164L56.9638 27.1161L56.9639 27.1158L56.964 27.1155L56.9641 27.1152C57.0569 26.851 57.15 26.5862 57.24 26.32C57.4324 25.7501 57.5039 25.1465 57.45 24.5474C57.3961 23.9484 57.2179 23.3672 56.9269 22.8409C55.9957 21.0665 54.4854 20.1456 52.4655 20.1456H38.9993H38.2708ZM53.3353 33.1553H42.3413L42.3577 30.0303C42.3774 30.0065 42.3993 29.9846 42.4232 29.9648C42.4469 29.9434 42.4758 29.9286 42.5071 29.9219H53.3353C54.2869 30.2473 54.7023 30.9206 54.5632 31.9438C54.1539 32.746 54.1539 32.746 53.3353 33.1553L53.3353 33.1553ZM42.3618 23.4487H52.2097L52.2015 23.4446C52.9259 23.7413 53.3578 24.2284 53.3537 25.0532C53.3496 25.8779 52.8748 26.3363 52.1667 26.631H42.3618V23.4487ZM87.2852 1.45258L96.6665 17.6979H91.7916C91.2145 16.6474 90.621 15.5709 90.0111 14.4685H80.4191L78.6652 17.6652H73.7924L83.1532 1.45053L87.2852 1.45258ZM82.1402 11.145H88.2982L85.2161 5.32869L82.1402 11.145ZM32.5406 36.4012H37.4154L28.0341 20.1681H23.9062L14.5454 36.3827H19.4243C20.0076 35.3226 20.5991 34.2441 21.1782 33.1861H30.7662C31.0692 33.7339 31.3681 34.2761 31.663 34.811L31.6669 34.818L31.6684 34.8208C31.9632 35.3555 32.2539 35.8829 32.5406 36.4012ZM22.8993 29.8687C23.9083 27.9552 24.8927 26.0846 25.9691 24.0381V24.0401C27.0456 26.0724 28.0361 27.9449 29.0533 29.8687H22.8993ZM77.8466 1.47103V4.6411C77.0329 4.69213 76.2165 4.68553 75.3998 4.67893C75.0045 4.67574 74.6091 4.67254 74.214 4.67588C73.4106 4.68267 72.6243 4.68045 71.821 4.67819C71.413 4.67704 71.0006 4.67588 70.5794 4.67588C70.4832 5.26655 70.4962 5.86007 70.5091 6.45191C70.5151 6.72952 70.5211 7.00675 70.5159 7.28315C70.505 7.86012 70.5086 8.42072 70.5123 8.98192L70.5123 8.98496C70.5141 9.26477 70.5159 9.54474 70.5159 9.82698V17.6652H66.4392V4.69432H59.1209V1.46899L77.8466 1.47103ZM113.757 14.4296H101.523V1.47103H97.5116V17.6734H113.814C113.814 17.482 113.816 17.2934 113.817 17.1073C113.82 16.742 113.822 16.3859 113.814 16.0362C113.811 15.8744 113.814 15.7119 113.818 15.5487V15.5486V15.5486C113.826 15.179 113.835 14.8058 113.757 14.4296ZM23.9799 1.44234H27.8949C28.0586 2.15863 28.1159 15.7435 27.9583 17.6611H23.9799V1.44234ZM53.3824 17.6631H57.3875V1.46489H53.3824V17.6631Z"/>
</mask>
<path fill-rule="evenodd" clip-rule="evenodd" d="M43.0732 1.20936C42.9287 1.22169 42.7809 1.2343 42.7282 1.01465L38.6352 1.0167C38.6253 1.03382 38.6158 1.05581 38.6064 1.07777V1.07778V1.07778C38.5865 1.12406 38.5667 1.17019 38.5431 1.17019C37.145 1.2864 35.7775 1.64365 34.5012 2.22618C33.1198 2.83195 31.9307 3.68535 31.0733 4.93578C29.6243 7.0437 29.3235 9.35015 29.9374 11.806C30.3307 13.4203 31.2863 14.8416 32.6327 15.8151C34.5871 17.2477 36.8711 17.9026 39.2696 18.0663C40.5507 18.1796 41.8409 18.1342 43.1109 17.9312C44.2979 17.7204 45.4685 17.4953 46.5716 17.0041C46.9987 16.8134 47.4189 16.6078 47.8652 16.3893C48.0604 16.2938 48.2607 16.1958 48.4687 16.0955V17.6508H51.6736V9.62231C49.9709 9.46677 44.2447 9.51386 43.5305 9.69191C43.5506 10.0968 43.5445 10.5029 43.5383 10.9128C43.5288 11.5471 43.5192 12.1903 43.6062 12.8517H46.4161C46.3652 12.9273 46.3099 12.9998 46.2503 13.0687C44.9999 14.2761 43.4015 14.6425 41.7643 14.8144C40.6204 14.9475 39.4623 14.8873 38.3384 14.6363C37.2579 14.3784 36.2039 14.0326 35.3587 13.2918C34.1533 12.2235 33.6232 10.8462 33.744 9.24373C33.875 7.47348 34.5974 6.07363 36.2755 5.22227C37.4745 4.62769 38.7892 4.3029 40.1271 4.27066C41.04 4.21727 41.9559 4.27983 42.8531 4.45687C44.5455 4.8232 46.0661 5.41467 47.0014 6.9864C47.07 7.1013 47.1324 7.21867 47.1672 7.28421L47.1673 7.28443L47.1675 7.28469C47.1772 7.30297 47.1847 7.31717 47.1897 7.32611L51.1722 6.40312C50.7342 5.56405 50.3372 4.84574 49.7396 4.23178C47.9428 2.41447 45.71 1.54469 43.2235 1.20701C43.1769 1.20051 43.1252 1.20491 43.0732 1.20936ZM5.4097 1.41782C3.95803 1.41986 2.50636 1.42191 1.05469 1.42191L1.05674 17.6918C5.41175 17.7 9.76678 17.7 14.1218 17.6918C15.8035 17.7078 17.4473 17.192 18.8186 16.2183C19.749 15.5869 20.5355 14.7662 21.1266 13.8097C21.7177 12.8532 22.1 11.7826 22.2485 10.6681C22.4067 9.67336 22.3665 8.65716 22.1305 7.67796C21.8945 6.69876 21.4672 5.77585 20.8733 4.96236C19.2033 2.64979 16.9685 1.43828 14.1197 1.42191C11.2164 1.40963 8.31305 1.41372 5.4097 1.41782ZM7.40783 14.4394C6.66522 14.4417 5.91731 14.4439 5.16208 14.4439V4.72499C5.2434 4.71956 5.3263 4.71212 5.41016 4.70459C5.57957 4.68939 5.75296 4.67382 5.92543 4.67382C6.86531 4.66905 7.8055 4.67294 8.74564 4.67682H8.74565H8.74566H8.74567H8.74568H8.74569H8.74569H8.7457H8.74571H8.74572H8.74572H8.74573H8.74574H8.74574H8.74575H8.74575H8.74576C10.2232 4.68294 11.7005 4.68905 13.1763 4.66153C15.4438 4.61855 17.3512 6.15756 18.0143 8.20408C18.7224 10.4 17.5927 12.7064 15.7958 13.7297C14.9536 14.2262 13.9901 14.4792 13.0126 14.4603C11.1565 14.428 9.29943 14.4337 7.40794 14.4394H7.40783ZM1.05469 20.1415H5.00245C5.0382 20.1726 5.07107 20.2068 5.10068 20.2438C5.11863 20.2699 5.12924 20.3003 5.13138 20.3318V33.1062C5.88421 33.1937 6.63522 33.1808 7.3777 33.168H7.37776H7.37793H7.3781H7.37827H7.37845H7.37862H7.3788H7.37897C7.7482 33.1617 8.11531 33.1554 8.4795 33.1615C9.21014 33.1738 9.93441 33.1697 10.6602 33.1656H10.6603H10.6604H10.6606H10.6607H10.6608H10.6609H10.661H10.6619H10.6628H10.6637H10.6646H10.6655H10.6663H10.6672C11.0288 33.1635 11.3907 33.1615 11.7539 33.1615H15.1778L13.3052 36.4175H1.05878L1.05469 20.1415ZM38.2708 20.1456V36.4012C38.3421 36.4012 38.4009 36.4042 38.4524 36.4068H38.4525H38.4525H38.4525H38.4526H38.4526C38.5281 36.4107 38.5877 36.4138 38.6473 36.4053C43.7132 36.4175 48.7797 36.4175 53.8469 36.4053C54.2448 36.3787 54.6394 36.3157 55.0257 36.217C57.1029 35.8159 58.5805 33.7591 58.6644 31.7556C58.736 30.0754 58.0484 28.7349 56.7878 27.6195C56.8457 27.4519 56.9047 27.2842 56.9637 27.1164L56.9638 27.1161L56.9639 27.1158L56.964 27.1155L56.9641 27.1152C57.0569 26.851 57.15 26.5862 57.24 26.32C57.4324 25.7501 57.5039 25.1465 57.45 24.5474C57.3961 23.9484 57.2179 23.3672 56.9269 22.8409C55.9957 21.0665 54.4854 20.1456 52.4655 20.1456H38.9993H38.2708ZM53.3353 33.1553H42.3413L42.3577 30.0303C42.3774 30.0065 42.3993 29.9846 42.4232 29.9648C42.4469 29.9434 42.4758 29.9286 42.5071 29.9219H53.3353C54.2869 30.2473 54.7023 30.9206 54.5632 31.9438C54.1539 32.746 54.1539 32.746 53.3353 33.1553L53.3353 33.1553ZM42.3618 23.4487H52.2097L52.2015 23.4446C52.9259 23.7413 53.3578 24.2284 53.3537 25.0532C53.3496 25.8779 52.8748 26.3363 52.1667 26.631H42.3618V23.4487ZM87.2852 1.45258L96.6665 17.6979H91.7916C91.2145 16.6474 90.621 15.5709 90.0111 14.4685H80.4191L78.6652 17.6652H73.7924L83.1532 1.45053L87.2852 1.45258ZM82.1402 11.145H88.2982L85.2161 5.32869L82.1402 11.145ZM32.5406 36.4012H37.4154L28.0341 20.1681H23.9062L14.5454 36.3827H19.4243C20.0076 35.3226 20.5991 34.2441 21.1782 33.1861H30.7662C31.0692 33.7339 31.3681 34.2761 31.663 34.811L31.6669 34.818L31.6684 34.8208C31.9632 35.3555 32.2539 35.8829 32.5406 36.4012ZM22.8993 29.8687C23.9083 27.9552 24.8927 26.0846 25.9691 24.0381V24.0401C27.0456 26.0724 28.0361 27.9449 29.0533 29.8687H22.8993ZM77.8466 1.47103V4.6411C77.0329 4.69213 76.2165 4.68553 75.3998 4.67893C75.0045 4.67574 74.6091 4.67254 74.214 4.67588C73.4106 4.68267 72.6243 4.68045 71.821 4.67819C71.413 4.67704 71.0006 4.67588 70.5794 4.67588C70.4832 5.26655 70.4962 5.86007 70.5091 6.45191C70.5151 6.72952 70.5211 7.00675 70.5159 7.28315C70.505 7.86012 70.5086 8.42072 70.5123 8.98192L70.5123 8.98496C70.5141 9.26477 70.5159 9.54474 70.5159 9.82698V17.6652H66.4392V4.69432H59.1209V1.46899L77.8466 1.47103ZM113.757 14.4296H101.523V1.47103H97.5116V17.6734H113.814C113.814 17.482 113.816 17.2934 113.817 17.1073C113.82 16.742 113.822 16.3859 113.814 16.0362C113.811 15.8744 113.814 15.7119 113.818 15.5487V15.5486V15.5486C113.826 15.179 113.835 14.8058 113.757 14.4296ZM23.9799 1.44234H27.8949C28.0586 2.15863 28.1159 15.7435 27.9583 17.6611H23.9799V1.44234ZM53.3824 17.6631H57.3875V1.46489H53.3824V17.6631Z" fill="#3290FF"/>
<path d="M42.7282 1.01465L43.611 0.803008L43.4441 0.106453L42.7278 0.106812L42.7282 1.01465ZM43.0732 1.20936L42.996 0.304808L42.996 0.304809L43.0732 1.20936ZM38.6352 1.0167L38.6347 0.10886L38.1107 0.109123L37.8489 0.562952L38.6352 1.0167ZM38.6064 1.07777L37.7723 0.719314L37.6986 0.890954V1.07777H38.6064ZM38.6064 1.07778L39.4405 1.43627L39.5142 1.26462V1.07778H38.6064ZM38.5431 1.17019V0.26235H38.5054L38.4679 0.26547L38.5431 1.17019ZM34.5012 2.22618L34.8658 3.05768L34.8781 3.05206L34.5012 2.22618ZM31.0733 4.93578L31.8214 5.45003L31.822 5.44921L31.0733 4.93578ZM29.9374 11.806L30.8195 11.5911L30.8182 11.5858L29.9374 11.806ZM32.6327 15.8151L33.1694 15.0829L33.1646 15.0794L32.6327 15.8151ZM39.2696 18.0663L39.3496 17.162L39.3405 17.1612L39.3314 17.1606L39.2696 18.0663ZM43.1109 17.9312L43.2542 18.8277L43.2619 18.8265L43.2697 18.8251L43.1109 17.9312ZM46.5716 17.0041L46.9409 17.8335L46.9419 17.8331L46.5716 17.0041ZM47.8652 16.3893L48.2642 17.2048L47.8652 16.3893ZM48.4687 16.0955H49.3766V14.6501L48.0745 15.2777L48.4687 16.0955ZM48.4687 17.6508H47.5609V18.5587H48.4687V17.6508ZM51.6736 17.6508V18.5587H52.5815V17.6508H51.6736ZM51.6736 9.62231H52.5815V8.79362L51.7562 8.71824L51.6736 9.62231ZM43.5305 9.69191L43.3109 8.81103L42.5868 8.99154L42.6237 9.73689L43.5305 9.69191ZM43.5383 10.9128L44.4461 10.9264V10.9264L43.5383 10.9128ZM43.6062 12.8517L42.7061 12.9702L42.81 13.7596H43.6062V12.8517ZM46.4161 12.8517L47.1692 13.3586L48.1213 11.9439H46.4161V12.8517ZM46.2503 13.0687L46.8809 13.7217L46.9104 13.6933L46.9372 13.6622L46.2503 13.0687ZM41.7643 14.8144L41.6695 13.9114L41.6593 13.9126L41.7643 14.8144ZM38.3384 14.6363L38.1277 15.5194L38.1405 15.5223L38.3384 14.6363ZM35.3587 13.2918L34.7565 13.9712L34.7603 13.9745L35.3587 13.2918ZM33.744 9.24373L34.6493 9.31194L34.6493 9.31072L33.744 9.24373ZM36.2755 5.22227L35.8722 4.40891L35.8648 4.41266L36.2755 5.22227ZM40.1271 4.27066L40.149 5.17823L40.1645 5.17785L40.1801 5.17695L40.1271 4.27066ZM42.8531 4.45687L43.0451 3.56958L43.037 3.56782L43.0288 3.56621L42.8531 4.45687ZM47.0014 6.9864L46.2212 7.45064L46.222 7.45189L47.0014 6.9864ZM47.1672 7.28421L47.9729 6.86568L47.9688 6.85805L47.1672 7.28421ZM47.1673 7.28443L46.3617 7.70294L46.3644 7.70797L47.1673 7.28443ZM47.1675 7.28469L46.3645 7.70824L46.3658 7.71076L47.1675 7.28469ZM47.1897 7.32611L46.3941 7.76346L46.7252 8.36566L47.3946 8.21051L47.1897 7.32611ZM51.1722 6.40312L51.3772 7.28752L52.5197 7.02273L51.977 5.98305L51.1722 6.40312ZM49.7396 4.23178L50.3902 3.59856L50.3852 3.59349L49.7396 4.23178ZM43.2235 1.20701L43.098 2.10614L43.1013 2.10659L43.2235 1.20701ZM1.05469 1.42191V0.514074H0.146737L0.146851 1.42202L1.05469 1.42191ZM5.4097 1.41782L5.40842 0.509982L5.4097 1.41782ZM1.05674 17.6918L0.148899 17.6919L0.149014 18.5979L1.05503 18.5996L1.05674 17.6918ZM14.1218 17.6918L14.1304 16.784L14.1201 16.784L14.1218 17.6918ZM18.8186 16.2183L18.3088 15.4671L18.3008 15.4725L18.2929 15.4781L18.8186 16.2183ZM21.1266 13.8097L21.8988 14.287H21.8988L21.1266 13.8097ZM22.2485 10.6681L21.352 10.5256L21.3502 10.5369L21.3487 10.5482L22.2485 10.6681ZM22.1305 7.67796L21.248 7.89069L22.1305 7.67796ZM20.8733 4.96236L20.1373 5.49385L20.1401 5.4977L20.8733 4.96236ZM14.1197 1.42191L14.125 0.514088L14.1236 0.514082L14.1197 1.42191ZM5.16208 14.4439H4.25425V15.3518H5.16208V14.4439ZM7.40783 14.4394V13.5316L7.40507 13.5316L7.40783 14.4394ZM5.16208 4.72499L5.1017 3.81916L4.25425 3.87566V4.72499H5.16208ZM5.41016 4.70459L5.329 3.80039L5.32899 3.80039L5.41016 4.70459ZM5.92543 4.67382V5.58167L5.93005 5.58165L5.92543 4.67382ZM8.74564 4.67682L8.74189 5.58466H8.74564V4.67682ZM8.74576 4.67682L8.74951 3.76899H8.74576V4.67682ZM13.1763 4.66153L13.1932 5.56921L13.1935 5.5692L13.1763 4.66153ZM18.0143 8.20408L18.8783 7.92547L18.8779 7.92427L18.0143 8.20408ZM15.7958 13.7297L15.3465 12.9407L15.3348 12.9477L15.7958 13.7297ZM13.0126 14.4603L13.0301 13.5527L13.0284 13.5526L13.0126 14.4603ZM7.40794 14.4394V15.3473L7.4107 15.3472L7.40794 14.4394ZM5.00245 20.1415L5.59825 19.4565L5.34203 19.2337H5.00245V20.1415ZM1.05469 20.1415V19.2337H0.146622L0.146851 20.1417L1.05469 20.1415ZM5.10068 20.2438L5.84808 19.7285L5.82967 19.7018L5.80939 19.6765L5.10068 20.2438ZM5.13138 20.3318H6.03922V20.3011L6.03714 20.2704L5.13138 20.3318ZM5.13138 33.1062H4.22354V33.9147L5.02664 34.008L5.13138 33.1062ZM7.3777 33.168V32.2602H7.36991L7.36212 32.2603L7.3777 33.168ZM7.37897 33.168V34.0759H7.38678L7.39458 34.0757L7.37897 33.168ZM8.4795 33.1615L8.46424 34.0692H8.46425L8.4795 33.1615ZM10.6602 33.1656V32.2577L10.6551 32.2578L10.6602 33.1656ZM10.6672 33.1656V34.0734L10.6724 34.0734L10.6672 33.1656ZM15.1778 33.1615L15.9648 33.6141L16.7471 32.2537H15.1778V33.1615ZM13.3052 36.4175V37.3254H13.8304L14.0922 36.8701L13.3052 36.4175ZM1.05878 36.4175L0.150948 36.4178L0.151177 37.3254H1.05878V36.4175ZM38.2708 36.4012H37.3629V37.309H38.2708V36.4012ZM38.2708 20.1456V19.2378H37.3629V20.1456H38.2708ZM38.4524 36.4068L38.4058 37.3135L38.4291 37.3147H38.4524V36.4068ZM38.4526 36.4068L38.4993 35.5002L38.476 35.499H38.4526V36.4068ZM38.6473 36.4053L38.6495 35.4974L38.5838 35.4973L38.5188 35.5066L38.6473 36.4053ZM53.8469 36.4053L53.8491 37.3131L53.8782 37.313L53.9073 37.3111L53.8469 36.4053ZM55.0257 36.217L54.8536 35.3256L54.8271 35.3307L54.801 35.3374L55.0257 36.217ZM58.6644 31.7556L57.7574 31.7169L57.7574 31.7176L58.6644 31.7556ZM56.7878 27.6195L55.9298 27.3227L55.7312 27.8969L56.1862 28.2995L56.7878 27.6195ZM56.9637 27.1164L57.8202 27.4174L57.8216 27.4133L56.9637 27.1164ZM56.9641 27.1152L56.1076 26.8141L56.1062 26.8182L56.9641 27.1152ZM57.24 26.32L58.1001 26.6107L58.1002 26.6104L57.24 26.32ZM57.45 24.5474L56.5458 24.6288V24.6288L57.45 24.5474ZM56.9269 22.8409L56.123 23.2627L56.1276 23.2715L56.1324 23.2802L56.9269 22.8409ZM42.3413 33.1553L41.4335 33.1506L41.4287 34.0632H42.3413V33.1553ZM53.3353 33.1553V34.0632H53.5496L53.7413 33.9673L53.3353 33.1553ZM42.3577 30.0303L41.6583 29.4515L41.4516 29.7013L41.4499 30.0256L42.3577 30.0303ZM42.4232 29.9648L43.002 30.6642L43.0173 30.6515L43.032 30.6382L42.4232 29.9648ZM42.5071 29.9219V29.014H42.4107L42.3164 29.0343L42.5071 29.9219ZM53.3353 29.9219L53.629 29.0629L53.4862 29.014H53.3353V29.9219ZM54.5632 31.9438L55.3718 32.3564L55.4419 32.219L55.4627 32.0662L54.5632 31.9438ZM52.2097 23.4487V24.3565L52.6157 22.6367L52.2097 23.4487ZM42.3618 23.4487V22.5408H41.4539V23.4487H42.3618ZM52.2015 23.4446L52.5456 22.6045L51.7955 24.2566L52.2015 23.4446ZM52.1667 26.631V27.5389H52.348L52.5155 27.4692L52.1667 26.631ZM42.3618 26.631H41.4539V27.5389H42.3618V26.631ZM96.6665 17.6979V18.6058H98.2391L97.4526 17.244L96.6665 17.6979ZM87.2852 1.45258L88.0714 0.998588L87.8094 0.545002L87.2856 0.544743L87.2852 1.45258ZM91.7916 17.6979L90.9959 18.135L91.2545 18.6058H91.7916V17.6979ZM90.0111 14.4685L90.8055 14.0291L90.5464 13.5607H90.0111V14.4685ZM80.4191 14.4685V13.5607H79.8817L79.6232 14.0318L80.4191 14.4685ZM78.6652 17.6652V18.573H79.2026L79.4611 18.1019L78.6652 17.6652ZM73.7924 17.6652L73.0062 17.2113L72.2201 18.573H73.7924V17.6652ZM83.1532 1.45053L83.1537 0.542694L82.6292 0.542434L82.367 0.996638L83.1532 1.45053ZM88.2982 11.145V12.0528H89.8067L89.1004 10.7199L88.2982 11.145ZM82.1402 11.145L81.3377 10.7205L80.6331 12.0528H82.1402V11.145ZM85.2161 5.32869L86.0183 4.90362L85.2153 3.3883L84.4136 4.90428L85.2161 5.32869ZM37.4154 36.4012V37.309H38.9886L38.2014 35.9469L37.4154 36.4012ZM32.5406 36.4012L31.7462 36.8406L32.0053 37.309H32.5406V36.4012ZM28.0341 20.1681L28.8201 19.7138L28.558 19.2602H28.0341V20.1681ZM23.9062 20.1681V19.2602H23.3821L23.12 19.7142L23.9062 20.1681ZM14.5454 36.3827L13.7592 35.9288L12.9731 37.2906H14.5454V36.3827ZM19.4243 36.3827V37.2906H19.961L20.2197 36.8203L19.4243 36.3827ZM21.1782 33.1861V32.2782H20.6402L20.3819 32.7502L21.1782 33.1861ZM30.7662 33.1861L31.5606 32.7467L31.3015 32.2782H30.7662V33.1861ZM31.663 34.811L30.8679 35.2492L30.8681 35.2495L31.663 34.811ZM31.6669 34.818L32.4623 34.3804L32.4618 34.3795L31.6669 34.818ZM31.6684 34.8208L30.873 35.2584L30.8733 35.2591L31.6684 34.8208ZM25.9691 24.0381H26.877L25.1657 23.6155L25.9691 24.0381ZM22.8993 29.8687L22.0963 29.4452L21.3944 30.7765H22.8993V29.8687ZM25.9691 24.0401H25.0613V24.2657L25.1669 24.4651L25.9691 24.0401ZM29.0533 29.8687V30.7765H30.5602L29.8558 29.4443L29.0533 29.8687ZM77.8466 4.6411L77.9034 5.54716L78.7544 5.49379V4.6411H77.8466ZM77.8466 1.47103H78.7544V0.563297L77.8467 0.563198L77.8466 1.47103ZM75.3998 4.67893L75.3924 5.58674L75.3998 4.67893ZM74.214 4.67588L74.2217 5.58368L74.214 4.67588ZM71.821 4.67819L71.8185 5.58602L71.821 4.67819ZM70.5794 4.67588V3.76804H69.8073L69.6833 4.53006L70.5794 4.67588ZM70.5091 6.45191L71.4167 6.43215V6.43214L70.5091 6.45191ZM70.5159 7.28315L71.4236 7.30032V7.30032L70.5159 7.28315ZM70.5123 8.98192L69.6045 8.9878L69.6045 8.98875L70.5123 8.98192ZM70.5123 8.98496L71.4201 8.97909L71.4201 8.97812L70.5123 8.98496ZM70.5159 17.6652V18.573H71.4238V17.6652H70.5159ZM66.4392 17.6652H65.5314V18.573H66.4392V17.6652ZM66.4392 4.69432H67.3471V3.78648H66.4392V4.69432ZM59.1209 4.69432H58.213V5.60215H59.1209V4.69432ZM59.1209 1.46899L59.121 0.561149L58.213 0.56105V1.46899H59.1209ZM101.523 14.4296H100.615V15.3374H101.523V14.4296ZM113.757 14.4296L114.646 14.2451L114.496 13.5218H113.757V14.4296ZM101.523 1.47103H102.431V0.563193H101.523V1.47103ZM97.5116 1.47103V0.563193H96.6038V1.47103H97.5116ZM97.5116 17.6734H96.6038V18.5812H97.5116V17.6734ZM113.814 17.6734V18.5812H114.722V17.6734H113.814ZM113.817 17.1073L112.909 17.1005V17.1005L113.817 17.1073ZM113.814 16.0362L114.722 16.0151V16.015L113.814 16.0362ZM113.818 15.5487L114.726 15.5695L114.726 15.5591V15.5487H113.818ZM113.818 15.5486L112.91 15.5277L112.91 15.5382V15.5486H113.818ZM27.8949 1.44234L28.7799 1.24005L28.6186 0.534508H27.8949V1.44234ZM23.9799 1.44234V0.534508H23.072V1.44234H23.9799ZM27.9583 17.6611V18.5689H28.7946L28.8631 17.7354L27.9583 17.6611ZM23.9799 17.6611H23.072V18.5689H23.9799V17.6611ZM57.3875 17.6631V18.571H58.2953V17.6631H57.3875ZM53.3824 17.6631H52.4746V18.571H53.3824V17.6631ZM57.3875 1.46489H58.2953V0.55705H57.3875V1.46489ZM53.3824 1.46489V0.55705H52.4746V1.46489H53.3824ZM41.8454 1.22629C41.9245 1.55632 42.1405 1.89864 42.5515 2.05054C42.8399 2.15711 43.1324 2.11544 43.1504 2.1139L42.996 0.304809C42.9509 0.308652 42.9607 0.307017 42.9791 0.307287C43.001 0.30761 43.0799 0.310097 43.181 0.347454C43.2948 0.389532 43.4074 0.465043 43.494 0.573729C43.5739 0.67397 43.602 0.765114 43.611 0.803008L41.8454 1.22629ZM38.6356 1.92453L42.7287 1.92248L42.7278 0.106812L38.6347 0.10886L38.6356 1.92453ZM39.4405 1.43623C39.443 1.4303 39.4443 1.42737 39.4453 1.42493C39.4463 1.42271 39.4462 1.42305 39.4453 1.4249C39.4445 1.42671 39.4422 1.43162 39.4387 1.43861C39.4352 1.44547 39.4295 1.45656 39.4215 1.47044L37.8489 0.562952C37.8067 0.635982 37.7753 0.712448 37.7723 0.719314L39.4405 1.43623ZM39.5142 1.07778V1.07777H37.6986V1.07778H39.5142ZM39.5142 1.07778V1.07778H37.6986V1.07778H39.5142ZM38.5431 2.07802C38.862 2.07802 39.0774 1.91995 39.1747 1.83042C39.2722 1.74074 39.3298 1.64976 39.3545 1.60849C39.4032 1.52746 39.4384 1.44095 39.4405 1.43627L37.7723 0.719286C37.7545 0.760894 37.7699 0.720586 37.7977 0.674187C37.8121 0.650235 37.859 0.573678 37.9455 0.494091C38.0319 0.41466 38.2359 0.26235 38.5431 0.26235V2.07802ZM34.8781 3.05206C36.0591 2.51303 37.3245 2.18244 38.6183 2.0749L38.4679 0.26547C36.9654 0.390357 35.4958 0.774282 34.1242 1.4003L34.8781 3.05206ZM31.822 5.44921C32.5607 4.37194 33.5978 3.61363 34.8658 3.05759L34.1366 1.39477C32.6418 2.05027 31.3008 2.99876 30.3246 4.42235L31.822 5.44921ZM30.8182 11.5858C30.2596 9.35166 30.537 7.31862 31.8214 5.45003L30.3251 4.42152C28.7117 6.76879 28.3873 9.34864 29.0567 12.0262L30.8182 11.5858ZM33.1646 15.0794C31.9931 14.2324 31.1617 12.9957 30.8195 11.5911L29.0554 12.0209C29.4998 13.8449 30.5795 15.4508 32.1008 16.5508L33.1646 15.0794ZM39.3314 17.1606C37.0572 17.0053 34.9514 16.3891 33.1694 15.0829L32.096 16.5473C34.2229 18.1063 36.685 18.7998 39.2078 18.972L39.3314 17.1606ZM42.9676 17.0348C41.7715 17.226 40.5562 17.2687 39.3496 17.162L39.1896 18.9706C40.5452 19.0905 41.9104 19.0425 43.2542 18.8277L42.9676 17.0348ZM46.2023 16.1748C45.2131 16.6153 44.1449 16.8256 42.9522 17.0374L43.2697 18.8251C44.4509 18.6153 45.724 18.3753 46.9409 17.8335L46.2023 16.1748ZM47.4661 15.5739C47.0172 15.7936 46.6115 15.9921 46.2014 16.1752L46.9419 17.8331C47.386 17.6347 47.8205 17.4219 48.2642 17.2048L47.4661 15.5739ZM48.0745 15.2777C47.8637 15.3794 47.6611 15.4785 47.4661 15.5739L48.2642 17.2048C48.4598 17.1091 48.6577 17.0122 48.8629 16.9133L48.0745 15.2777ZM49.3766 17.6508V16.0955H47.5609V17.6508H49.3766ZM51.6736 16.743H48.4687V18.5587H51.6736V16.743ZM50.7658 9.62231V17.6508H52.5815V9.62231H50.7658ZM43.7501 10.5728C43.7406 10.5751 43.7615 10.5698 43.8323 10.5611C43.8961 10.5532 43.9808 10.5448 44.0871 10.5364C44.2993 10.5197 44.5755 10.5044 44.9016 10.4911C45.5527 10.4646 46.3783 10.4471 47.239 10.4398C48.9763 10.4252 50.7908 10.4533 51.591 10.5264L51.7562 8.71824C50.8537 8.6358 48.9537 8.60965 47.2237 8.62421C46.3508 8.63155 45.5045 8.64942 44.8278 8.67696C44.49 8.69071 44.1885 8.70711 43.9441 8.7264C43.7234 8.74383 43.4836 8.76796 43.3109 8.81103L43.7501 10.5728ZM44.4461 10.9264C44.4521 10.5215 44.459 10.086 44.4372 9.64693L42.6237 9.73689C42.6421 10.1076 42.6368 10.4843 42.6306 10.8992L44.4461 10.9264ZM44.5063 12.7333C44.4292 12.1479 44.4364 11.5699 44.4461 10.9264L42.6306 10.8992C42.6212 11.5243 42.6091 12.2328 42.7061 12.9702L44.5063 12.7333ZM46.4161 11.9439H43.6062V13.7596H46.4161V11.9439ZM46.9372 13.6622C47.0207 13.5657 47.0981 13.4643 47.1692 13.3586L45.6629 12.3449C45.6323 12.3903 45.5991 12.4338 45.5634 12.4751L46.9372 13.6622ZM41.8591 15.7172C43.5487 15.5398 45.4048 15.1471 46.8809 13.7217L45.6197 12.4156C44.595 13.4051 43.2544 13.7451 41.6695 13.9115L41.8591 15.7172ZM38.1405 15.5223C39.3638 15.7955 40.6243 15.861 41.8693 15.7161L41.6593 13.9126C40.6166 14.034 39.5609 13.9791 38.5363 13.7503L38.1405 15.5223ZM34.7603 13.9745C35.7794 14.8678 37.0164 15.2541 38.1277 15.5193L38.5492 13.7533C37.4993 13.5027 36.6284 13.1975 35.9571 12.6091L34.7603 13.9745ZM32.8387 9.17552C32.6975 11.0489 33.3301 12.707 34.7565 13.9712L35.9608 12.6124C34.9765 11.74 34.5489 10.6434 34.6493 9.31194L32.8387 9.17552ZM35.8648 4.41266C33.8473 5.43618 32.988 7.15726 32.8386 9.17674L34.6493 9.31072C34.7619 7.78971 35.3475 6.71108 36.6863 6.03188L35.8648 4.41266ZM40.1052 3.36308C38.6348 3.39851 37.19 3.75548 35.8722 4.40895L36.6789 6.0356C37.7591 5.49991 38.9435 5.20728 40.149 5.17823L40.1052 3.36308ZM43.0288 3.56621C42.0564 3.37431 41.0636 3.3065 40.0741 3.36437L40.1801 5.17695C41.0164 5.12804 41.8555 5.18535 42.6773 5.34753L43.0288 3.56621ZM47.7815 6.52217C46.6476 4.61659 44.8075 3.95105 43.0451 3.56958L42.661 5.34416C44.2835 5.69535 45.4846 6.21275 46.2212 7.45064L47.7815 6.52217ZM47.9688 6.85805C47.9344 6.79331 47.8624 6.65754 47.7808 6.52092L46.222 7.45189C46.2776 7.54506 46.3304 7.64404 46.3656 7.71036L47.9688 6.85805ZM47.973 6.86592L47.9729 6.8657L46.3616 7.70271L46.3617 7.70293L47.973 6.86592ZM47.9705 6.86114L47.9703 6.86088L46.3644 7.70797L46.3645 7.70824L47.9705 6.86114ZM47.9852 6.88876C47.9855 6.8892 47.9844 6.88731 47.981 6.88101C47.9779 6.87516 47.9741 6.86805 47.9691 6.85862L46.3658 7.71076C46.3739 7.72594 46.3853 7.74742 46.3941 7.76346L47.9852 6.88876ZM50.9672 5.51873L46.9847 6.44171L47.3946 8.21051L51.3772 7.28752L50.9672 5.51873ZM49.0891 4.86499C49.5835 5.37294 49.9277 5.98081 50.3674 6.82319L51.977 5.98305C51.5408 5.14729 51.091 4.31855 50.3902 3.59858L49.0891 4.86499ZM43.1013 2.10659C45.449 2.42541 47.4752 3.23279 49.0941 4.87008L50.3852 3.59349C48.4103 1.59614 45.9711 0.663969 43.3457 0.307431L43.1013 2.10659ZM43.1504 2.1139C43.1644 2.11271 43.1716 2.1121 43.1778 2.11165C43.1835 2.11124 43.1837 2.11131 43.1807 2.11141C43.1776 2.11151 43.1687 2.11174 43.1556 2.11128C43.1424 2.11081 43.1226 2.10957 43.098 2.10614L43.349 0.307885C43.1821 0.284599 43.023 0.302499 42.996 0.304808L43.1504 2.1139ZM1.05469 2.32975C2.5071 2.32975 3.95942 2.3277 5.41098 2.32565L5.40842 0.509982C3.95664 0.512029 2.50561 0.514074 1.05469 0.514074V2.32975ZM1.96457 17.6917L1.96252 1.4218L0.146851 1.42202L0.148899 17.6919L1.96457 17.6917ZM14.1201 16.784C9.76621 16.7922 5.41232 16.7922 1.05844 16.784L1.05503 18.5996C5.41118 18.6078 9.76735 18.6078 14.1235 18.5996L14.1201 16.784ZM18.2929 15.4781C17.0776 16.3411 15.6208 16.7981 14.1304 16.784L14.1132 18.5996C15.9862 18.6174 17.817 18.043 19.3442 16.9585L18.2929 15.4781ZM20.3543 13.3324C19.8305 14.1801 19.1334 14.9075 18.3088 15.4671L19.3283 16.9695C20.3645 16.2663 21.2405 15.3522 21.8988 14.287L20.3543 13.3324ZM21.3487 10.5482C21.217 11.5359 20.8782 12.4848 20.3543 13.3324L21.8988 14.287C22.5572 13.2217 22.983 12.0293 23.1484 10.788L21.3487 10.5482ZM21.248 7.89069C21.4559 8.75356 21.4913 9.64902 21.352 10.5256L23.1451 10.8106C23.322 9.69769 23.2771 8.56077 23.0131 7.46524L21.248 7.89069ZM20.1401 5.4977C20.6635 6.21454 21.04 7.02781 21.248 7.89069L23.0131 7.46524C22.749 6.36971 22.271 5.33716 21.6065 4.42703L20.1401 5.4977ZM14.1145 2.32973C16.6591 2.34436 18.6283 3.40415 20.1373 5.49385L21.6093 4.43088C19.7784 1.89542 17.2779 0.532209 14.125 0.514089L14.1145 2.32973ZM5.41098 2.32565C8.31476 2.32156 11.2155 2.31747 14.1159 2.32974L14.1236 0.514082C11.2173 0.50179 8.31134 0.50589 5.40842 0.509982L5.41098 2.32565ZM5.16208 15.3518C5.91892 15.3518 6.6682 15.3495 7.4106 15.3472L7.40507 13.5316C6.66224 13.5338 5.91571 13.5361 5.16208 13.5361V15.3518ZM4.25425 4.72499V14.4439H6.06992V4.72499H4.25425ZM5.32899 3.80039C5.2432 3.8081 5.17082 3.81455 5.1017 3.81916L5.22247 5.63081C5.31599 5.62458 5.40939 5.61615 5.49133 5.6088L5.32899 3.80039ZM5.92543 3.76599C5.7055 3.76599 5.49156 3.7858 5.329 3.80039L5.49133 5.6088C5.66758 5.59297 5.80042 5.58166 5.92543 5.58166V3.76599ZM8.7494 3.769C7.80996 3.76511 6.86558 3.7612 5.92082 3.766L5.93005 5.58165C6.86504 5.5769 7.80105 5.58076 8.74189 5.58465L8.7494 3.769ZM8.74565 3.76899H8.74564V5.58466H8.74565V3.76899ZM8.74566 3.76899H8.74565V5.58466H8.74566V3.76899ZM8.74567 3.76899H8.74566V5.58466H8.74567V3.76899ZM8.74568 3.76899H8.74567V5.58466H8.74568V3.76899ZM8.74569 3.76899H8.74568V5.58466H8.74569V3.76899ZM8.74569 3.76899H8.74569V5.58466H8.74569V3.76899ZM8.7457 3.76899H8.74569V5.58466H8.7457V3.76899ZM8.74571 3.76899H8.7457V5.58466H8.74571V3.76899ZM8.74572 3.76899H8.74571V5.58466H8.74572V3.76899ZM8.74572 3.76899H8.74572V5.58466H8.74572V3.76899ZM8.74573 3.76899H8.74572V5.58466H8.74573V3.76899ZM8.74574 3.76899H8.74573V5.58466H8.74574V3.76899ZM8.74574 3.76899H8.74574V5.58466H8.74574V3.76899ZM8.74575 3.76899H8.74574V5.58466H8.74575V3.76899ZM8.74575 3.76899H8.74575V5.58466H8.74575V3.76899ZM8.74576 3.76899H8.74575V5.58466H8.74576V3.76899ZM13.1594 3.75385C11.6957 3.78114 10.2287 3.77511 8.74951 3.769L8.742 5.58465C10.2177 5.59076 11.7054 5.59695 13.1932 5.56921L13.1594 3.75385ZM18.8779 7.92427C18.104 5.53577 15.8655 3.70256 13.1591 3.75386L13.1935 5.5692C15.0222 5.53455 16.5984 6.77934 17.1506 8.4839L18.8779 7.92427ZM16.2451 14.5186C18.3693 13.3089 19.734 10.5791 18.8783 7.92547L17.1502 8.4827C17.7108 10.2209 16.816 12.104 15.3466 12.9408L16.2451 14.5186ZM12.9951 15.368C14.1407 15.3901 15.2699 15.0937 16.2569 14.5118L15.3348 12.9477C14.6374 13.3588 13.8395 13.5683 13.0301 13.5527L12.9951 15.368ZM7.4107 15.3472C9.30379 15.3415 11.1516 15.3359 12.9968 15.368L13.0284 13.5526C11.1615 13.5201 9.29507 13.5258 7.40518 13.5316L7.4107 15.3472ZM7.40783 15.3472H7.40794V13.5316H7.40783V15.3472ZM5.00245 19.2337H1.05469V21.0493H5.00245V19.2337ZM5.80939 19.6765C5.74577 19.597 5.67511 19.5234 5.59825 19.4565L4.40664 20.8265C4.40128 20.8218 4.39637 20.8167 4.39196 20.8112L5.80939 19.6765ZM6.03714 20.2704C6.02395 20.0759 5.95856 19.8887 5.84808 19.7285L4.35327 20.7591C4.27871 20.651 4.23453 20.5246 4.22562 20.3932L6.03714 20.2704ZM6.03922 33.1062V20.3318H4.22354V33.1062H6.03922ZM7.36212 32.2603C6.61003 32.2732 5.91918 32.2838 5.23612 32.2045L5.02664 34.008C5.84925 34.1035 6.66041 34.0883 7.39329 34.0757L7.36212 32.2603ZM7.37776 32.2602H7.3777V34.0759H7.37776V32.2602ZM7.37793 32.2602H7.37776V34.0759H7.37793V32.2602ZM7.3781 32.2602H7.37793V34.0759H7.3781V32.2602ZM7.37827 32.2602H7.3781V34.0759H7.37827V32.2602ZM7.37845 32.2602H7.37827V34.0759H7.37845V32.2602ZM7.37862 32.2602H7.37845V34.0759H7.37862V32.2602ZM7.3788 32.2602H7.37862V34.0759H7.3788V32.2602ZM7.37897 32.2602H7.3788V34.0759H7.37897V32.2602ZM8.49476 32.2538C8.11253 32.2474 7.7299 32.254 7.36337 32.2603L7.39458 34.0757C7.7665 34.0693 8.1181 34.0634 8.46424 34.0692L8.49476 32.2538ZM10.6551 32.2578C9.92766 32.2619 9.21353 32.2659 8.49474 32.2538L8.46425 34.0692C9.20675 34.0817 9.94117 34.0775 10.6653 34.0734L10.6551 32.2578ZM10.6603 32.2578H10.6602V34.0734H10.6603V32.2578ZM10.6604 32.2578H10.6603V34.0734H10.6604V32.2578ZM10.6606 32.2578H10.6604V34.0734H10.6606V32.2578ZM10.6607 32.2578H10.6606V34.0734H10.6607V32.2578ZM10.6608 32.2578H10.6607V34.0734H10.6608V32.2578ZM10.6609 32.2578H10.6608V34.0734H10.6609V32.2578ZM10.661 32.2578H10.6609V34.0734H10.661V32.2578ZM10.6619 32.2578H10.661V34.0734H10.6619V32.2578ZM10.6628 32.2578H10.6619V34.0734H10.6628V32.2578ZM10.6637 32.2578H10.6628V34.0734H10.6637V32.2578ZM10.6646 32.2578H10.6637V34.0734H10.6646V32.2578ZM10.6655 32.2578H10.6646V34.0734H10.6655V32.2578ZM10.6663 32.2578H10.6655V34.0734H10.6663V32.2578ZM10.6672 32.2578H10.6663V34.0734H10.6672V32.2578ZM11.7539 32.2537C11.3877 32.2537 11.0232 32.2557 10.6621 32.2578L10.6724 34.0734C11.0343 34.0714 11.3937 34.0693 11.7539 34.0693V32.2537ZM15.1778 32.2537H11.7539V34.0693H15.1778V32.2537ZM14.0922 36.8701L15.9648 33.6141L14.3908 32.7089L12.5182 35.965L14.0922 36.8701ZM1.05878 37.3254H13.3052V35.5097H1.05878V37.3254ZM0.146851 20.1417L0.150948 36.4178L1.96662 36.4173L1.96252 20.1413L0.146851 20.1417ZM39.1786 36.4012V20.1456H37.3629V36.4012H39.1786ZM38.499 35.5002C38.4472 35.4975 38.3677 35.4933 38.2708 35.4933V37.309C38.3164 37.309 38.3546 37.3108 38.4058 37.3135L38.499 35.5002ZM38.4525 35.499H38.4524V37.3147H38.4525V35.499ZM38.4525 35.499H38.4525V37.3147H38.4525V35.499ZM38.4525 35.499H38.4525V37.3147H38.4525V35.499ZM38.4526 35.499H38.4525V37.3147H38.4526V35.499ZM38.4526 35.499H38.4526V37.3147H38.4526V35.499ZM38.5188 35.5066C38.5466 35.5026 38.564 35.5029 38.5613 35.5029C38.5596 35.5029 38.5545 35.5028 38.5436 35.5023C38.5383 35.5021 38.5321 35.5018 38.5246 35.5015C38.517 35.5011 38.5089 35.5007 38.4993 35.5002L38.406 37.3135C38.4614 37.3163 38.6129 37.3273 38.7758 37.304L38.5188 35.5066ZM53.8447 35.4974C48.779 35.5097 43.7139 35.5097 38.6495 35.4974L38.6451 37.3131C43.7124 37.3254 48.7804 37.3254 53.8491 37.3131L53.8447 35.4974ZM54.801 35.3374C54.4685 35.4224 54.1289 35.4766 53.7865 35.4994L53.9073 37.3111C54.3606 37.2808 54.8102 37.209 55.2504 37.0966L54.801 35.3374ZM57.7574 31.7176C57.688 33.3728 56.4508 35.0172 54.8536 35.3256L55.1978 37.1084C57.7551 36.6146 59.4729 34.1454 59.5714 31.7935L57.7574 31.7176ZM56.1862 28.2995C57.2794 29.2667 57.8154 30.3564 57.7574 31.7169L59.5714 31.7942C59.6567 29.7943 58.8174 28.2031 57.3893 26.9396L56.1862 28.2995ZM56.1072 26.8153C56.0483 26.9828 55.9887 27.1526 55.9298 27.3227L57.6457 27.9164C57.7028 27.7512 57.761 27.5857 57.8202 27.4174L56.1072 26.8153ZM56.1059 26.8191L56.1058 26.8194L57.8216 27.4133L57.8217 27.413L56.1059 26.8191ZM56.106 26.8188L56.1059 26.8191L57.8217 27.413L57.8218 27.4127L56.106 26.8188ZM56.1061 26.8185L56.106 26.8188L57.8218 27.4127L57.8219 27.4124L56.1061 26.8185ZM56.1062 26.8182L56.1061 26.8185L57.8219 27.4124L57.822 27.4121L56.1062 26.8182ZM56.38 26.0292C56.292 26.2895 56.2008 26.5491 56.1076 26.8141L57.8206 27.4162C57.9131 27.1529 58.008 26.883 58.1001 26.6107L56.38 26.0292ZM56.5458 24.6288C56.5884 25.1022 56.5319 25.5792 56.3799 26.0296L58.1002 26.6104C58.3329 25.921 58.4194 25.1907 58.3542 24.4661L56.5458 24.6288ZM56.1324 23.2802C56.3624 23.6961 56.5032 24.1554 56.5458 24.6288L58.3542 24.4661C58.289 23.7414 58.0734 23.0383 57.7214 22.4016L56.1324 23.2802ZM52.4655 21.0534C54.1469 21.0534 55.3482 21.7863 56.123 23.2627L57.7308 22.419C56.6433 20.3468 54.8239 19.2378 52.4655 19.2378V21.0534ZM38.9993 21.0534H52.4655V19.2378H38.9993V21.0534ZM38.2708 21.0534H38.9993V19.2378H38.2708V21.0534ZM42.3413 34.0632H53.3353V32.2475H42.3413V34.0632ZM41.4499 30.0256L41.4335 33.1506L43.2491 33.1601L43.2655 30.0351L41.4499 30.0256ZM41.8443 29.2655C41.7763 29.3217 41.7141 29.3841 41.6583 29.4515L43.057 30.6092C43.0407 30.629 43.0223 30.6474 43.002 30.6642L41.8443 29.2655ZM42.3164 29.0343C42.1296 29.0744 41.9563 29.163 41.8143 29.2915L43.032 30.6382C42.9374 30.7238 42.822 30.7828 42.6977 30.8095L42.3164 29.0343ZM53.3353 29.014H42.5071V30.8297H53.3353V29.014ZM55.4627 32.0662C55.5519 31.4103 55.4762 30.7608 55.1334 30.1985C54.7896 29.6347 54.2479 29.2745 53.629 29.0629L53.0415 30.7809C53.3742 30.8946 53.5161 31.0338 53.5831 31.1438C53.6511 31.2553 53.7136 31.4541 53.6636 31.8215L55.4627 32.0662ZM53.7413 33.9673C54.0958 33.7901 54.4599 33.6199 54.7403 33.3431C55.0227 33.0645 55.1948 32.7033 55.3718 32.3564L53.7545 31.5312C53.6473 31.7413 53.5849 31.8629 53.5319 31.9526C53.4847 32.0326 53.4666 32.0492 53.4651 32.0507C53.4632 32.0526 53.445 32.0715 53.3613 32.1198C53.2686 32.1733 53.1433 32.2363 52.9293 32.3433L53.7413 33.9673ZM53.7413 33.9673L53.7413 33.9673L52.9293 32.3433L52.9293 32.3434L53.7413 33.9673ZM52.2097 22.5408H42.3618V24.3565H52.2097V22.5408ZM51.7955 24.2566L51.8037 24.2607L52.6157 22.6367L52.6075 22.6326L51.7955 24.2566ZM54.2615 25.0577C54.2644 24.4756 54.1097 23.9463 53.775 23.5035C53.4493 23.0726 53.0056 22.7929 52.5456 22.6045L51.8574 24.2847C52.1218 24.393 52.2562 24.5052 52.3266 24.5983C52.3879 24.6794 52.4471 24.806 52.4458 25.0487L54.2615 25.0577ZM52.5155 27.4692C52.949 27.2887 53.3919 27.0262 53.7275 26.6149C54.0777 26.1858 54.2585 25.6593 54.2615 25.0577L52.4458 25.0487C52.4447 25.2718 52.3861 25.3869 52.3208 25.4669C52.241 25.5646 52.0924 25.6786 51.8179 25.7929L52.5155 27.4692ZM42.3618 27.5389H52.1667V25.7232H42.3618V27.5389ZM41.4539 23.4487V26.631H43.2696V23.4487H41.4539ZM97.4526 17.244L88.0714 0.998588L86.499 1.90657L95.8803 18.1519L97.4526 17.244ZM91.7916 18.6058H96.6665V16.7901H91.7916V18.6058ZM89.2168 14.908C89.8262 16.0096 90.4193 17.0853 90.9959 18.135L92.5873 17.2608C92.0097 16.2095 91.4158 15.1322 90.8055 14.0291L89.2168 14.908ZM80.4191 15.3764H90.0111V13.5607H80.4191V15.3764ZM79.4611 18.1019L81.215 14.9052L79.6232 14.0318L77.8693 17.2285L79.4611 18.1019ZM73.7924 18.573H78.6652V16.7573H73.7924V18.573ZM82.367 0.996638L73.0062 17.2113L74.5786 18.1191L83.9395 1.90442L82.367 0.996638ZM87.2856 0.544743L83.1537 0.542694L83.1528 2.35837L87.2847 2.36042L87.2856 0.544743ZM88.2982 10.2371H82.1402V12.0528H88.2982V10.2371ZM84.414 5.75377L87.496 11.57L89.1004 10.7199L86.0183 4.90362L84.414 5.75377ZM82.9427 11.5694L86.0186 5.7531L84.4136 4.90428L81.3377 10.7205L82.9427 11.5694ZM37.4154 35.4933H32.5406V37.309H37.4154V35.4933ZM27.2481 20.6223L36.6294 36.8554L38.2014 35.9469L28.8201 19.7138L27.2481 20.6223ZM23.9062 21.0759H28.0341V19.2602H23.9062V21.0759ZM15.3316 36.8366L24.6925 20.622L23.12 19.7142L13.7592 35.9288L15.3316 36.8366ZM19.4243 35.4749H14.5454V37.2906H19.4243V35.4749ZM20.3819 32.7502C19.8029 33.8078 19.2118 34.8857 18.6289 35.9451L20.2197 36.8203C20.8034 35.7595 21.3952 34.6804 21.9746 33.622L20.3819 32.7502ZM30.7662 32.2782H21.1782V34.0939H30.7662V32.2782ZM32.458 34.3727C32.1632 33.8379 31.864 33.2952 31.5606 32.7467L29.9718 33.6254C30.2744 34.1726 30.573 34.7143 30.8679 35.2492L32.458 34.3727ZM32.4618 34.3795L32.4578 34.3724L30.8681 35.2495L30.872 35.2566L32.4618 34.3795ZM32.4638 34.3831L32.4623 34.3804L30.8715 35.2557L30.873 35.2584L32.4638 34.3831ZM33.335 35.9617C33.0487 35.4442 32.7583 34.9174 32.4634 34.3825L30.8733 35.2591C31.1681 35.7937 31.4591 36.3217 31.7462 36.8406L33.335 35.9617ZM25.1657 23.6155C24.0892 25.6619 23.105 27.5321 22.0963 29.4452L23.7024 30.2921C24.7115 28.3782 25.6961 26.5073 26.7726 24.4607L25.1657 23.6155ZM26.877 24.0401V24.0381H25.0613V24.0401H26.877ZM29.8558 29.4443C28.8386 27.5205 27.848 25.6477 26.7714 23.6152L25.1669 24.4651C26.2432 26.497 27.2336 28.3694 28.2507 30.293L29.8558 29.4443ZM22.8993 30.7765H29.0533V28.9608H22.8993V30.7765ZM78.7544 4.6411V1.47103H76.9388V4.6411H78.7544ZM75.3924 5.58674C76.2038 5.5933 77.0524 5.60053 77.9034 5.54716L77.7898 3.73505C77.0135 3.78373 76.2292 3.77777 75.4071 3.77113L75.3924 5.58674ZM74.2217 5.58368C74.6081 5.58042 74.9959 5.58353 75.3924 5.58674L75.4071 3.77113C75.0131 3.76794 74.6102 3.76466 74.2063 3.76808L74.2217 5.58368ZM71.8185 5.58602C72.6209 5.58828 73.4123 5.59052 74.2217 5.58368L74.2063 3.76808C73.4089 3.77481 72.6276 3.77262 71.8236 3.77036L71.8185 5.58602ZM70.5794 5.58372C70.9991 5.58372 71.4102 5.58487 71.8185 5.58602L71.8236 3.77036C71.4157 3.76921 71.0021 3.76804 70.5794 3.76804V5.58372ZM71.4167 6.43214C71.4035 5.82665 71.3949 5.31656 71.4754 4.8217L69.6833 4.53006C69.5716 5.21654 69.5888 5.89349 69.6014 6.47168L71.4167 6.43214ZM71.4236 7.30032C71.4292 7.00236 71.4227 6.70663 71.4167 6.43215L69.6014 6.47167C69.6076 6.7524 69.6131 7.01114 69.6082 7.26599L71.4236 7.30032ZM71.4201 8.97603C71.4164 8.41316 71.4129 7.86392 71.4236 7.30032L69.6082 7.26599C69.5971 7.85632 69.6008 8.42827 69.6045 8.9878L71.4201 8.97603ZM71.4201 8.97812L71.4201 8.97508L69.6045 8.98875L69.6045 8.99179L71.4201 8.97812ZM71.4238 9.82698C71.4238 9.54133 71.4219 9.25844 71.4201 8.97909L69.6045 8.99082C69.6063 9.2711 69.6081 9.54816 69.6081 9.82698H71.4238ZM71.4238 17.6652V9.82698H69.6081V17.6652H71.4238ZM66.4392 18.573H70.5159V16.7574H66.4392V18.573ZM65.5314 4.69432V17.6652H67.3471V4.69432H65.5314ZM59.1209 5.60215H66.4392V3.78648H59.1209V5.60215ZM58.213 1.46899V4.69432H60.0287V1.46899H58.213ZM77.8467 0.563198L59.121 0.561149L59.1208 2.37682L77.8465 2.37887L77.8467 0.563198ZM101.523 15.3374H113.757V13.5218H101.523V15.3374ZM100.615 1.47103V14.4296H102.431V1.47103H100.615ZM97.5116 2.37887H101.523V0.563193H97.5116V2.37887ZM98.4194 17.6734V1.47103H96.6038V17.6734H98.4194ZM113.814 16.7655H97.5116V18.5812H113.814V16.7655ZM112.909 17.1005C112.908 17.2862 112.906 17.4781 112.906 17.6734H114.722C114.722 17.4859 114.723 17.3007 114.725 17.114L112.909 17.1005ZM112.907 16.0573C112.914 16.3907 112.912 16.7326 112.909 17.1005L114.725 17.114C114.728 16.7513 114.73 16.3811 114.722 16.0151L112.907 16.0573ZM112.91 15.5279C112.907 15.6875 112.902 15.871 112.907 16.0573L114.722 16.015C114.719 15.8778 114.722 15.7364 114.726 15.5695L112.91 15.5279ZM112.91 15.5486V15.5487H114.726V15.5486H112.91ZM112.91 15.5486V15.5486H114.726V15.5486H112.91ZM112.868 14.6141C112.922 14.8725 112.919 15.1428 112.91 15.5277L114.726 15.5694C114.734 15.2152 114.748 14.739 114.646 14.2451L112.868 14.6141ZM27.8949 0.534508H23.9799V2.35018H27.8949V0.534508ZM28.8631 17.7354C28.946 16.7271 28.9699 12.8004 28.9549 9.09754C28.9474 7.23222 28.9298 5.40238 28.9037 3.99228C28.8907 3.28785 28.8755 2.68412 28.8583 2.23164C28.8496 2.00599 28.8403 1.81248 28.8301 1.66051C28.8218 1.537 28.809 1.36749 28.7799 1.24005L27.0099 1.64463C27.0012 1.60674 27.0081 1.62729 27.0185 1.78241C27.027 1.90907 27.0356 2.08274 27.0439 2.30085C27.0605 2.73588 27.0754 3.32597 27.0883 4.02581C27.1142 5.42425 27.1317 7.24477 27.1393 9.1049C27.1545 12.8529 27.1283 16.6774 27.0536 17.5867L28.8631 17.7354ZM23.9799 18.5689H27.9583V16.7532H23.9799V18.5689ZM23.072 1.44234V17.6611H24.8877V1.44234H23.072ZM57.3875 16.7553H53.3824V18.571H57.3875V16.7553ZM56.4796 1.46489V17.6631H58.2953V1.46489H56.4796ZM53.3824 2.37272H57.3875V0.55705H53.3824V2.37272ZM54.2903 17.6631V1.46489H52.4746V17.6631H54.2903Z" fill="#F5DEA6" mask="url(#path-1-outside-1_12_236969)"/>
</svg>
