<svg width="130" height="26" viewBox="0 0 130 26" fill="none" xmlns="http://www.w3.org/2000/svg">
<mask id="path-1-outside-1_12_236989" maskUnits="userSpaceOnUse" x="0.69397" y="0.36438" width="129" height="25" fill="black">
<rect fill="white" x="0.69397" y="0.36438" width="129" height="25"/>
<path fill-rule="evenodd" clip-rule="evenodd" d="M14.4499 1.40227C14.3443 1.39033 14.2388 1.37839 14.1334 1.3657L13.0809 1.36438C13.0131 1.38902 12.9431 1.40713 12.8718 1.41846C10.1185 1.59388 7.66462 2.54088 5.60048 4.36827C2.67836 6.9567 1.35546 10.2198 1.76763 14.1106C2.03736 16.6582 3.13142 18.8595 4.95618 20.6572C7.88752 23.5457 11.4454 24.6503 15.5011 24.0911C18.2049 23.7178 20.5355 22.5235 22.4256 20.5451C24.6289 18.237 25.6913 15.4777 25.5666 12.2852C25.5554 11.9993 25.5233 11.7145 25.4912 11.4304L25.4912 11.4303C25.476 11.2957 25.4608 11.1613 25.4479 11.0269H11.7085V14.654H21.1706C21.1646 14.6833 21.1602 14.7064 21.1565 14.7256L21.1565 14.7257L21.1564 14.7259C21.1512 14.753 21.1475 14.7725 21.1429 14.7906C20.1662 18.5792 16.425 21.0503 12.5164 20.4917C8.73956 19.9522 5.86757 16.6819 5.86757 12.8761C5.86625 10.446 6.80533 8.41611 8.67757 6.8624C10.4687 5.37529 12.5487 4.80881 14.8568 5.1702C16.8649 5.48675 18.4958 6.46803 19.7488 8.05867C19.8124 8.15047 19.899 8.22398 19.9999 8.27189C20.1008 8.31979 20.2125 8.34042 20.3238 8.3317C21.1642 8.32352 22.0063 8.32482 22.8483 8.32612H22.8484H22.8484C23.1601 8.3266 23.4718 8.32708 23.7834 8.32708H24.5965C24.5737 8.2472 24.5459 8.16879 24.5134 8.0923C22.568 4.26737 19.4223 2.12277 15.2017 1.49759C14.952 1.45906 14.7009 1.43066 14.4499 1.40227ZM65.3566 1.40318L65.3567 1.40321L65.3567 1.40321C65.5537 1.43054 65.7506 1.45785 65.9478 1.48177C68.4578 1.78644 70.6347 2.806 72.4937 4.51007C72.5176 4.53195 72.542 4.55358 72.577 4.5846L72.6579 4.65647V2.01858H76.8891V23.6077H72.6863V20.9876C72.6494 21.0145 72.618 21.0361 72.5908 21.055C72.5444 21.087 72.5097 21.1111 72.4786 21.1393C70.7435 22.7332 68.7149 23.7508 66.3837 24.0911C62.6406 24.6365 59.334 23.6512 56.5477 21.0793C54.6741 19.3495 53.5141 17.2009 53.1152 14.6864C52.5625 11.1997 53.439 8.07714 55.7445 5.39375C57.6108 3.22146 60.0047 1.96054 62.8325 1.51672C63.019 1.48753 63.2075 1.4723 63.3958 1.45708C63.5138 1.44754 63.6318 1.43802 63.7491 1.42506C63.8435 1.41098 63.937 1.39205 64.0294 1.36834L65.0839 1.3657C65.1748 1.37798 65.2657 1.39058 65.3566 1.40318ZM57.1406 12.8108C57.1406 17.071 60.6074 20.5629 64.8406 20.5675C69.1865 20.5715 72.6823 17.106 72.6724 12.8036C72.6625 8.53746 69.1805 5.06137 64.9151 5.0594C60.6285 5.05742 57.1406 8.53283 57.1406 12.8108ZM128.232 13.86L128.169 14.1566C128.137 14.3106 128.104 14.468 128.069 14.6336H108.765C108.769 14.7141 108.78 14.7942 108.797 14.873C109.794 18.0121 111.902 19.9661 115.164 20.4673C118.108 20.919 120.549 19.8546 122.432 17.5465C122.55 17.4027 122.652 17.3051 122.859 17.3064C123.869 17.3131 124.879 17.3125 125.889 17.312C126.274 17.3117 126.659 17.3115 127.043 17.3117C127.076 17.3117 127.109 17.3147 127.155 17.3187C127.184 17.3214 127.219 17.3245 127.262 17.3275C127.237 17.382 127.215 17.4339 127.193 17.4839C127.158 17.5662 127.124 17.6432 127.086 17.7179C125.931 19.9872 124.213 21.6998 121.953 22.873C120.054 23.8622 118.02 24.3404 115.886 24.2269C111.298 23.9809 107.792 21.9188 105.564 17.8545C104.796 16.4531 104.429 14.9271 104.351 13.3272C104.129 8.8019 106.706 4.84507 110.432 2.85413C112.011 2.00265 113.76 1.51252 115.552 1.41912C115.625 1.40827 115.698 1.39037 115.768 1.3657H116.823C116.891 1.39026 116.962 1.40837 117.034 1.41978C119.308 1.55167 121.397 2.24412 123.263 3.54591C125.807 5.32055 127.436 7.71312 128.039 10.7724C128.084 10.9996 128.126 11.2248 128.168 11.4502L128.169 11.4508C128.188 11.5524 128.206 11.6539 128.226 11.7557L128.232 13.86ZM123.805 10.9742C123.218 8.10682 120.336 4.94664 116.041 5.06864C113.954 5.12799 112.163 5.9398 110.705 7.43943C109.743 8.41661 109.068 9.63942 108.754 10.9742H123.805ZM44.7822 14.6198L52.318 23.5826C52.2409 23.6025 52.1624 23.6164 52.0832 23.6242C50.4471 23.6242 48.8103 23.6242 47.1741 23.6308C46.9842 23.6308 46.8721 23.5543 46.7613 23.4191C44.8743 21.1096 42.9863 18.8015 41.0971 16.4947C40.9564 16.3228 40.8152 16.1513 40.6739 15.9798L40.6738 15.9797C40.3547 15.5923 40.0356 15.2049 39.7234 14.8137C39.6838 14.756 39.6303 14.7094 39.5678 14.6782C39.5053 14.6469 39.4358 14.632 39.366 14.6349C38.3231 14.6377 37.2799 14.6376 36.2368 14.6375C35.259 14.6374 34.2812 14.6373 33.3035 14.6396C33.2663 14.6396 33.2294 14.6434 33.1834 14.6482L33.1834 14.6482C33.1634 14.6503 33.1417 14.6525 33.1175 14.6547V23.5523C32.859 23.642 29.2128 23.6585 28.8586 23.5787V1.98958H29.2286H44.221C47.3528 1.98958 49.967 4.17045 50.4919 7.2548C51.0934 10.7929 48.6731 13.9603 45.3481 14.5261C45.2313 14.5465 45.1139 14.5656 44.9793 14.5875L44.9791 14.5876L44.7822 14.6198ZM33.1254 10.9986H34.9324H43.6295C44.1704 11.0034 44.7002 10.845 45.1497 10.5441C45.5993 10.2431 45.9476 9.81363 46.1493 9.31168C46.5602 8.30005 46.3135 7.16775 45.5136 6.38034C44.9583 5.83364 44.2784 5.61008 43.5127 5.61008H33.3998C33.3417 5.61008 33.284 5.61552 33.2207 5.62149C33.1904 5.62434 33.1589 5.62731 33.1254 5.62987V10.9986ZM85.3081 23.6031V14.6382L85.7479 14.6375C89.2506 14.6428 92.7539 14.6413 96.2579 14.6329C96.6966 14.6312 97.1344 14.5937 97.567 14.5208C100.979 13.9444 103.298 10.6491 102.704 7.24356C102.176 4.2212 99.5995 2.00801 96.5178 1.99483C93.0061 1.98015 89.4942 1.98365 85.9824 1.98714C84.4424 1.98867 82.9024 1.9902 81.3625 1.9902C81.2971 1.9902 81.2322 1.99791 81.1702 2.00525C81.1433 2.00844 81.117 2.01156 81.0914 2.01395V23.6031H85.3081ZM85.4156 10.9863C85.387 10.9834 85.3563 10.9803 85.3226 10.9775V5.63378C85.3577 5.63071 85.3915 5.62691 85.4244 5.62321C85.4905 5.61577 85.5531 5.60873 85.616 5.60873H95.6994C96.7835 5.60873 97.6415 6.03409 98.1922 6.98241C99.2097 8.73463 97.9508 10.9795 95.9223 10.992C93.512 11.0072 91.1016 11.0037 88.6913 11.0003C87.6526 10.9988 86.6139 10.9973 85.5752 10.9973C85.5246 10.9973 85.4744 10.9922 85.4156 10.9863Z"/>
</mask>
<path fill-rule="evenodd" clip-rule="evenodd" d="M14.4499 1.40227C14.3443 1.39033 14.2388 1.37839 14.1334 1.3657L13.0809 1.36438C13.0131 1.38902 12.9431 1.40713 12.8718 1.41846C10.1185 1.59388 7.66462 2.54088 5.60048 4.36827C2.67836 6.9567 1.35546 10.2198 1.76763 14.1106C2.03736 16.6582 3.13142 18.8595 4.95618 20.6572C7.88752 23.5457 11.4454 24.6503 15.5011 24.0911C18.2049 23.7178 20.5355 22.5235 22.4256 20.5451C24.6289 18.237 25.6913 15.4777 25.5666 12.2852C25.5554 11.9993 25.5233 11.7145 25.4912 11.4304L25.4912 11.4303C25.476 11.2957 25.4608 11.1613 25.4479 11.0269H11.7085V14.654H21.1706C21.1646 14.6833 21.1602 14.7064 21.1565 14.7256L21.1565 14.7257L21.1564 14.7259C21.1512 14.753 21.1475 14.7725 21.1429 14.7906C20.1662 18.5792 16.425 21.0503 12.5164 20.4917C8.73956 19.9522 5.86757 16.6819 5.86757 12.8761C5.86625 10.446 6.80533 8.41611 8.67757 6.8624C10.4687 5.37529 12.5487 4.80881 14.8568 5.1702C16.8649 5.48675 18.4958 6.46803 19.7488 8.05867C19.8124 8.15047 19.899 8.22398 19.9999 8.27189C20.1008 8.31979 20.2125 8.34042 20.3238 8.3317C21.1642 8.32352 22.0063 8.32482 22.8483 8.32612H22.8484H22.8484C23.1601 8.3266 23.4718 8.32708 23.7834 8.32708H24.5965C24.5737 8.2472 24.5459 8.16879 24.5134 8.0923C22.568 4.26737 19.4223 2.12277 15.2017 1.49759C14.952 1.45906 14.7009 1.43066 14.4499 1.40227ZM65.3566 1.40318L65.3567 1.40321L65.3567 1.40321C65.5537 1.43054 65.7506 1.45785 65.9478 1.48177C68.4578 1.78644 70.6347 2.806 72.4937 4.51007C72.5176 4.53195 72.542 4.55358 72.577 4.5846L72.6579 4.65647V2.01858H76.8891V23.6077H72.6863V20.9876C72.6494 21.0145 72.618 21.0361 72.5908 21.055C72.5444 21.087 72.5097 21.1111 72.4786 21.1393C70.7435 22.7332 68.7149 23.7508 66.3837 24.0911C62.6406 24.6365 59.334 23.6512 56.5477 21.0793C54.6741 19.3495 53.5141 17.2009 53.1152 14.6864C52.5625 11.1997 53.439 8.07714 55.7445 5.39375C57.6108 3.22146 60.0047 1.96054 62.8325 1.51672C63.019 1.48753 63.2075 1.4723 63.3958 1.45708C63.5138 1.44754 63.6318 1.43802 63.7491 1.42506C63.8435 1.41098 63.937 1.39205 64.0294 1.36834L65.0839 1.3657C65.1748 1.37798 65.2657 1.39058 65.3566 1.40318ZM57.1406 12.8108C57.1406 17.071 60.6074 20.5629 64.8406 20.5675C69.1865 20.5715 72.6823 17.106 72.6724 12.8036C72.6625 8.53746 69.1805 5.06137 64.9151 5.0594C60.6285 5.05742 57.1406 8.53283 57.1406 12.8108ZM128.232 13.86L128.169 14.1566C128.137 14.3106 128.104 14.468 128.069 14.6336H108.765C108.769 14.7141 108.78 14.7942 108.797 14.873C109.794 18.0121 111.902 19.9661 115.164 20.4673C118.108 20.919 120.549 19.8546 122.432 17.5465C122.55 17.4027 122.652 17.3051 122.859 17.3064C123.869 17.3131 124.879 17.3125 125.889 17.312C126.274 17.3117 126.659 17.3115 127.043 17.3117C127.076 17.3117 127.109 17.3147 127.155 17.3187C127.184 17.3214 127.219 17.3245 127.262 17.3275C127.237 17.382 127.215 17.4339 127.193 17.4839C127.158 17.5662 127.124 17.6432 127.086 17.7179C125.931 19.9872 124.213 21.6998 121.953 22.873C120.054 23.8622 118.02 24.3404 115.886 24.2269C111.298 23.9809 107.792 21.9188 105.564 17.8545C104.796 16.4531 104.429 14.9271 104.351 13.3272C104.129 8.8019 106.706 4.84507 110.432 2.85413C112.011 2.00265 113.76 1.51252 115.552 1.41912C115.625 1.40827 115.698 1.39037 115.768 1.3657H116.823C116.891 1.39026 116.962 1.40837 117.034 1.41978C119.308 1.55167 121.397 2.24412 123.263 3.54591C125.807 5.32055 127.436 7.71312 128.039 10.7724C128.084 10.9996 128.126 11.2248 128.168 11.4502L128.169 11.4508C128.188 11.5524 128.206 11.6539 128.226 11.7557L128.232 13.86ZM123.805 10.9742C123.218 8.10682 120.336 4.94664 116.041 5.06864C113.954 5.12799 112.163 5.9398 110.705 7.43943C109.743 8.41661 109.068 9.63942 108.754 10.9742H123.805ZM44.7822 14.6198L52.318 23.5826C52.2409 23.6025 52.1624 23.6164 52.0832 23.6242C50.4471 23.6242 48.8103 23.6242 47.1741 23.6308C46.9842 23.6308 46.8721 23.5543 46.7613 23.4191C44.8743 21.1096 42.9863 18.8015 41.0971 16.4947C40.9564 16.3228 40.8152 16.1513 40.6739 15.9798L40.6738 15.9797C40.3547 15.5923 40.0356 15.2049 39.7234 14.8137C39.6838 14.756 39.6303 14.7094 39.5678 14.6782C39.5053 14.6469 39.4358 14.632 39.366 14.6349C38.3231 14.6377 37.2799 14.6376 36.2368 14.6375C35.259 14.6374 34.2812 14.6373 33.3035 14.6396C33.2663 14.6396 33.2294 14.6434 33.1834 14.6482L33.1834 14.6482C33.1634 14.6503 33.1417 14.6525 33.1175 14.6547V23.5523C32.859 23.642 29.2128 23.6585 28.8586 23.5787V1.98958H29.2286H44.221C47.3528 1.98958 49.967 4.17045 50.4919 7.2548C51.0934 10.7929 48.6731 13.9603 45.3481 14.5261C45.2313 14.5465 45.1139 14.5656 44.9793 14.5875L44.9791 14.5876L44.7822 14.6198ZM33.1254 10.9986H34.9324H43.6295C44.1704 11.0034 44.7002 10.845 45.1497 10.5441C45.5993 10.2431 45.9476 9.81363 46.1493 9.31168C46.5602 8.30005 46.3135 7.16775 45.5136 6.38034C44.9583 5.83364 44.2784 5.61008 43.5127 5.61008H33.3998C33.3417 5.61008 33.284 5.61552 33.2207 5.62149C33.1904 5.62434 33.1589 5.62731 33.1254 5.62987V10.9986ZM85.3081 23.6031V14.6382L85.7479 14.6375C89.2506 14.6428 92.7539 14.6413 96.2579 14.6329C96.6966 14.6312 97.1344 14.5937 97.567 14.5208C100.979 13.9444 103.298 10.6491 102.704 7.24356C102.176 4.2212 99.5995 2.00801 96.5178 1.99483C93.0061 1.98015 89.4942 1.98365 85.9824 1.98714C84.4424 1.98867 82.9024 1.9902 81.3625 1.9902C81.2971 1.9902 81.2322 1.99791 81.1702 2.00525C81.1433 2.00844 81.117 2.01156 81.0914 2.01395V23.6031H85.3081ZM85.4156 10.9863C85.387 10.9834 85.3563 10.9803 85.3226 10.9775V5.63378C85.3577 5.63071 85.3915 5.62691 85.4244 5.62321C85.4905 5.61577 85.5531 5.60873 85.616 5.60873H95.6994C96.7835 5.60873 97.6415 6.03409 98.1922 6.98241C99.2097 8.73463 97.9508 10.9795 95.9223 10.992C93.512 11.0072 91.1016 11.0037 88.6913 11.0003C87.6526 10.9988 86.6139 10.9973 85.5752 10.9973C85.5246 10.9973 85.4744 10.9922 85.4156 10.9863Z" fill="#3290FF"/>
<path d="M14.1334 1.3657L14.2419 0.46437L14.1884 0.457932L14.1345 0.457864L14.1334 1.3657ZM14.4499 1.40227L14.5519 0.500184L14.5519 0.500184L14.4499 1.40227ZM13.0809 1.36438L13.082 0.456544L12.9216 0.456343L12.7708 0.511121L13.0809 1.36438ZM12.8718 1.41846L12.9295 2.32446L12.9722 2.32174L13.0144 2.31503L12.8718 1.41846ZM5.60048 4.36827L4.99871 3.68854L4.99852 3.68871L5.60048 4.36827ZM1.76763 14.1106L2.67042 14.0151L2.67042 14.015L1.76763 14.1106ZM4.95618 20.6572L5.59337 20.0106L5.5933 20.0105L4.95618 20.6572ZM15.5011 24.0911L15.6251 24.9904L15.6253 24.9904L15.5011 24.0911ZM22.4256 20.5451L23.082 21.1722L23.0822 21.1719L22.4256 20.5451ZM25.5666 12.2852L26.4738 12.2498L26.4738 12.2497L25.5666 12.2852ZM25.4912 11.4304L24.5889 11.5306L24.5891 11.5322L25.4912 11.4304ZM25.4912 11.4303L26.3935 11.33L26.3933 11.3285L25.4912 11.4303ZM25.4479 11.0269L26.3516 10.94L26.2726 10.1191H25.4479V11.0269ZM11.7085 11.0269V10.1191H10.8007V11.0269H11.7085ZM11.7085 14.654H10.8007V15.5619H11.7085V14.654ZM21.1706 14.654L22.0598 14.8369L22.284 13.7462H21.1706V14.654ZM21.1565 14.7256L22.0478 14.8981L22.0481 14.8964L21.1565 14.7256ZM21.1565 14.7257L20.2652 14.5532L20.265 14.5543L21.1565 14.7257ZM21.1564 14.7259L20.2649 14.5544L20.2648 14.5553L21.1564 14.7259ZM21.1429 14.7906L22.022 15.0172L22.0225 15.0152L21.1429 14.7906ZM12.5164 20.4917L12.6448 19.593L12.6447 19.593L12.5164 20.4917ZM5.86757 12.8761H6.7754L6.7754 12.8756L5.86757 12.8761ZM8.67757 6.8624L9.25732 7.56101L9.25749 7.56087L8.67757 6.8624ZM14.8568 5.1702L14.9982 4.27344L14.9972 4.27329L14.8568 5.1702ZM19.7488 8.05867L20.4949 7.54148L20.4791 7.51869L20.4619 7.4969L19.7488 8.05867ZM19.9999 8.27189L19.6105 9.09199L19.6105 9.09199L19.9999 8.27189ZM20.3238 8.3317L20.315 7.42391L20.2839 7.42421L20.253 7.42663L20.3238 8.3317ZM22.8483 8.32612L22.8469 9.23395H22.8483V8.32612ZM22.8484 8.32612L22.8498 7.41828H22.8484V8.32612ZM24.5965 8.32708V9.23492H25.8007L25.4693 8.07728L24.5965 8.32708ZM24.5134 8.0923L25.3491 7.73746L25.3368 7.70864L25.3226 7.68074L24.5134 8.0923ZM15.2017 1.49759L15.0633 2.39483L15.0687 2.39563L15.2017 1.49759ZM65.3567 1.40321L65.4934 0.50567L65.4835 0.504271L65.3567 1.40321ZM65.3566 1.40318L65.4834 0.504247L65.4813 0.50396L65.3566 1.40318ZM65.3567 1.40321L65.22 2.30077L65.232 2.30243L65.3567 1.40321ZM65.9478 1.48177L66.0572 0.580545L66.0571 0.580534L65.9478 1.48177ZM72.4937 4.51007L71.8803 5.17929L71.8808 5.17979L72.4937 4.51007ZM72.577 4.5846L73.18 3.90594L73.1792 3.90518L72.577 4.5846ZM72.6579 4.65647L72.0549 5.33514L73.5658 6.67745V4.65647H72.6579ZM72.6579 2.01858V1.11075H71.7501V2.01858H72.6579ZM76.8891 2.01858H77.7969V1.11075H76.8891V2.01858ZM76.8891 23.6077V24.5155H77.7969V23.6077H76.8891ZM72.6863 23.6077H71.7784V24.5155H72.6863V23.6077ZM72.6863 20.9876H73.5941V19.2031L72.1517 20.2538L72.6863 20.9876ZM72.5908 21.055L72.0745 20.3082L72.0745 20.3083L72.5908 21.055ZM72.4786 21.1393L71.8687 20.4668L71.8644 20.4707L72.4786 21.1393ZM66.3837 24.0911L66.5146 24.9894L66.5148 24.9894L66.3837 24.0911ZM56.5477 21.0793L55.9319 21.7463L55.9319 21.7464L56.5477 21.0793ZM53.1152 14.6864L52.2185 14.8285L52.2185 14.8286L53.1152 14.6864ZM55.7445 5.39375L56.4331 5.98537L56.4331 5.98536L55.7445 5.39375ZM62.8325 1.51672L62.6921 0.619804L62.6917 0.619863L62.8325 1.51672ZM63.3958 1.45708L63.3227 0.552191L63.3227 0.552191L63.3958 1.45708ZM63.7491 1.42506L63.8487 2.32742L63.866 2.32551L63.8831 2.32296L63.7491 1.42506ZM64.0294 1.36834L64.0271 0.460506L63.9137 0.46079L63.8038 0.488991L64.0294 1.36834ZM65.0839 1.3657L65.2054 0.466025L65.1438 0.457709L65.0816 0.457865L65.0839 1.3657ZM64.8406 20.5675L64.8396 21.4754H64.8397L64.8406 20.5675ZM72.6724 12.8036L73.5803 12.8015V12.8015L72.6724 12.8036ZM64.9151 5.0594L64.9155 4.15156H64.9155L64.9151 5.0594ZM128.169 14.1566L127.281 13.9698L127.281 13.9702L128.169 14.1566ZM128.232 13.86L129.12 14.0468L129.14 13.9532L129.139 13.8575L128.232 13.86ZM128.069 14.6336V15.5414H128.804L128.957 14.8224L128.069 14.6336ZM108.765 14.6336V13.7258H107.807L107.858 14.6825L108.765 14.6336ZM108.797 14.873L107.91 15.0662L107.919 15.1075L107.932 15.1478L108.797 14.873ZM115.164 20.4673L115.026 21.3646L115.026 21.3646L115.164 20.4673ZM122.432 17.5465L121.731 16.9704L121.729 16.9726L122.432 17.5465ZM122.859 17.3064L122.865 16.3986L122.865 16.3986L122.859 17.3064ZM125.889 17.312L125.889 16.4041L125.889 17.312ZM127.043 17.3117L127.043 18.2195H127.043V17.3117ZM127.155 17.3187L127.074 18.223L127.074 18.223L127.155 17.3187ZM127.262 17.3275L128.088 17.7047L128.631 16.5152L127.327 16.422L127.262 17.3275ZM127.193 17.4839L128.026 17.8444L128.026 17.8443L127.193 17.4839ZM127.086 17.7179L126.278 17.3048L126.277 17.3062L127.086 17.7179ZM121.953 22.873L121.535 22.0673L121.534 22.0678L121.953 22.873ZM115.886 24.2269L115.838 25.1335L115.838 25.1335L115.886 24.2269ZM105.564 17.8545L106.36 17.4181L106.36 17.418L105.564 17.8545ZM104.351 13.3272L105.258 13.2831L105.258 13.2828L104.351 13.3272ZM110.432 2.85413L110.86 3.6548L110.863 3.65324L110.432 2.85413ZM115.552 1.41912L115.599 2.32573L115.642 2.32349L115.685 2.3172L115.552 1.41912ZM115.768 1.3657V0.457862H115.612L115.466 0.509492L115.768 1.3657ZM116.823 1.3657L117.129 0.511142L116.981 0.457862H116.823V1.3657ZM117.034 1.41978L116.892 2.31639L116.936 2.32348L116.981 2.32609L117.034 1.41978ZM123.263 3.54591L122.744 4.29051L122.744 4.29051L123.263 3.54591ZM128.039 10.7724L127.148 10.9479L127.149 10.9504L128.039 10.7724ZM128.168 11.4502L129.063 11.2933L129.061 11.2838L128.168 11.4502ZM128.169 11.4508L127.274 11.6077L127.276 11.6171L128.169 11.4508ZM128.226 11.7557L129.134 11.7531L129.133 11.6693L129.118 11.5869L128.226 11.7557ZM116.041 5.06864L116.015 4.16117L116.015 4.16117L116.041 5.06864ZM123.805 10.9742V11.882H124.917L124.694 10.7923L123.805 10.9742ZM110.705 7.43943L111.352 8.07632L111.356 8.07229L110.705 7.43943ZM108.754 10.9742L107.87 10.7664L107.608 11.882H108.754V10.9742ZM52.318 23.5826L52.5446 24.4617L53.9406 24.1019L53.0129 22.9984L52.318 23.5826ZM44.7822 14.6198L44.6357 13.7238L43.0596 13.9816L44.0874 15.204L44.7822 14.6198ZM52.0832 23.6242V24.532H52.1278L52.1721 24.5277L52.0832 23.6242ZM47.1741 23.6308V24.5386L47.1778 24.5386L47.1741 23.6308ZM46.7613 23.4191L46.0583 23.9935L46.0591 23.9945L46.7613 23.4191ZM41.0971 16.4947L40.3946 17.0697L40.3947 17.0698L41.0971 16.4947ZM40.6739 15.9798L39.9444 16.5201L39.9583 16.5389L39.9731 16.557L40.6739 15.9798ZM40.6738 15.9797L41.4033 15.4393L41.3894 15.4205L41.3745 15.4025L40.6738 15.9797ZM39.7234 14.8137L38.9751 15.3277L38.9935 15.3545L39.0138 15.3799L39.7234 14.8137ZM39.5678 14.6782L39.9738 13.8662L39.9738 13.8662L39.5678 14.6782ZM39.366 14.6349L39.3684 15.5428L39.3861 15.5427L39.4037 15.542L39.366 14.6349ZM36.2368 14.6375L36.2369 13.7296L36.2368 14.6375ZM33.3035 14.6396V15.5474L33.3055 15.5474L33.3035 14.6396ZM33.1834 14.6482L33.0895 13.7452L33.0617 13.7481L33.0342 13.7527L33.1834 14.6482ZM33.1834 14.6482L33.2774 15.5511L33.3052 15.5482L33.3327 15.5437L33.1834 14.6482ZM33.1175 14.6547L33.0353 13.7506L32.2097 13.8257V14.6547H33.1175ZM33.1175 23.5523L33.4151 24.41L34.0253 24.1983V23.5523H33.1175ZM28.8586 23.5787H27.9508V24.3047L28.6591 24.4643L28.8586 23.5787ZM28.8586 1.98958V1.08174H27.9508V1.98958H28.8586ZM50.4919 7.2548L51.3869 7.10265L51.3869 7.10248L50.4919 7.2548ZM45.3481 14.5261L45.1958 13.6311L45.1921 13.6318L45.3481 14.5261ZM44.9793 14.5875L45.1209 15.4843L45.1253 15.4836L44.9793 14.5875ZM44.9791 14.5876L44.8375 13.6908L44.8326 13.6916L44.9791 14.5876ZM33.1254 10.9986H32.2176V11.9065H33.1254V10.9986ZM43.6295 10.9986L43.6375 10.0908H43.6295V10.9986ZM45.1497 10.5441L44.6447 9.78966H44.6447L45.1497 10.5441ZM46.1493 9.31168L45.3082 8.97008L45.3069 8.9732L46.1493 9.31168ZM45.5136 6.38034L44.8767 7.02725L44.8767 7.02732L45.5136 6.38034ZM33.2207 5.62149L33.3058 6.52532H33.3058L33.2207 5.62149ZM33.1254 5.62987L33.0562 4.72467L32.2176 4.78877V5.62987H33.1254ZM85.3081 14.6382L85.3067 13.7304L84.4002 13.7317V14.6382H85.3081ZM85.3081 23.6031V24.5109H86.2159V23.6031H85.3081ZM85.7479 14.6375L85.7493 13.7297L85.7466 13.7297L85.7479 14.6375ZM96.2579 14.6329L96.2601 15.5408L96.2614 15.5408L96.2579 14.6329ZM97.567 14.5208L97.7179 15.416L97.7182 15.416L97.567 14.5208ZM102.704 7.24356L103.599 7.08769L103.599 7.08726L102.704 7.24356ZM96.5178 1.99483L96.5216 1.087L96.5216 1.087L96.5178 1.99483ZM85.9824 1.98714L85.9833 2.89498L85.9824 1.98714ZM81.1702 2.00525L81.0633 1.10372L81.0633 1.10372L81.1702 2.00525ZM81.0914 2.01395L81.0067 1.11008L80.1836 1.18725V2.01395H81.0914ZM81.0914 23.6031H80.1836V24.5109H81.0914V23.6031ZM85.3226 10.9775H84.4147V11.8128L85.2472 11.8822L85.3226 10.9775ZM85.4156 10.9863L85.3245 11.8895L85.4156 10.9863ZM85.3226 5.63378L85.2435 4.7294L84.4147 4.80191V5.63378H85.3226ZM85.4244 5.62321L85.5259 6.52536L85.5259 6.52535L85.4244 5.62321ZM98.1922 6.98241L97.4071 7.43828L97.4071 7.43832L98.1922 6.98241ZM95.9223 10.992L95.9166 10.0842H95.9165L95.9223 10.992ZM88.6913 11.0003L88.6926 10.0924L88.6913 11.0003ZM14.0249 2.26703C14.1341 2.28017 14.2428 2.29247 14.3478 2.30435L14.5519 0.500184C14.4458 0.488183 14.3435 0.476606 14.2419 0.46437L14.0249 2.26703ZM13.0797 2.27222L14.1322 2.27354L14.1345 0.457864L13.082 0.456544L13.0797 2.27222ZM13.0144 2.31503C13.1428 2.29461 13.2688 2.26199 13.3909 2.21764L12.7708 0.511121C12.7573 0.516039 12.7434 0.519644 12.7292 0.521896L13.0144 2.31503ZM6.20225 5.04801C8.103 3.36527 10.3607 2.48812 12.9295 2.32446L12.8141 0.512461C9.87628 0.699636 7.22625 1.71649 4.99871 3.68854L6.20225 5.04801ZM2.67042 14.015C2.2902 10.4257 3.49255 7.44827 6.20244 5.04784L4.99852 3.68871C1.86417 6.46513 0.42073 10.0138 0.864847 14.2063L2.67042 14.015ZM5.5933 20.0105C3.91258 18.3547 2.91721 16.346 2.67042 14.0151L0.864842 14.2062C1.1575 16.9704 2.35026 19.3643 4.31905 21.3039L5.5933 20.0105ZM15.3771 23.1917C11.5882 23.7142 8.31524 22.6926 5.59337 20.0106L4.31898 21.3039C7.4598 24.3987 11.3025 25.5864 15.6251 24.9904L15.3771 23.1917ZM21.7691 19.918C20.0201 21.7488 17.8769 22.8467 15.377 23.1918L15.6253 24.9904C18.533 24.589 21.0509 23.2983 23.082 21.1722L21.7691 19.918ZM24.6595 12.3206C24.7744 15.2638 23.8051 17.7851 21.7689 19.9183L23.0822 21.1719C25.4526 18.6888 26.6081 15.6916 26.4738 12.2498L24.6595 12.3206ZM24.5891 11.5322C24.6218 11.8219 24.6498 12.0736 24.6595 12.3207L26.4738 12.2497C26.4611 11.925 26.4248 11.6071 26.3933 11.3285L24.5891 11.5322ZM24.5889 11.5306L24.5889 11.5306L26.3935 11.3301L26.3935 11.33L24.5889 11.5306ZM24.5443 11.1139C24.558 11.257 24.5741 11.3988 24.5891 11.5321L26.3933 11.3285C26.378 11.1927 26.3637 11.0657 26.3516 10.94L24.5443 11.1139ZM11.7085 11.9348H25.4479V10.1191H11.7085V11.9348ZM12.6163 14.654V11.0269H10.8007V14.654H12.6163ZM21.1706 13.7462H11.7085V15.5619H21.1706V13.7462ZM22.0481 14.8964C22.0517 14.8774 22.0552 14.8595 22.0598 14.8369L20.2813 14.4712C20.274 14.507 20.2686 14.5354 20.2648 14.5549L22.0481 14.8964ZM22.0477 14.8982L22.0478 14.8981L20.2652 14.5531L20.2652 14.5532L22.0477 14.8982ZM22.0479 14.8973L22.048 14.8972L20.265 14.5543L20.2649 14.5544L22.0479 14.8973ZM22.0225 15.0152C22.0354 14.9647 22.0445 14.9154 22.0481 14.8965L20.2648 14.5553C20.2634 14.5624 20.2625 14.5673 20.2616 14.5716C20.2608 14.5759 20.2603 14.5781 20.2601 14.5792C20.2597 14.5814 20.2608 14.5757 20.2633 14.5659L22.0225 15.0152ZM12.3879 21.3904C16.7476 22.0134 20.928 19.2607 22.022 15.0172L20.2638 14.5639C19.4044 17.8977 16.1025 20.0871 12.6448 19.593L12.3879 21.3904ZM4.95973 12.8761C4.95973 17.1403 8.17052 20.788 12.388 21.3904L12.6447 19.593C9.3086 19.1165 6.7754 16.2235 6.7754 12.8761H4.95973ZM8.09782 6.16379C6.01492 7.89232 4.95827 10.1797 4.95973 12.8766L6.7754 12.8756C6.77423 10.7122 7.59574 8.9399 9.25732 7.56101L8.09782 6.16379ZM14.9972 4.27329C12.4341 3.87197 10.0912 4.50877 8.09765 6.16392L9.25749 7.56087C10.8462 6.24181 12.6633 5.74565 14.7164 6.06711L14.9972 4.27329ZM20.4619 7.4969C19.0718 5.73217 17.2393 4.62671 14.9982 4.27344L14.7155 6.06696C16.4905 6.34678 17.9198 7.20388 19.0356 8.62044L20.4619 7.4969ZM20.3892 7.45179C20.4317 7.47194 20.4681 7.50287 20.4949 7.54148L19.0027 8.57586C19.1567 8.79806 19.3663 8.97602 19.6105 9.09199L20.3892 7.45179ZM20.253 7.42663C20.2998 7.42296 20.3468 7.43165 20.3892 7.45178L19.6105 9.09199C19.8547 9.20793 20.1251 9.25787 20.3947 9.23677L20.253 7.42663ZM22.8497 7.41828C22.0085 7.41698 21.1613 7.41567 20.315 7.42391L20.3327 9.23949C21.167 9.23137 22.004 9.23265 22.8469 9.23395L22.8497 7.41828ZM22.8484 7.41828H22.8483V9.23395H22.8484V7.41828ZM22.8484 7.41828H22.8484V9.23395H22.8484V7.41828ZM23.7834 7.41924C23.4726 7.41924 23.1616 7.41876 22.8498 7.41828L22.847 9.23395C23.1586 9.23443 23.471 9.23492 23.7834 9.23492V7.41924ZM24.5965 7.41924H23.7834V9.23492H24.5965V7.41924ZM23.6778 8.44715C23.6958 8.48942 23.7111 8.53275 23.7237 8.57688L25.4693 8.07728C25.4362 7.96164 25.3961 7.84815 25.3491 7.73746L23.6778 8.44715ZM15.0687 2.39563C19.0147 2.98013 21.8994 4.95533 23.7043 8.50387L25.3226 7.68074C23.2366 3.57942 19.83 1.26542 15.3347 0.599556L15.0687 2.39563ZM14.3478 2.30435C14.6019 2.33309 14.8347 2.35955 15.0633 2.39482L15.3401 0.600372C15.0692 0.558575 14.7999 0.528233 14.5519 0.500184L14.3478 2.30435ZM65.4835 0.504271L65.4834 0.50425L65.2297 2.30212L65.2299 2.30214L65.4835 0.504271ZM65.4934 0.505726L65.4934 0.505724L65.22 2.30069L65.22 2.30069L65.4934 0.505726ZM66.0571 0.580534C65.8689 0.557711 65.6797 0.53149 65.4815 0.503982L65.232 2.30243C65.4277 2.32958 65.6323 2.35799 65.8385 2.383L66.0571 0.580534ZM73.1071 3.84084C71.1114 2.01142 68.7592 0.90853 66.0572 0.580545L65.8384 2.38299C68.1563 2.66435 70.158 3.60057 71.8803 5.17929L73.1071 3.84084ZM73.1792 3.90518C73.1427 3.87289 73.1241 3.85637 73.1066 3.84035L71.8808 5.17979C71.9111 5.20753 71.9413 5.23427 71.9749 5.26402L73.1792 3.90518ZM73.2609 3.9778L73.18 3.90594L71.9741 5.26327L72.0549 5.33514L73.2609 3.9778ZM71.7501 2.01858V4.65647H73.5658V2.01858H71.7501ZM76.8891 1.11075H72.6579V2.92642H76.8891V1.11075ZM77.7969 23.6077V2.01858H75.9813V23.6077H77.7969ZM72.6863 24.5155H76.8891V22.6998H72.6863V24.5155ZM71.7784 20.9876V23.6077H73.5941V20.9876H71.7784ZM73.107 21.8018C73.1344 21.7829 73.1739 21.7556 73.2208 21.7214L72.1517 20.2538C72.1248 20.2734 72.1017 20.2894 72.0745 20.3082L73.107 21.8018ZM73.0884 21.8118C73.0742 21.8247 73.0648 21.8314 73.0675 21.8294C73.069 21.8283 73.0725 21.8258 73.0794 21.8209C73.0867 21.8158 73.0949 21.8102 73.107 21.8018L72.0745 20.3083C72.0406 20.3317 71.9527 20.3906 71.8687 20.4668L73.0884 21.8118ZM66.5148 24.9894C69.0395 24.6209 71.2334 23.516 73.0927 21.8078L71.8644 20.4707C70.2536 21.9505 68.3904 22.8807 66.2526 23.1928L66.5148 24.9894ZM55.9319 21.7464C58.9245 24.5087 62.5073 25.5733 66.5146 24.9894L66.2528 23.1927C62.7739 23.6996 59.7435 22.7937 57.1635 20.4122L55.9319 21.7464ZM52.2185 14.8286C52.6499 17.5472 53.9103 19.8799 55.9319 21.7463L57.1635 20.4123C55.438 18.8191 54.3784 16.8546 54.0118 14.5441L52.2185 14.8286ZM55.0559 4.80213C52.5757 7.6888 51.6244 11.08 52.2185 14.8285L54.0118 14.5442C53.5007 11.3194 54.3022 8.46548 56.4331 5.98537L55.0559 4.80213ZM62.6917 0.619863C59.666 1.09474 57.0725 2.45492 55.0559 4.80215L56.4331 5.98536C58.1491 3.98799 60.3433 2.82635 62.9732 2.41358L62.6917 0.619863ZM63.3227 0.552191C63.1401 0.566949 62.9177 0.584494 62.6921 0.619804L62.9729 2.41364C63.1203 2.39056 63.2749 2.37764 63.4689 2.36197L63.3227 0.552191ZM63.6495 0.522706C63.5476 0.533956 63.443 0.542476 63.3227 0.552191L63.4689 2.36197C63.5847 2.35261 63.7159 2.34208 63.8487 2.32742L63.6495 0.522706ZM63.8038 0.488991C63.7415 0.504958 63.6786 0.517699 63.6151 0.527165L63.8831 2.32296C64.0083 2.30427 64.1325 2.27914 64.255 2.24769L63.8038 0.488991ZM65.0816 0.457865L64.0271 0.460506L64.0317 2.27617L65.0862 2.27353L65.0816 0.457865ZM65.4813 0.50396C65.3907 0.491395 65.2982 0.478561 65.2054 0.466025L64.9624 2.26537C65.0515 2.27739 65.1407 2.28977 65.2318 2.30241L65.4813 0.50396ZM64.8415 19.6597C61.1147 19.6556 58.0484 16.5753 58.0484 12.8108H56.2327C56.2327 17.5667 60.1001 21.4702 64.8396 21.4754L64.8415 19.6597ZM71.7646 12.8057C71.7733 16.5969 68.6935 19.6632 64.8414 19.6597L64.8397 21.4754C69.6795 21.4798 73.5913 17.615 73.5803 12.8015L71.7646 12.8057ZM64.9147 5.96723C68.6796 5.96898 71.7559 9.03983 71.7646 12.8057L73.5803 12.8015C73.5692 8.03509 69.6815 4.15377 64.9155 4.15156L64.9147 5.96723ZM58.0484 12.8108C58.0484 9.0367 61.1273 5.96549 64.9147 5.96723L64.9155 4.15156C60.1297 4.14935 56.2327 8.02897 56.2327 12.8108H58.0484ZM129.058 14.3434L129.12 14.0468L127.343 13.6733L127.281 13.9698L129.058 14.3434ZM128.957 14.8224C128.992 14.6554 129.025 14.4969 129.058 14.343L127.281 13.9702C127.248 14.1243 127.216 14.2806 127.181 14.4448L128.957 14.8224ZM108.765 15.5414H128.069V13.7258H108.765V15.5414ZM109.684 14.6798C109.677 14.6484 109.673 14.6167 109.671 14.5847L107.858 14.6825C107.865 14.8116 107.882 14.9399 107.91 15.0662L109.684 14.6798ZM115.301 19.57C113.822 19.3427 112.648 18.7947 111.735 17.9814C110.819 17.1656 110.121 16.0425 109.662 14.5982L107.932 15.1478C108.47 16.8426 109.325 18.266 110.527 19.3372C111.733 20.411 113.243 21.0907 115.026 21.3646L115.301 19.57ZM121.729 16.9726C120.029 19.0561 117.898 19.9683 115.301 19.5699L115.026 21.3646C118.318 21.8698 121.07 20.6531 123.136 18.1203L121.729 16.9726ZM122.865 16.3986C122.6 16.3969 122.348 16.4632 122.123 16.6071C121.927 16.7325 121.796 16.8913 121.731 16.9704L123.134 18.1226C123.157 18.0946 123.163 18.0883 123.161 18.0902C123.158 18.0937 123.137 18.1138 123.101 18.137C123.062 18.1617 123.016 18.1837 122.964 18.1981C122.913 18.212 122.874 18.2144 122.853 18.2142L122.865 16.3986ZM125.889 16.4041C124.878 16.4047 123.871 16.4053 122.865 16.3986L122.853 18.2142C123.867 18.221 124.88 18.2204 125.89 18.2198L125.889 16.4041ZM127.044 16.4039C126.659 16.4037 126.273 16.4039 125.889 16.4041L125.89 18.2198C126.275 18.2196 126.659 18.2194 127.043 18.2195L127.044 16.4039ZM127.236 16.4145C127.2 16.4113 127.125 16.4039 127.043 16.4039V18.2195C127.032 18.2195 127.027 18.219 127.032 18.2194C127.035 18.2196 127.039 18.2199 127.046 18.2205C127.054 18.2212 127.062 18.2219 127.074 18.223L127.236 16.4145ZM127.327 16.422C127.292 16.4195 127.265 16.4171 127.236 16.4145L127.074 18.223C127.104 18.2256 127.146 18.2294 127.198 18.2331L127.327 16.422ZM128.026 17.8443C128.048 17.7935 128.067 17.7497 128.088 17.7047L126.436 16.9504C126.407 17.0144 126.381 17.0744 126.36 17.1234L128.026 17.8443ZM127.895 18.1311C127.948 18.026 127.993 17.9218 128.026 17.8444L126.36 17.1233C126.322 17.2105 126.3 17.2605 126.278 17.3048L127.895 18.1311ZM122.372 23.6788C124.797 22.4199 126.653 20.571 127.895 18.1297L126.277 17.3062C125.21 19.4034 123.63 20.9798 121.535 22.0673L122.372 23.6788ZM115.838 25.1335C118.145 25.2561 120.339 24.7372 122.373 23.6783L121.534 22.0678C119.768 22.9873 117.895 23.4246 115.935 23.3204L115.838 25.1335ZM104.768 18.2908C107.156 22.6472 110.955 24.8717 115.838 25.1335L115.935 23.3204C111.641 23.0902 108.428 21.1904 106.36 17.4181L104.768 18.2908ZM103.444 13.3713C103.527 15.0833 103.923 16.7484 104.768 18.2909L106.36 17.418C105.669 16.1578 105.33 14.7709 105.258 13.2831L103.444 13.3713ZM110.004 2.05346C106.001 4.1927 103.204 8.4608 103.444 13.3716L105.258 13.2828C105.055 9.14301 107.412 5.49745 110.86 3.6548L110.004 2.05346ZM115.505 0.512514C113.579 0.61291 111.699 1.13976 110.001 2.05502L110.863 3.65324C112.324 2.86555 113.942 2.41213 115.599 2.32573L115.505 0.512514ZM115.466 0.509492C115.451 0.514838 115.435 0.5187 115.419 0.52104L115.685 2.3172C115.816 2.29783 115.945 2.26591 116.069 2.22191L115.466 0.509492ZM116.823 0.457862H115.768V2.27354H116.823V0.457862ZM117.176 0.523166C117.16 0.520637 117.144 0.516617 117.129 0.511142L116.516 2.22026C116.638 2.26391 116.764 2.29611 116.892 2.31639L117.176 0.523166ZM123.783 2.80132C121.772 1.39866 119.519 0.654578 117.086 0.513467L116.981 2.32609C119.096 2.44877 121.022 3.08958 122.744 4.29051L123.783 2.80132ZM128.93 10.5969C128.279 7.29524 126.509 4.70341 123.783 2.80132L122.744 4.29051C125.105 5.93769 126.593 8.131 127.148 10.9479L128.93 10.5969ZM129.061 11.2838C129.019 11.0594 128.976 10.8283 128.929 10.5944L127.149 10.9504C127.193 11.1708 127.234 11.3903 127.276 11.6165L129.061 11.2838ZM129.063 11.294L129.063 11.2933L127.274 11.607L127.274 11.6077L129.063 11.294ZM129.118 11.5869C129.099 11.4866 129.08 11.3862 129.061 11.2845L127.276 11.6171C127.295 11.7185 127.314 11.8213 127.334 11.9244L129.118 11.5869ZM129.139 13.8575L129.134 11.7531L127.318 11.7582L127.324 13.8626L129.139 13.8575ZM116.066 5.97611C119.867 5.86817 122.406 8.66533 122.915 11.1561L124.694 10.7923C124.031 7.54832 120.806 4.02511 116.015 4.16117L116.066 5.97611ZM111.356 8.07229C112.655 6.73633 114.224 6.02852 116.066 5.97611L116.015 4.16117C113.684 4.22746 111.671 5.14326 110.054 6.80657L111.356 8.07229ZM109.638 11.1821C109.914 10.0093 110.507 8.93488 111.352 8.07631L110.058 6.80255C108.979 7.89833 108.222 9.26956 107.87 10.7664L109.638 11.1821ZM123.805 10.0664H108.754V11.882H123.805V10.0664ZM53.0129 22.9984L45.4771 14.0355L44.0874 15.204L51.6231 24.1669L53.0129 22.9984ZM52.1721 24.5277C52.2977 24.5153 52.4223 24.4933 52.5446 24.4617L52.0914 22.7035C52.0596 22.7117 52.0272 22.7175 51.9944 22.7207L52.1721 24.5277ZM47.1778 24.5386C48.8118 24.532 50.4468 24.532 52.0832 24.532V22.7163C50.4474 22.7163 48.8088 22.7164 47.1705 22.723L47.1778 24.5386ZM46.0591 23.9945C46.1534 24.1095 46.2949 24.2582 46.5012 24.3714C46.7187 24.4909 46.9484 24.5386 47.1741 24.5386V22.7229C47.1879 22.7229 47.2168 22.7244 47.2556 22.7336C47.2956 22.7432 47.3364 22.7587 47.3749 22.7798C47.4499 22.821 47.48 22.8639 47.4635 22.8437L46.0591 23.9945ZM40.3947 17.0698C42.2837 19.3764 44.1715 21.6843 46.0583 23.9935L47.4643 22.8447C45.5771 20.535 43.6889 18.2265 41.7995 15.9195L40.3947 17.0698ZM39.9731 16.557C40.1146 16.7287 40.255 16.8991 40.3946 17.0697L41.7996 15.9196C41.6579 15.7465 41.5157 15.5739 41.3746 15.4026L39.9731 16.557ZM39.9443 16.5201L39.9444 16.5201L41.4034 15.4394L41.4033 15.4393L39.9443 16.5201ZM39.0138 15.3799C39.3311 15.7776 39.6548 16.1705 39.9731 16.5569L41.3745 15.4025C41.0547 15.0142 40.7401 14.6322 40.4331 14.2475L39.0138 15.3799ZM39.1618 15.4901C39.0868 15.4526 39.0226 15.3967 38.9751 15.3277L40.4717 14.2996C40.3451 14.1154 40.1738 13.9662 39.9738 13.8662L39.1618 15.4901ZM39.4037 15.542C39.32 15.5455 39.2367 15.5276 39.1618 15.4902L39.9738 13.8662C39.7738 13.7662 39.5517 13.7186 39.3283 13.7279L39.4037 15.542ZM36.2368 15.5453C37.2797 15.5454 38.324 15.5455 39.3684 15.5428L39.3636 13.7271C38.3221 13.7298 37.2802 13.7297 36.2369 13.7296L36.2368 15.5453ZM33.3055 15.5474C34.282 15.5452 35.2587 15.5452 36.2368 15.5453L36.2369 13.7296C35.2592 13.7296 34.2803 13.7295 33.3014 13.7317L33.3055 15.5474ZM33.2774 15.5511C33.2894 15.5499 33.2977 15.549 33.3052 15.5483C33.3123 15.5476 33.3164 15.5472 33.3186 15.5471C33.3229 15.5467 33.3161 15.5474 33.3035 15.5474V13.7317C33.2104 13.7317 33.1249 13.7415 33.0895 13.7452L33.2774 15.5511ZM33.3327 15.5437L33.3327 15.5437L33.0342 13.7527L33.0342 13.7527L33.3327 15.5437ZM33.1997 15.5588C33.2306 15.556 33.2578 15.5532 33.2774 15.5511L33.0894 13.7452C33.069 13.7473 33.0528 13.749 33.0353 13.7506L33.1997 15.5588ZM34.0253 23.5523V14.6547H32.2097V23.5523H34.0253ZM28.6591 24.4643C28.7928 24.4944 28.9698 24.5047 29.0853 24.5107C29.2328 24.5184 29.4159 24.5242 29.6182 24.5285C30.024 24.537 30.5294 24.5396 31.0289 24.5369C31.5281 24.5342 32.0282 24.5261 32.4233 24.5128C32.6199 24.5062 32.7976 24.4981 32.9391 24.488C33.0091 24.4831 33.0788 24.477 33.1415 24.4693C33.1777 24.4649 33.2965 24.4511 33.4151 24.41L32.8199 22.6946C32.9062 22.6647 32.9662 22.6616 32.9204 22.6672C32.9012 22.6695 32.8657 22.673 32.8106 22.6769C32.7017 22.6846 32.5494 22.6919 32.3623 22.6982C31.9899 22.7107 31.5079 22.7186 31.019 22.7212C30.5303 22.7239 30.0416 22.7213 29.6561 22.7132C29.4627 22.7092 29.3008 22.7038 29.1801 22.6975C29.0274 22.6896 29.013 22.6829 29.0582 22.6931L28.6591 24.4643ZM27.9508 1.98958V23.5787H29.7665V1.98958H27.9508ZM29.2286 1.08174H28.8586V2.89741H29.2286V1.08174ZM44.221 1.08174H29.2286V2.89741H44.221V1.08174ZM51.3869 7.10248C50.7867 3.5762 47.7897 1.08174 44.221 1.08174V2.89741C46.9159 2.89741 49.1472 4.76471 49.597 7.40711L51.3869 7.10248ZM45.5004 15.4211C49.3024 14.7741 52.0753 11.152 51.3869 7.10265L49.5969 7.40694C50.1115 10.4338 48.0438 13.1465 45.1958 13.6312L45.5004 15.4211ZM45.1253 15.4836C45.2588 15.4618 45.3814 15.4419 45.504 15.4205L45.1921 13.6318C45.0812 13.6511 44.969 13.6694 44.8333 13.6915L45.1253 15.4836ZM45.1207 15.4843L45.1209 15.4843L44.8377 13.6908L44.8375 13.6908L45.1207 15.4843ZM44.9287 15.5157L45.1256 15.4835L44.8326 13.6916L44.6357 13.7238L44.9287 15.5157ZM34.9324 10.0908H33.1254V11.9065H34.9324V10.0908ZM43.6295 10.0908H34.9324V11.9065H43.6295V10.0908ZM44.6447 9.78966C44.3469 9.98904 43.9959 10.094 43.6375 10.0908L43.6214 11.9064C44.3449 11.9128 45.0535 11.7009 45.6548 11.2984L44.6447 9.78966ZM45.3069 8.9732C45.1733 9.30575 44.9425 9.59029 44.6447 9.78966L45.6548 11.2984C46.256 10.8959 46.7219 10.3215 46.9917 9.65017L45.3069 8.9732ZM44.8767 7.02732C45.4253 7.56728 45.5753 8.31242 45.3082 8.97008L46.9904 9.65328C47.545 8.28768 47.2018 6.76821 46.1504 5.73335L44.8767 7.02732ZM43.5127 6.51792C44.0861 6.51792 44.5214 6.67748 44.8767 7.02725L46.1505 5.73343C45.3952 4.98979 44.4707 4.70224 43.5127 4.70224V6.51792ZM33.3998 6.51792H43.5127V4.70224H33.3998V6.51792ZM33.3058 6.52532C33.3773 6.51859 33.3919 6.51792 33.3998 6.51792V4.70224C33.2916 4.70224 33.1907 4.71245 33.1355 4.71766L33.3058 6.52532ZM33.1946 6.53506C33.2372 6.53181 33.2765 6.52809 33.3058 6.52532L33.1355 4.71766C33.1043 4.72059 33.0805 4.72282 33.0562 4.72467L33.1946 6.53506ZM34.0333 10.9986V5.62987H32.2176V10.9986H34.0333ZM84.4002 14.6382V23.6031H86.2159V14.6382H84.4002ZM85.7466 13.7297L85.3067 13.7304L85.3094 15.546L85.7493 15.5454L85.7466 13.7297ZM96.2558 13.7251C92.7529 13.7335 89.2508 13.735 85.7493 13.7297L85.7466 15.5454C89.2504 15.5507 92.7549 15.5491 96.2601 15.5408L96.2558 13.7251ZM97.4161 13.6256C97.0322 13.6903 96.6437 13.7236 96.2544 13.7251L96.2614 15.5408C96.7495 15.5389 97.2366 15.4971 97.7179 15.416L97.4161 13.6256ZM101.81 7.39943C102.317 10.3113 100.33 13.1335 97.4158 13.6257L97.7182 15.416C101.629 14.7554 104.278 10.9869 103.599 7.08769L101.81 7.39943ZM96.5139 2.90265C99.1491 2.91393 101.356 4.80377 101.81 7.39986L103.599 7.08726C102.996 3.63864 100.05 1.1021 96.5216 1.087L96.5139 2.90265ZM85.9833 2.89498C89.4955 2.89148 93.0051 2.888 96.514 2.90265L96.5216 1.087C93.0072 1.07231 89.4929 1.07581 85.9814 1.0793L85.9833 2.89498ZM81.3625 2.89804C82.9029 2.89804 84.4433 2.89651 85.9833 2.89498L85.9814 1.0793C84.4414 1.08084 82.9018 1.08237 81.3625 1.08237V2.89804ZM81.277 2.90678C81.3101 2.90286 81.3285 2.90074 81.345 2.89928C81.3602 2.89794 81.3647 2.89804 81.3625 2.89804V1.08237C81.2348 1.08237 81.1169 1.09737 81.0633 1.10372L81.277 2.90678ZM81.1762 2.91783C81.2147 2.91421 81.2523 2.90971 81.277 2.90678L81.0633 1.10372C81.0343 1.10717 81.0192 1.1089 81.0067 1.11008L81.1762 2.91783ZM81.9993 23.6031V2.01395H80.1836V23.6031H81.9993ZM85.3081 22.6952H81.0914V24.5109H85.3081V22.6952ZM85.2472 11.8822C85.272 11.8842 85.2952 11.8866 85.3245 11.8895L85.5067 10.083C85.4787 10.0802 85.4406 10.0763 85.398 10.0728L85.2472 11.8822ZM84.4147 5.63378V10.9775H86.2304V5.63378H84.4147ZM85.3229 4.72106C85.2885 4.72493 85.2656 4.72746 85.2435 4.7294L85.4017 6.53816C85.4497 6.53396 85.4944 6.52889 85.5259 6.52536L85.3229 4.72106ZM85.616 4.70089C85.4935 4.70089 85.3798 4.71467 85.3229 4.72106L85.5259 6.52535C85.5612 6.52138 85.5808 6.51924 85.598 6.51778C85.6135 6.51647 85.618 6.51657 85.616 6.51657V4.70089ZM95.6994 4.70089H85.616V6.51657H95.6994V4.70089ZM98.9772 6.52654C98.2439 5.26358 97.0646 4.70089 95.6994 4.70089V6.51657C96.5024 6.51657 97.0391 6.8046 97.4071 7.43828L98.9772 6.52654ZM95.9279 11.8998C98.6671 11.8829 100.338 8.87018 98.9772 6.52651L97.4071 7.43832C98.0812 8.59907 97.2344 10.076 95.9166 10.0842L95.9279 11.8998ZM88.69 11.9081C91.0998 11.9116 93.5136 11.915 95.928 11.8998L95.9165 10.0842C93.5103 10.0993 91.1035 10.0959 88.6926 10.0924L88.69 11.9081ZM85.5752 11.9051C86.6131 11.9051 87.6512 11.9066 88.69 11.9081L88.6926 10.0924C87.654 10.0909 86.6146 10.0894 85.5752 10.0894V11.9051ZM85.3245 11.8895C85.3738 11.8945 85.4707 11.9051 85.5752 11.9051V10.0894C85.5801 10.0894 85.5792 10.0897 85.5678 10.0888C85.5545 10.0878 85.5385 10.0862 85.5067 10.083L85.3245 11.8895Z" fill="#F5DEA6" mask="url(#path-1-outside-1_12_236989)"/>
</svg>
