<svg width="178" height="29" viewBox="0 0 178 29" fill="none" xmlns="http://www.w3.org/2000/svg">
<path d="M1.01544 9.19294H6.01455V11.3619C6.77664 11.526 6.83488 11.5063 7.2311 10.9353C8.2721 9.42017 9.77413 8.91321 11.5321 8.98704C13.1916 9.05676 14.5074 9.7163 15.2909 11.2503C15.4156 11.4964 16.1842 11.5251 16.3335 11.2864C17.3696 9.62197 18.966 9.0182 20.8207 8.98375C22.7009 8.94766 24.2784 9.67858 25.527 11.0789C26.6123 12.2954 27.2078 13.7548 27.2308 15.3594C27.2899 19.4479 27.2587 23.5373 27.262 27.6258C27.2567 27.6618 27.2479 27.6973 27.2357 27.7316H22.3211C22.3211 27.1574 22.3211 26.5766 22.3211 25.9966C22.3074 22.8482 22.2924 19.7 22.276 16.5521C22.281 16.2659 22.2654 15.9797 22.2292 15.6957C22.0176 14.3077 21.358 13.6826 19.9167 13.5629C19.4402 13.526 18.961 13.5555 18.4926 13.6506C17.3786 13.8721 16.7995 14.6588 16.6879 16.014C16.6682 16.2601 16.6698 16.5062 16.6698 16.7523C16.6698 20.242 16.6698 23.7314 16.6698 27.2206V27.7333H11.715V27.2329C11.7036 23.7328 11.6918 20.23 11.6798 16.7244C11.6798 16.5062 11.6798 16.288 11.6642 16.0681C11.5551 14.3717 10.7339 13.5793 9.02927 13.5456C8.67442 13.538 8.31967 13.5655 7.97022 13.6277C6.86195 13.8262 6.21635 14.6014 6.10396 15.8466C6.07197 16.1994 6.06048 16.5546 6.05966 16.9082C6.05966 20.3432 6.05966 23.7782 6.05966 27.2132V27.7447H1.07041V25.2944C1.07041 23.8359 1.07041 22.3773 1.07041 20.9188C1.0618 20.7717 1.04343 20.6254 1.01544 20.4807V9.19294Z" fill="#3290FF" stroke="#F5DEA6" stroke-width="0.907837"/>
<path d="M143.687 28.1664C143.064 28.0335 142.432 27.9351 141.82 27.7628C139.978 27.2381 138.341 26.1593 137.133 24.6727C135.924 23.1861 135.202 21.3637 135.065 19.4528C134.871 16.8204 135.432 14.4012 137.108 12.3291C139.277 9.64986 142.166 8.57523 145.558 8.84102C148.373 9.06086 150.677 10.293 152.371 12.5702C153.671 14.3167 154.217 16.3118 154.224 18.4693C154.224 18.9032 154.224 19.3363 154.224 19.8031H140.285C140.177 20.3962 140.226 20.9237 140.516 21.4356C141.155 22.5685 142.126 23.2805 143.387 23.4536C144.291 23.5813 145.208 23.5777 146.11 23.4429C147.602 23.2075 148.196 22.6529 148.966 21.1665H154.079C153.931 21.6144 153.825 22.0352 153.655 22.4282C152.288 25.5873 149.828 27.36 146.49 28.0064C146.185 28.0655 145.876 28.1131 145.569 28.1656L143.687 28.1664ZM149.183 16.2716C149.32 15.6153 149.224 15.297 148.682 14.708C147.603 13.5374 146.206 13.1724 144.678 13.1822C143.225 13.1912 141.889 13.5514 140.852 14.6457C140.429 15.0911 140.095 15.5801 140.284 16.2716H149.183Z" fill="#3290FF" stroke="#F5DEA6" stroke-width="0.907837"/>
<path d="M77.3531 28.1664C76.7436 28.0376 76.1226 27.9441 75.5262 27.7743C71.7076 26.6906 69.0579 23.4446 68.7314 19.5004C68.5033 16.7465 69.1342 14.2437 70.9463 12.1174C73.0529 9.64083 75.8133 8.62198 79.0069 8.82461C82.1717 9.02559 84.6934 10.4398 86.4169 13.1412C87.4087 14.6998 87.8574 16.4225 87.8738 18.2584C87.8788 18.7605 87.8738 19.2633 87.8738 19.8039H73.8396C73.9102 20.2838 73.8864 20.7506 74.0521 21.1361C74.7305 22.7169 76.0479 23.4191 77.6943 23.5684C78.7788 23.6677 79.8494 23.5848 80.8592 23.1107C81.6021 22.7793 82.1925 22.1795 82.5122 21.4315C82.5638 21.3133 82.7213 21.1624 82.8313 21.1616C84.4161 21.146 86.001 21.1542 87.5892 21.1616C87.6456 21.1767 87.7006 21.197 87.7533 21.2223C87.5342 21.7965 87.3628 22.4019 87.0863 22.9507C85.6475 25.812 83.2718 27.4191 80.1603 28.0122C79.8543 28.0704 79.5467 28.1196 79.2398 28.1762L77.3531 28.1664ZM73.9339 16.2642H82.8756C83.0347 15.3331 82.4908 14.7638 81.8813 14.2774C80.5466 13.2109 78.9814 13.0346 77.3498 13.256C76.0906 13.4267 75.0069 13.9443 74.2202 14.9869C73.9315 15.3684 73.8199 15.7777 73.9339 16.2642Z" fill="#3290FF" stroke="#F5DEA6" stroke-width="0.907837"/>
<path d="M105.395 28.1664C104.865 28.0589 104.329 27.972 103.805 27.8382C99.8958 26.8662 97.0492 23.4273 96.7744 19.4134C96.598 16.8433 97.1337 14.4734 98.7432 12.4291C100.876 9.72204 103.747 8.60309 107.141 8.82951C110.094 9.02721 112.507 10.3151 114.238 12.7384C117.526 17.3388 116.336 25.0196 110.043 27.4748C109.252 27.7833 108.385 27.8916 107.552 28.0934C107.461 28.1155 107.371 28.1426 107.281 28.1664H105.395ZM101.829 18.4717C101.84 18.6751 101.85 18.8819 101.861 19.0828C102.005 21.616 103.537 23.1681 106.063 23.2903C107.884 23.3781 109.406 22.8113 110.321 21.1247C110.929 20.0049 110.997 18.7801 110.855 17.5472C110.713 16.3142 110.257 15.1945 109.19 14.4447C108.035 13.6367 106.729 13.5464 105.385 13.7458C104.334 13.9016 103.448 14.3881 102.8 15.2462C102.075 16.2018 101.838 17.3027 101.829 18.4717Z" fill="#3290FF" stroke="#F5DEA6" stroke-width="0.907837"/>
<path d="M43.5973 11.3791V9.22904H48.5554V27.7365H43.603V25.5799C43.0657 25.4749 42.708 25.5299 42.3725 26.0237C41.2634 27.6521 39.5949 28.1484 37.722 28.045C33.6836 27.8219 30.5975 25.1509 29.7287 21.1263C29.1151 18.2855 29.3694 15.5415 30.8682 12.996C32.9288 9.49564 36.7196 8.40215 39.722 9.10763C40.8278 9.36604 41.7499 9.95667 42.3545 10.9124C42.6703 11.4119 43.0271 11.5071 43.5973 11.3791ZM43.6022 18.4463C43.5915 18.2002 43.5858 17.9541 43.5677 17.7121C43.4307 15.8097 42.3963 14.3906 40.7483 13.8935C39.737 13.5835 38.6588 13.565 37.6376 13.8401C36.3381 14.1855 35.4407 14.996 34.9305 16.2347C34.5629 17.1239 34.508 18.0525 34.5465 18.9992C34.6491 21.5504 36.1659 23.1312 38.7147 23.2838C40.4283 23.3855 41.9082 22.904 42.8721 21.3757C43.4307 20.4865 43.6129 19.4832 43.6022 18.4463Z" fill="#3290FF" stroke="#F5DEA6" stroke-width="0.907837"/>
<path d="M68.9012 9.21837C68.9512 9.67037 68.9545 10.0609 68.6805 10.4669C67.112 12.7942 65.5756 15.1428 64.0194 17.4791C63.8717 17.6998 63.8594 17.8565 64.0022 18.0927C65.6428 20.8064 67.2646 23.5356 68.9241 26.2411C69.2178 26.721 69.2785 27.1877 69.2129 27.7357C69.0923 27.7431 68.9742 27.757 68.8561 27.757C67.3393 27.757 65.8208 27.7497 64.3065 27.7652C64.0325 27.7652 63.8963 27.6709 63.7684 27.447C62.4058 25.1205 61.0268 22.8022 59.6667 20.4741C59.51 20.2059 59.3435 20.0935 59.0244 20.1034C58.2237 20.128 57.4214 20.1116 56.5708 20.1116V27.7333H51.5938V1.66475H56.5978V2.15694C56.5888 6.61299 56.5855 11.069 56.5617 15.5284C56.5617 15.9385 56.661 16.0755 57.0827 16.0484C57.6838 16.0168 58.2862 16.0168 58.8874 16.0484C59.2073 16.0607 59.4026 15.9664 59.5822 15.6867C60.9111 13.626 62.263 11.5793 63.6018 9.52189C63.7495 9.29384 63.9013 9.19376 64.1875 9.19376C65.6354 9.21016 67.0833 9.20031 68.5353 9.20195C68.6428 9.19949 68.7625 9.21099 68.9012 9.21837Z" fill="#3290FF" stroke="#F5DEA6" stroke-width="0.907837"/>
<path d="M161.268 1.27181L164.239 4.12739L162.17 6.17822C162.759 6.81233 163.294 7.40872 163.852 7.98295C164.279 8.42265 164.734 8.83692 165.18 9.25857C165.442 9.50467 165.804 9.5424 166.032 9.33485C167.108 8.35046 168.146 7.33077 169.231 6.28977L167.056 4.14954L170.162 1.1668C170.723 1.77713 171.251 2.38336 171.813 2.95677C172.567 3.72624 173.35 4.46864 174.114 5.22827C174.218 5.33506 174.304 5.45774 174.369 5.59167C175.125 7.11694 175.877 8.64413 176.623 10.1732C176.677 10.2848 176.705 10.5014 176.644 10.5621C176.134 11.0707 175.599 11.5547 175.003 12.1125C173.997 11.0649 172.941 9.96322 171.861 8.83691C171.459 9.21672 171.113 9.53994 170.772 9.86725C170.142 10.4718 169.516 11.0805 168.886 11.6859C168.498 12.0592 168.503 12.4242 168.886 12.7958C170.796 14.6274 172.705 16.4611 174.612 18.297C174.643 18.3367 174.67 18.3789 174.694 18.4233L172.233 21.1042C171.65 20.5496 171.078 20.009 170.51 19.4635C169.093 18.1094 167.677 16.7504 166.261 15.3864C166.099 15.2342 165.885 15.1494 165.663 15.1494C165.44 15.1494 165.226 15.2342 165.065 15.3864C163.193 17.1813 161.323 18.9768 159.454 20.7727C159.347 20.8753 159.234 20.9721 159.088 21.1058L156.741 18.5628C157.505 17.7293 158.217 16.8999 158.985 16.1305C160.123 14.9919 161.304 13.8967 162.465 12.7819C162.744 12.5145 162.768 12.0214 162.501 11.7614C161.522 10.8115 160.537 9.86889 159.51 8.88121C158.444 10.001 157.39 11.1141 156.364 12.1937C155.716 11.5785 155.191 11.0887 154.682 10.5826C154.626 10.526 154.627 10.3529 154.669 10.2659C155.438 8.67229 156.213 7.08112 156.995 5.49241C157.041 5.40906 157.101 5.33395 157.172 5.2701C158.485 3.97835 159.799 2.68798 161.116 1.39896C161.164 1.3537 161.215 1.31124 161.268 1.27181Z" fill="#3290FF" stroke="#F5DEA6" stroke-width="0.907837"/>
<path d="M135.451 9.19867C135.328 9.80571 135.287 10.3521 135.108 10.8492C133.116 16.361 131.1 21.8646 129.102 27.374C128.999 27.6611 128.877 27.7685 128.561 27.7661C126.51 27.7497 124.459 27.7529 122.408 27.7661C122.145 27.7661 122.035 27.684 121.946 27.4379C119.902 21.8405 117.856 16.2442 115.808 10.649C115.651 10.2175 115.644 9.73025 115.566 9.22985C115.78 9.21591 115.898 9.20113 116.016 9.20113C117.478 9.20113 118.94 9.20935 120.402 9.19294C120.687 9.19294 120.802 9.28236 120.888 9.54487C122.252 13.6793 123.623 17.8122 125 21.9434C125.149 22.3945 125.531 22.5914 125.959 22.4003C126.055 22.3568 126.115 22.1952 126.155 22.0722C127.544 17.9158 128.927 13.7595 130.305 9.60311C130.406 9.29548 130.527 9.18063 130.867 9.18719C132.205 9.21098 133.545 9.19705 134.887 9.19705L135.451 9.19867Z" fill="#3290FF" stroke="#F5DEA6" stroke-width="0.907837"/>
<path d="M94.639 27.7423H90.0764V1.65572H94.639V27.7423Z" fill="#3290FF" stroke="#F5DEA6" stroke-width="0.907837"/>
</svg>
