<svg width="129" height="54" viewBox="0 0 129 54" fill="none" xmlns="http://www.w3.org/2000/svg">
<path d="M39.8353 32.5684L34.0432 23.3227L33.9098 23.1098H33.6585H28.1426H27.6887V23.5637V43.4528V43.9067H28.1426H33.7382H34.1921V43.4528V33.2955L38.0367 39.3896L38.1703 39.6013H38.4206H41.2836H41.534L41.6675 39.3896L45.5121 33.2955V43.4528V43.9067H45.966H51.5181H51.9721V43.4528V23.5637V23.1098H51.5181H46.053H45.8026L45.6691 23.3215L39.8353 32.5684ZM66.0653 22.5299V22.5298L66.0571 22.53C63.3878 22.5782 60.7414 23.0333 58.2093 23.8797L57.8993 23.9833V24.3102V29.2825V29.9664L58.5296 29.7008C60.7072 28.7827 63.0399 28.2881 65.4027 28.2433C66.8962 28.2439 67.9563 28.5742 68.6321 29.0848C69.2932 29.5842 69.627 30.2852 69.627 31.1453V31.31C68.2211 31.0307 66.7913 30.8866 65.3571 30.8799H65.355C63.3211 30.8799 61.0441 31.2807 59.2592 32.3647C57.4485 33.4643 56.1597 35.2623 56.1597 37.9659C56.1597 40.0714 57.0303 41.7231 58.4113 42.8391C59.781 43.946 61.6275 44.5074 63.5747 44.5083C66.1118 44.5576 68.5896 43.7701 70.6286 42.2752C71.6001 43.6486 73.1935 44.3054 75.1401 44.3055L75.1453 44.3054C76.2846 44.2924 77.4134 44.0871 78.4843 43.6983L78.7833 43.5897V43.2716V39.4953V38.8648L78.1853 39.0648C77.8893 39.1639 77.5786 39.2124 77.2664 39.2082C76.9327 39.1981 76.696 39.1287 76.5487 39.0123C76.4231 38.9131 76.2971 38.7281 76.2971 38.3138V31.9716C76.2971 28.6197 75.3141 26.2267 73.4838 24.6843C71.6686 23.1547 69.099 22.5299 66.0653 22.5299ZM65.6206 39.4764L65.6206 39.4763H65.6087C64.8128 39.4763 64.1377 39.2595 63.6732 38.9071C63.2178 38.5617 62.9531 38.0805 62.9531 37.4875C62.9531 36.6653 63.356 36.1195 64.0186 35.754C64.7054 35.3752 65.6623 35.2023 66.6756 35.2016C67.669 35.2276 68.6573 35.3491 69.627 35.5643V38.1037C68.5015 39.026 67.0798 39.5147 65.6206 39.4764ZM88.6046 25.1948V23.5637V23.1098H88.1507H83.077H82.623V23.5637V52.5566V53.0106H83.077H88.8393H89.2932V52.5566V42.3794C89.9966 42.9669 90.7871 43.4451 91.6383 43.796C92.8204 44.2833 94.0925 44.5138 95.3703 44.4721C98.6533 44.4701 101.204 43.1431 102.928 41.092C104.645 39.0483 105.522 36.309 105.522 33.4938C105.522 30.6787 104.647 27.9427 102.929 25.9025C101.204 23.8531 98.6486 22.5299 95.3555 22.5299C92.2093 22.5299 90.0185 23.7224 88.6046 25.1948ZM93.9493 38.7297L93.9479 38.7297C92.9444 38.7328 91.9612 38.4471 91.1156 37.9067C90.2974 37.3837 89.6415 36.6436 89.2207 35.7698V31.2467C89.6415 30.3729 90.2974 29.6328 91.1156 29.1098C91.9612 28.5694 92.9444 28.2836 93.9479 28.2868H93.9493C95.4594 28.2868 96.6399 28.8739 97.4485 29.8026C98.263 30.738 98.7214 32.0458 98.7214 33.5083C98.7214 34.9707 98.263 36.2785 97.4485 37.2139C96.6399 38.1426 95.4594 38.7297 93.9493 38.7297ZM108.7 23.1098L108.246 23.1096V23.5637V28.4127V28.8666H108.699H114.588V43.4528V43.9067H115.042H120.761H121.214V43.4528V28.8739H127.103H127.557V28.42V23.571V23.1172L127.103 23.117L108.7 23.1098Z" fill="#3290FF" stroke="#F5DEA6" stroke-width="0.907837"/>
<path d="M0.935562 23.5637V24.0182L1.39007 24.0176C2.97565 24.0156 4.49588 23.3858 5.6185 22.2661C6.74112 21.1464 7.37482 19.6279 7.38104 18.0423V18.0406V1.36963V0.915123L6.92653 0.915711C6.13677 0.916733 5.35499 1.07368 4.62603 1.37757C3.89707 1.68146 3.2353 2.12632 2.67868 2.68658C2.12206 3.24683 1.68154 3.91145 1.3824 4.64238C1.08342 5.37294 0.931593 6.15531 0.935562 6.94464V23.5637ZM10.1894 0.951899L9.73491 0.951311V1.40582L9.7349 18.0768L9.73491 18.0785C9.74113 19.6641 10.3748 21.1827 11.4974 22.3024C12.6201 23.4221 14.1403 24.0518 15.7259 24.0538L16.1804 24.0544V23.5999V6.98082C16.1844 6.19151 16.0325 5.40918 15.7335 4.67866C15.4344 3.94775 14.9939 3.28304 14.4373 2.72277C13.8806 2.1625 13.2189 1.71765 12.4899 1.41376C11.761 1.10987 10.9792 0.952921 10.1894 0.951899ZM19.141 0.951899L18.6865 0.951305V1.40582V23.5637V24.0194L19.1422 24.0176C20.7262 24.0115 22.2437 23.3805 23.3653 22.262C24.4868 21.1434 25.1216 19.6275 25.132 18.0435V18.0406V6.94348V6.94289C25.1299 5.35462 24.498 3.83197 23.375 2.70889C22.2519 1.58581 20.7293 0.953974 19.141 0.951899Z" fill="#3290FF" stroke="#F5DEA6" stroke-width="0.907837"/>
</svg>
